%TF.GenerationSoftware,KiCad,Pcbnew,7.0.1*%
%TF.CreationDate,2023-11-07T22:06:08+01:00*%
%TF.ProjectId,GasWeighter,47617357-6569-4676-9874-65722e6b6963,rev?*%
%TF.SameCoordinates,Original*%
%TF.FileFunction,Paste,Top*%
%TF.FilePolarity,Positive*%
%FSLAX46Y46*%
G04 Gerber Fmt 4.6, Leading zero omitted, Abs format (unit mm)*
G04 Created by KiCad (PCBNEW 7.0.1) date 2023-11-07 22:06:08*
%MOMM*%
%LPD*%
G01*
G04 APERTURE LIST*
G04 Aperture macros list*
%AMRoundRect*
0 Rectangle with rounded corners*
0 $1 Rounding radius*
0 $2 $3 $4 $5 $6 $7 $8 $9 X,Y pos of 4 corners*
0 Add a 4 corners polygon primitive as box body*
4,1,4,$2,$3,$4,$5,$6,$7,$8,$9,$2,$3,0*
0 Add four circle primitives for the rounded corners*
1,1,$1+$1,$2,$3*
1,1,$1+$1,$4,$5*
1,1,$1+$1,$6,$7*
1,1,$1+$1,$8,$9*
0 Add four rect primitives between the rounded corners*
20,1,$1+$1,$2,$3,$4,$5,0*
20,1,$1+$1,$4,$5,$6,$7,0*
20,1,$1+$1,$6,$7,$8,$9,0*
20,1,$1+$1,$8,$9,$2,$3,0*%
%AMFreePoly0*
4,1,6,0.450000,-0.800000,-0.450000,-0.800000,-0.450000,0.530000,-0.180000,0.800000,0.450000,0.800000,0.450000,-0.800000,0.450000,-0.800000,$1*%
G04 Aperture macros list end*
%ADD10R,1.160000X0.600000*%
%ADD11R,1.160000X0.300000*%
%ADD12RoundRect,0.250000X-0.250000X-0.475000X0.250000X-0.475000X0.250000X0.475000X-0.250000X0.475000X0*%
%ADD13RoundRect,0.237500X0.237500X-0.300000X0.237500X0.300000X-0.237500X0.300000X-0.237500X-0.300000X0*%
%ADD14RoundRect,0.250000X0.475000X-0.250000X0.475000X0.250000X-0.475000X0.250000X-0.475000X-0.250000X0*%
%ADD15RoundRect,0.250000X0.350000X0.450000X-0.350000X0.450000X-0.350000X-0.450000X0.350000X-0.450000X0*%
%ADD16RoundRect,0.250000X0.450000X-0.350000X0.450000X0.350000X-0.450000X0.350000X-0.450000X-0.350000X0*%
%ADD17RoundRect,0.150000X-0.150000X0.587500X-0.150000X-0.587500X0.150000X-0.587500X0.150000X0.587500X0*%
%ADD18RoundRect,0.243750X0.243750X0.456250X-0.243750X0.456250X-0.243750X-0.456250X0.243750X-0.456250X0*%
%ADD19RoundRect,0.250000X0.250000X0.475000X-0.250000X0.475000X-0.250000X-0.475000X0.250000X-0.475000X0*%
%ADD20RoundRect,0.250000X-0.450000X0.350000X-0.450000X-0.350000X0.450000X-0.350000X0.450000X0.350000X0*%
%ADD21R,0.250000X0.550000*%
%ADD22FreePoly0,270.000000*%
%ADD23RoundRect,0.150000X0.850000X0.150000X-0.850000X0.150000X-0.850000X-0.150000X0.850000X-0.150000X0*%
%ADD24RoundRect,0.275000X-0.400000X-0.275000X0.400000X-0.275000X0.400000X0.275000X-0.400000X0.275000X0*%
%ADD25RoundRect,0.250000X-0.350000X-0.450000X0.350000X-0.450000X0.350000X0.450000X-0.350000X0.450000X0*%
%ADD26RoundRect,0.062500X-0.375000X0.062500X-0.375000X-0.062500X0.375000X-0.062500X0.375000X0.062500X0*%
%ADD27RoundRect,0.062500X-0.062500X0.375000X-0.062500X-0.375000X0.062500X-0.375000X0.062500X0.375000X0*%
%ADD28RoundRect,0.160000X-0.160000X0.160000X-0.160000X-0.160000X0.160000X-0.160000X0.160000X0.160000X0*%
%ADD29RoundRect,0.150000X-0.825000X-0.150000X0.825000X-0.150000X0.825000X0.150000X-0.825000X0.150000X0*%
%ADD30RoundRect,0.237500X-0.300000X-0.237500X0.300000X-0.237500X0.300000X0.237500X-0.300000X0.237500X0*%
%ADD31RoundRect,0.150000X0.150000X-0.587500X0.150000X0.587500X-0.150000X0.587500X-0.150000X-0.587500X0*%
%ADD32R,0.650000X1.560000*%
%ADD33R,2.500000X1.000000*%
%ADD34R,1.000000X1.800000*%
%ADD35RoundRect,0.250000X-0.475000X0.250000X-0.475000X-0.250000X0.475000X-0.250000X0.475000X0.250000X0*%
%ADD36RoundRect,0.275000X0.275000X-0.400000X0.275000X0.400000X-0.275000X0.400000X-0.275000X-0.400000X0*%
G04 APERTURE END LIST*
D10*
%TO.C,P1*%
X106935000Y-77850000D03*
X106935000Y-78650000D03*
D11*
X106935000Y-79300000D03*
X106935000Y-80300000D03*
X106935000Y-81800000D03*
X106935000Y-82800000D03*
D10*
X106935000Y-83450000D03*
X106935000Y-84250000D03*
X106935000Y-84250000D03*
X106935000Y-83450000D03*
D11*
X106935000Y-82300000D03*
X106935000Y-81300000D03*
X106935000Y-80800000D03*
X106935000Y-79800000D03*
D10*
X106935000Y-78650000D03*
X106935000Y-77850000D03*
%TD*%
D12*
%TO.C,C13*%
X161792500Y-78287500D03*
X159892500Y-78287500D03*
%TD*%
D13*
%TO.C,C8*%
X117100000Y-60387500D03*
X117100000Y-62112500D03*
%TD*%
D14*
%TO.C,C2*%
X129750000Y-56050000D03*
X129750000Y-57950000D03*
%TD*%
D15*
%TO.C,R6*%
X152250000Y-65200000D03*
X154250000Y-65200000D03*
%TD*%
D16*
%TO.C,R16*%
X166750000Y-58750000D03*
X166750000Y-60750000D03*
%TD*%
D15*
%TO.C,R21*%
X117200000Y-58500000D03*
X119200000Y-58500000D03*
%TD*%
D17*
%TO.C,Q1*%
X126250000Y-72187500D03*
X125300000Y-70312500D03*
X127200000Y-70312500D03*
%TD*%
D18*
%TO.C,D1*%
X165112500Y-56800000D03*
X166987500Y-56800000D03*
%TD*%
D19*
%TO.C,C9*%
X123600000Y-62750000D03*
X125500000Y-62750000D03*
%TD*%
D20*
%TO.C,R5*%
X131800000Y-59200000D03*
X131800000Y-57200000D03*
%TD*%
D21*
%TO.C,U4*%
X122150000Y-90225000D03*
X121650000Y-90225000D03*
X121150000Y-90225000D03*
X120650000Y-90225000D03*
X120650000Y-87875000D03*
X121150000Y-87875000D03*
X121650000Y-87875000D03*
X122150000Y-87875000D03*
D22*
X121400000Y-89050000D03*
%TD*%
D20*
%TO.C,R13*%
X123950000Y-90200000D03*
X123950000Y-88200000D03*
%TD*%
D23*
%TO.C,U7*%
X150342500Y-91732500D03*
X150342500Y-90462500D03*
X150342500Y-89192500D03*
X150342500Y-87922500D03*
X150342500Y-86652500D03*
X150342500Y-85382500D03*
X150342500Y-84112500D03*
X150342500Y-82842500D03*
X155342500Y-82842500D03*
X155342500Y-84112500D03*
X155342500Y-85382500D03*
X155342500Y-86652500D03*
X155342500Y-87922500D03*
X155342500Y-89192500D03*
X155342500Y-90462500D03*
X155342500Y-91732500D03*
%TD*%
D18*
%TO.C,D4*%
X105862500Y-67600000D03*
X107737500Y-67600000D03*
%TD*%
D20*
%TO.C,R18*%
X126400000Y-56900000D03*
X126400000Y-54900000D03*
%TD*%
D24*
%TO.C,SW2*%
X166700000Y-64700000D03*
X162200000Y-64700000D03*
X166700000Y-62800000D03*
X162200000Y-62800000D03*
%TD*%
D25*
%TO.C,R4*%
X130050000Y-61450000D03*
X132050000Y-61450000D03*
%TD*%
D19*
%TO.C,C4*%
X116600000Y-71600000D03*
X118500000Y-71600000D03*
%TD*%
D14*
%TO.C,C10*%
X126300000Y-65950000D03*
X126300000Y-67850000D03*
%TD*%
D25*
%TO.C,R10*%
X111400000Y-88150000D03*
X113400000Y-88150000D03*
%TD*%
D26*
%TO.C,U6*%
X114637500Y-59100000D03*
X114637500Y-59600000D03*
X114637500Y-60100000D03*
X114637500Y-60600000D03*
D27*
X113950000Y-61287500D03*
X113450000Y-61287500D03*
X112950000Y-61287500D03*
X112450000Y-61287500D03*
D26*
X111762500Y-60600000D03*
X111762500Y-60100000D03*
X111762500Y-59600000D03*
X111762500Y-59100000D03*
D27*
X112450000Y-58412500D03*
X112950000Y-58412500D03*
X113450000Y-58412500D03*
X113950000Y-58412500D03*
D28*
X112800000Y-60250000D03*
X113600000Y-60250000D03*
X112800000Y-59450000D03*
X113600000Y-59450000D03*
%TD*%
D20*
%TO.C,R20*%
X114000000Y-65050000D03*
X114000000Y-63050000D03*
%TD*%
D14*
%TO.C,C1*%
X110500000Y-73750000D03*
X110500000Y-75650000D03*
%TD*%
D29*
%TO.C,U1*%
X118525000Y-73505000D03*
X118525000Y-74775000D03*
X118525000Y-76045000D03*
X118525000Y-77315000D03*
X118525000Y-78585000D03*
X118525000Y-79855000D03*
X118525000Y-81125000D03*
X118525000Y-82395000D03*
X113575000Y-82395000D03*
X113575000Y-81125000D03*
X113575000Y-79855000D03*
X113575000Y-78585000D03*
X113575000Y-77315000D03*
X113575000Y-76045000D03*
X113575000Y-74775000D03*
X113575000Y-73505000D03*
%TD*%
D30*
%TO.C,C12*%
X113762500Y-68250000D03*
X112037500Y-68250000D03*
%TD*%
D31*
%TO.C,Q2*%
X122750000Y-70250000D03*
X123700000Y-72125000D03*
X121800000Y-72125000D03*
%TD*%
D30*
%TO.C,C11*%
X113762500Y-66700000D03*
X112037500Y-66700000D03*
%TD*%
D25*
%TO.C,R11*%
X154300000Y-59250000D03*
X152300000Y-59250000D03*
%TD*%
%TO.C,R22*%
X110600000Y-56600000D03*
X108600000Y-56600000D03*
%TD*%
D18*
%TO.C,D3*%
X105662500Y-58800000D03*
X107537500Y-58800000D03*
%TD*%
D32*
%TO.C,U5*%
X124300000Y-67600000D03*
X122400000Y-67600000D03*
X122400000Y-64900000D03*
X123350000Y-64900000D03*
X124300000Y-64900000D03*
%TD*%
D25*
%TO.C,R26*%
X161792500Y-85737500D03*
X159792500Y-85737500D03*
%TD*%
D12*
%TO.C,C6*%
X122200000Y-92000000D03*
X120300000Y-92000000D03*
%TD*%
D16*
%TO.C,R1*%
X110500000Y-77450000D03*
X110500000Y-79450000D03*
%TD*%
%TO.C,R7*%
X152400000Y-71350000D03*
X152400000Y-73350000D03*
%TD*%
D18*
%TO.C,D2*%
X105912500Y-72950000D03*
X107787500Y-72950000D03*
%TD*%
D15*
%TO.C,R2*%
X152250000Y-67250000D03*
X154250000Y-67250000D03*
%TD*%
D31*
%TO.C,Q3*%
X158792500Y-89650000D03*
X159742500Y-91525000D03*
X157842500Y-91525000D03*
%TD*%
D20*
%TO.C,R14*%
X118850000Y-90100000D03*
X118850000Y-88100000D03*
%TD*%
D19*
%TO.C,C3*%
X116600000Y-69500000D03*
X118500000Y-69500000D03*
%TD*%
D20*
%TO.C,R17*%
X126400000Y-53050000D03*
X126400000Y-51050000D03*
%TD*%
%TO.C,R24*%
X121550000Y-61850000D03*
X121550000Y-59850000D03*
%TD*%
%TO.C,R9*%
X121800000Y-76650000D03*
X121800000Y-74650000D03*
%TD*%
D15*
%TO.C,R15*%
X161400000Y-56800000D03*
X163400000Y-56800000D03*
%TD*%
D25*
%TO.C,R12*%
X154300000Y-61250000D03*
X152300000Y-61250000D03*
%TD*%
D12*
%TO.C,C16*%
X155542500Y-93537500D03*
X153642500Y-93537500D03*
%TD*%
D15*
%TO.C,R3*%
X152250000Y-69300000D03*
X154250000Y-69300000D03*
%TD*%
D33*
%TO.C,U3*%
X149650000Y-57250000D03*
X149650000Y-59250000D03*
X149650000Y-61250000D03*
X149650000Y-63250000D03*
X149650000Y-65250000D03*
X149650000Y-67250000D03*
X149650000Y-69250000D03*
X149650000Y-71250000D03*
D34*
X147050000Y-72750000D03*
X145050000Y-72750000D03*
X143050000Y-72750000D03*
X141050000Y-72750000D03*
X139050000Y-72750000D03*
X137050000Y-72750000D03*
D33*
X134450000Y-71250000D03*
X134450000Y-69250000D03*
X134450000Y-67250000D03*
X134450000Y-65250000D03*
X134450000Y-63250000D03*
X134450000Y-61250000D03*
X134450000Y-59250000D03*
X134450000Y-57250000D03*
%TD*%
D14*
%TO.C,C5*%
X131950000Y-71450000D03*
X131950000Y-73350000D03*
%TD*%
D13*
%TO.C,C7*%
X118800000Y-60387500D03*
X118800000Y-62112500D03*
%TD*%
D35*
%TO.C,C15*%
X157892500Y-87037500D03*
X157892500Y-85137500D03*
%TD*%
D14*
%TO.C,C17*%
X147942500Y-90787500D03*
X147942500Y-92687500D03*
%TD*%
D20*
%TO.C,R25*%
X161692500Y-89687500D03*
X161692500Y-87687500D03*
%TD*%
D16*
%TO.C,R8*%
X124200000Y-76200000D03*
X124200000Y-78200000D03*
%TD*%
D25*
%TO.C,R23*%
X119200000Y-56500000D03*
X117200000Y-56500000D03*
%TD*%
D15*
%TO.C,R19*%
X161400000Y-59050000D03*
X163400000Y-59050000D03*
%TD*%
D19*
%TO.C,C14*%
X159792500Y-83687500D03*
X161692500Y-83687500D03*
%TD*%
D36*
%TO.C,SW1*%
X154450000Y-50400000D03*
X154450000Y-54900000D03*
X152550000Y-50400000D03*
X152550000Y-54900000D03*
%TD*%
M02*
