%TF.GenerationSoftware,KiCad,Pcbnew,7.0.1*%
%TF.CreationDate,2023-11-07T22:06:08+01:00*%
%TF.ProjectId,GasWeighter,47617357-6569-4676-9874-65722e6b6963,rev?*%
%TF.SameCoordinates,Original*%
%TF.FileFunction,Copper,L2,Bot*%
%TF.FilePolarity,Positive*%
%FSLAX46Y46*%
G04 Gerber Fmt 4.6, Leading zero omitted, Abs format (unit mm)*
G04 Created by KiCad (PCBNEW 7.0.1) date 2023-11-07 22:06:08*
%MOMM*%
%LPD*%
G01*
G04 APERTURE LIST*
G04 Aperture macros list*
%AMRoundRect*
0 Rectangle with rounded corners*
0 $1 Rounding radius*
0 $2 $3 $4 $5 $6 $7 $8 $9 X,Y pos of 4 corners*
0 Add a 4 corners polygon primitive as box body*
4,1,4,$2,$3,$4,$5,$6,$7,$8,$9,$2,$3,0*
0 Add four circle primitives for the rounded corners*
1,1,$1+$1,$2,$3*
1,1,$1+$1,$4,$5*
1,1,$1+$1,$6,$7*
1,1,$1+$1,$8,$9*
0 Add four rect primitives between the rounded corners*
20,1,$1+$1,$2,$3,$4,$5,0*
20,1,$1+$1,$4,$5,$6,$7,0*
20,1,$1+$1,$6,$7,$8,$9,0*
20,1,$1+$1,$8,$9,$2,$3,0*%
G04 Aperture macros list end*
%TA.AperFunction,ComponentPad*%
%ADD10RoundRect,0.250000X0.625000X-0.350000X0.625000X0.350000X-0.625000X0.350000X-0.625000X-0.350000X0*%
%TD*%
%TA.AperFunction,ComponentPad*%
%ADD11O,1.750000X1.200000*%
%TD*%
%TA.AperFunction,ComponentPad*%
%ADD12O,2.200000X1.000000*%
%TD*%
%TA.AperFunction,ComponentPad*%
%ADD13O,1.200000X1.750000*%
%TD*%
%TA.AperFunction,ComponentPad*%
%ADD14RoundRect,0.250000X-0.350000X-0.625000X0.350000X-0.625000X0.350000X0.625000X-0.350000X0.625000X0*%
%TD*%
%TA.AperFunction,ComponentPad*%
%ADD15RoundRect,0.250000X0.350000X0.625000X-0.350000X0.625000X-0.350000X-0.625000X0.350000X-0.625000X0*%
%TD*%
%TA.AperFunction,ComponentPad*%
%ADD16O,1.700000X1.700000*%
%TD*%
%TA.AperFunction,ComponentPad*%
%ADD17R,1.700000X1.700000*%
%TD*%
%TA.AperFunction,ComponentPad*%
%ADD18R,1.050000X1.500000*%
%TD*%
%TA.AperFunction,ComponentPad*%
%ADD19O,1.050000X1.500000*%
%TD*%
%TA.AperFunction,ComponentPad*%
%ADD20RoundRect,0.250000X-0.625000X0.350000X-0.625000X-0.350000X0.625000X-0.350000X0.625000X0.350000X0*%
%TD*%
%TA.AperFunction,ViaPad*%
%ADD21C,0.800000*%
%TD*%
%TA.AperFunction,Conductor*%
%ADD22C,0.250000*%
%TD*%
%TA.AperFunction,Conductor*%
%ADD23C,0.200000*%
%TD*%
G04 APERTURE END LIST*
D10*
%TO.P,J2,1,Pin_1*%
%TO.N,GND*%
X101550000Y-62350000D03*
D11*
%TO.P,J2,2,Pin_2*%
%TO.N,VDC*%
X101550000Y-60350000D03*
%TD*%
D12*
%TO.P,P1,S1,SHIELD*%
%TO.N,GND*%
X101425000Y-86774981D03*
X105492692Y-86765000D03*
X101217000Y-75335000D03*
X105492692Y-75317635D03*
%TD*%
D13*
%TO.P,J12,2,Pin_2*%
%TO.N,GND*%
X119050000Y-52000000D03*
D14*
%TO.P,J12,1,Pin_1*%
%TO.N,Net-(J12-Pin_1)*%
X117050000Y-52000000D03*
%TD*%
D13*
%TO.P,J9,3,Pin_3*%
%TO.N,/E+*%
X138900000Y-92450000D03*
%TO.P,J9,2,Pin_2*%
%TO.N,Net-(J8-Pin_2)*%
X140900000Y-92450000D03*
D15*
%TO.P,J9,1,Pin_1*%
%TO.N,Net-(J7-Pin_1)*%
X142900000Y-92450000D03*
%TD*%
D13*
%TO.P,J7,3,Pin_3*%
%TO.N,/A-*%
X138900000Y-86800000D03*
%TO.P,J7,2,Pin_2*%
%TO.N,Net-(J6-Pin_2)*%
X140900000Y-86800000D03*
D15*
%TO.P,J7,1,Pin_1*%
%TO.N,Net-(J7-Pin_1)*%
X142900000Y-86800000D03*
%TD*%
D16*
%TO.P,J11,6,Pin_6*%
%TO.N,+3.3V*%
X158550000Y-51350000D03*
%TO.P,J11,5,Pin_5*%
%TO.N,/MCU/RX*%
X158550000Y-53890000D03*
%TO.P,J11,4,Pin_4*%
%TO.N,/MCU/TX*%
X158550000Y-56430000D03*
%TO.P,J11,3,Pin_3*%
%TO.N,/MCU/nRST*%
X158550000Y-58970000D03*
%TO.P,J11,2,Pin_2*%
%TO.N,/MCU/GPIO0*%
X158550000Y-61510000D03*
D17*
%TO.P,J11,1,Pin_1*%
%TO.N,GND*%
X158550000Y-64050000D03*
%TD*%
D18*
%TO.P,U2,1,GND*%
%TO.N,GND*%
X110300000Y-91900000D03*
D19*
%TO.P,U2,2,DQ*%
%TO.N,/MCU/1-Wire*%
X111570000Y-91900000D03*
%TO.P,U2,3,V_{DD}*%
%TO.N,+3.3V*%
X112840000Y-91900000D03*
%TD*%
D13*
%TO.P,J6,3,Pin_3*%
%TO.N,GND*%
X129900000Y-86800000D03*
%TO.P,J6,2,Pin_2*%
%TO.N,Net-(J6-Pin_2)*%
X131900000Y-86800000D03*
D15*
%TO.P,J6,1,Pin_1*%
%TO.N,Net-(J6-Pin_1)*%
X133900000Y-86800000D03*
%TD*%
D13*
%TO.P,J1,2,Pin_2*%
%TO.N,VBatt*%
X111950000Y-52000000D03*
D14*
%TO.P,J1,1,Pin_1*%
%TO.N,GND*%
X109950000Y-52000000D03*
%TD*%
D11*
%TO.P,J10,4,Pin_4*%
%TO.N,GND*%
X165992500Y-84437500D03*
%TO.P,J10,3,Pin_3*%
%TO.N,/A-*%
X165992500Y-82437500D03*
%TO.P,J10,2,Pin_2*%
%TO.N,/A+*%
X165992500Y-80437500D03*
D20*
%TO.P,J10,1,Pin_1*%
%TO.N,/E+*%
X165992500Y-78437500D03*
%TD*%
D10*
%TO.P,J3,1,Pin_1*%
%TO.N,GND*%
X101550000Y-69950000D03*
D11*
%TO.P,J3,2,Pin_2*%
%TO.N,VAA*%
X101550000Y-67950000D03*
%TD*%
D15*
%TO.P,J8,1,Pin_1*%
%TO.N,Net-(J6-Pin_1)*%
X133900000Y-92450000D03*
D13*
%TO.P,J8,2,Pin_2*%
%TO.N,Net-(J8-Pin_2)*%
X131900000Y-92450000D03*
%TO.P,J8,3,Pin_3*%
%TO.N,/A+*%
X129900000Y-92450000D03*
%TD*%
D21*
%TO.N,GND*%
X110500000Y-73750000D03*
X109000000Y-75700000D03*
X111950000Y-75400000D03*
X115800000Y-73650000D03*
%TO.N,VCC*%
X149450000Y-76500000D03*
X140900000Y-70150000D03*
%TO.N,+3.3V*%
X130300000Y-63100000D03*
X126350000Y-67850000D03*
%TO.N,GND*%
X111500000Y-61600000D03*
%TO.N,Net-(D2-K)*%
X117100000Y-62150000D03*
X107537500Y-58800000D03*
%TO.N,GND*%
X106300000Y-61050000D03*
X115650000Y-62350000D03*
X109650000Y-58050000D03*
X109700000Y-59950000D03*
X113200000Y-59850000D03*
X121450000Y-63450000D03*
X158200000Y-80000000D03*
X158550000Y-83900000D03*
%TO.N,/MCU/GPIO0*%
X139150000Y-65000000D03*
X128850000Y-71300000D03*
%TO.N,/MCU/SDA*%
X146750000Y-63175500D03*
%TO.N,/MCU/SCL*%
X143000000Y-64000000D03*
%TO.N,/MCU/SDA*%
X122150000Y-86350000D03*
%TO.N,/MCU/SCL*%
X120600000Y-86200000D03*
%TO.N,/MCU/1-Wire*%
X136600000Y-65300000D03*
%TO.N,/MCU/nRST*%
X136800000Y-61850000D03*
X127750000Y-72200000D03*
%TO.N,+3.3V*%
X157700000Y-67250000D03*
X144150000Y-70900000D03*
%TO.N,/MCU/GPIO16*%
X136650000Y-63150000D03*
X167200000Y-55600000D03*
%TO.N,+3.3V*%
X131800000Y-55850000D03*
%TO.N,/MCU/TX*%
X155700000Y-61050000D03*
%TO.N,/MCU/RX*%
X155450000Y-58550000D03*
X115000000Y-76050000D03*
%TO.N,/MCU/TX*%
X115100000Y-74650000D03*
%TO.N,/MCU/nRST*%
X136750000Y-57250000D03*
%TD*%
D22*
%TO.N,/E+*%
X153180000Y-91250000D02*
X165992500Y-78437500D01*
X140100000Y-91250000D02*
X153180000Y-91250000D01*
X138900000Y-92450000D02*
X140100000Y-91250000D01*
D23*
%TO.N,/A+*%
X153730000Y-92700000D02*
X153990000Y-92440000D01*
X145997792Y-92700000D02*
X153730000Y-92700000D01*
X144597792Y-94100000D02*
X145997792Y-92700000D01*
X129900000Y-92450000D02*
X131550000Y-94100000D01*
X131550000Y-94100000D02*
X144597792Y-94100000D01*
D22*
%TO.N,VCC*%
X147250000Y-76500000D02*
X149450000Y-76500000D01*
X140900000Y-70150000D02*
X147250000Y-76500000D01*
%TO.N,/MCU/SCL*%
X120800000Y-86200000D02*
X143000000Y-64000000D01*
X120600000Y-86200000D02*
X120800000Y-86200000D01*
%TO.N,+3.3V*%
X130300000Y-63100000D02*
X130250000Y-63200000D01*
X130250000Y-63950000D02*
X130300000Y-63100000D01*
X126350000Y-67850000D02*
X130250000Y-63950000D01*
%TO.N,Net-(D2-K)*%
X109600000Y-58800000D02*
X107537500Y-58800000D01*
X111375000Y-60575000D02*
X109600000Y-58800000D01*
X113525305Y-60550000D02*
X113500305Y-60575000D01*
X113500305Y-60575000D02*
X111375000Y-60575000D01*
X117100000Y-62150000D02*
X115500000Y-60550000D01*
X115500000Y-60550000D02*
X113525305Y-60550000D01*
%TO.N,/MCU/nRST*%
X136800000Y-62250000D02*
X136800000Y-61850000D01*
X136625000Y-62425000D02*
X136800000Y-62250000D01*
X135925000Y-62849695D02*
X136349695Y-62425000D01*
X135925000Y-63125000D02*
X135925000Y-62849695D01*
X127750000Y-71300000D02*
X135925000Y-63125000D01*
X127750000Y-72200000D02*
X127750000Y-71300000D01*
X136349695Y-62425000D02*
X136625000Y-62425000D01*
%TO.N,/MCU/GPIO0*%
X138725000Y-64575000D02*
X139150000Y-65000000D01*
X135575000Y-64575000D02*
X138725000Y-64575000D01*
X128850000Y-71300000D02*
X135575000Y-64575000D01*
%TO.N,/MCU/SDA*%
X145324500Y-63175500D02*
X146750000Y-63175500D01*
X122150000Y-86350000D02*
X145324500Y-63175500D01*
X146674500Y-63175500D02*
X146650000Y-63200000D01*
X146750000Y-63175500D02*
X146674500Y-63175500D01*
%TO.N,/MCU/GPIO16*%
X162655000Y-60145000D02*
X167200000Y-55600000D01*
X158253299Y-60145000D02*
X162655000Y-60145000D01*
X156198299Y-62200000D02*
X158253299Y-60145000D01*
X136650000Y-63150000D02*
X137600000Y-62200000D01*
X137600000Y-62200000D02*
X156198299Y-62200000D01*
%TO.N,/MCU/1-Wire*%
X111570000Y-89880000D02*
X136150000Y-65300000D01*
X136150000Y-65300000D02*
X136600000Y-65300000D01*
X111570000Y-91900000D02*
X111570000Y-89880000D01*
%TO.N,+3.3V*%
X154050000Y-70900000D02*
X157700000Y-67250000D01*
X144150000Y-70900000D02*
X154050000Y-70900000D01*
%TO.N,/MCU/1-Wire*%
X136600000Y-65300000D02*
X136550000Y-65300000D01*
%TO.N,/MCU/nRST*%
X136800000Y-61850000D02*
X136750000Y-61900000D01*
%TO.N,+3.3V*%
X153825000Y-56075000D02*
X158550000Y-51350000D01*
X132025000Y-56075000D02*
X153825000Y-56075000D01*
X131800000Y-55850000D02*
X132025000Y-56075000D01*
D23*
%TO.N,/A-*%
X167167500Y-81262500D02*
X165992500Y-82437500D01*
X167167500Y-77859683D02*
X167167500Y-81262500D01*
X166845317Y-77537500D02*
X167167500Y-77859683D01*
X148162500Y-77537500D02*
X166845317Y-77537500D01*
X138900000Y-86800000D02*
X148162500Y-77537500D01*
%TO.N,/A+*%
X153905000Y-92525000D02*
X165992500Y-80437500D01*
D22*
%TO.N,/MCU/TX*%
X114275000Y-76350305D02*
X114275000Y-75475000D01*
X114699695Y-76775000D02*
X114275000Y-76350305D01*
X114275000Y-75475000D02*
X115100000Y-74650000D01*
X131075305Y-61000000D02*
X115300305Y-76775000D01*
X115300305Y-76775000D02*
X114699695Y-76775000D01*
X155650000Y-61000000D02*
X131075305Y-61000000D01*
X155700000Y-61050000D02*
X155650000Y-61000000D01*
%TO.N,/MCU/RX*%
X155450000Y-58550000D02*
X155450000Y-58600000D01*
X132450000Y-58600000D02*
X155450000Y-58550000D01*
X115000000Y-76050000D02*
X132450000Y-58600000D01*
%TO.N,/MCU/nRST*%
X136750000Y-57250000D02*
X156830000Y-57250000D01*
X156830000Y-57250000D02*
X158550000Y-58970000D01*
%TD*%
%TA.AperFunction,Conductor*%
%TO.N,GND*%
G36*
X133737500Y-49417113D02*
G01*
X133782887Y-49462500D01*
X133799500Y-49524500D01*
X133799500Y-55625500D01*
X133782887Y-55687500D01*
X133737500Y-55732887D01*
X133675500Y-55749500D01*
X132491202Y-55749500D01*
X132443749Y-55740061D01*
X132403520Y-55713181D01*
X132376641Y-55672952D01*
X132374514Y-55667818D01*
X132324536Y-55547159D01*
X132253643Y-55454769D01*
X132228282Y-55421717D01*
X132102840Y-55325463D01*
X131956762Y-55264956D01*
X131800000Y-55244317D01*
X131643237Y-55264956D01*
X131497159Y-55325463D01*
X131371717Y-55421717D01*
X131275463Y-55547159D01*
X131214956Y-55693237D01*
X131194317Y-55850000D01*
X131214956Y-56006762D01*
X131275463Y-56152840D01*
X131371717Y-56278282D01*
X131497158Y-56374535D01*
X131497159Y-56374536D01*
X131643238Y-56435044D01*
X131800000Y-56455682D01*
X131956762Y-56435044D01*
X131968939Y-56430000D01*
X157494417Y-56430000D01*
X157514699Y-56635932D01*
X157541858Y-56725463D01*
X157574768Y-56833954D01*
X157672315Y-57016450D01*
X157686486Y-57033717D01*
X157803589Y-57176410D01*
X157883570Y-57242047D01*
X157963550Y-57307685D01*
X158146046Y-57405232D01*
X158344066Y-57465300D01*
X158550000Y-57485583D01*
X158755934Y-57465300D01*
X158953954Y-57405232D01*
X159136450Y-57307685D01*
X159296410Y-57176410D01*
X159427685Y-57016450D01*
X159525232Y-56833954D01*
X159585300Y-56635934D01*
X159605583Y-56430000D01*
X159585300Y-56224066D01*
X159525232Y-56026046D01*
X159427685Y-55843550D01*
X159350501Y-55749500D01*
X159296410Y-55683589D01*
X159194553Y-55599999D01*
X159136450Y-55552315D01*
X158953954Y-55454768D01*
X158854944Y-55424734D01*
X158755932Y-55394699D01*
X158550000Y-55374417D01*
X158344067Y-55394699D01*
X158146043Y-55454769D01*
X157963551Y-55552314D01*
X157803589Y-55683589D01*
X157672314Y-55843551D01*
X157574769Y-56026043D01*
X157514699Y-56224067D01*
X157494417Y-56430000D01*
X131968939Y-56430000D01*
X132017370Y-56409938D01*
X132064823Y-56400500D01*
X136710108Y-56400500D01*
X136750000Y-56410723D01*
X136789892Y-56400500D01*
X153805373Y-56400500D01*
X153816180Y-56400971D01*
X153853807Y-56404264D01*
X153890324Y-56394478D01*
X153900830Y-56392149D01*
X153938045Y-56385588D01*
X153938047Y-56385586D01*
X153939112Y-56385399D01*
X153963799Y-56375173D01*
X153964682Y-56374554D01*
X153964684Y-56374554D01*
X153995625Y-56352887D01*
X154004722Y-56347091D01*
X154037455Y-56328194D01*
X154061748Y-56299241D01*
X154069036Y-56291288D01*
X156470325Y-53889999D01*
X157494417Y-53889999D01*
X157514699Y-54095932D01*
X157515157Y-54097441D01*
X157574768Y-54293954D01*
X157672315Y-54476450D01*
X157723609Y-54538952D01*
X157803589Y-54636410D01*
X157883569Y-54702047D01*
X157963550Y-54767685D01*
X158146046Y-54865232D01*
X158344066Y-54925300D01*
X158550000Y-54945583D01*
X158755934Y-54925300D01*
X158953954Y-54865232D01*
X159136450Y-54767685D01*
X159296410Y-54636410D01*
X159427685Y-54476450D01*
X159525232Y-54293954D01*
X159585300Y-54095934D01*
X159605583Y-53890000D01*
X159585300Y-53684066D01*
X159525232Y-53486046D01*
X159427685Y-53303550D01*
X159362047Y-53223570D01*
X159296410Y-53143589D01*
X159195003Y-53060368D01*
X159136450Y-53012315D01*
X158953954Y-52914768D01*
X158796776Y-52867089D01*
X158755932Y-52854699D01*
X158550000Y-52834417D01*
X158344067Y-52854699D01*
X158146043Y-52914769D01*
X157963551Y-53012314D01*
X157803589Y-53143589D01*
X157672314Y-53303551D01*
X157574769Y-53486043D01*
X157514699Y-53684067D01*
X157494417Y-53889999D01*
X156470325Y-53889999D01*
X157792560Y-52567764D01*
X163845787Y-52567764D01*
X163875413Y-52837016D01*
X163898848Y-52926655D01*
X163943928Y-53099088D01*
X164049870Y-53348390D01*
X164049871Y-53348392D01*
X164190982Y-53579611D01*
X164321863Y-53736881D01*
X164364255Y-53787820D01*
X164565998Y-53968582D01*
X164791910Y-54118044D01*
X164898211Y-54167876D01*
X165037177Y-54233021D01*
X165296562Y-54311058D01*
X165296569Y-54311060D01*
X165564561Y-54350500D01*
X165767631Y-54350500D01*
X165767634Y-54350500D01*
X165970156Y-54335677D01*
X165970156Y-54335676D01*
X166234553Y-54276780D01*
X166487558Y-54180014D01*
X166723777Y-54047441D01*
X166938177Y-53881888D01*
X167126186Y-53686881D01*
X167283799Y-53466579D01*
X167407656Y-53225675D01*
X167495118Y-52969305D01*
X167544319Y-52702933D01*
X167554212Y-52432235D01*
X167524586Y-52162982D01*
X167456072Y-51900912D01*
X167350130Y-51651610D01*
X167239533Y-51470390D01*
X167209017Y-51420388D01*
X167035746Y-51212181D01*
X166930758Y-51118112D01*
X166834002Y-51031418D01*
X166608090Y-50881956D01*
X166582556Y-50869986D01*
X166362822Y-50766978D01*
X166103437Y-50688941D01*
X166103431Y-50688940D01*
X165835439Y-50649500D01*
X165632369Y-50649500D01*
X165632366Y-50649500D01*
X165429843Y-50664322D01*
X165165449Y-50723219D01*
X164912441Y-50819986D01*
X164676223Y-50952559D01*
X164461825Y-51118109D01*
X164273813Y-51313120D01*
X164116201Y-51533420D01*
X163992342Y-51774329D01*
X163904881Y-52030695D01*
X163855680Y-52297066D01*
X163845787Y-52567764D01*
X157792560Y-52567764D01*
X158008714Y-52351610D01*
X158052721Y-52323238D01*
X158104519Y-52315560D01*
X158133688Y-52323894D01*
X158134359Y-52321686D01*
X158146042Y-52325230D01*
X158146046Y-52325232D01*
X158344066Y-52385300D01*
X158550000Y-52405583D01*
X158755934Y-52385300D01*
X158953954Y-52325232D01*
X159136450Y-52227685D01*
X159296410Y-52096410D01*
X159427685Y-51936450D01*
X159525232Y-51753954D01*
X159585300Y-51555934D01*
X159605583Y-51350000D01*
X159585300Y-51144066D01*
X159525232Y-50946046D01*
X159427685Y-50763550D01*
X159323778Y-50636938D01*
X159296410Y-50603589D01*
X159181313Y-50509133D01*
X159136450Y-50472315D01*
X158953954Y-50374768D01*
X158847701Y-50342537D01*
X158755932Y-50314699D01*
X158550000Y-50294417D01*
X158344067Y-50314699D01*
X158146043Y-50374769D01*
X157963551Y-50472314D01*
X157803589Y-50603589D01*
X157672314Y-50763551D01*
X157574769Y-50946043D01*
X157514699Y-51144067D01*
X157494417Y-51349999D01*
X157514699Y-51555932D01*
X157578313Y-51765641D01*
X157576105Y-51766310D01*
X157584439Y-51795496D01*
X157576757Y-51847285D01*
X157548386Y-51891287D01*
X153726493Y-55713181D01*
X153686265Y-55740061D01*
X153638812Y-55749500D01*
X150324500Y-55749500D01*
X150262500Y-55732887D01*
X150217113Y-55687500D01*
X150200500Y-55625500D01*
X150200500Y-49524500D01*
X150217113Y-49462500D01*
X150262500Y-49417113D01*
X150324500Y-49400500D01*
X165796755Y-49400500D01*
X165803243Y-49400669D01*
X165933379Y-49407490D01*
X166113908Y-49417628D01*
X166126309Y-49418955D01*
X166274990Y-49442504D01*
X166276245Y-49442709D01*
X166435324Y-49469738D01*
X166446606Y-49472202D01*
X166595635Y-49512134D01*
X166597761Y-49512725D01*
X166749174Y-49556347D01*
X166759260Y-49559729D01*
X166904726Y-49615568D01*
X166907536Y-49616688D01*
X167051777Y-49676435D01*
X167060595Y-49680501D01*
X167143741Y-49722866D01*
X167200040Y-49751552D01*
X167203726Y-49753509D01*
X167339561Y-49828582D01*
X167347082Y-49833094D01*
X167478738Y-49918593D01*
X167482936Y-49921445D01*
X167609157Y-50011004D01*
X167615437Y-50015767D01*
X167737556Y-50114656D01*
X167742148Y-50118562D01*
X167857424Y-50221579D01*
X167862478Y-50226358D01*
X167973640Y-50337520D01*
X167978419Y-50342574D01*
X168081436Y-50457850D01*
X168085342Y-50462442D01*
X168184231Y-50584561D01*
X168188994Y-50590841D01*
X168278553Y-50717062D01*
X168281419Y-50721281D01*
X168343565Y-50816978D01*
X168366890Y-50852894D01*
X168371423Y-50860449D01*
X168446489Y-50996272D01*
X168448446Y-50999958D01*
X168519494Y-51139396D01*
X168523570Y-51148237D01*
X168547142Y-51205144D01*
X168583279Y-51292386D01*
X168584467Y-51295365D01*
X168640265Y-51440727D01*
X168643655Y-51450836D01*
X168687258Y-51602185D01*
X168687879Y-51604419D01*
X168727791Y-51753370D01*
X168730264Y-51764694D01*
X168757282Y-51923715D01*
X168757507Y-51925087D01*
X168781040Y-52073666D01*
X168782372Y-52086111D01*
X168792498Y-52266421D01*
X168792523Y-52266884D01*
X168799330Y-52396757D01*
X168799500Y-52403247D01*
X168799500Y-72308247D01*
X168756710Y-92269462D01*
X168754958Y-92289967D01*
X168730264Y-92435306D01*
X168727791Y-92446629D01*
X168687879Y-92595579D01*
X168687258Y-92597813D01*
X168643655Y-92749162D01*
X168640265Y-92759271D01*
X168584467Y-92904633D01*
X168583264Y-92907650D01*
X168523570Y-93051761D01*
X168519494Y-93060602D01*
X168448446Y-93200040D01*
X168446489Y-93203726D01*
X168371423Y-93339549D01*
X168366890Y-93347104D01*
X168281419Y-93478717D01*
X168278553Y-93482936D01*
X168188994Y-93609157D01*
X168184231Y-93615437D01*
X168085342Y-93737556D01*
X168081436Y-93742148D01*
X167978419Y-93857424D01*
X167973640Y-93862478D01*
X167862478Y-93973640D01*
X167857424Y-93978419D01*
X167742148Y-94081436D01*
X167737556Y-94085342D01*
X167615437Y-94184231D01*
X167609157Y-94188994D01*
X167482936Y-94278553D01*
X167478717Y-94281419D01*
X167347104Y-94366890D01*
X167339549Y-94371423D01*
X167203726Y-94446489D01*
X167200040Y-94448446D01*
X167060602Y-94519494D01*
X167051761Y-94523570D01*
X166907650Y-94583264D01*
X166904633Y-94584467D01*
X166759271Y-94640265D01*
X166749162Y-94643655D01*
X166597813Y-94687258D01*
X166595579Y-94687879D01*
X166446628Y-94727791D01*
X166435304Y-94730264D01*
X166276283Y-94757282D01*
X166274911Y-94757507D01*
X166126332Y-94781040D01*
X166113887Y-94782372D01*
X165933577Y-94792498D01*
X165933114Y-94792523D01*
X165803243Y-94799330D01*
X165796753Y-94799500D01*
X102303246Y-94799500D01*
X102296756Y-94799330D01*
X102166990Y-94792529D01*
X102166527Y-94792504D01*
X101986102Y-94782371D01*
X101973657Y-94781039D01*
X101825174Y-94757521D01*
X101823802Y-94757296D01*
X101664683Y-94730261D01*
X101653359Y-94727788D01*
X101504434Y-94687883D01*
X101502201Y-94687262D01*
X101350839Y-94643656D01*
X101340729Y-94640266D01*
X101195365Y-94584467D01*
X101192386Y-94583279D01*
X101105144Y-94547142D01*
X101048237Y-94523570D01*
X101039396Y-94519494D01*
X100899958Y-94448446D01*
X100896272Y-94446489D01*
X100760449Y-94371423D01*
X100752901Y-94366894D01*
X100621281Y-94281419D01*
X100617062Y-94278553D01*
X100490841Y-94188994D01*
X100484561Y-94184231D01*
X100362442Y-94085342D01*
X100357850Y-94081436D01*
X100242574Y-93978419D01*
X100237520Y-93973640D01*
X100126358Y-93862478D01*
X100121579Y-93857424D01*
X100037358Y-93763181D01*
X100018557Y-93742142D01*
X100014656Y-93737556D01*
X99944983Y-93651516D01*
X116245536Y-93651516D01*
X116269855Y-93752028D01*
X116324044Y-93840105D01*
X116402798Y-93907127D01*
X116498408Y-93946532D01*
X116528271Y-93948828D01*
X116534820Y-93950500D01*
X116545249Y-93950500D01*
X116554682Y-93950859D01*
X116582399Y-93952973D01*
X116596251Y-93950500D01*
X116897173Y-93950500D01*
X116902824Y-93950628D01*
X116907866Y-93950859D01*
X116946720Y-93952632D01*
X116946720Y-93952631D01*
X116946722Y-93952632D01*
X117037848Y-93931306D01*
X117119634Y-93885811D01*
X117185811Y-93819634D01*
X117231306Y-93737848D01*
X117252632Y-93646722D01*
X117250628Y-93602824D01*
X117250500Y-93597173D01*
X117250500Y-87265252D01*
X117255095Y-87231809D01*
X117276201Y-87156462D01*
X117289758Y-87125320D01*
X117298912Y-87110323D01*
X117307216Y-87098363D01*
X117341060Y-87055275D01*
X117357861Y-87037739D01*
X117373740Y-87024129D01*
X117393636Y-87010210D01*
X117441391Y-86983354D01*
X117454489Y-86976972D01*
X117470703Y-86970223D01*
X117503554Y-86961587D01*
X117585155Y-86951783D01*
X117589669Y-86951327D01*
X117590096Y-86951292D01*
X117609648Y-86951237D01*
X117632401Y-86952973D01*
X117646251Y-86950500D01*
X118895222Y-86950500D01*
X118904732Y-86950865D01*
X118907071Y-86951044D01*
X118951516Y-86954464D01*
X119052028Y-86930145D01*
X119140105Y-86875956D01*
X119207127Y-86797202D01*
X119246532Y-86701592D01*
X119248733Y-86672973D01*
X119250500Y-86666321D01*
X119250500Y-86654751D01*
X119250859Y-86645318D01*
X119252973Y-86617600D01*
X119250500Y-86603749D01*
X119250500Y-86304778D01*
X119250865Y-86295268D01*
X119251872Y-86282180D01*
X119254464Y-86248484D01*
X119230145Y-86147972D01*
X119175956Y-86059895D01*
X119165319Y-86050843D01*
X119097202Y-85992873D01*
X119084071Y-85987461D01*
X119001592Y-85953468D01*
X119001591Y-85953467D01*
X119001589Y-85953467D01*
X118970178Y-85951050D01*
X118963778Y-85949500D01*
X118954751Y-85949500D01*
X118945318Y-85949141D01*
X118917600Y-85947026D01*
X118903749Y-85949500D01*
X116602827Y-85949500D01*
X116597175Y-85949371D01*
X116595530Y-85949295D01*
X116553279Y-85947367D01*
X116462152Y-85968694D01*
X116380364Y-86014190D01*
X116314190Y-86080364D01*
X116268694Y-86162152D01*
X116247367Y-86253279D01*
X116249371Y-86297174D01*
X116249500Y-86302827D01*
X116249500Y-93595222D01*
X116249135Y-93604732D01*
X116248312Y-93615437D01*
X116245536Y-93651516D01*
X99944983Y-93651516D01*
X99915767Y-93615437D01*
X99911004Y-93609157D01*
X99821445Y-93482936D01*
X99818593Y-93478738D01*
X99733089Y-93347074D01*
X99728575Y-93339549D01*
X99653504Y-93203718D01*
X99651548Y-93200033D01*
X99633223Y-93164068D01*
X99580491Y-93060576D01*
X99576436Y-93051781D01*
X99516714Y-92907599D01*
X99515562Y-92904710D01*
X99459729Y-92759260D01*
X99456347Y-92749174D01*
X99412725Y-92597761D01*
X99412134Y-92595635D01*
X99372202Y-92446606D01*
X99369738Y-92435324D01*
X99342709Y-92276245D01*
X99342491Y-92274911D01*
X99318955Y-92126309D01*
X99317628Y-92113908D01*
X99307484Y-91933275D01*
X99300669Y-91803243D01*
X99300500Y-91796755D01*
X99300500Y-91767764D01*
X100517107Y-91767764D01*
X100546733Y-92037016D01*
X100576271Y-92150000D01*
X100615248Y-92299088D01*
X100691554Y-92478650D01*
X100721191Y-92548392D01*
X100862302Y-92779611D01*
X101035573Y-92987818D01*
X101035575Y-92987820D01*
X101237318Y-93168582D01*
X101463230Y-93318044D01*
X101525221Y-93347104D01*
X101708497Y-93433021D01*
X101947171Y-93504827D01*
X101967889Y-93511060D01*
X102235881Y-93550500D01*
X102438951Y-93550500D01*
X102438954Y-93550500D01*
X102641476Y-93535677D01*
X102664424Y-93530565D01*
X102905873Y-93476780D01*
X103158878Y-93380014D01*
X103395097Y-93247441D01*
X103609497Y-93081888D01*
X103797506Y-92886881D01*
X103955119Y-92666579D01*
X104078976Y-92425675D01*
X104166438Y-92169305D01*
X104170004Y-92150000D01*
X109525000Y-92150000D01*
X109525000Y-92674625D01*
X109539504Y-92747543D01*
X109594760Y-92830239D01*
X109677456Y-92885495D01*
X109750375Y-92900000D01*
X110050000Y-92900000D01*
X110550000Y-92900000D01*
X110849625Y-92900000D01*
X110922543Y-92885495D01*
X111005239Y-92830239D01*
X111034049Y-92787123D01*
X111079895Y-92746024D01*
X111139857Y-92732043D01*
X111199151Y-92748625D01*
X111233374Y-92768384D01*
X111252817Y-92779610D01*
X111280688Y-92795701D01*
X111443161Y-92844342D01*
X111556034Y-92850915D01*
X111612470Y-92854203D01*
X111612470Y-92854202D01*
X111612471Y-92854203D01*
X111779492Y-92824753D01*
X111935219Y-92757579D01*
X112071258Y-92656302D01*
X112108146Y-92612339D01*
X112162989Y-92574725D01*
X112229384Y-92570857D01*
X112288226Y-92601852D01*
X112403812Y-92710902D01*
X112550688Y-92795701D01*
X112713161Y-92844342D01*
X112826034Y-92850915D01*
X112882470Y-92854203D01*
X112882470Y-92854202D01*
X112882471Y-92854203D01*
X113049492Y-92824753D01*
X113205219Y-92757579D01*
X113341258Y-92656302D01*
X113450273Y-92526383D01*
X113526388Y-92374825D01*
X113565500Y-92209799D01*
X113565500Y-91632744D01*
X113550750Y-91506549D01*
X113492744Y-91347180D01*
X113399549Y-91205483D01*
X113276188Y-91089098D01*
X113227500Y-91060988D01*
X113129313Y-91004299D01*
X112966836Y-90955657D01*
X112797529Y-90945796D01*
X112630509Y-90975246D01*
X112474780Y-91042421D01*
X112338741Y-91143698D01*
X112301855Y-91187658D01*
X112247009Y-91225275D01*
X112180614Y-91229141D01*
X112121772Y-91198146D01*
X112110655Y-91187658D01*
X112006188Y-91089098D01*
X111957499Y-91060987D01*
X111912113Y-91015601D01*
X111895500Y-90953601D01*
X111895500Y-90066188D01*
X111904939Y-90018735D01*
X111931819Y-89978507D01*
X124008407Y-77901919D01*
X136100668Y-65809657D01*
X136151060Y-65779079D01*
X136209880Y-65775224D01*
X136263834Y-65798965D01*
X136297159Y-65824536D01*
X136443238Y-65885044D01*
X136600000Y-65905682D01*
X136756762Y-65885044D01*
X136902841Y-65824536D01*
X137028282Y-65728282D01*
X137124536Y-65602841D01*
X137185044Y-65456762D01*
X137205682Y-65300000D01*
X137185044Y-65143238D01*
X137158949Y-65080239D01*
X137155517Y-65071952D01*
X137146675Y-65012345D01*
X137166976Y-64955609D01*
X137211625Y-64915142D01*
X137270078Y-64900500D01*
X138422474Y-64900500D01*
X138479731Y-64914511D01*
X138524049Y-64953377D01*
X138545412Y-65008313D01*
X138550480Y-65046806D01*
X138564956Y-65156762D01*
X138625463Y-65302840D01*
X138721717Y-65428282D01*
X138847159Y-65524536D01*
X138993238Y-65585044D01*
X139128413Y-65602840D01*
X139149999Y-65605682D01*
X139149999Y-65605681D01*
X139150000Y-65605682D01*
X139306762Y-65585044D01*
X139452841Y-65524536D01*
X139578282Y-65428282D01*
X139674536Y-65302841D01*
X139735044Y-65156762D01*
X139755682Y-65000000D01*
X139735044Y-64843238D01*
X139674536Y-64697159D01*
X139664992Y-64684721D01*
X139578282Y-64571717D01*
X139452840Y-64475463D01*
X139306762Y-64414956D01*
X139149999Y-64394317D01*
X139082180Y-64403246D01*
X139026136Y-64397726D01*
X138978314Y-64367988D01*
X138969043Y-64358717D01*
X138961734Y-64350741D01*
X138937454Y-64321805D01*
X138904736Y-64302915D01*
X138895627Y-64297112D01*
X138864684Y-64275446D01*
X138863803Y-64274829D01*
X138839107Y-64264599D01*
X138800852Y-64257853D01*
X138790296Y-64255512D01*
X138753807Y-64245735D01*
X138716180Y-64249028D01*
X138705372Y-64249500D01*
X135594619Y-64249500D01*
X135583815Y-64249028D01*
X135573170Y-64248097D01*
X135552146Y-64246257D01*
X135487468Y-64221103D01*
X135446434Y-64165138D01*
X135441896Y-64095890D01*
X135475274Y-64035050D01*
X135995969Y-63514355D01*
X136056810Y-63480977D01*
X136126059Y-63485516D01*
X136182024Y-63526552D01*
X136221717Y-63578282D01*
X136347158Y-63674535D01*
X136347159Y-63674536D01*
X136493238Y-63735044D01*
X136650000Y-63755682D01*
X136806762Y-63735044D01*
X136952841Y-63674536D01*
X137078282Y-63578282D01*
X137174536Y-63452841D01*
X137235044Y-63306762D01*
X137255682Y-63150000D01*
X137246753Y-63082180D01*
X137252273Y-63026137D01*
X137282011Y-62978314D01*
X137698507Y-62561819D01*
X137738735Y-62534939D01*
X137786188Y-62525500D01*
X146245374Y-62525500D01*
X146304542Y-62540527D01*
X146349369Y-62581965D01*
X146368992Y-62639771D01*
X146358654Y-62699936D01*
X146331614Y-62734234D01*
X146331656Y-62734266D01*
X146280077Y-62801486D01*
X146236545Y-62837212D01*
X146181701Y-62850000D01*
X145344119Y-62850000D01*
X145333312Y-62849528D01*
X145330798Y-62849308D01*
X145295691Y-62846236D01*
X145259210Y-62856011D01*
X145248655Y-62858352D01*
X145237314Y-62860351D01*
X145211455Y-62864912D01*
X145211453Y-62864912D01*
X145210397Y-62865099D01*
X145185692Y-62875332D01*
X145153878Y-62897607D01*
X145144761Y-62903415D01*
X145112045Y-62922304D01*
X145087762Y-62951243D01*
X145080456Y-62959215D01*
X143798183Y-64241488D01*
X143745720Y-64272701D01*
X143684721Y-64275097D01*
X143629970Y-64248097D01*
X143594738Y-64198244D01*
X143587563Y-64137624D01*
X143605682Y-64000000D01*
X143585044Y-63843238D01*
X143524536Y-63697159D01*
X143452886Y-63603782D01*
X143428282Y-63571717D01*
X143302840Y-63475463D01*
X143156762Y-63414956D01*
X142999999Y-63394317D01*
X142843237Y-63414956D01*
X142697159Y-63475463D01*
X142571717Y-63571717D01*
X142475463Y-63697159D01*
X142414956Y-63843237D01*
X142394317Y-64000000D01*
X142403246Y-64067818D01*
X142397726Y-64123862D01*
X142367988Y-64171684D01*
X120934110Y-85605562D01*
X120893882Y-85632442D01*
X120846429Y-85641881D01*
X120798977Y-85632442D01*
X120783804Y-85626157D01*
X120756761Y-85614955D01*
X120600000Y-85594317D01*
X120443237Y-85614956D01*
X120297159Y-85675463D01*
X120171717Y-85771717D01*
X120075463Y-85897159D01*
X120014956Y-86043237D01*
X119994317Y-86200000D01*
X120014956Y-86356762D01*
X120075463Y-86502840D01*
X120171717Y-86628282D01*
X120297159Y-86724536D01*
X120443238Y-86785044D01*
X120600000Y-86805682D01*
X120756762Y-86785044D01*
X120902841Y-86724536D01*
X121028282Y-86628282D01*
X121124536Y-86502841D01*
X121185044Y-86356762D01*
X121191903Y-86304657D01*
X121203628Y-86266002D01*
X121227157Y-86233167D01*
X121351818Y-86108506D01*
X121404279Y-86077295D01*
X121465278Y-86074899D01*
X121520028Y-86101898D01*
X121555261Y-86151751D01*
X121562436Y-86212374D01*
X121544317Y-86349999D01*
X121564956Y-86506762D01*
X121625463Y-86652840D01*
X121721717Y-86778282D01*
X121746376Y-86797203D01*
X121847159Y-86874536D01*
X121993238Y-86935044D01*
X122150000Y-86955682D01*
X122306762Y-86935044D01*
X122452841Y-86874536D01*
X122578282Y-86778282D01*
X122674536Y-86652841D01*
X122735044Y-86506762D01*
X122755682Y-86350000D01*
X122749094Y-86299962D01*
X122746753Y-86282180D01*
X122750072Y-86248484D01*
X123195536Y-86248484D01*
X123199135Y-86295268D01*
X123199500Y-86304778D01*
X123199500Y-86603749D01*
X123197026Y-86617600D01*
X123199141Y-86645318D01*
X123199500Y-86654751D01*
X123199500Y-86663778D01*
X123201050Y-86670178D01*
X123203467Y-86701589D01*
X123203467Y-86701591D01*
X123203468Y-86701592D01*
X123235075Y-86778282D01*
X123242873Y-86797202D01*
X123308686Y-86874536D01*
X123309895Y-86875956D01*
X123397972Y-86930145D01*
X123498484Y-86954464D01*
X123543099Y-86951031D01*
X123545268Y-86950865D01*
X123554778Y-86950500D01*
X124803749Y-86950500D01*
X124817598Y-86952973D01*
X124840351Y-86951237D01*
X124859878Y-86951290D01*
X124860279Y-86951323D01*
X124864892Y-86951789D01*
X124935595Y-86960284D01*
X124946437Y-86961587D01*
X124979299Y-86970224D01*
X124995496Y-86976967D01*
X125008617Y-86983360D01*
X125020898Y-86990266D01*
X125056353Y-87010204D01*
X125076270Y-87024138D01*
X125092131Y-87037734D01*
X125108944Y-87055283D01*
X125142768Y-87098344D01*
X125151094Y-87110335D01*
X125160236Y-87125312D01*
X125173800Y-87156470D01*
X125194904Y-87231809D01*
X125199500Y-87265256D01*
X125199500Y-93597173D01*
X125199371Y-93602826D01*
X125197367Y-93646720D01*
X125207699Y-93690867D01*
X125218694Y-93737848D01*
X125264189Y-93819634D01*
X125330366Y-93885811D01*
X125412152Y-93931306D01*
X125503278Y-93952632D01*
X125503278Y-93952631D01*
X125503279Y-93952632D01*
X125542134Y-93950859D01*
X125547175Y-93950628D01*
X125552827Y-93950500D01*
X125853749Y-93950500D01*
X125867600Y-93952973D01*
X125895318Y-93950859D01*
X125904751Y-93950500D01*
X125916321Y-93950500D01*
X125922973Y-93948733D01*
X125951592Y-93946532D01*
X126047202Y-93907127D01*
X126125956Y-93840105D01*
X126180145Y-93752028D01*
X126204464Y-93651516D01*
X126200865Y-93604732D01*
X126200500Y-93595222D01*
X126200500Y-92769957D01*
X129099500Y-92769957D01*
X129114631Y-92904251D01*
X129114631Y-92904253D01*
X129114632Y-92904255D01*
X129174211Y-93074522D01*
X129210258Y-93131890D01*
X129270185Y-93227264D01*
X129397735Y-93354814D01*
X129397737Y-93354815D01*
X129397738Y-93354816D01*
X129550478Y-93450789D01*
X129720745Y-93510368D01*
X129900000Y-93530565D01*
X130079255Y-93510368D01*
X130249522Y-93450789D01*
X130304767Y-93416075D01*
X130356852Y-93397850D01*
X130411691Y-93404028D01*
X130458418Y-93433389D01*
X131288550Y-94263521D01*
X131298507Y-94277358D01*
X131306041Y-94284226D01*
X131306042Y-94284228D01*
X131319429Y-94296432D01*
X131340316Y-94315474D01*
X131344457Y-94319429D01*
X131357888Y-94332860D01*
X131369328Y-94341922D01*
X131389065Y-94359915D01*
X131389066Y-94359915D01*
X131389067Y-94359916D01*
X131395340Y-94362346D01*
X131395523Y-94362417D01*
X131420810Y-94375745D01*
X131426519Y-94379656D01*
X131452514Y-94385769D01*
X131468910Y-94390846D01*
X131493827Y-94400500D01*
X131500751Y-94400500D01*
X131529140Y-94403793D01*
X131535881Y-94405379D01*
X131562333Y-94401688D01*
X131579465Y-94400500D01*
X144528549Y-94400500D01*
X144545369Y-94403243D01*
X144555554Y-94402772D01*
X144555557Y-94402773D01*
X144601872Y-94400631D01*
X144607597Y-94400500D01*
X144626616Y-94400500D01*
X144641110Y-94398817D01*
X144667784Y-94397585D01*
X144674122Y-94394786D01*
X144701425Y-94386332D01*
X144708225Y-94385061D01*
X144730935Y-94370998D01*
X144746117Y-94362996D01*
X144770557Y-94352206D01*
X144775451Y-94347311D01*
X144797855Y-94329564D01*
X144803744Y-94325919D01*
X144819845Y-94304595D01*
X144831105Y-94291656D01*
X146085943Y-93036819D01*
X146126172Y-93009939D01*
X146173625Y-93000500D01*
X153660757Y-93000500D01*
X153677577Y-93003243D01*
X153687762Y-93002772D01*
X153687765Y-93002773D01*
X153734080Y-93000631D01*
X153739805Y-93000500D01*
X153758824Y-93000500D01*
X153773318Y-92998817D01*
X153799992Y-92997585D01*
X153806330Y-92994786D01*
X153833633Y-92986332D01*
X153840433Y-92985061D01*
X153863143Y-92970998D01*
X153878325Y-92962996D01*
X153902765Y-92952206D01*
X153907658Y-92947312D01*
X153930063Y-92929564D01*
X153935952Y-92925919D01*
X153952049Y-92904601D01*
X153963310Y-92891659D01*
X154222175Y-92632797D01*
X154222176Y-92632794D01*
X154236401Y-92618570D01*
X154236403Y-92618566D01*
X155037205Y-91817764D01*
X163895787Y-91817764D01*
X163925413Y-92087016D01*
X163957513Y-92209799D01*
X163993928Y-92349088D01*
X164099603Y-92597761D01*
X164099871Y-92598392D01*
X164240982Y-92829611D01*
X164413422Y-93036819D01*
X164414255Y-93037820D01*
X164615998Y-93218582D01*
X164841910Y-93368044D01*
X164903999Y-93397150D01*
X165087177Y-93483021D01*
X165311469Y-93550500D01*
X165346569Y-93561060D01*
X165614561Y-93600500D01*
X165817631Y-93600500D01*
X165817634Y-93600500D01*
X166020156Y-93585677D01*
X166020155Y-93585677D01*
X166284553Y-93526780D01*
X166537558Y-93430014D01*
X166773777Y-93297441D01*
X166988177Y-93131888D01*
X167176186Y-92936881D01*
X167333799Y-92716579D01*
X167457656Y-92475675D01*
X167545118Y-92219305D01*
X167594319Y-91952933D01*
X167604212Y-91682235D01*
X167574586Y-91412982D01*
X167506072Y-91150912D01*
X167400130Y-90901610D01*
X167327999Y-90783420D01*
X167259017Y-90670388D01*
X167085746Y-90462181D01*
X167029941Y-90412180D01*
X166884002Y-90281418D01*
X166658090Y-90131956D01*
X166658086Y-90131954D01*
X166412822Y-90016978D01*
X166153437Y-89938941D01*
X166153431Y-89938940D01*
X165885439Y-89899500D01*
X165682369Y-89899500D01*
X165682366Y-89899500D01*
X165479843Y-89914322D01*
X165215449Y-89973219D01*
X164962441Y-90069986D01*
X164726223Y-90202559D01*
X164511825Y-90368109D01*
X164323813Y-90563120D01*
X164166201Y-90783420D01*
X164042342Y-91024329D01*
X163954881Y-91280695D01*
X163905680Y-91547066D01*
X163895787Y-91817764D01*
X155037205Y-91817764D01*
X162167469Y-84687500D01*
X164904758Y-84687500D01*
X164923214Y-84753972D01*
X165009814Y-84917320D01*
X165129512Y-85058237D01*
X165276695Y-85170124D01*
X165444491Y-85247754D01*
X165625057Y-85287500D01*
X165742500Y-85287500D01*
X165742500Y-84687500D01*
X166242500Y-84687500D01*
X166242500Y-85287500D01*
X166313585Y-85287500D01*
X166451301Y-85272522D01*
X166626509Y-85213488D01*
X166784931Y-85118169D01*
X166919155Y-84991024D01*
X167022913Y-84837992D01*
X167082876Y-84687500D01*
X166242500Y-84687500D01*
X165742500Y-84687500D01*
X164904758Y-84687500D01*
X162167469Y-84687500D01*
X162667470Y-84187499D01*
X164902124Y-84187499D01*
X164902125Y-84187500D01*
X165742500Y-84187500D01*
X165742500Y-83587500D01*
X166242500Y-83587500D01*
X166242500Y-84187500D01*
X167080242Y-84187500D01*
X167080242Y-84187499D01*
X167061785Y-84121027D01*
X166975185Y-83957679D01*
X166855487Y-83816762D01*
X166708304Y-83704875D01*
X166540508Y-83627245D01*
X166359943Y-83587500D01*
X166242500Y-83587500D01*
X165742500Y-83587500D01*
X165671415Y-83587500D01*
X165533698Y-83602477D01*
X165358490Y-83661511D01*
X165200068Y-83756830D01*
X165065844Y-83883975D01*
X164962086Y-84037007D01*
X164902124Y-84187499D01*
X162667470Y-84187499D01*
X164728514Y-82126455D01*
X164785894Y-82093897D01*
X164851854Y-82095376D01*
X164907718Y-82130477D01*
X164937672Y-82189262D01*
X164933236Y-82255089D01*
X164932131Y-82258245D01*
X164911934Y-82437499D01*
X164932131Y-82616751D01*
X164932131Y-82616753D01*
X164932132Y-82616755D01*
X164991711Y-82787022D01*
X164991712Y-82787023D01*
X165087685Y-82939764D01*
X165215235Y-83067314D01*
X165215237Y-83067315D01*
X165215238Y-83067316D01*
X165367978Y-83163289D01*
X165538245Y-83222868D01*
X165605395Y-83230434D01*
X165672543Y-83238000D01*
X165672546Y-83238000D01*
X166312454Y-83238000D01*
X166312457Y-83238000D01*
X166370011Y-83231514D01*
X166446755Y-83222868D01*
X166617022Y-83163289D01*
X166769762Y-83067316D01*
X166897316Y-82939762D01*
X166993289Y-82787022D01*
X167052868Y-82616755D01*
X167073065Y-82437500D01*
X167052868Y-82258245D01*
X166993289Y-82087978D01*
X166958575Y-82032731D01*
X166940350Y-81980645D01*
X166946528Y-81925806D01*
X166975887Y-81879082D01*
X167331018Y-81523951D01*
X167344853Y-81513998D01*
X167351725Y-81506459D01*
X167351728Y-81506458D01*
X167382988Y-81472166D01*
X167386879Y-81468090D01*
X167399674Y-81455297D01*
X167399678Y-81455290D01*
X167400367Y-81454602D01*
X167409422Y-81443171D01*
X167411036Y-81441400D01*
X167427416Y-81423433D01*
X167429915Y-81416979D01*
X167443243Y-81391692D01*
X167447157Y-81385981D01*
X167447158Y-81385977D01*
X167453273Y-81359979D01*
X167458350Y-81343581D01*
X167468000Y-81318673D01*
X167468000Y-81311748D01*
X167471294Y-81283358D01*
X167471319Y-81283249D01*
X167472879Y-81276619D01*
X167469189Y-81250167D01*
X167468000Y-81233036D01*
X167468000Y-77928930D01*
X167470744Y-77912103D01*
X167470273Y-77901920D01*
X167470274Y-77901919D01*
X167468132Y-77855591D01*
X167468000Y-77849865D01*
X167468000Y-77830865D01*
X167466318Y-77816380D01*
X167465085Y-77789692D01*
X167462285Y-77783351D01*
X167453832Y-77756050D01*
X167452561Y-77749251D01*
X167452561Y-77749250D01*
X167438497Y-77726536D01*
X167430494Y-77711352D01*
X167427290Y-77704095D01*
X167419706Y-77686918D01*
X167414810Y-77682022D01*
X167397063Y-77659616D01*
X167393419Y-77653731D01*
X167372102Y-77637633D01*
X167359148Y-77626360D01*
X167106767Y-77373979D01*
X167096814Y-77360145D01*
X167054998Y-77322024D01*
X167050857Y-77318069D01*
X167037427Y-77304639D01*
X167025995Y-77295583D01*
X167006251Y-77277584D01*
X166999785Y-77275079D01*
X166974509Y-77261756D01*
X166968798Y-77257844D01*
X166968797Y-77257843D01*
X166968795Y-77257842D01*
X166942801Y-77251728D01*
X166926404Y-77246651D01*
X166901490Y-77237000D01*
X166894566Y-77237000D01*
X166866176Y-77233706D01*
X166859436Y-77232121D01*
X166859435Y-77232121D01*
X166848074Y-77233706D01*
X166832983Y-77235811D01*
X166815852Y-77237000D01*
X149841245Y-77237000D01*
X149782077Y-77221973D01*
X149737250Y-77180535D01*
X149717627Y-77122729D01*
X149727965Y-77062564D01*
X149765759Y-77014624D01*
X149878282Y-76928282D01*
X149919923Y-76874014D01*
X149974536Y-76802841D01*
X150035044Y-76656762D01*
X150055682Y-76500000D01*
X150035044Y-76343238D01*
X149974536Y-76197159D01*
X149957149Y-76174500D01*
X149878282Y-76071717D01*
X149752840Y-75975463D01*
X149606762Y-75914956D01*
X149450000Y-75894317D01*
X149293237Y-75914956D01*
X149147159Y-75975463D01*
X149021718Y-76071717D01*
X148980077Y-76125986D01*
X148936545Y-76161712D01*
X148881701Y-76174500D01*
X147436188Y-76174500D01*
X147388735Y-76165061D01*
X147348507Y-76138181D01*
X142110326Y-70900000D01*
X143544317Y-70900000D01*
X143564956Y-71056762D01*
X143625463Y-71202840D01*
X143721717Y-71328282D01*
X143847158Y-71424535D01*
X143847159Y-71424536D01*
X143993238Y-71485044D01*
X144150000Y-71505682D01*
X144306762Y-71485044D01*
X144452841Y-71424536D01*
X144578282Y-71328282D01*
X144619923Y-71274013D01*
X144663455Y-71238288D01*
X144718299Y-71225500D01*
X154030373Y-71225500D01*
X154041180Y-71225971D01*
X154078807Y-71229264D01*
X154115324Y-71219478D01*
X154125830Y-71217149D01*
X154163045Y-71210588D01*
X154163047Y-71210586D01*
X154164112Y-71210399D01*
X154188799Y-71200173D01*
X154189682Y-71199554D01*
X154189684Y-71199554D01*
X154220625Y-71177887D01*
X154229722Y-71172091D01*
X154262455Y-71153194D01*
X154286748Y-71124241D01*
X154294036Y-71116288D01*
X157528315Y-67882009D01*
X157576136Y-67852273D01*
X157632180Y-67846753D01*
X157700000Y-67855682D01*
X157856762Y-67835044D01*
X158002841Y-67774536D01*
X158128282Y-67678282D01*
X158224536Y-67552841D01*
X158285044Y-67406762D01*
X158305682Y-67250000D01*
X158285044Y-67093238D01*
X158224536Y-66947159D01*
X158224535Y-66947158D01*
X158128282Y-66821717D01*
X158002840Y-66725463D01*
X157856762Y-66664956D01*
X157699999Y-66644317D01*
X157543237Y-66664956D01*
X157397159Y-66725463D01*
X157271717Y-66821717D01*
X157175463Y-66947159D01*
X157114956Y-67093237D01*
X157094317Y-67250000D01*
X157103246Y-67317818D01*
X157097726Y-67373862D01*
X157067988Y-67421684D01*
X153951493Y-70538181D01*
X153911265Y-70565061D01*
X153863812Y-70574500D01*
X144718299Y-70574500D01*
X144663455Y-70561712D01*
X144619923Y-70525986D01*
X144578281Y-70471717D01*
X144452840Y-70375463D01*
X144306762Y-70314956D01*
X144149999Y-70294317D01*
X143993237Y-70314956D01*
X143847159Y-70375463D01*
X143721717Y-70471717D01*
X143625463Y-70597159D01*
X143564956Y-70743237D01*
X143544317Y-70900000D01*
X142110326Y-70900000D01*
X141532011Y-70321685D01*
X141502273Y-70273862D01*
X141496753Y-70217818D01*
X141505682Y-70149999D01*
X141502964Y-70129360D01*
X141485044Y-69993238D01*
X141424536Y-69847159D01*
X141424535Y-69847158D01*
X141328282Y-69721717D01*
X141202840Y-69625463D01*
X141056762Y-69564956D01*
X140900000Y-69544317D01*
X140743237Y-69564956D01*
X140597159Y-69625463D01*
X140471717Y-69721717D01*
X140375463Y-69847159D01*
X140314956Y-69993237D01*
X140294317Y-70150000D01*
X140314956Y-70306762D01*
X140375463Y-70452840D01*
X140471717Y-70578282D01*
X140597158Y-70674535D01*
X140597159Y-70674536D01*
X140743238Y-70735044D01*
X140874106Y-70752273D01*
X140899999Y-70755682D01*
X140899999Y-70755681D01*
X140900000Y-70755682D01*
X140967818Y-70746753D01*
X141023862Y-70752273D01*
X141071685Y-70782011D01*
X147005950Y-76716276D01*
X147013258Y-76724250D01*
X147037545Y-76753194D01*
X147061594Y-76767079D01*
X147070256Y-76772080D01*
X147079379Y-76777892D01*
X147110316Y-76799554D01*
X147110317Y-76799554D01*
X147111198Y-76800171D01*
X147135891Y-76810400D01*
X147136954Y-76810587D01*
X147136955Y-76810588D01*
X147174146Y-76817145D01*
X147184704Y-76819486D01*
X147221191Y-76829263D01*
X147221192Y-76829262D01*
X147221193Y-76829263D01*
X147258811Y-76825971D01*
X147269618Y-76825500D01*
X148881701Y-76825500D01*
X148936545Y-76838288D01*
X148980077Y-76874014D01*
X149021718Y-76928282D01*
X149134241Y-77014624D01*
X149172035Y-77062564D01*
X149182373Y-77122729D01*
X149162750Y-77180535D01*
X149117923Y-77221973D01*
X149058755Y-77237000D01*
X148231743Y-77237000D01*
X148214922Y-77234256D01*
X148171808Y-77236249D01*
X148158419Y-77236868D01*
X148152695Y-77237000D01*
X148133683Y-77237000D01*
X148119195Y-77238681D01*
X148092507Y-77239915D01*
X148086166Y-77242715D01*
X148058878Y-77251165D01*
X148052068Y-77252438D01*
X148029359Y-77266498D01*
X148014177Y-77274500D01*
X147989733Y-77285294D01*
X147984833Y-77290194D01*
X147962443Y-77307929D01*
X147956548Y-77311579D01*
X147940450Y-77332896D01*
X147929179Y-77345848D01*
X139458418Y-85816609D01*
X139411692Y-85845969D01*
X139356854Y-85852148D01*
X139304766Y-85833922D01*
X139249526Y-85799213D01*
X139249524Y-85799212D01*
X139249522Y-85799211D01*
X139079255Y-85739632D01*
X139079253Y-85739631D01*
X139079251Y-85739631D01*
X138900000Y-85719434D01*
X138720748Y-85739631D01*
X138720745Y-85739631D01*
X138720745Y-85739632D01*
X138550478Y-85799211D01*
X138550476Y-85799211D01*
X138550476Y-85799212D01*
X138397735Y-85895185D01*
X138270185Y-86022735D01*
X138174212Y-86175476D01*
X138174211Y-86175478D01*
X138148665Y-86248484D01*
X138114631Y-86345748D01*
X138099500Y-86480043D01*
X138099500Y-87119957D01*
X138114631Y-87254251D01*
X138114631Y-87254253D01*
X138114632Y-87254255D01*
X138174211Y-87424522D01*
X138208609Y-87479266D01*
X138270185Y-87577264D01*
X138397735Y-87704814D01*
X138397737Y-87704815D01*
X138397738Y-87704816D01*
X138550478Y-87800789D01*
X138720745Y-87860368D01*
X138900000Y-87880565D01*
X139079255Y-87860368D01*
X139249522Y-87800789D01*
X139402262Y-87704816D01*
X139529816Y-87577262D01*
X139625789Y-87424522D01*
X139685368Y-87254255D01*
X139697954Y-87142553D01*
X139700500Y-87119957D01*
X139700500Y-86475832D01*
X139709939Y-86428379D01*
X139736819Y-86388151D01*
X139822143Y-86302827D01*
X139911014Y-86213955D01*
X139968394Y-86181397D01*
X140034354Y-86182876D01*
X140090218Y-86217977D01*
X140120172Y-86276762D01*
X140115736Y-86342589D01*
X140114631Y-86345745D01*
X140099500Y-86480043D01*
X140099500Y-87119957D01*
X140114631Y-87254251D01*
X140114631Y-87254253D01*
X140114632Y-87254255D01*
X140174211Y-87424522D01*
X140208609Y-87479266D01*
X140270185Y-87577264D01*
X140397735Y-87704814D01*
X140397737Y-87704815D01*
X140397738Y-87704816D01*
X140550478Y-87800789D01*
X140720745Y-87860368D01*
X140900000Y-87880565D01*
X141079255Y-87860368D01*
X141249522Y-87800789D01*
X141402262Y-87704816D01*
X141529816Y-87577262D01*
X141591389Y-87479269D01*
X142099500Y-87479269D01*
X142102353Y-87509696D01*
X142147207Y-87637884D01*
X142227849Y-87747150D01*
X142337115Y-87827792D01*
X142337118Y-87827793D01*
X142465301Y-87872646D01*
X142477474Y-87873787D01*
X142495731Y-87875500D01*
X142495734Y-87875500D01*
X143304266Y-87875500D01*
X143304269Y-87875500D01*
X143319482Y-87874073D01*
X143334699Y-87872646D01*
X143462882Y-87827793D01*
X143462882Y-87827792D01*
X143462884Y-87827792D01*
X143572150Y-87747150D01*
X143652792Y-87637884D01*
X143652793Y-87637882D01*
X143697646Y-87509699D01*
X143700500Y-87479266D01*
X143700500Y-86120734D01*
X143699353Y-86108508D01*
X143698574Y-86100193D01*
X143697646Y-86090301D01*
X143652793Y-85962118D01*
X143652792Y-85962115D01*
X143572150Y-85852849D01*
X143462884Y-85772207D01*
X143334696Y-85727353D01*
X143304269Y-85724500D01*
X143304266Y-85724500D01*
X142495734Y-85724500D01*
X142495731Y-85724500D01*
X142465303Y-85727353D01*
X142337115Y-85772207D01*
X142227849Y-85852849D01*
X142147207Y-85962115D01*
X142102353Y-86090303D01*
X142099500Y-86120731D01*
X142099500Y-87479269D01*
X141591389Y-87479269D01*
X141625789Y-87424522D01*
X141685368Y-87254255D01*
X141697954Y-87142553D01*
X141700500Y-87119957D01*
X141700500Y-86480043D01*
X141690146Y-86388151D01*
X141685368Y-86345745D01*
X141625789Y-86175478D01*
X141529816Y-86022738D01*
X141529815Y-86022737D01*
X141529814Y-86022735D01*
X141402264Y-85895185D01*
X141291303Y-85825464D01*
X141249522Y-85799211D01*
X141079255Y-85739632D01*
X141079253Y-85739631D01*
X141079251Y-85739631D01*
X140900000Y-85719434D01*
X140720745Y-85739631D01*
X140717589Y-85740736D01*
X140651762Y-85745172D01*
X140592977Y-85715218D01*
X140557876Y-85659354D01*
X140556397Y-85593394D01*
X140588955Y-85536014D01*
X148250651Y-77874319D01*
X148290880Y-77847439D01*
X148338333Y-77838000D01*
X164802759Y-77838000D01*
X164859673Y-77851833D01*
X164903889Y-77890245D01*
X164925542Y-77944667D01*
X164920617Y-77994657D01*
X164917000Y-78033231D01*
X164917000Y-78841769D01*
X164919853Y-78872195D01*
X164919853Y-78872197D01*
X164919854Y-78872199D01*
X164940162Y-78930236D01*
X164944011Y-78998782D01*
X164910801Y-79058870D01*
X153081493Y-90888181D01*
X153041265Y-90915061D01*
X152993812Y-90924500D01*
X140119619Y-90924500D01*
X140108812Y-90924028D01*
X140106298Y-90923808D01*
X140071191Y-90920736D01*
X140034710Y-90930511D01*
X140024155Y-90932852D01*
X140012814Y-90934851D01*
X139986955Y-90939412D01*
X139986953Y-90939412D01*
X139985897Y-90939599D01*
X139961192Y-90949832D01*
X139929378Y-90972107D01*
X139920261Y-90977915D01*
X139887545Y-90996804D01*
X139863262Y-91025743D01*
X139855956Y-91033715D01*
X139436705Y-91452966D01*
X139389979Y-91482326D01*
X139335141Y-91488505D01*
X139283053Y-91470279D01*
X139249526Y-91449213D01*
X139249524Y-91449212D01*
X139249522Y-91449211D01*
X139079255Y-91389632D01*
X139079253Y-91389631D01*
X139079251Y-91389631D01*
X138900000Y-91369434D01*
X138720748Y-91389631D01*
X138720745Y-91389631D01*
X138720745Y-91389632D01*
X138550478Y-91449211D01*
X138550476Y-91449211D01*
X138550476Y-91449212D01*
X138397735Y-91545185D01*
X138270185Y-91672735D01*
X138174212Y-91825476D01*
X138174211Y-91825478D01*
X138129613Y-91952933D01*
X138114631Y-91995748D01*
X138099500Y-92130043D01*
X138099500Y-92769957D01*
X138114631Y-92904251D01*
X138114631Y-92904253D01*
X138114632Y-92904255D01*
X138174211Y-93074522D01*
X138210258Y-93131890D01*
X138270185Y-93227264D01*
X138397735Y-93354814D01*
X138397737Y-93354815D01*
X138397738Y-93354816D01*
X138550478Y-93450789D01*
X138720745Y-93510368D01*
X138900000Y-93530565D01*
X139079255Y-93510368D01*
X139249522Y-93450789D01*
X139402262Y-93354816D01*
X139529816Y-93227262D01*
X139625789Y-93074522D01*
X139685368Y-92904255D01*
X139699412Y-92779610D01*
X139700500Y-92769957D01*
X139700500Y-92161187D01*
X139709939Y-92113734D01*
X139736819Y-92073506D01*
X139814580Y-91995745D01*
X139902155Y-91908169D01*
X139954173Y-91877091D01*
X140014708Y-91874372D01*
X140069303Y-91900664D01*
X140104921Y-91949687D01*
X140113055Y-92009735D01*
X140099500Y-92130042D01*
X140099500Y-92769957D01*
X140114631Y-92904251D01*
X140114631Y-92904253D01*
X140114632Y-92904255D01*
X140174211Y-93074522D01*
X140210258Y-93131890D01*
X140270185Y-93227264D01*
X140397735Y-93354814D01*
X140397737Y-93354815D01*
X140397738Y-93354816D01*
X140550478Y-93450789D01*
X140720745Y-93510368D01*
X140900000Y-93530565D01*
X141079255Y-93510368D01*
X141249522Y-93450789D01*
X141402262Y-93354816D01*
X141529816Y-93227262D01*
X141625789Y-93074522D01*
X141685368Y-92904255D01*
X141699412Y-92779610D01*
X141700500Y-92769957D01*
X141700500Y-92130043D01*
X141685368Y-91995748D01*
X141685368Y-91995745D01*
X141625789Y-91825478D01*
X141607741Y-91796755D01*
X141588085Y-91765471D01*
X141569128Y-91702977D01*
X141584551Y-91639519D01*
X141630078Y-91592697D01*
X141693079Y-91575500D01*
X141985259Y-91575500D01*
X142042173Y-91589333D01*
X142086389Y-91627745D01*
X142108042Y-91682167D01*
X142103117Y-91732157D01*
X142099500Y-91770731D01*
X142099500Y-93129269D01*
X142102353Y-93159696D01*
X142147207Y-93287884D01*
X142227849Y-93397150D01*
X142337115Y-93477792D01*
X142337118Y-93477793D01*
X142465301Y-93522646D01*
X142477474Y-93523787D01*
X142495731Y-93525500D01*
X142495734Y-93525500D01*
X143304266Y-93525500D01*
X143304269Y-93525500D01*
X143319482Y-93524073D01*
X143334699Y-93522646D01*
X143462882Y-93477793D01*
X143462882Y-93477792D01*
X143462884Y-93477792D01*
X143572150Y-93397150D01*
X143652792Y-93287884D01*
X143652793Y-93287882D01*
X143697646Y-93159699D01*
X143700500Y-93129266D01*
X143700500Y-91770734D01*
X143700221Y-91767764D01*
X143696882Y-91732157D01*
X143691958Y-91682167D01*
X143713611Y-91627745D01*
X143757827Y-91589333D01*
X143814741Y-91575500D01*
X153160373Y-91575500D01*
X153171180Y-91575971D01*
X153208807Y-91579264D01*
X153245324Y-91569478D01*
X153255830Y-91567149D01*
X153293045Y-91560588D01*
X153293047Y-91560586D01*
X153294112Y-91560399D01*
X153318799Y-91550173D01*
X153319682Y-91549554D01*
X153319684Y-91549554D01*
X153350625Y-91527887D01*
X153359722Y-91522091D01*
X153392455Y-91503194D01*
X153416748Y-91474241D01*
X153424036Y-91466288D01*
X164719656Y-80170670D01*
X164771673Y-80139592D01*
X164832208Y-80136873D01*
X164886804Y-80163165D01*
X164922421Y-80212189D01*
X164930555Y-80272237D01*
X164911934Y-80437499D01*
X164932131Y-80616751D01*
X164932131Y-80616753D01*
X164932132Y-80616755D01*
X164991711Y-80787022D01*
X164991712Y-80787023D01*
X165026422Y-80842264D01*
X165044648Y-80894353D01*
X165038470Y-80949191D01*
X165009109Y-80995917D01*
X153758652Y-92246374D01*
X153758647Y-92246381D01*
X153641845Y-92363183D01*
X153601620Y-92390061D01*
X153554167Y-92399500D01*
X146067035Y-92399500D01*
X146050214Y-92396756D01*
X146007100Y-92398749D01*
X145993711Y-92399368D01*
X145987987Y-92399500D01*
X145968975Y-92399500D01*
X145954487Y-92401181D01*
X145927799Y-92402415D01*
X145921458Y-92405215D01*
X145894170Y-92413665D01*
X145887360Y-92414938D01*
X145864651Y-92428998D01*
X145849469Y-92437000D01*
X145825025Y-92447794D01*
X145820125Y-92452694D01*
X145797735Y-92470429D01*
X145791840Y-92474079D01*
X145775742Y-92495396D01*
X145764471Y-92508348D01*
X144509640Y-93763181D01*
X144469412Y-93790061D01*
X144421959Y-93799500D01*
X131725834Y-93799500D01*
X131678381Y-93790061D01*
X131638153Y-93763181D01*
X131588960Y-93713988D01*
X131556399Y-93656605D01*
X131557880Y-93590644D01*
X131592983Y-93534779D01*
X131651770Y-93504827D01*
X131717595Y-93509265D01*
X131720745Y-93510368D01*
X131900000Y-93530565D01*
X132079255Y-93510368D01*
X132249522Y-93450789D01*
X132402262Y-93354816D01*
X132529816Y-93227262D01*
X132591389Y-93129269D01*
X133099500Y-93129269D01*
X133102353Y-93159696D01*
X133147207Y-93287884D01*
X133227849Y-93397150D01*
X133337115Y-93477792D01*
X133337118Y-93477793D01*
X133465301Y-93522646D01*
X133477474Y-93523787D01*
X133495731Y-93525500D01*
X133495734Y-93525500D01*
X134304266Y-93525500D01*
X134304269Y-93525500D01*
X134319482Y-93524073D01*
X134334699Y-93522646D01*
X134462882Y-93477793D01*
X134462882Y-93477792D01*
X134462884Y-93477792D01*
X134572150Y-93397150D01*
X134652792Y-93287884D01*
X134652793Y-93287882D01*
X134697646Y-93159699D01*
X134700500Y-93129266D01*
X134700500Y-91770734D01*
X134700221Y-91767764D01*
X134697646Y-91740303D01*
X134697646Y-91740301D01*
X134652793Y-91612118D01*
X134652792Y-91612115D01*
X134572150Y-91502849D01*
X134462884Y-91422207D01*
X134334696Y-91377353D01*
X134304269Y-91374500D01*
X134304266Y-91374500D01*
X133495734Y-91374500D01*
X133495731Y-91374500D01*
X133465303Y-91377353D01*
X133337115Y-91422207D01*
X133227849Y-91502849D01*
X133147207Y-91612115D01*
X133102353Y-91740303D01*
X133099500Y-91770731D01*
X133099500Y-93129269D01*
X132591389Y-93129269D01*
X132625789Y-93074522D01*
X132685368Y-92904255D01*
X132699412Y-92779610D01*
X132700500Y-92769957D01*
X132700500Y-92130043D01*
X132685368Y-91995748D01*
X132685368Y-91995745D01*
X132625789Y-91825478D01*
X132529816Y-91672738D01*
X132529815Y-91672737D01*
X132529814Y-91672735D01*
X132402264Y-91545185D01*
X132283051Y-91470279D01*
X132249522Y-91449211D01*
X132079255Y-91389632D01*
X132079253Y-91389631D01*
X132079251Y-91389631D01*
X131900000Y-91369434D01*
X131720748Y-91389631D01*
X131720745Y-91389631D01*
X131720745Y-91389632D01*
X131550478Y-91449211D01*
X131550476Y-91449211D01*
X131550476Y-91449212D01*
X131397735Y-91545185D01*
X131270185Y-91672735D01*
X131174212Y-91825476D01*
X131174211Y-91825478D01*
X131129613Y-91952933D01*
X131114631Y-91995748D01*
X131099500Y-92130043D01*
X131099500Y-92769957D01*
X131114631Y-92904254D01*
X131115735Y-92907408D01*
X131120171Y-92973235D01*
X131090217Y-93032020D01*
X131034353Y-93067121D01*
X130968393Y-93068600D01*
X130911011Y-93036040D01*
X130736819Y-92861848D01*
X130709939Y-92821620D01*
X130700500Y-92774167D01*
X130700500Y-92130043D01*
X130685368Y-91995748D01*
X130685368Y-91995745D01*
X130625789Y-91825478D01*
X130529816Y-91672738D01*
X130529815Y-91672737D01*
X130529814Y-91672735D01*
X130402264Y-91545185D01*
X130283051Y-91470279D01*
X130249522Y-91449211D01*
X130079255Y-91389632D01*
X130079253Y-91389631D01*
X130079251Y-91389631D01*
X129900000Y-91369434D01*
X129720748Y-91389631D01*
X129720745Y-91389631D01*
X129720745Y-91389632D01*
X129550478Y-91449211D01*
X129550476Y-91449211D01*
X129550476Y-91449212D01*
X129397735Y-91545185D01*
X129270185Y-91672735D01*
X129174212Y-91825476D01*
X129174211Y-91825478D01*
X129129613Y-91952933D01*
X129114631Y-91995748D01*
X129099500Y-92130043D01*
X129099500Y-92769957D01*
X126200500Y-92769957D01*
X126200500Y-87050000D01*
X129050000Y-87050000D01*
X129050000Y-87121085D01*
X129064977Y-87258801D01*
X129124011Y-87434009D01*
X129219330Y-87592431D01*
X129346475Y-87726655D01*
X129499507Y-87830413D01*
X129649999Y-87890375D01*
X129650000Y-87890376D01*
X129650000Y-87050000D01*
X130150000Y-87050000D01*
X130150000Y-87887742D01*
X130216472Y-87869285D01*
X130379820Y-87782685D01*
X130520737Y-87662987D01*
X130632624Y-87515804D01*
X130710254Y-87348008D01*
X130750000Y-87167443D01*
X130750000Y-87119957D01*
X131099500Y-87119957D01*
X131114631Y-87254251D01*
X131114631Y-87254253D01*
X131114632Y-87254255D01*
X131174211Y-87424522D01*
X131208609Y-87479266D01*
X131270185Y-87577264D01*
X131397735Y-87704814D01*
X131397737Y-87704815D01*
X131397738Y-87704816D01*
X131550478Y-87800789D01*
X131720745Y-87860368D01*
X131900000Y-87880565D01*
X132079255Y-87860368D01*
X132249522Y-87800789D01*
X132402262Y-87704816D01*
X132529816Y-87577262D01*
X132591389Y-87479269D01*
X133099500Y-87479269D01*
X133102353Y-87509696D01*
X133147207Y-87637884D01*
X133227849Y-87747150D01*
X133337115Y-87827792D01*
X133337118Y-87827793D01*
X133465301Y-87872646D01*
X133477474Y-87873787D01*
X133495731Y-87875500D01*
X133495734Y-87875500D01*
X134304266Y-87875500D01*
X134304269Y-87875500D01*
X134319482Y-87874072D01*
X134334699Y-87872646D01*
X134462882Y-87827793D01*
X134462882Y-87827792D01*
X134462884Y-87827792D01*
X134572150Y-87747150D01*
X134652792Y-87637884D01*
X134652793Y-87637882D01*
X134697646Y-87509699D01*
X134700500Y-87479266D01*
X134700500Y-86120734D01*
X134699353Y-86108508D01*
X134698574Y-86100193D01*
X134697646Y-86090301D01*
X134652793Y-85962118D01*
X134652792Y-85962115D01*
X134572150Y-85852849D01*
X134462884Y-85772207D01*
X134334696Y-85727353D01*
X134304269Y-85724500D01*
X134304266Y-85724500D01*
X133495734Y-85724500D01*
X133495731Y-85724500D01*
X133465303Y-85727353D01*
X133337115Y-85772207D01*
X133227849Y-85852849D01*
X133147207Y-85962115D01*
X133102353Y-86090303D01*
X133099500Y-86120731D01*
X133099500Y-87479269D01*
X132591389Y-87479269D01*
X132625789Y-87424522D01*
X132685368Y-87254255D01*
X132697954Y-87142553D01*
X132700500Y-87119957D01*
X132700500Y-86480043D01*
X132690146Y-86388151D01*
X132685368Y-86345745D01*
X132625789Y-86175478D01*
X132529816Y-86022738D01*
X132529815Y-86022737D01*
X132529814Y-86022735D01*
X132402264Y-85895185D01*
X132291303Y-85825464D01*
X132249522Y-85799211D01*
X132079255Y-85739632D01*
X132079253Y-85739631D01*
X132079251Y-85739631D01*
X131900000Y-85719434D01*
X131720748Y-85739631D01*
X131720745Y-85739631D01*
X131720745Y-85739632D01*
X131550478Y-85799211D01*
X131550476Y-85799211D01*
X131550476Y-85799212D01*
X131397735Y-85895185D01*
X131270185Y-86022735D01*
X131174212Y-86175476D01*
X131174211Y-86175478D01*
X131148665Y-86248484D01*
X131114631Y-86345748D01*
X131099500Y-86480043D01*
X131099500Y-87119957D01*
X130750000Y-87119957D01*
X130750000Y-87050000D01*
X130150000Y-87050000D01*
X129650000Y-87050000D01*
X129050000Y-87050000D01*
X126200500Y-87050000D01*
X126200500Y-86550000D01*
X129050000Y-86550000D01*
X129650000Y-86550000D01*
X129650000Y-85712258D01*
X129649999Y-85712257D01*
X129583527Y-85730714D01*
X129420179Y-85817314D01*
X129279262Y-85937012D01*
X129167375Y-86084195D01*
X129089745Y-86251991D01*
X129050000Y-86432557D01*
X129050000Y-86550000D01*
X126200500Y-86550000D01*
X126200500Y-86302827D01*
X126200629Y-86297174D01*
X126202632Y-86253279D01*
X126201119Y-86246814D01*
X126181306Y-86162152D01*
X126135811Y-86080366D01*
X126069634Y-86014189D01*
X125987848Y-85968694D01*
X125946003Y-85958901D01*
X125896720Y-85947367D01*
X125854402Y-85949299D01*
X125852824Y-85949371D01*
X125847173Y-85949500D01*
X123546251Y-85949500D01*
X123532399Y-85947026D01*
X123504682Y-85949141D01*
X123495249Y-85949500D01*
X123487248Y-85949500D01*
X123480963Y-85950962D01*
X123448410Y-85953467D01*
X123352797Y-85992873D01*
X123274044Y-86059894D01*
X123219855Y-86147971D01*
X123195536Y-86248484D01*
X122750072Y-86248484D01*
X122752273Y-86226136D01*
X122782009Y-86178315D01*
X123250700Y-85709624D01*
X130150000Y-85709624D01*
X130150000Y-86550000D01*
X130750000Y-86550000D01*
X130750000Y-86478915D01*
X130735022Y-86341198D01*
X130675988Y-86165990D01*
X130580669Y-86007568D01*
X130453524Y-85873344D01*
X130300492Y-85769586D01*
X130150000Y-85709624D01*
X123250700Y-85709624D01*
X144660326Y-64300000D01*
X157450000Y-64300000D01*
X157450000Y-64924625D01*
X157464504Y-64997543D01*
X157519760Y-65080239D01*
X157602456Y-65135495D01*
X157675375Y-65150000D01*
X158300000Y-65150000D01*
X158300000Y-64300000D01*
X158800000Y-64300000D01*
X158800000Y-65150000D01*
X159424625Y-65150000D01*
X159497543Y-65135495D01*
X159580239Y-65080239D01*
X159635495Y-64997543D01*
X159650000Y-64924625D01*
X159650000Y-64300000D01*
X158800000Y-64300000D01*
X158300000Y-64300000D01*
X157450000Y-64300000D01*
X144660326Y-64300000D01*
X145160326Y-63800000D01*
X157450000Y-63800000D01*
X158300000Y-63800000D01*
X158300000Y-62950000D01*
X158800000Y-62950000D01*
X158800000Y-63800000D01*
X159650000Y-63800000D01*
X159650000Y-63175375D01*
X159635495Y-63102456D01*
X159580239Y-63019760D01*
X159497543Y-62964504D01*
X159424625Y-62950000D01*
X158800000Y-62950000D01*
X158300000Y-62950000D01*
X157675375Y-62950000D01*
X157602456Y-62964504D01*
X157519760Y-63019760D01*
X157464504Y-63102456D01*
X157450000Y-63175375D01*
X157450000Y-63800000D01*
X145160326Y-63800000D01*
X145423007Y-63537319D01*
X145463236Y-63510439D01*
X145510689Y-63501000D01*
X146181701Y-63501000D01*
X146236545Y-63513788D01*
X146280076Y-63549513D01*
X146321718Y-63603782D01*
X146447159Y-63700036D01*
X146593238Y-63760544D01*
X146750000Y-63781182D01*
X146906762Y-63760544D01*
X147052841Y-63700036D01*
X147178282Y-63603782D01*
X147274536Y-63478341D01*
X147335044Y-63332262D01*
X147355682Y-63175500D01*
X147335044Y-63018738D01*
X147274536Y-62872659D01*
X147178282Y-62747218D01*
X147168344Y-62734266D01*
X147168385Y-62734234D01*
X147141346Y-62699936D01*
X147131008Y-62639771D01*
X147150631Y-62581965D01*
X147195458Y-62540527D01*
X147254626Y-62525500D01*
X156178672Y-62525500D01*
X156189479Y-62525971D01*
X156227106Y-62529264D01*
X156263623Y-62519478D01*
X156274129Y-62517149D01*
X156311344Y-62510588D01*
X156311346Y-62510586D01*
X156312411Y-62510399D01*
X156337098Y-62500173D01*
X156337981Y-62499554D01*
X156337983Y-62499554D01*
X156368924Y-62477887D01*
X156378021Y-62472091D01*
X156410754Y-62453194D01*
X156435047Y-62424241D01*
X156442335Y-62416288D01*
X157295960Y-61562663D01*
X157356470Y-61529359D01*
X157425413Y-61533594D01*
X157481393Y-61574056D01*
X157507042Y-61638190D01*
X157514699Y-61715932D01*
X157542262Y-61806795D01*
X157574768Y-61913954D01*
X157672315Y-62096450D01*
X157683968Y-62110649D01*
X157803589Y-62256410D01*
X157840161Y-62286423D01*
X157963550Y-62387685D01*
X158146046Y-62485232D01*
X158344066Y-62545300D01*
X158550000Y-62565583D01*
X158755934Y-62545300D01*
X158953954Y-62485232D01*
X159136450Y-62387685D01*
X159296410Y-62256410D01*
X159427685Y-62096450D01*
X159525232Y-61913954D01*
X159585300Y-61715934D01*
X159605583Y-61510000D01*
X159585300Y-61304066D01*
X159525232Y-61106046D01*
X159427685Y-60923550D01*
X159349429Y-60828194D01*
X159296410Y-60763589D01*
X159207171Y-60690354D01*
X159171274Y-60641954D01*
X159162432Y-60582347D01*
X159182733Y-60525610D01*
X159227382Y-60485142D01*
X159285835Y-60470500D01*
X162635373Y-60470500D01*
X162646180Y-60470971D01*
X162683807Y-60474264D01*
X162720324Y-60464478D01*
X162730830Y-60462149D01*
X162768045Y-60455588D01*
X162768047Y-60455586D01*
X162769112Y-60455399D01*
X162793799Y-60445173D01*
X162794682Y-60444554D01*
X162794684Y-60444554D01*
X162825625Y-60422887D01*
X162834722Y-60417091D01*
X162867455Y-60398194D01*
X162891748Y-60369241D01*
X162899036Y-60361288D01*
X167028315Y-56232009D01*
X167076136Y-56202273D01*
X167132180Y-56196753D01*
X167200000Y-56205682D01*
X167356762Y-56185044D01*
X167502841Y-56124536D01*
X167628282Y-56028282D01*
X167724536Y-55902841D01*
X167785044Y-55756762D01*
X167805682Y-55600000D01*
X167785044Y-55443238D01*
X167724536Y-55297159D01*
X167683989Y-55244317D01*
X167628282Y-55171717D01*
X167502840Y-55075463D01*
X167356762Y-55014956D01*
X167200000Y-54994317D01*
X167043237Y-55014956D01*
X166897159Y-55075463D01*
X166771717Y-55171717D01*
X166675463Y-55297159D01*
X166614956Y-55443237D01*
X166594317Y-55600000D01*
X166603246Y-55667818D01*
X166597726Y-55723862D01*
X166567988Y-55771684D01*
X162556493Y-59783181D01*
X162516265Y-59810061D01*
X162468812Y-59819500D01*
X159473982Y-59819500D01*
X159407642Y-59800262D01*
X159361887Y-59748517D01*
X159350914Y-59680322D01*
X159378128Y-59616836D01*
X159383873Y-59609834D01*
X159427685Y-59556450D01*
X159525232Y-59373954D01*
X159585300Y-59175934D01*
X159605583Y-58970000D01*
X159585300Y-58764066D01*
X159525232Y-58566046D01*
X159427685Y-58383550D01*
X159345113Y-58282935D01*
X159296410Y-58223589D01*
X159172278Y-58121718D01*
X159136450Y-58092315D01*
X158953954Y-57994768D01*
X158854943Y-57964733D01*
X158755932Y-57934699D01*
X158550000Y-57914417D01*
X158344067Y-57934699D01*
X158134359Y-57998313D01*
X158133689Y-57996106D01*
X158104486Y-58004441D01*
X158052706Y-57996754D01*
X158008714Y-57968387D01*
X157074042Y-57033716D01*
X157066734Y-57025741D01*
X157042454Y-56996805D01*
X157009736Y-56977915D01*
X157000627Y-56972112D01*
X156969684Y-56950446D01*
X156968803Y-56949829D01*
X156944107Y-56939599D01*
X156905852Y-56932853D01*
X156895296Y-56930512D01*
X156858807Y-56920735D01*
X156821180Y-56924028D01*
X156810372Y-56924500D01*
X137318299Y-56924500D01*
X137263455Y-56911712D01*
X137219923Y-56875986D01*
X137178281Y-56821717D01*
X137052840Y-56725463D01*
X136906762Y-56664956D01*
X136773707Y-56647439D01*
X136750000Y-56637920D01*
X136726293Y-56647439D01*
X136593237Y-56664956D01*
X136447159Y-56725463D01*
X136321717Y-56821717D01*
X136225463Y-56947159D01*
X136164956Y-57093237D01*
X136144317Y-57250000D01*
X136164956Y-57406762D01*
X136225463Y-57552840D01*
X136321717Y-57678282D01*
X136447159Y-57774536D01*
X136593238Y-57835044D01*
X136750000Y-57855682D01*
X136906762Y-57835044D01*
X137052841Y-57774536D01*
X137178282Y-57678282D01*
X137219923Y-57624013D01*
X137263455Y-57588288D01*
X137318299Y-57575500D01*
X156643812Y-57575500D01*
X156691265Y-57584939D01*
X156731492Y-57611818D01*
X157548387Y-58428714D01*
X157576754Y-58472706D01*
X157584441Y-58524486D01*
X157576106Y-58553689D01*
X157578313Y-58554359D01*
X157514699Y-58764067D01*
X157494417Y-58970000D01*
X157514699Y-59175932D01*
X157514700Y-59175934D01*
X157574768Y-59373954D01*
X157672315Y-59556450D01*
X157679029Y-59564631D01*
X157803589Y-59716410D01*
X157883021Y-59781597D01*
X157927401Y-59818019D01*
X157966156Y-59874013D01*
X157969498Y-59942029D01*
X157936418Y-60001553D01*
X156373092Y-61564880D01*
X156320110Y-61596245D01*
X156258572Y-61598260D01*
X156237666Y-61587665D01*
X156248261Y-61608571D01*
X156246246Y-61670108D01*
X156214882Y-61723090D01*
X156099789Y-61838183D01*
X156059564Y-61865061D01*
X156012111Y-61874500D01*
X155902053Y-61874500D01*
X155837263Y-61856227D01*
X155791568Y-61806795D01*
X155778435Y-61740771D01*
X155801735Y-61677614D01*
X155854601Y-61635939D01*
X155879890Y-61625464D01*
X156002841Y-61574536D01*
X156051713Y-61537034D01*
X156108336Y-61512853D01*
X156168810Y-61518809D01*
X156162854Y-61458335D01*
X156187036Y-61401712D01*
X156224536Y-61352841D01*
X156285044Y-61206762D01*
X156305682Y-61050000D01*
X156285044Y-60893238D01*
X156224536Y-60747159D01*
X156180948Y-60690354D01*
X156128282Y-60621717D01*
X156002840Y-60525463D01*
X155856762Y-60464956D01*
X155700000Y-60444317D01*
X155543237Y-60464956D01*
X155397159Y-60525463D01*
X155271718Y-60621716D01*
X155268444Y-60625985D01*
X155224912Y-60661712D01*
X155170067Y-60674500D01*
X131135187Y-60674500D01*
X131078892Y-60660985D01*
X131034869Y-60623385D01*
X131012714Y-60569898D01*
X131017256Y-60512182D01*
X131047506Y-60462819D01*
X131793915Y-59716410D01*
X132548914Y-58961410D01*
X132589015Y-58934585D01*
X132636318Y-58925094D01*
X154882377Y-58876734D01*
X154937368Y-58889462D01*
X154981021Y-58925246D01*
X155005205Y-58956762D01*
X155021718Y-58978282D01*
X155147159Y-59074536D01*
X155293238Y-59135044D01*
X155450000Y-59155682D01*
X155606762Y-59135044D01*
X155752841Y-59074536D01*
X155878282Y-58978282D01*
X155974536Y-58852841D01*
X156035044Y-58706762D01*
X156055682Y-58550000D01*
X156035044Y-58393238D01*
X155974536Y-58247159D01*
X155933989Y-58194317D01*
X155878282Y-58121717D01*
X155752840Y-58025463D01*
X155606762Y-57964956D01*
X155449999Y-57944317D01*
X155293237Y-57964956D01*
X155147161Y-58025462D01*
X155063531Y-58089633D01*
X155021720Y-58121717D01*
X155021717Y-58121719D01*
X154979127Y-58177223D01*
X154935716Y-58212888D01*
X154881022Y-58225735D01*
X132469408Y-58274456D01*
X132458332Y-58273984D01*
X132421194Y-58270735D01*
X132384225Y-58280641D01*
X132373930Y-58282935D01*
X132334912Y-58289902D01*
X132311454Y-58299648D01*
X132278986Y-58322383D01*
X132270098Y-58328059D01*
X132236994Y-58347267D01*
X132213083Y-58375889D01*
X132205604Y-58384068D01*
X115910703Y-74678969D01*
X115851179Y-74712049D01*
X115783163Y-74708707D01*
X115727169Y-74669953D01*
X115700083Y-74607473D01*
X115699132Y-74600248D01*
X115685044Y-74493238D01*
X115624536Y-74347159D01*
X115624535Y-74347158D01*
X115528282Y-74221717D01*
X115402840Y-74125463D01*
X115256762Y-74064956D01*
X115100000Y-74044317D01*
X114943237Y-74064956D01*
X114797159Y-74125463D01*
X114671717Y-74221717D01*
X114575463Y-74347159D01*
X114514956Y-74493237D01*
X114494317Y-74650000D01*
X114503246Y-74717818D01*
X114497726Y-74773862D01*
X114467988Y-74821684D01*
X114058714Y-75230958D01*
X114050741Y-75238264D01*
X114021806Y-75262544D01*
X114002914Y-75295264D01*
X113997106Y-75304380D01*
X113974831Y-75336193D01*
X113964597Y-75360899D01*
X113957852Y-75399148D01*
X113955512Y-75409704D01*
X113945735Y-75446192D01*
X113949028Y-75483820D01*
X113949500Y-75494628D01*
X113949500Y-76330677D01*
X113949028Y-76341485D01*
X113945735Y-76379112D01*
X113955512Y-76415601D01*
X113957853Y-76426157D01*
X113964599Y-76464412D01*
X113974829Y-76489108D01*
X113975446Y-76489989D01*
X113997112Y-76520932D01*
X114002915Y-76530041D01*
X114021806Y-76562760D01*
X114050742Y-76587040D01*
X114058718Y-76594349D01*
X114455650Y-76991282D01*
X114462957Y-76999255D01*
X114487240Y-77028194D01*
X114500698Y-77035963D01*
X114519956Y-77047083D01*
X114529077Y-77052894D01*
X114560890Y-77075169D01*
X114585596Y-77085402D01*
X114586649Y-77085587D01*
X114586650Y-77085588D01*
X114623838Y-77092145D01*
X114634396Y-77094484D01*
X114670888Y-77104263D01*
X114670888Y-77104262D01*
X114670889Y-77104263D01*
X114691781Y-77102435D01*
X114708506Y-77100971D01*
X114719313Y-77100500D01*
X115280678Y-77100500D01*
X115291485Y-77100971D01*
X115329112Y-77104264D01*
X115365629Y-77094478D01*
X115376135Y-77092149D01*
X115413350Y-77085588D01*
X115413352Y-77085586D01*
X115414417Y-77085399D01*
X115439104Y-77075173D01*
X115439987Y-77074554D01*
X115439989Y-77074554D01*
X115470930Y-77052887D01*
X115480027Y-77047091D01*
X115512760Y-77028194D01*
X115537053Y-76999241D01*
X115544341Y-76991288D01*
X129486425Y-63049205D01*
X129545946Y-63016127D01*
X129613962Y-63019469D01*
X129669957Y-63058223D01*
X129697043Y-63120702D01*
X129714956Y-63256762D01*
X129775463Y-63402840D01*
X129870390Y-63526552D01*
X129871718Y-63528282D01*
X129893256Y-63544809D01*
X129930546Y-63591631D01*
X129941557Y-63650467D01*
X129935097Y-63760281D01*
X129924429Y-63803797D01*
X129898992Y-63840680D01*
X126521684Y-67217988D01*
X126473862Y-67247726D01*
X126417818Y-67253246D01*
X126350000Y-67244317D01*
X126193237Y-67264956D01*
X126047159Y-67325463D01*
X125921717Y-67421717D01*
X125825463Y-67547159D01*
X125764956Y-67693237D01*
X125744317Y-67850000D01*
X125764956Y-68006762D01*
X125825463Y-68152840D01*
X125921717Y-68278282D01*
X126047158Y-68374535D01*
X126047159Y-68374536D01*
X126193238Y-68435044D01*
X126350000Y-68455682D01*
X126506762Y-68435044D01*
X126652841Y-68374536D01*
X126778282Y-68278282D01*
X126874536Y-68152841D01*
X126935044Y-68006762D01*
X126955682Y-67850000D01*
X126946752Y-67782180D01*
X126952273Y-67726136D01*
X126982009Y-67678315D01*
X130456919Y-64203405D01*
X130470597Y-64191591D01*
X130490281Y-64176956D01*
X130518335Y-64134353D01*
X130520289Y-64131476D01*
X130549554Y-64089684D01*
X130549554Y-64089681D01*
X130552304Y-64085755D01*
X130553412Y-64081090D01*
X130553414Y-64081088D01*
X130565206Y-64031457D01*
X130566055Y-64028103D01*
X130579263Y-63978809D01*
X130579264Y-63978807D01*
X130577125Y-63954371D01*
X130576868Y-63936297D01*
X130591517Y-63687256D01*
X130605750Y-63636452D01*
X130639816Y-63596164D01*
X130728282Y-63528282D01*
X130824536Y-63402841D01*
X130885044Y-63256762D01*
X130905682Y-63100000D01*
X130885044Y-62943238D01*
X130824536Y-62797159D01*
X130768443Y-62724057D01*
X130728282Y-62671717D01*
X130602840Y-62575463D01*
X130456762Y-62514956D01*
X130320702Y-62497043D01*
X130258223Y-62469957D01*
X130219469Y-62413962D01*
X130216127Y-62345946D01*
X130249205Y-62286425D01*
X131173811Y-61361819D01*
X131214040Y-61334939D01*
X131261493Y-61325500D01*
X136194102Y-61325500D01*
X136259583Y-61344199D01*
X136305314Y-61394657D01*
X136317505Y-61461655D01*
X136292477Y-61524987D01*
X136275463Y-61547159D01*
X136214956Y-61693237D01*
X136194317Y-61850000D01*
X136217087Y-62022947D01*
X136216551Y-62023017D01*
X136222479Y-62061536D01*
X136203532Y-62117352D01*
X136160953Y-62158114D01*
X136137240Y-62171805D01*
X136112957Y-62200743D01*
X136105651Y-62208715D01*
X135708714Y-62605653D01*
X135700741Y-62612959D01*
X135671806Y-62637239D01*
X135652914Y-62669959D01*
X135647106Y-62679075D01*
X135624831Y-62710888D01*
X135614597Y-62735594D01*
X135607852Y-62773843D01*
X135605512Y-62784399D01*
X135595735Y-62820887D01*
X135599028Y-62858515D01*
X135599500Y-62869323D01*
X135599500Y-62938812D01*
X135590061Y-62986265D01*
X135563181Y-63026493D01*
X127533714Y-71055958D01*
X127525741Y-71063264D01*
X127496806Y-71087544D01*
X127477914Y-71120264D01*
X127472106Y-71129380D01*
X127449831Y-71161193D01*
X127439597Y-71185899D01*
X127432852Y-71224148D01*
X127430512Y-71234704D01*
X127420735Y-71271192D01*
X127424028Y-71308820D01*
X127424500Y-71319628D01*
X127424500Y-71631701D01*
X127411712Y-71686545D01*
X127375986Y-71730077D01*
X127321717Y-71771718D01*
X127225463Y-71897159D01*
X127164956Y-72043237D01*
X127144317Y-72200000D01*
X127164956Y-72356762D01*
X127225463Y-72502840D01*
X127321717Y-72628282D01*
X127447159Y-72724536D01*
X127593238Y-72785044D01*
X127729360Y-72802964D01*
X127749999Y-72805682D01*
X127749999Y-72805681D01*
X127750000Y-72805682D01*
X127887624Y-72787563D01*
X127948244Y-72794738D01*
X127998097Y-72829970D01*
X128025097Y-72884721D01*
X128022701Y-72945720D01*
X127991488Y-72998183D01*
X111353714Y-89635958D01*
X111345741Y-89643264D01*
X111316806Y-89667544D01*
X111297914Y-89700264D01*
X111292106Y-89709380D01*
X111269831Y-89741193D01*
X111259597Y-89765899D01*
X111252852Y-89804148D01*
X111250512Y-89814704D01*
X111240735Y-89851192D01*
X111244028Y-89888820D01*
X111244500Y-89899628D01*
X111244500Y-90919065D01*
X111228689Y-90979654D01*
X111185290Y-91024792D01*
X111125368Y-91042969D01*
X111064205Y-91029550D01*
X111017398Y-90987955D01*
X111005241Y-90969761D01*
X110922543Y-90914504D01*
X110849625Y-90900000D01*
X110550000Y-90900000D01*
X110550000Y-92900000D01*
X110050000Y-92900000D01*
X110050000Y-92150000D01*
X109525000Y-92150000D01*
X104170004Y-92150000D01*
X104215639Y-91902933D01*
X104224883Y-91650000D01*
X109525000Y-91650000D01*
X110050000Y-91650000D01*
X110050000Y-90900000D01*
X109750375Y-90900000D01*
X109677456Y-90914504D01*
X109594760Y-90969760D01*
X109539504Y-91052456D01*
X109525000Y-91125375D01*
X109525000Y-91650000D01*
X104224883Y-91650000D01*
X104225532Y-91632235D01*
X104195906Y-91362982D01*
X104127392Y-91100912D01*
X104021450Y-90851610D01*
X103910853Y-90670390D01*
X103880337Y-90620388D01*
X103707066Y-90412181D01*
X103602078Y-90318112D01*
X103505322Y-90231418D01*
X103279410Y-90081956D01*
X103245774Y-90066188D01*
X103034142Y-89966978D01*
X102774757Y-89888941D01*
X102774751Y-89888940D01*
X102506759Y-89849500D01*
X102303689Y-89849500D01*
X102303686Y-89849500D01*
X102101163Y-89864322D01*
X101836769Y-89923219D01*
X101583761Y-90019986D01*
X101347543Y-90152559D01*
X101133145Y-90318109D01*
X100945133Y-90513120D01*
X100787521Y-90733420D01*
X100663662Y-90974329D01*
X100576201Y-91230695D01*
X100527000Y-91497066D01*
X100517107Y-91767764D01*
X99300500Y-91767764D01*
X99300500Y-87024981D01*
X100116038Y-87024981D01*
X100171059Y-87152534D01*
X100275756Y-87293166D01*
X100410060Y-87405861D01*
X100566739Y-87484548D01*
X100737340Y-87524981D01*
X101175000Y-87524981D01*
X101175000Y-87024981D01*
X101675000Y-87024981D01*
X101675000Y-87524981D01*
X102068681Y-87524981D01*
X102199140Y-87509732D01*
X102363889Y-87449768D01*
X102510374Y-87353424D01*
X102630687Y-87225900D01*
X102718349Y-87074062D01*
X102733044Y-87024981D01*
X101675000Y-87024981D01*
X101175000Y-87024981D01*
X100116038Y-87024981D01*
X99300500Y-87024981D01*
X99300500Y-87015000D01*
X104183730Y-87015000D01*
X104238751Y-87142553D01*
X104343448Y-87283185D01*
X104477752Y-87395880D01*
X104634431Y-87474567D01*
X104805032Y-87515000D01*
X105242692Y-87515000D01*
X105242692Y-87015000D01*
X105742692Y-87015000D01*
X105742692Y-87515000D01*
X106136373Y-87515000D01*
X106266832Y-87499751D01*
X106431581Y-87439787D01*
X106578066Y-87343443D01*
X106698379Y-87215919D01*
X106786041Y-87064081D01*
X106800736Y-87015000D01*
X105742692Y-87015000D01*
X105242692Y-87015000D01*
X104183730Y-87015000D01*
X99300500Y-87015000D01*
X99300500Y-85974500D01*
X99317113Y-85912500D01*
X99362500Y-85867113D01*
X99424500Y-85850500D01*
X100468898Y-85850500D01*
X100534608Y-85869342D01*
X100580348Y-85920142D01*
X100592219Y-85987461D01*
X100566611Y-86050842D01*
X100511309Y-86091022D01*
X100486109Y-86100193D01*
X100339625Y-86196537D01*
X100219312Y-86324061D01*
X100131650Y-86475899D01*
X100116956Y-86524981D01*
X102733962Y-86524981D01*
X102678940Y-86397427D01*
X102574243Y-86256795D01*
X102439939Y-86144100D01*
X102322880Y-86085311D01*
X102274145Y-86041429D01*
X102254607Y-85978828D01*
X102269730Y-85915016D01*
X102315286Y-85867842D01*
X102378531Y-85850500D01*
X104509168Y-85850500D01*
X104574878Y-85869342D01*
X104620619Y-85920143D01*
X104632489Y-85987462D01*
X104606881Y-86050843D01*
X104565180Y-86081139D01*
X104565910Y-86082249D01*
X104407317Y-86186556D01*
X104287004Y-86314080D01*
X104199342Y-86465918D01*
X104184648Y-86515000D01*
X106801654Y-86515000D01*
X106746632Y-86387446D01*
X106641935Y-86246814D01*
X106507628Y-86134116D01*
X106410829Y-86085502D01*
X106362054Y-86041560D01*
X106342551Y-85978874D01*
X106357784Y-85915016D01*
X106403485Y-85867885D01*
X106466842Y-85850693D01*
X106468037Y-85850697D01*
X106599274Y-85814732D01*
X106716338Y-85745361D01*
X106810904Y-85647516D01*
X106828729Y-85614956D01*
X106876246Y-85528159D01*
X106876246Y-85528158D01*
X106876247Y-85528157D01*
X106907721Y-85395772D01*
X106903086Y-85259776D01*
X106862671Y-85129841D01*
X106789353Y-85015208D01*
X106688344Y-84924030D01*
X106688343Y-84924029D01*
X106566829Y-84862790D01*
X106510570Y-84851593D01*
X106490215Y-84845695D01*
X106489062Y-84845251D01*
X106484998Y-84843603D01*
X106402406Y-84808386D01*
X106376224Y-84793207D01*
X106357661Y-84779162D01*
X106347726Y-84770792D01*
X106303029Y-84728940D01*
X106288579Y-84712821D01*
X106272483Y-84691358D01*
X106261065Y-84672987D01*
X106233438Y-84618430D01*
X106228204Y-84606594D01*
X106219846Y-84584644D01*
X106212617Y-84555296D01*
X106202023Y-84466885D01*
X106201588Y-84462634D01*
X106201240Y-84458511D01*
X106200996Y-84441151D01*
X106201261Y-84436425D01*
X106214621Y-84386995D01*
X106246810Y-84347180D01*
X106281108Y-84319278D01*
X106368377Y-84195647D01*
X106371273Y-84187500D01*
X106394897Y-84121027D01*
X106419054Y-84053056D01*
X106429381Y-83902079D01*
X106398592Y-83753915D01*
X106328971Y-83619553D01*
X106328970Y-83619551D01*
X106233877Y-83517733D01*
X106209146Y-83478586D01*
X106200500Y-83433096D01*
X106200500Y-78663829D01*
X106212519Y-78610573D01*
X106246246Y-78567640D01*
X106281108Y-78539278D01*
X106368377Y-78415647D01*
X106419054Y-78273056D01*
X106429381Y-78122079D01*
X106398592Y-77973915D01*
X106328971Y-77839553D01*
X106328970Y-77839551D01*
X106240300Y-77744610D01*
X106215038Y-77704095D01*
X106206958Y-77657038D01*
X106217253Y-77610425D01*
X106244678Y-77547522D01*
X106255495Y-77527818D01*
X106275532Y-77498081D01*
X106279885Y-77492026D01*
X106317678Y-77442681D01*
X106329268Y-77429579D01*
X106357542Y-77401843D01*
X106366879Y-77393567D01*
X106413217Y-77356497D01*
X106423326Y-77349215D01*
X106456547Y-77327746D01*
X106471865Y-77319318D01*
X106528506Y-77293185D01*
X106535315Y-77290290D01*
X106568555Y-77277333D01*
X106590162Y-77271103D01*
X106675494Y-77254708D01*
X106677934Y-77254265D01*
X106684533Y-77253135D01*
X106689534Y-77252279D01*
X106710462Y-77250500D01*
X106765892Y-77250500D01*
X106893186Y-77216392D01*
X107007314Y-77150500D01*
X107100500Y-77057314D01*
X107166392Y-76943186D01*
X107200500Y-76815892D01*
X107200500Y-76684108D01*
X107166392Y-76556813D01*
X107100500Y-76442685D01*
X107007314Y-76349499D01*
X106893186Y-76283607D01*
X106765892Y-76249500D01*
X106700099Y-76249500D01*
X106428507Y-76249500D01*
X106362797Y-76230658D01*
X106317057Y-76179858D01*
X106305186Y-76112539D01*
X106330794Y-76049158D01*
X106386096Y-76008978D01*
X106431582Y-75992422D01*
X106578066Y-75896078D01*
X106698379Y-75768554D01*
X106786041Y-75616716D01*
X106800736Y-75567635D01*
X104183730Y-75567635D01*
X104238751Y-75695188D01*
X104343448Y-75835820D01*
X104477752Y-75948515D01*
X104609515Y-76014689D01*
X104658250Y-76058571D01*
X104677788Y-76121172D01*
X104662665Y-76184984D01*
X104617109Y-76232158D01*
X104553864Y-76249500D01*
X102200524Y-76249500D01*
X102134814Y-76230658D01*
X102089073Y-76179857D01*
X102077203Y-76112538D01*
X102102811Y-76049157D01*
X102144511Y-76018860D01*
X102143782Y-76017751D01*
X102302374Y-75913443D01*
X102422687Y-75785919D01*
X102510349Y-75634081D01*
X102525044Y-75585000D01*
X99908038Y-75585000D01*
X99963059Y-75712553D01*
X100067756Y-75853185D01*
X100202060Y-75965880D01*
X100299246Y-76014689D01*
X100347981Y-76058571D01*
X100367519Y-76121172D01*
X100352396Y-76184984D01*
X100306840Y-76232158D01*
X100243595Y-76249500D01*
X99424500Y-76249500D01*
X99362500Y-76232887D01*
X99317113Y-76187500D01*
X99300500Y-76125500D01*
X99300500Y-75085000D01*
X99908956Y-75085000D01*
X100967000Y-75085000D01*
X100967000Y-74585000D01*
X101467000Y-74585000D01*
X101467000Y-75085000D01*
X102525962Y-75085000D01*
X102518471Y-75067635D01*
X104184648Y-75067635D01*
X105242692Y-75067635D01*
X105242692Y-74567635D01*
X105742692Y-74567635D01*
X105742692Y-75067635D01*
X106801654Y-75067635D01*
X106746632Y-74940081D01*
X106641935Y-74799449D01*
X106507631Y-74686754D01*
X106350952Y-74608067D01*
X106180352Y-74567635D01*
X105742692Y-74567635D01*
X105242692Y-74567635D01*
X104849011Y-74567635D01*
X104718551Y-74582883D01*
X104553802Y-74642847D01*
X104407317Y-74739191D01*
X104287004Y-74866715D01*
X104199342Y-75018553D01*
X104184648Y-75067635D01*
X102518471Y-75067635D01*
X102470940Y-74957446D01*
X102366243Y-74816814D01*
X102231939Y-74704119D01*
X102075260Y-74625432D01*
X101904660Y-74585000D01*
X101467000Y-74585000D01*
X100967000Y-74585000D01*
X100573319Y-74585000D01*
X100442859Y-74600248D01*
X100278110Y-74660212D01*
X100131625Y-74756556D01*
X100011312Y-74884080D01*
X99923650Y-75035918D01*
X99908956Y-75085000D01*
X99300500Y-75085000D01*
X99300500Y-70200000D01*
X100425000Y-70200000D01*
X100425000Y-70347824D01*
X100431402Y-70407375D01*
X100481647Y-70542089D01*
X100567811Y-70657188D01*
X100682910Y-70743352D01*
X100817624Y-70793597D01*
X100877176Y-70800000D01*
X101300000Y-70800000D01*
X101300000Y-70200000D01*
X101800000Y-70200000D01*
X101800000Y-70800000D01*
X102222824Y-70800000D01*
X102282375Y-70793597D01*
X102417089Y-70743352D01*
X102532188Y-70657188D01*
X102618352Y-70542089D01*
X102668597Y-70407375D01*
X102675000Y-70347824D01*
X102675000Y-70200000D01*
X101800000Y-70200000D01*
X101300000Y-70200000D01*
X100425000Y-70200000D01*
X99300500Y-70200000D01*
X99300500Y-69700000D01*
X100425000Y-69700000D01*
X101300000Y-69700000D01*
X101300000Y-69100000D01*
X101800000Y-69100000D01*
X101800000Y-69700000D01*
X102675000Y-69700000D01*
X102675000Y-69552176D01*
X102668597Y-69492624D01*
X102618352Y-69357910D01*
X102532188Y-69242811D01*
X102417089Y-69156647D01*
X102282375Y-69106402D01*
X102222824Y-69100000D01*
X101800000Y-69100000D01*
X101300000Y-69100000D01*
X100877176Y-69100000D01*
X100817624Y-69106402D01*
X100682910Y-69156647D01*
X100567811Y-69242811D01*
X100481647Y-69357910D01*
X100431402Y-69492624D01*
X100425000Y-69552176D01*
X100425000Y-69700000D01*
X99300500Y-69700000D01*
X99300500Y-67950000D01*
X100469434Y-67950000D01*
X100489631Y-68129251D01*
X100489631Y-68129253D01*
X100489632Y-68129255D01*
X100549211Y-68299522D01*
X100605979Y-68389867D01*
X100645185Y-68452264D01*
X100772735Y-68579814D01*
X100772737Y-68579815D01*
X100772738Y-68579816D01*
X100925478Y-68675789D01*
X101095745Y-68735368D01*
X101162895Y-68742934D01*
X101230043Y-68750500D01*
X101230046Y-68750500D01*
X101869954Y-68750500D01*
X101869957Y-68750500D01*
X101927511Y-68744014D01*
X102004255Y-68735368D01*
X102174522Y-68675789D01*
X102327262Y-68579816D01*
X102454816Y-68452262D01*
X102550789Y-68299522D01*
X102610368Y-68129255D01*
X102630565Y-67950000D01*
X102610368Y-67770745D01*
X102550789Y-67600478D01*
X102454816Y-67447738D01*
X102454815Y-67447737D01*
X102454814Y-67447735D01*
X102327264Y-67320185D01*
X102206520Y-67244317D01*
X102174522Y-67224211D01*
X102004255Y-67164632D01*
X102004253Y-67164631D01*
X102004251Y-67164631D01*
X101869957Y-67149500D01*
X101869954Y-67149500D01*
X101230046Y-67149500D01*
X101230043Y-67149500D01*
X101095748Y-67164631D01*
X101095745Y-67164631D01*
X101095745Y-67164632D01*
X100925478Y-67224211D01*
X100925476Y-67224211D01*
X100925476Y-67224212D01*
X100772735Y-67320185D01*
X100645185Y-67447735D01*
X100579144Y-67552840D01*
X100549211Y-67600478D01*
X100516753Y-67693237D01*
X100489631Y-67770748D01*
X100469434Y-67950000D01*
X99300500Y-67950000D01*
X99300500Y-62600000D01*
X100425000Y-62600000D01*
X100425000Y-62747824D01*
X100431402Y-62807375D01*
X100481647Y-62942089D01*
X100567811Y-63057188D01*
X100682910Y-63143352D01*
X100817624Y-63193597D01*
X100877176Y-63200000D01*
X101300000Y-63200000D01*
X101300000Y-62600000D01*
X101800000Y-62600000D01*
X101800000Y-63200000D01*
X102222824Y-63200000D01*
X102282375Y-63193597D01*
X102417089Y-63143352D01*
X102532188Y-63057188D01*
X102618352Y-62942089D01*
X102668597Y-62807375D01*
X102675000Y-62747824D01*
X102675000Y-62600000D01*
X101800000Y-62600000D01*
X101300000Y-62600000D01*
X100425000Y-62600000D01*
X99300500Y-62600000D01*
X99300500Y-62100000D01*
X100425000Y-62100000D01*
X101300000Y-62100000D01*
X101300000Y-61500000D01*
X101800000Y-61500000D01*
X101800000Y-62100000D01*
X102675000Y-62100000D01*
X102675000Y-61952176D01*
X102668597Y-61892624D01*
X102618352Y-61757910D01*
X102532188Y-61642811D01*
X102417089Y-61556647D01*
X102282375Y-61506402D01*
X102222824Y-61500000D01*
X101800000Y-61500000D01*
X101300000Y-61500000D01*
X100877176Y-61500000D01*
X100817624Y-61506402D01*
X100682910Y-61556647D01*
X100567811Y-61642811D01*
X100481647Y-61757910D01*
X100431402Y-61892624D01*
X100425000Y-61952176D01*
X100425000Y-62100000D01*
X99300500Y-62100000D01*
X99300500Y-60349999D01*
X100469434Y-60349999D01*
X100489631Y-60529251D01*
X100489631Y-60529253D01*
X100489632Y-60529255D01*
X100549211Y-60699522D01*
X100589467Y-60763589D01*
X100645185Y-60852264D01*
X100772735Y-60979814D01*
X100772737Y-60979815D01*
X100772738Y-60979816D01*
X100925478Y-61075789D01*
X101095745Y-61135368D01*
X101162895Y-61142933D01*
X101230043Y-61150500D01*
X101230046Y-61150500D01*
X101869954Y-61150500D01*
X101869957Y-61150500D01*
X101927511Y-61144014D01*
X102004255Y-61135368D01*
X102174522Y-61075789D01*
X102327262Y-60979816D01*
X102454816Y-60852262D01*
X102550789Y-60699522D01*
X102610368Y-60529255D01*
X102630565Y-60350000D01*
X102610368Y-60170745D01*
X102550789Y-60000478D01*
X102454816Y-59847738D01*
X102454815Y-59847737D01*
X102454814Y-59847735D01*
X102327264Y-59720185D01*
X102263822Y-59680322D01*
X102174522Y-59624211D01*
X102004255Y-59564632D01*
X102004253Y-59564631D01*
X102004251Y-59564631D01*
X101869957Y-59549500D01*
X101869954Y-59549500D01*
X101230046Y-59549500D01*
X101230043Y-59549500D01*
X101095748Y-59564631D01*
X101095745Y-59564631D01*
X101095745Y-59564632D01*
X100925478Y-59624211D01*
X100925476Y-59624211D01*
X100925476Y-59624212D01*
X100772735Y-59720185D01*
X100645185Y-59847735D01*
X100549212Y-60000476D01*
X100489631Y-60170748D01*
X100469434Y-60349999D01*
X99300500Y-60349999D01*
X99300500Y-58800000D01*
X106931817Y-58800000D01*
X106952456Y-58956762D01*
X107012963Y-59102840D01*
X107109217Y-59228282D01*
X107234658Y-59324535D01*
X107234659Y-59324536D01*
X107380738Y-59385044D01*
X107516861Y-59402964D01*
X107537499Y-59405682D01*
X107537499Y-59405681D01*
X107537500Y-59405682D01*
X107694262Y-59385044D01*
X107840341Y-59324536D01*
X107965782Y-59228282D01*
X108007423Y-59174013D01*
X108050955Y-59138288D01*
X108105799Y-59125500D01*
X109413812Y-59125500D01*
X109461265Y-59134939D01*
X109501493Y-59161819D01*
X111130950Y-60791276D01*
X111138258Y-60799250D01*
X111162545Y-60828194D01*
X111186594Y-60842079D01*
X111195256Y-60847080D01*
X111204379Y-60852892D01*
X111235316Y-60874554D01*
X111235317Y-60874554D01*
X111236198Y-60875171D01*
X111260891Y-60885400D01*
X111261954Y-60885587D01*
X111261955Y-60885588D01*
X111299143Y-60892145D01*
X111309706Y-60894487D01*
X111346192Y-60904264D01*
X111346192Y-60904263D01*
X111346193Y-60904264D01*
X111383819Y-60900971D01*
X111394627Y-60900500D01*
X113480678Y-60900500D01*
X113491485Y-60900971D01*
X113529112Y-60904264D01*
X113565629Y-60894478D01*
X113576135Y-60892149D01*
X113613350Y-60885588D01*
X113613351Y-60885587D01*
X113634889Y-60881790D01*
X113635145Y-60883245D01*
X113664050Y-60875500D01*
X115313812Y-60875500D01*
X115361265Y-60884939D01*
X115401493Y-60911819D01*
X116467988Y-61978314D01*
X116497726Y-62026136D01*
X116503246Y-62082180D01*
X116494317Y-62149999D01*
X116514956Y-62306762D01*
X116575463Y-62452840D01*
X116671717Y-62578282D01*
X116797158Y-62674535D01*
X116797159Y-62674536D01*
X116943238Y-62735044D01*
X117079361Y-62752964D01*
X117099999Y-62755682D01*
X117099999Y-62755681D01*
X117100000Y-62755682D01*
X117256762Y-62735044D01*
X117402841Y-62674536D01*
X117528282Y-62578282D01*
X117624536Y-62452841D01*
X117685044Y-62306762D01*
X117705682Y-62150000D01*
X117685044Y-61993238D01*
X117624536Y-61847159D01*
X117593564Y-61806795D01*
X117528282Y-61721717D01*
X117402840Y-61625463D01*
X117256762Y-61564956D01*
X117099999Y-61544317D01*
X117032180Y-61553246D01*
X116976136Y-61547726D01*
X116928314Y-61517988D01*
X115744043Y-60333717D01*
X115736734Y-60325741D01*
X115712454Y-60296805D01*
X115679736Y-60277915D01*
X115670627Y-60272112D01*
X115639684Y-60250446D01*
X115638803Y-60249829D01*
X115614107Y-60239599D01*
X115575852Y-60232853D01*
X115565296Y-60230512D01*
X115528807Y-60220735D01*
X115491180Y-60224028D01*
X115480372Y-60224500D01*
X113544922Y-60224500D01*
X113534114Y-60224028D01*
X113496496Y-60220736D01*
X113460015Y-60230511D01*
X113449460Y-60232852D01*
X113439967Y-60234526D01*
X113412260Y-60239412D01*
X113412258Y-60239412D01*
X113390733Y-60243209D01*
X113390476Y-60241753D01*
X113361563Y-60249500D01*
X111561188Y-60249500D01*
X111513735Y-60240061D01*
X111473507Y-60213181D01*
X109844043Y-58583717D01*
X109836734Y-58575741D01*
X109828599Y-58566046D01*
X109812455Y-58546806D01*
X109812454Y-58546805D01*
X109779736Y-58527915D01*
X109770627Y-58522112D01*
X109739684Y-58500446D01*
X109738803Y-58499829D01*
X109714107Y-58489599D01*
X109675852Y-58482853D01*
X109665296Y-58480512D01*
X109628807Y-58470735D01*
X109591180Y-58474028D01*
X109580372Y-58474500D01*
X108105799Y-58474500D01*
X108050955Y-58461712D01*
X108007423Y-58425986D01*
X107972246Y-58380142D01*
X107965782Y-58371718D01*
X107908884Y-58328059D01*
X107840340Y-58275463D01*
X107694262Y-58214956D01*
X107537499Y-58194317D01*
X107380737Y-58214956D01*
X107234659Y-58275463D01*
X107109217Y-58371717D01*
X107012963Y-58497159D01*
X106952456Y-58643237D01*
X106931817Y-58800000D01*
X99300500Y-58800000D01*
X99300500Y-52617764D01*
X100545787Y-52617764D01*
X100575413Y-52887016D01*
X100608171Y-53012314D01*
X100643928Y-53149088D01*
X100709568Y-53303551D01*
X100749871Y-53398392D01*
X100890982Y-53629611D01*
X101064253Y-53837818D01*
X101064255Y-53837820D01*
X101265998Y-54018582D01*
X101491910Y-54168044D01*
X101598211Y-54217876D01*
X101737177Y-54283021D01*
X101961469Y-54350500D01*
X101996569Y-54361060D01*
X102264561Y-54400500D01*
X102467631Y-54400500D01*
X102467634Y-54400500D01*
X102670156Y-54385677D01*
X102670156Y-54385676D01*
X102934553Y-54326780D01*
X103187558Y-54230014D01*
X103423777Y-54097441D01*
X103638177Y-53931888D01*
X103826186Y-53736881D01*
X103983799Y-53516579D01*
X104107656Y-53275675D01*
X104195118Y-53019305D01*
X104244319Y-52752933D01*
X104254212Y-52482235D01*
X104228659Y-52250000D01*
X109100000Y-52250000D01*
X109100000Y-52672824D01*
X109106402Y-52732375D01*
X109156647Y-52867089D01*
X109242811Y-52982188D01*
X109357910Y-53068352D01*
X109492624Y-53118597D01*
X109552176Y-53125000D01*
X109700000Y-53125000D01*
X109700000Y-52250000D01*
X110200000Y-52250000D01*
X110200000Y-53125000D01*
X110347824Y-53125000D01*
X110407375Y-53118597D01*
X110542089Y-53068352D01*
X110657188Y-52982188D01*
X110743352Y-52867089D01*
X110793597Y-52732375D01*
X110800000Y-52672824D01*
X110800000Y-52319957D01*
X111149500Y-52319957D01*
X111164631Y-52454251D01*
X111164631Y-52454253D01*
X111164632Y-52454255D01*
X111224211Y-52624522D01*
X111224212Y-52624523D01*
X111320185Y-52777264D01*
X111447735Y-52904814D01*
X111447737Y-52904815D01*
X111447738Y-52904816D01*
X111600478Y-53000789D01*
X111770745Y-53060368D01*
X111950000Y-53080565D01*
X112129255Y-53060368D01*
X112299522Y-53000789D01*
X112452262Y-52904816D01*
X112579816Y-52777262D01*
X112641389Y-52679269D01*
X116249500Y-52679269D01*
X116252353Y-52709696D01*
X116297207Y-52837884D01*
X116377849Y-52947150D01*
X116487115Y-53027792D01*
X116487118Y-53027793D01*
X116615301Y-53072646D01*
X116627474Y-53073787D01*
X116645731Y-53075500D01*
X116645734Y-53075500D01*
X117454266Y-53075500D01*
X117454269Y-53075500D01*
X117469482Y-53074073D01*
X117484699Y-53072646D01*
X117612882Y-53027793D01*
X117612882Y-53027792D01*
X117612884Y-53027792D01*
X117722150Y-52947150D01*
X117802792Y-52837884D01*
X117804005Y-52834417D01*
X117847646Y-52709699D01*
X117850500Y-52679266D01*
X117850500Y-52250000D01*
X118200000Y-52250000D01*
X118200000Y-52321085D01*
X118214977Y-52458801D01*
X118274011Y-52634009D01*
X118369330Y-52792431D01*
X118496475Y-52926655D01*
X118649507Y-53030413D01*
X118799999Y-53090375D01*
X118800000Y-53090376D01*
X118800000Y-52250000D01*
X119300000Y-52250000D01*
X119300000Y-53087742D01*
X119366472Y-53069285D01*
X119529820Y-52982685D01*
X119670737Y-52862987D01*
X119782624Y-52715804D01*
X119860254Y-52548008D01*
X119900000Y-52367443D01*
X119900000Y-52250000D01*
X119300000Y-52250000D01*
X118800000Y-52250000D01*
X118200000Y-52250000D01*
X117850500Y-52250000D01*
X117850500Y-51750000D01*
X118200000Y-51750000D01*
X118800000Y-51750000D01*
X118800000Y-50912258D01*
X118799999Y-50912257D01*
X118733527Y-50930714D01*
X118570179Y-51017314D01*
X118429262Y-51137012D01*
X118317375Y-51284195D01*
X118239745Y-51451991D01*
X118200000Y-51632557D01*
X118200000Y-51750000D01*
X117850500Y-51750000D01*
X117850500Y-51320734D01*
X117847646Y-51290301D01*
X117802793Y-51162118D01*
X117802792Y-51162115D01*
X117722150Y-51052849D01*
X117612884Y-50972207D01*
X117484696Y-50927353D01*
X117454269Y-50924500D01*
X117454266Y-50924500D01*
X116645734Y-50924500D01*
X116645731Y-50924500D01*
X116615303Y-50927353D01*
X116487115Y-50972207D01*
X116377849Y-51052849D01*
X116297207Y-51162115D01*
X116252353Y-51290303D01*
X116249500Y-51320731D01*
X116249500Y-52679269D01*
X112641389Y-52679269D01*
X112675789Y-52624522D01*
X112735368Y-52454255D01*
X112747445Y-52347066D01*
X112750500Y-52319957D01*
X112750500Y-51680043D01*
X112735368Y-51545748D01*
X112735368Y-51545745D01*
X112675789Y-51375478D01*
X112579816Y-51222738D01*
X112579815Y-51222737D01*
X112579814Y-51222735D01*
X112452264Y-51095185D01*
X112357963Y-51035932D01*
X112299522Y-50999211D01*
X112129255Y-50939632D01*
X112129253Y-50939631D01*
X112129251Y-50939631D01*
X111949999Y-50919434D01*
X111770748Y-50939631D01*
X111770745Y-50939631D01*
X111770745Y-50939632D01*
X111600478Y-50999211D01*
X111600476Y-50999211D01*
X111600476Y-50999212D01*
X111447735Y-51095185D01*
X111320185Y-51222735D01*
X111224212Y-51375476D01*
X111224211Y-51375478D01*
X111197851Y-51450811D01*
X111164631Y-51545748D01*
X111149500Y-51680043D01*
X111149500Y-52319957D01*
X110800000Y-52319957D01*
X110800000Y-52250000D01*
X110200000Y-52250000D01*
X109700000Y-52250000D01*
X109100000Y-52250000D01*
X104228659Y-52250000D01*
X104224586Y-52212982D01*
X104156072Y-51950912D01*
X104070694Y-51750000D01*
X109100000Y-51750000D01*
X109700000Y-51750000D01*
X109700000Y-50875000D01*
X110200000Y-50875000D01*
X110200000Y-51750000D01*
X110800000Y-51750000D01*
X110800000Y-51327176D01*
X110793597Y-51267624D01*
X110743352Y-51132910D01*
X110657188Y-51017811D01*
X110542089Y-50931647D01*
X110483042Y-50909624D01*
X119300000Y-50909624D01*
X119300000Y-51750000D01*
X119900000Y-51750000D01*
X119900000Y-51678915D01*
X119885022Y-51541198D01*
X119825988Y-51365990D01*
X119730669Y-51207568D01*
X119603524Y-51073344D01*
X119450492Y-50969586D01*
X119300000Y-50909624D01*
X110483042Y-50909624D01*
X110407375Y-50881402D01*
X110347824Y-50875000D01*
X110200000Y-50875000D01*
X109700000Y-50875000D01*
X109552176Y-50875000D01*
X109492624Y-50881402D01*
X109357910Y-50931647D01*
X109242811Y-51017811D01*
X109156647Y-51132910D01*
X109106402Y-51267624D01*
X109100000Y-51327176D01*
X109100000Y-51750000D01*
X104070694Y-51750000D01*
X104050130Y-51701610D01*
X103961224Y-51555932D01*
X103909017Y-51470388D01*
X103735746Y-51262181D01*
X103679941Y-51212180D01*
X103534002Y-51081418D01*
X103308090Y-50931956D01*
X103292185Y-50924500D01*
X103062822Y-50816978D01*
X102803437Y-50738941D01*
X102803431Y-50738940D01*
X102535439Y-50699500D01*
X102332369Y-50699500D01*
X102332366Y-50699500D01*
X102129843Y-50714322D01*
X101865449Y-50773219D01*
X101612441Y-50869986D01*
X101376223Y-51002559D01*
X101161825Y-51168109D01*
X100973813Y-51363120D01*
X100816201Y-51583420D01*
X100692342Y-51824329D01*
X100604881Y-52080695D01*
X100555680Y-52347066D01*
X100545787Y-52617764D01*
X99300500Y-52617764D01*
X99300500Y-52403245D01*
X99300670Y-52396756D01*
X99303274Y-52347066D01*
X99307501Y-52266421D01*
X99317628Y-52086087D01*
X99318954Y-52073694D01*
X99342513Y-51924947D01*
X99342700Y-51923809D01*
X99369739Y-51764666D01*
X99372199Y-51753402D01*
X99412150Y-51604305D01*
X99412709Y-51602293D01*
X99456351Y-51450811D01*
X99459724Y-51440753D01*
X99515588Y-51295219D01*
X99516667Y-51292515D01*
X99576443Y-51148202D01*
X99580491Y-51139423D01*
X99651575Y-50999913D01*
X99653485Y-50996316D01*
X99728596Y-50860413D01*
X99733079Y-50852942D01*
X99818623Y-50721215D01*
X99821429Y-50717084D01*
X99911007Y-50590836D01*
X99915752Y-50584580D01*
X100014695Y-50462395D01*
X100018522Y-50457896D01*
X100121613Y-50342537D01*
X100126323Y-50337556D01*
X100237556Y-50226323D01*
X100242537Y-50221613D01*
X100357896Y-50118522D01*
X100362395Y-50114695D01*
X100484580Y-50015752D01*
X100490841Y-50011004D01*
X100617084Y-49921429D01*
X100621215Y-49918623D01*
X100752942Y-49833079D01*
X100760413Y-49828596D01*
X100896316Y-49753485D01*
X100899913Y-49751575D01*
X101039423Y-49680491D01*
X101048202Y-49676443D01*
X101192515Y-49616667D01*
X101195219Y-49615588D01*
X101340753Y-49559724D01*
X101350811Y-49556351D01*
X101502293Y-49512709D01*
X101504305Y-49512150D01*
X101653402Y-49472199D01*
X101664666Y-49469739D01*
X101823809Y-49442700D01*
X101824947Y-49442513D01*
X101973694Y-49418954D01*
X101986087Y-49417628D01*
X102166554Y-49407493D01*
X102296756Y-49400669D01*
X102303245Y-49400500D01*
X133675500Y-49400500D01*
X133737500Y-49417113D01*
G37*
%TD.AperFunction*%
%TD*%
M02*
