%TF.GenerationSoftware,KiCad,Pcbnew,7.0.1*%
%TF.CreationDate,2023-11-12T23:31:08+01:00*%
%TF.ProjectId,GasWeighter,47617357-6569-4676-9874-65722e6b6963,rev?*%
%TF.SameCoordinates,Original*%
%TF.FileFunction,Soldermask,Bot*%
%TF.FilePolarity,Negative*%
%FSLAX46Y46*%
G04 Gerber Fmt 4.6, Leading zero omitted, Abs format (unit mm)*
G04 Created by KiCad (PCBNEW 7.0.1) date 2023-11-12 23:31:08*
%MOMM*%
%LPD*%
G01*
G04 APERTURE LIST*
G04 Aperture macros list*
%AMRoundRect*
0 Rectangle with rounded corners*
0 $1 Rounding radius*
0 $2 $3 $4 $5 $6 $7 $8 $9 X,Y pos of 4 corners*
0 Add a 4 corners polygon primitive as box body*
4,1,4,$2,$3,$4,$5,$6,$7,$8,$9,$2,$3,0*
0 Add four circle primitives for the rounded corners*
1,1,$1+$1,$2,$3*
1,1,$1+$1,$4,$5*
1,1,$1+$1,$6,$7*
1,1,$1+$1,$8,$9*
0 Add four rect primitives between the rounded corners*
20,1,$1+$1,$2,$3,$4,$5,0*
20,1,$1+$1,$4,$5,$6,$7,0*
20,1,$1+$1,$6,$7,$8,$9,0*
20,1,$1+$1,$8,$9,$2,$3,0*%
G04 Aperture macros list end*
%ADD10C,3.200000*%
%ADD11RoundRect,0.250000X-0.350000X-0.625000X0.350000X-0.625000X0.350000X0.625000X-0.350000X0.625000X0*%
%ADD12O,1.200000X1.750000*%
%ADD13RoundRect,0.250000X0.350000X0.625000X-0.350000X0.625000X-0.350000X-0.625000X0.350000X-0.625000X0*%
%ADD14C,0.600000*%
%ADD15O,2.300000X1.200000*%
%ADD16O,2.000000X1.200000*%
%ADD17R,1.700000X1.700000*%
%ADD18O,1.700000X1.700000*%
%ADD19R,1.050000X1.500000*%
%ADD20O,1.050000X1.500000*%
%ADD21RoundRect,0.250000X0.625000X-0.350000X0.625000X0.350000X-0.625000X0.350000X-0.625000X-0.350000X0*%
%ADD22O,1.750000X1.200000*%
%ADD23RoundRect,0.250000X-0.625000X0.350000X-0.625000X-0.350000X0.625000X-0.350000X0.625000X0.350000X0*%
G04 APERTURE END LIST*
D10*
%TO.C,H1*%
X106250000Y-70500000D03*
%TD*%
D11*
%TO.C,J12*%
X123150000Y-72100000D03*
D12*
X125150000Y-72100000D03*
%TD*%
D13*
%TO.C,J9*%
X149000000Y-112350000D03*
D12*
X147000000Y-112350000D03*
X145000000Y-112350000D03*
%TD*%
D13*
%TO.C,J7*%
X149000000Y-106700000D03*
D12*
X147000000Y-106700000D03*
X145000000Y-106700000D03*
%TD*%
D10*
%TO.C,H3*%
X174078680Y-114221320D03*
%TD*%
D14*
%TO.C,P1*%
X109790000Y-98050000D03*
X109790000Y-103830000D03*
D15*
X110290000Y-96615000D03*
D16*
X106090000Y-96615000D03*
D15*
X110290000Y-105265000D03*
D16*
X106090000Y-105265000D03*
%TD*%
D10*
%TO.C,H2*%
X106271320Y-114200000D03*
%TD*%
%TO.C,H4*%
X173978680Y-70421320D03*
%TD*%
D17*
%TO.C,J11*%
X164650000Y-83950000D03*
D18*
X164650000Y-81410000D03*
X164650000Y-78870000D03*
X164650000Y-76330000D03*
X164650000Y-73790000D03*
X164650000Y-71250000D03*
%TD*%
D19*
%TO.C,U2*%
X116400000Y-111800000D03*
D20*
X117670000Y-111800000D03*
X118940000Y-111800000D03*
%TD*%
D13*
%TO.C,J6*%
X140000000Y-106700000D03*
D12*
X138000000Y-106700000D03*
X136000000Y-106700000D03*
%TD*%
D21*
%TO.C,J2*%
X107650000Y-82250000D03*
D22*
X107650000Y-80250000D03*
%TD*%
D11*
%TO.C,J1*%
X114000000Y-72100000D03*
D12*
X116000000Y-72100000D03*
%TD*%
D23*
%TO.C,J10*%
X172092500Y-98337500D03*
D22*
X172092500Y-100337500D03*
X172092500Y-102337500D03*
X172092500Y-104337500D03*
%TD*%
D21*
%TO.C,J3*%
X107650000Y-89850000D03*
D22*
X107650000Y-87850000D03*
%TD*%
D13*
%TO.C,J8*%
X140000000Y-112350000D03*
D12*
X138000000Y-112350000D03*
X136000000Y-112350000D03*
%TD*%
M02*
