%TF.GenerationSoftware,KiCad,Pcbnew,7.0.1*%
%TF.CreationDate,2023-11-12T23:31:08+01:00*%
%TF.ProjectId,GasWeighter,47617357-6569-4676-9874-65722e6b6963,rev?*%
%TF.SameCoordinates,Original*%
%TF.FileFunction,Soldermask,Top*%
%TF.FilePolarity,Negative*%
%FSLAX46Y46*%
G04 Gerber Fmt 4.6, Leading zero omitted, Abs format (unit mm)*
G04 Created by KiCad (PCBNEW 7.0.1) date 2023-11-12 23:31:08*
%MOMM*%
%LPD*%
G01*
G04 APERTURE LIST*
G04 Aperture macros list*
%AMRoundRect*
0 Rectangle with rounded corners*
0 $1 Rounding radius*
0 $2 $3 $4 $5 $6 $7 $8 $9 X,Y pos of 4 corners*
0 Add a 4 corners polygon primitive as box body*
4,1,4,$2,$3,$4,$5,$6,$7,$8,$9,$2,$3,0*
0 Add four circle primitives for the rounded corners*
1,1,$1+$1,$2,$3*
1,1,$1+$1,$4,$5*
1,1,$1+$1,$6,$7*
1,1,$1+$1,$8,$9*
0 Add four rect primitives between the rounded corners*
20,1,$1+$1,$2,$3,$4,$5,0*
20,1,$1+$1,$4,$5,$6,$7,0*
20,1,$1+$1,$6,$7,$8,$9,0*
20,1,$1+$1,$8,$9,$2,$3,0*%
%AMFreePoly0*
4,1,19,0.500000,-0.750000,0.000000,-0.750000,0.000000,-0.744911,-0.071157,-0.744911,-0.207708,-0.704816,-0.327430,-0.627875,-0.420627,-0.520320,-0.479746,-0.390866,-0.500000,-0.250000,-0.500000,0.250000,-0.479746,0.390866,-0.420627,0.520320,-0.327430,0.627875,-0.207708,0.704816,-0.071157,0.744911,0.000000,0.744911,0.000000,0.750000,0.500000,0.750000,0.500000,-0.750000,0.500000,-0.750000,
$1*%
%AMFreePoly1*
4,1,19,0.000000,0.744911,0.071157,0.744911,0.207708,0.704816,0.327430,0.627875,0.420627,0.520320,0.479746,0.390866,0.500000,0.250000,0.500000,-0.250000,0.479746,-0.390866,0.420627,-0.520320,0.327430,-0.627875,0.207708,-0.704816,0.071157,-0.744911,0.000000,-0.744911,0.000000,-0.750000,-0.500000,-0.750000,-0.500000,0.750000,0.000000,0.750000,0.000000,0.744911,0.000000,0.744911,
$1*%
%AMFreePoly2*
4,1,19,0.550000,-0.750000,0.000000,-0.750000,0.000000,-0.744911,-0.071157,-0.744911,-0.207708,-0.704816,-0.327430,-0.627875,-0.420627,-0.520320,-0.479746,-0.390866,-0.500000,-0.250000,-0.500000,0.250000,-0.479746,0.390866,-0.420627,0.520320,-0.327430,0.627875,-0.207708,0.704816,-0.071157,0.744911,0.000000,0.744911,0.000000,0.750000,0.550000,0.750000,0.550000,-0.750000,0.550000,-0.750000,
$1*%
%AMFreePoly3*
4,1,19,0.000000,0.744911,0.071157,0.744911,0.207708,0.704816,0.327430,0.627875,0.420627,0.520320,0.479746,0.390866,0.500000,0.250000,0.500000,-0.250000,0.479746,-0.390866,0.420627,-0.520320,0.327430,-0.627875,0.207708,-0.704816,0.071157,-0.744911,0.000000,-0.744911,0.000000,-0.750000,-0.550000,-0.750000,-0.550000,0.750000,0.000000,0.750000,0.000000,0.744911,0.000000,0.744911,
$1*%
%AMFreePoly4*
4,1,6,0.500000,-0.850000,-0.500000,-0.850000,-0.500000,0.550000,-0.200000,0.850000,0.500000,0.850000,0.500000,-0.850000,0.500000,-0.850000,$1*%
G04 Aperture macros list end*
%ADD10RoundRect,0.250000X-0.250000X-0.475000X0.250000X-0.475000X0.250000X0.475000X-0.250000X0.475000X0*%
%ADD11RoundRect,0.237500X0.237500X-0.300000X0.237500X0.300000X-0.237500X0.300000X-0.237500X-0.300000X0*%
%ADD12C,3.200000*%
%ADD13RoundRect,0.250000X-0.350000X-0.625000X0.350000X-0.625000X0.350000X0.625000X-0.350000X0.625000X0*%
%ADD14O,1.200000X1.750000*%
%ADD15FreePoly0,180.000000*%
%ADD16FreePoly1,180.000000*%
%ADD17RoundRect,0.250000X0.475000X-0.250000X0.475000X0.250000X-0.475000X0.250000X-0.475000X-0.250000X0*%
%ADD18RoundRect,0.250000X0.350000X0.450000X-0.350000X0.450000X-0.350000X-0.450000X0.350000X-0.450000X0*%
%ADD19RoundRect,0.250000X0.450000X-0.350000X0.450000X0.350000X-0.450000X0.350000X-0.450000X-0.350000X0*%
%ADD20RoundRect,0.250000X0.350000X0.625000X-0.350000X0.625000X-0.350000X-0.625000X0.350000X-0.625000X0*%
%ADD21FreePoly2,270.000000*%
%ADD22R,1.500000X1.000000*%
%ADD23FreePoly3,270.000000*%
%ADD24RoundRect,0.150000X-0.150000X0.587500X-0.150000X-0.587500X0.150000X-0.587500X0.150000X0.587500X0*%
%ADD25RoundRect,0.243750X0.243750X0.456250X-0.243750X0.456250X-0.243750X-0.456250X0.243750X-0.456250X0*%
%ADD26RoundRect,0.250000X0.250000X0.475000X-0.250000X0.475000X-0.250000X-0.475000X0.250000X-0.475000X0*%
%ADD27RoundRect,0.250000X-0.450000X0.350000X-0.450000X-0.350000X0.450000X-0.350000X0.450000X0.350000X0*%
%ADD28R,0.250000X0.550000*%
%ADD29FreePoly4,270.000000*%
%ADD30RoundRect,0.150000X0.850000X0.150000X-0.850000X0.150000X-0.850000X-0.150000X0.850000X-0.150000X0*%
%ADD31RoundRect,0.275000X-0.400000X-0.275000X0.400000X-0.275000X0.400000X0.275000X-0.400000X0.275000X0*%
%ADD32RoundRect,0.250000X-0.350000X-0.450000X0.350000X-0.450000X0.350000X0.450000X-0.350000X0.450000X0*%
%ADD33RoundRect,0.062500X-0.062500X0.375000X-0.062500X-0.375000X0.062500X-0.375000X0.062500X0.375000X0*%
%ADD34RoundRect,0.062500X-0.375000X0.062500X-0.375000X-0.062500X0.375000X-0.062500X0.375000X0.062500X0*%
%ADD35R,1.600000X1.600000*%
%ADD36RoundRect,0.150000X-0.825000X-0.150000X0.825000X-0.150000X0.825000X0.150000X-0.825000X0.150000X0*%
%ADD37RoundRect,0.237500X-0.300000X-0.237500X0.300000X-0.237500X0.300000X0.237500X-0.300000X0.237500X0*%
%ADD38FreePoly0,90.000000*%
%ADD39FreePoly1,90.000000*%
%ADD40RoundRect,0.150000X0.150000X-0.587500X0.150000X0.587500X-0.150000X0.587500X-0.150000X-0.587500X0*%
%ADD41C,0.600000*%
%ADD42R,1.160000X0.600000*%
%ADD43R,1.160000X0.300000*%
%ADD44O,2.300000X1.200000*%
%ADD45O,2.000000X1.200000*%
%ADD46R,0.650000X1.560000*%
%ADD47R,1.700000X1.700000*%
%ADD48O,1.700000X1.700000*%
%ADD49R,1.050000X1.500000*%
%ADD50O,1.050000X1.500000*%
%ADD51RoundRect,0.250000X0.625000X-0.350000X0.625000X0.350000X-0.625000X0.350000X-0.625000X-0.350000X0*%
%ADD52O,1.750000X1.200000*%
%ADD53FreePoly0,270.000000*%
%ADD54FreePoly1,270.000000*%
%ADD55R,2.500000X1.000000*%
%ADD56R,1.000000X1.800000*%
%ADD57RoundRect,0.250000X-0.475000X0.250000X-0.475000X-0.250000X0.475000X-0.250000X0.475000X0.250000X0*%
%ADD58RoundRect,0.250000X-0.625000X0.350000X-0.625000X-0.350000X0.625000X-0.350000X0.625000X0.350000X0*%
%ADD59FreePoly2,90.000000*%
%ADD60FreePoly3,90.000000*%
%ADD61RoundRect,0.275000X0.275000X-0.400000X0.275000X0.400000X-0.275000X0.400000X-0.275000X-0.400000X0*%
G04 APERTURE END LIST*
D10*
%TO.C,C13*%
X165992500Y-98187500D03*
X167892500Y-98187500D03*
%TD*%
D11*
%TO.C,C8*%
X123200000Y-82012500D03*
X123200000Y-80287500D03*
%TD*%
D12*
%TO.C,H1*%
X106250000Y-70500000D03*
%TD*%
D13*
%TO.C,J12*%
X123150000Y-72100000D03*
D14*
X125150000Y-72100000D03*
%TD*%
D15*
%TO.C,JP5*%
X113550000Y-89900000D03*
D16*
X112250000Y-89900000D03*
%TD*%
D17*
%TO.C,C2*%
X135850000Y-77850000D03*
X135850000Y-75950000D03*
%TD*%
D18*
%TO.C,R6*%
X160350000Y-85100000D03*
X158350000Y-85100000D03*
%TD*%
D19*
%TO.C,R16*%
X172850000Y-80650000D03*
X172850000Y-78650000D03*
%TD*%
D20*
%TO.C,J9*%
X149000000Y-112350000D03*
D14*
X147000000Y-112350000D03*
X145000000Y-112350000D03*
%TD*%
D21*
%TO.C,JP2*%
X129750000Y-70950000D03*
D22*
X129750000Y-72250000D03*
D23*
X129750000Y-73550000D03*
%TD*%
D21*
%TO.C,JP3*%
X114950000Y-81000000D03*
D22*
X114950000Y-82300000D03*
D23*
X114950000Y-83600000D03*
%TD*%
D18*
%TO.C,R21*%
X125300000Y-78400000D03*
X123300000Y-78400000D03*
%TD*%
D24*
%TO.C,Q1*%
X133300000Y-90212500D03*
X131400000Y-90212500D03*
X132350000Y-92087500D03*
%TD*%
D25*
%TO.C,D1*%
X173087500Y-76700000D03*
X171212500Y-76700000D03*
%TD*%
D26*
%TO.C,C9*%
X131600000Y-82650000D03*
X129700000Y-82650000D03*
%TD*%
D27*
%TO.C,R5*%
X137900000Y-77100000D03*
X137900000Y-79100000D03*
%TD*%
D28*
%TO.C,U4*%
X128250000Y-109150000D03*
X127750000Y-109150000D03*
X127250000Y-109150000D03*
X126750000Y-109150000D03*
X126750000Y-111500000D03*
X127250000Y-111500000D03*
X127750000Y-111500000D03*
X128250000Y-111500000D03*
D29*
X127500000Y-110325000D03*
%TD*%
D20*
%TO.C,J7*%
X149000000Y-106700000D03*
D14*
X147000000Y-106700000D03*
X145000000Y-106700000D03*
%TD*%
D19*
%TO.C,R13*%
X128900000Y-104600000D03*
X128900000Y-102600000D03*
%TD*%
D30*
%TO.C,U7*%
X161442500Y-111632500D03*
X161442500Y-110362500D03*
X161442500Y-109092500D03*
X161442500Y-107822500D03*
X161442500Y-106552500D03*
X161442500Y-105282500D03*
X161442500Y-104012500D03*
X161442500Y-102742500D03*
X156442500Y-102742500D03*
X156442500Y-104012500D03*
X156442500Y-105282500D03*
X156442500Y-106552500D03*
X156442500Y-107822500D03*
X156442500Y-109092500D03*
X156442500Y-110362500D03*
X156442500Y-111632500D03*
%TD*%
D25*
%TO.C,D4*%
X113837500Y-87500000D03*
X111962500Y-87500000D03*
%TD*%
D27*
%TO.C,R18*%
X132500000Y-74800000D03*
X132500000Y-76800000D03*
%TD*%
D31*
%TO.C,SW2*%
X167550000Y-82150000D03*
X173400000Y-82150000D03*
X167550000Y-85150000D03*
X173400000Y-85150000D03*
%TD*%
D32*
%TO.C,R4*%
X136150000Y-81350000D03*
X138150000Y-81350000D03*
%TD*%
D26*
%TO.C,C4*%
X124600000Y-91500000D03*
X122700000Y-91500000D03*
%TD*%
D17*
%TO.C,C10*%
X132400000Y-87750000D03*
X132400000Y-85850000D03*
%TD*%
D32*
%TO.C,R10*%
X117500000Y-108050000D03*
X119500000Y-108050000D03*
%TD*%
D15*
%TO.C,JP1*%
X134900000Y-94500000D03*
D16*
X133600000Y-94500000D03*
%TD*%
D33*
%TO.C,U6*%
X120050000Y-78312500D03*
X119550000Y-78312500D03*
X119050000Y-78312500D03*
X118550000Y-78312500D03*
D34*
X117862500Y-79000000D03*
X117862500Y-79500000D03*
X117862500Y-80000000D03*
X117862500Y-80500000D03*
D33*
X118550000Y-81187500D03*
X119050000Y-81187500D03*
X119550000Y-81187500D03*
X120050000Y-81187500D03*
D34*
X120737500Y-80500000D03*
X120737500Y-80000000D03*
X120737500Y-79500000D03*
X120737500Y-79000000D03*
D35*
X119300000Y-79750000D03*
%TD*%
D12*
%TO.C,H3*%
X174078680Y-114221320D03*
%TD*%
D27*
%TO.C,R20*%
X120100000Y-82950000D03*
X120100000Y-84950000D03*
%TD*%
D17*
%TO.C,C1*%
X116600000Y-95550000D03*
X116600000Y-93650000D03*
%TD*%
D36*
%TO.C,U1*%
X119675000Y-93405000D03*
X119675000Y-94675000D03*
X119675000Y-95945000D03*
X119675000Y-97215000D03*
X119675000Y-98485000D03*
X119675000Y-99755000D03*
X119675000Y-101025000D03*
X119675000Y-102295000D03*
X124625000Y-102295000D03*
X124625000Y-101025000D03*
X124625000Y-99755000D03*
X124625000Y-98485000D03*
X124625000Y-97215000D03*
X124625000Y-95945000D03*
X124625000Y-94675000D03*
X124625000Y-93405000D03*
%TD*%
D37*
%TO.C,C12*%
X118137500Y-88150000D03*
X119862500Y-88150000D03*
%TD*%
D38*
%TO.C,JP6*%
X123200000Y-85300000D03*
D39*
X123200000Y-84000000D03*
%TD*%
D40*
%TO.C,Q2*%
X127900000Y-92025000D03*
X129800000Y-92025000D03*
X128850000Y-90150000D03*
%TD*%
D37*
%TO.C,C11*%
X118137500Y-86600000D03*
X119862500Y-86600000D03*
%TD*%
D41*
%TO.C,P1*%
X109790000Y-98050000D03*
X109790000Y-103830000D03*
D42*
X110810000Y-97740000D03*
X110810000Y-98540000D03*
D43*
X110810000Y-99690000D03*
X110810000Y-100690000D03*
X110810000Y-101190000D03*
X110810000Y-102190000D03*
D42*
X110810000Y-103340000D03*
X110810000Y-104140000D03*
X110810000Y-104140000D03*
X110810000Y-103340000D03*
D43*
X110810000Y-102690000D03*
X110810000Y-101690000D03*
X110810000Y-100190000D03*
X110810000Y-99190000D03*
D42*
X110810000Y-98540000D03*
X110810000Y-97740000D03*
D44*
X110290000Y-96615000D03*
D45*
X106090000Y-96615000D03*
D44*
X110290000Y-105265000D03*
D45*
X106090000Y-105265000D03*
%TD*%
D12*
%TO.C,H2*%
X106271320Y-114200000D03*
%TD*%
D32*
%TO.C,R11*%
X158400000Y-79150000D03*
X160400000Y-79150000D03*
%TD*%
%TO.C,R22*%
X114700000Y-76500000D03*
X116700000Y-76500000D03*
%TD*%
D12*
%TO.C,H4*%
X173978680Y-70421320D03*
%TD*%
D25*
%TO.C,D3*%
X113637500Y-78700000D03*
X111762500Y-78700000D03*
%TD*%
D46*
%TO.C,U5*%
X130400000Y-84800000D03*
X129450000Y-84800000D03*
X128500000Y-84800000D03*
X128500000Y-87500000D03*
X130400000Y-87500000D03*
%TD*%
D32*
%TO.C,R26*%
X165892500Y-105637500D03*
X167892500Y-105637500D03*
%TD*%
D10*
%TO.C,C6*%
X126550000Y-114800000D03*
X128450000Y-114800000D03*
%TD*%
D19*
%TO.C,R1*%
X116600000Y-99350000D03*
X116600000Y-97350000D03*
%TD*%
%TO.C,R7*%
X158500000Y-93250000D03*
X158500000Y-91250000D03*
%TD*%
D47*
%TO.C,J11*%
X164650000Y-83950000D03*
D48*
X164650000Y-81410000D03*
X164650000Y-78870000D03*
X164650000Y-76330000D03*
X164650000Y-73790000D03*
X164650000Y-71250000D03*
%TD*%
D25*
%TO.C,D2*%
X113887500Y-92850000D03*
X112012500Y-92850000D03*
%TD*%
D49*
%TO.C,U2*%
X116400000Y-111800000D03*
D50*
X117670000Y-111800000D03*
X118940000Y-111800000D03*
%TD*%
D18*
%TO.C,R2*%
X160350000Y-87150000D03*
X158350000Y-87150000D03*
%TD*%
D40*
%TO.C,Q3*%
X163942500Y-111425000D03*
X165842500Y-111425000D03*
X164892500Y-109550000D03*
%TD*%
D19*
%TO.C,R14*%
X126900000Y-104600000D03*
X126900000Y-102600000D03*
%TD*%
D20*
%TO.C,J6*%
X140000000Y-106700000D03*
D14*
X138000000Y-106700000D03*
X136000000Y-106700000D03*
%TD*%
D51*
%TO.C,J2*%
X107650000Y-82250000D03*
D52*
X107650000Y-80250000D03*
%TD*%
D13*
%TO.C,J1*%
X114000000Y-72100000D03*
D14*
X116000000Y-72100000D03*
%TD*%
D26*
%TO.C,C3*%
X124600000Y-89400000D03*
X122700000Y-89400000D03*
%TD*%
D27*
%TO.C,R17*%
X132500000Y-70950000D03*
X132500000Y-72950000D03*
%TD*%
D53*
%TO.C,JP7*%
X117800000Y-83100000D03*
D54*
X117800000Y-84400000D03*
%TD*%
D27*
%TO.C,R24*%
X127650000Y-79750000D03*
X127650000Y-81750000D03*
%TD*%
%TO.C,R9*%
X127900000Y-94550000D03*
X127900000Y-96550000D03*
%TD*%
D18*
%TO.C,R15*%
X169500000Y-76700000D03*
X167500000Y-76700000D03*
%TD*%
D32*
%TO.C,R12*%
X158400000Y-81150000D03*
X160400000Y-81150000D03*
%TD*%
D10*
%TO.C,C16*%
X159742500Y-113437500D03*
X161642500Y-113437500D03*
%TD*%
D18*
%TO.C,R3*%
X160350000Y-89200000D03*
X158350000Y-89200000D03*
%TD*%
D55*
%TO.C,U3*%
X140550000Y-77150000D03*
X140550000Y-79150000D03*
X140550000Y-81150000D03*
X140550000Y-83150000D03*
X140550000Y-85150000D03*
X140550000Y-87150000D03*
X140550000Y-89150000D03*
X140550000Y-91150000D03*
D56*
X143150000Y-92650000D03*
X145150000Y-92650000D03*
X147150000Y-92650000D03*
X149150000Y-92650000D03*
X151150000Y-92650000D03*
X153150000Y-92650000D03*
D55*
X155750000Y-91150000D03*
X155750000Y-89150000D03*
X155750000Y-87150000D03*
X155750000Y-85150000D03*
X155750000Y-83150000D03*
X155750000Y-81150000D03*
X155750000Y-79150000D03*
X155750000Y-77150000D03*
%TD*%
D17*
%TO.C,C5*%
X138050000Y-93250000D03*
X138050000Y-91350000D03*
%TD*%
D11*
%TO.C,C7*%
X124900000Y-82012500D03*
X124900000Y-80287500D03*
%TD*%
D57*
%TO.C,C15*%
X163992500Y-105037500D03*
X163992500Y-106937500D03*
%TD*%
D17*
%TO.C,C17*%
X154042500Y-112587500D03*
X154042500Y-110687500D03*
%TD*%
D27*
%TO.C,R25*%
X167792500Y-107587500D03*
X167792500Y-109587500D03*
%TD*%
D38*
%TO.C,JP8*%
X127600000Y-77750000D03*
D39*
X127600000Y-76450000D03*
%TD*%
D19*
%TO.C,R8*%
X130300000Y-98100000D03*
X130300000Y-96100000D03*
%TD*%
D58*
%TO.C,J10*%
X172092500Y-98337500D03*
D52*
X172092500Y-100337500D03*
X172092500Y-102337500D03*
X172092500Y-104337500D03*
%TD*%
D59*
%TO.C,JP4*%
X112350000Y-83600000D03*
D22*
X112350000Y-82300000D03*
D60*
X112350000Y-81000000D03*
%TD*%
D32*
%TO.C,R23*%
X123300000Y-76400000D03*
X125300000Y-76400000D03*
%TD*%
D51*
%TO.C,J3*%
X107650000Y-89850000D03*
D52*
X107650000Y-87850000D03*
%TD*%
D18*
%TO.C,R19*%
X169500000Y-78950000D03*
X167500000Y-78950000D03*
%TD*%
D26*
%TO.C,C14*%
X167792500Y-103587500D03*
X165892500Y-103587500D03*
%TD*%
D61*
%TO.C,SW1*%
X158100000Y-75550000D03*
X158100000Y-69700000D03*
X161100000Y-75550000D03*
X161100000Y-69700000D03*
%TD*%
D20*
%TO.C,J8*%
X140000000Y-112350000D03*
D14*
X138000000Y-112350000D03*
X136000000Y-112350000D03*
%TD*%
M02*
