%TF.GenerationSoftware,KiCad,Pcbnew,7.0.1*%
%TF.CreationDate,2023-11-12T23:31:08+01:00*%
%TF.ProjectId,GasWeighter,47617357-6569-4676-9874-65722e6b6963,rev?*%
%TF.SameCoordinates,Original*%
%TF.FileFunction,Paste,Top*%
%TF.FilePolarity,Positive*%
%FSLAX46Y46*%
G04 Gerber Fmt 4.6, Leading zero omitted, Abs format (unit mm)*
G04 Created by KiCad (PCBNEW 7.0.1) date 2023-11-12 23:31:08*
%MOMM*%
%LPD*%
G01*
G04 APERTURE LIST*
G04 Aperture macros list*
%AMRoundRect*
0 Rectangle with rounded corners*
0 $1 Rounding radius*
0 $2 $3 $4 $5 $6 $7 $8 $9 X,Y pos of 4 corners*
0 Add a 4 corners polygon primitive as box body*
4,1,4,$2,$3,$4,$5,$6,$7,$8,$9,$2,$3,0*
0 Add four circle primitives for the rounded corners*
1,1,$1+$1,$2,$3*
1,1,$1+$1,$4,$5*
1,1,$1+$1,$6,$7*
1,1,$1+$1,$8,$9*
0 Add four rect primitives between the rounded corners*
20,1,$1+$1,$2,$3,$4,$5,0*
20,1,$1+$1,$4,$5,$6,$7,0*
20,1,$1+$1,$6,$7,$8,$9,0*
20,1,$1+$1,$8,$9,$2,$3,0*%
%AMFreePoly0*
4,1,6,0.450000,-0.800000,-0.450000,-0.800000,-0.450000,0.530000,-0.180000,0.800000,0.450000,0.800000,0.450000,-0.800000,0.450000,-0.800000,$1*%
G04 Aperture macros list end*
%ADD10RoundRect,0.250000X-0.250000X-0.475000X0.250000X-0.475000X0.250000X0.475000X-0.250000X0.475000X0*%
%ADD11RoundRect,0.237500X0.237500X-0.300000X0.237500X0.300000X-0.237500X0.300000X-0.237500X-0.300000X0*%
%ADD12RoundRect,0.250000X0.475000X-0.250000X0.475000X0.250000X-0.475000X0.250000X-0.475000X-0.250000X0*%
%ADD13RoundRect,0.250000X0.350000X0.450000X-0.350000X0.450000X-0.350000X-0.450000X0.350000X-0.450000X0*%
%ADD14RoundRect,0.250000X0.450000X-0.350000X0.450000X0.350000X-0.450000X0.350000X-0.450000X-0.350000X0*%
%ADD15RoundRect,0.150000X-0.150000X0.587500X-0.150000X-0.587500X0.150000X-0.587500X0.150000X0.587500X0*%
%ADD16RoundRect,0.243750X0.243750X0.456250X-0.243750X0.456250X-0.243750X-0.456250X0.243750X-0.456250X0*%
%ADD17RoundRect,0.250000X0.250000X0.475000X-0.250000X0.475000X-0.250000X-0.475000X0.250000X-0.475000X0*%
%ADD18RoundRect,0.250000X-0.450000X0.350000X-0.450000X-0.350000X0.450000X-0.350000X0.450000X0.350000X0*%
%ADD19FreePoly0,270.000000*%
%ADD20R,0.250000X0.550000*%
%ADD21RoundRect,0.150000X0.850000X0.150000X-0.850000X0.150000X-0.850000X-0.150000X0.850000X-0.150000X0*%
%ADD22RoundRect,0.275000X-0.400000X-0.275000X0.400000X-0.275000X0.400000X0.275000X-0.400000X0.275000X0*%
%ADD23RoundRect,0.250000X-0.350000X-0.450000X0.350000X-0.450000X0.350000X0.450000X-0.350000X0.450000X0*%
%ADD24RoundRect,0.160000X-0.160000X0.160000X-0.160000X-0.160000X0.160000X-0.160000X0.160000X0.160000X0*%
%ADD25RoundRect,0.062500X-0.062500X0.375000X-0.062500X-0.375000X0.062500X-0.375000X0.062500X0.375000X0*%
%ADD26RoundRect,0.062500X-0.375000X0.062500X-0.375000X-0.062500X0.375000X-0.062500X0.375000X0.062500X0*%
%ADD27RoundRect,0.150000X-0.825000X-0.150000X0.825000X-0.150000X0.825000X0.150000X-0.825000X0.150000X0*%
%ADD28RoundRect,0.237500X-0.300000X-0.237500X0.300000X-0.237500X0.300000X0.237500X-0.300000X0.237500X0*%
%ADD29RoundRect,0.150000X0.150000X-0.587500X0.150000X0.587500X-0.150000X0.587500X-0.150000X-0.587500X0*%
%ADD30R,1.160000X0.600000*%
%ADD31R,1.160000X0.300000*%
%ADD32R,0.650000X1.560000*%
%ADD33R,2.500000X1.000000*%
%ADD34R,1.000000X1.800000*%
%ADD35RoundRect,0.250000X-0.475000X0.250000X-0.475000X-0.250000X0.475000X-0.250000X0.475000X0.250000X0*%
%ADD36RoundRect,0.275000X0.275000X-0.400000X0.275000X0.400000X-0.275000X0.400000X-0.275000X-0.400000X0*%
G04 APERTURE END LIST*
D10*
%TO.C,C13*%
X165992500Y-98187500D03*
X167892500Y-98187500D03*
%TD*%
D11*
%TO.C,C8*%
X123200000Y-82012500D03*
X123200000Y-80287500D03*
%TD*%
D12*
%TO.C,C2*%
X135850000Y-77850000D03*
X135850000Y-75950000D03*
%TD*%
D13*
%TO.C,R6*%
X160350000Y-85100000D03*
X158350000Y-85100000D03*
%TD*%
D14*
%TO.C,R16*%
X172850000Y-80650000D03*
X172850000Y-78650000D03*
%TD*%
D13*
%TO.C,R21*%
X125300000Y-78400000D03*
X123300000Y-78400000D03*
%TD*%
D15*
%TO.C,Q1*%
X133300000Y-90212500D03*
X131400000Y-90212500D03*
X132350000Y-92087500D03*
%TD*%
D16*
%TO.C,D1*%
X173087500Y-76700000D03*
X171212500Y-76700000D03*
%TD*%
D17*
%TO.C,C9*%
X131600000Y-82650000D03*
X129700000Y-82650000D03*
%TD*%
D18*
%TO.C,R5*%
X137900000Y-77100000D03*
X137900000Y-79100000D03*
%TD*%
D19*
%TO.C,U4*%
X127500000Y-110325000D03*
D20*
X128250000Y-109150000D03*
X127750000Y-109150000D03*
X127250000Y-109150000D03*
X126750000Y-109150000D03*
X126750000Y-111500000D03*
X127250000Y-111500000D03*
X127750000Y-111500000D03*
X128250000Y-111500000D03*
%TD*%
D14*
%TO.C,R13*%
X128900000Y-104600000D03*
X128900000Y-102600000D03*
%TD*%
D21*
%TO.C,U7*%
X161442500Y-111632500D03*
X161442500Y-110362500D03*
X161442500Y-109092500D03*
X161442500Y-107822500D03*
X161442500Y-106552500D03*
X161442500Y-105282500D03*
X161442500Y-104012500D03*
X161442500Y-102742500D03*
X156442500Y-102742500D03*
X156442500Y-104012500D03*
X156442500Y-105282500D03*
X156442500Y-106552500D03*
X156442500Y-107822500D03*
X156442500Y-109092500D03*
X156442500Y-110362500D03*
X156442500Y-111632500D03*
%TD*%
D16*
%TO.C,D4*%
X113837500Y-87500000D03*
X111962500Y-87500000D03*
%TD*%
D18*
%TO.C,R18*%
X132500000Y-74800000D03*
X132500000Y-76800000D03*
%TD*%
D22*
%TO.C,SW2*%
X167550000Y-82150000D03*
X173400000Y-82150000D03*
X167550000Y-85150000D03*
X173400000Y-85150000D03*
%TD*%
D23*
%TO.C,R4*%
X136150000Y-81350000D03*
X138150000Y-81350000D03*
%TD*%
D17*
%TO.C,C4*%
X124600000Y-91500000D03*
X122700000Y-91500000D03*
%TD*%
D12*
%TO.C,C10*%
X132400000Y-87750000D03*
X132400000Y-85850000D03*
%TD*%
D23*
%TO.C,R10*%
X117500000Y-108050000D03*
X119500000Y-108050000D03*
%TD*%
D24*
%TO.C,U6*%
X119700000Y-79350000D03*
X118900000Y-79350000D03*
X119700000Y-80150000D03*
X118900000Y-80150000D03*
D25*
X120050000Y-78312500D03*
X119550000Y-78312500D03*
X119050000Y-78312500D03*
X118550000Y-78312500D03*
D26*
X117862500Y-79000000D03*
X117862500Y-79500000D03*
X117862500Y-80000000D03*
X117862500Y-80500000D03*
D25*
X118550000Y-81187500D03*
X119050000Y-81187500D03*
X119550000Y-81187500D03*
X120050000Y-81187500D03*
D26*
X120737500Y-80500000D03*
X120737500Y-80000000D03*
X120737500Y-79500000D03*
X120737500Y-79000000D03*
%TD*%
D18*
%TO.C,R20*%
X120100000Y-82950000D03*
X120100000Y-84950000D03*
%TD*%
D12*
%TO.C,C1*%
X116600000Y-95550000D03*
X116600000Y-93650000D03*
%TD*%
D27*
%TO.C,U1*%
X119675000Y-93405000D03*
X119675000Y-94675000D03*
X119675000Y-95945000D03*
X119675000Y-97215000D03*
X119675000Y-98485000D03*
X119675000Y-99755000D03*
X119675000Y-101025000D03*
X119675000Y-102295000D03*
X124625000Y-102295000D03*
X124625000Y-101025000D03*
X124625000Y-99755000D03*
X124625000Y-98485000D03*
X124625000Y-97215000D03*
X124625000Y-95945000D03*
X124625000Y-94675000D03*
X124625000Y-93405000D03*
%TD*%
D28*
%TO.C,C12*%
X118137500Y-88150000D03*
X119862500Y-88150000D03*
%TD*%
D29*
%TO.C,Q2*%
X127900000Y-92025000D03*
X129800000Y-92025000D03*
X128850000Y-90150000D03*
%TD*%
D28*
%TO.C,C11*%
X118137500Y-86600000D03*
X119862500Y-86600000D03*
%TD*%
D30*
%TO.C,P1*%
X110810000Y-97740000D03*
X110810000Y-98540000D03*
D31*
X110810000Y-99690000D03*
X110810000Y-100690000D03*
X110810000Y-101190000D03*
X110810000Y-102190000D03*
D30*
X110810000Y-103340000D03*
X110810000Y-104140000D03*
X110810000Y-104140000D03*
X110810000Y-103340000D03*
D31*
X110810000Y-102690000D03*
X110810000Y-101690000D03*
X110810000Y-100190000D03*
X110810000Y-99190000D03*
D30*
X110810000Y-98540000D03*
X110810000Y-97740000D03*
%TD*%
D23*
%TO.C,R11*%
X158400000Y-79150000D03*
X160400000Y-79150000D03*
%TD*%
%TO.C,R22*%
X114700000Y-76500000D03*
X116700000Y-76500000D03*
%TD*%
D16*
%TO.C,D3*%
X113637500Y-78700000D03*
X111762500Y-78700000D03*
%TD*%
D32*
%TO.C,U5*%
X130400000Y-84800000D03*
X129450000Y-84800000D03*
X128500000Y-84800000D03*
X128500000Y-87500000D03*
X130400000Y-87500000D03*
%TD*%
D23*
%TO.C,R26*%
X165892500Y-105637500D03*
X167892500Y-105637500D03*
%TD*%
D10*
%TO.C,C6*%
X126550000Y-114800000D03*
X128450000Y-114800000D03*
%TD*%
D14*
%TO.C,R1*%
X116600000Y-99350000D03*
X116600000Y-97350000D03*
%TD*%
%TO.C,R7*%
X158500000Y-93250000D03*
X158500000Y-91250000D03*
%TD*%
D16*
%TO.C,D2*%
X113887500Y-92850000D03*
X112012500Y-92850000D03*
%TD*%
D13*
%TO.C,R2*%
X160350000Y-87150000D03*
X158350000Y-87150000D03*
%TD*%
D29*
%TO.C,Q3*%
X163942500Y-111425000D03*
X165842500Y-111425000D03*
X164892500Y-109550000D03*
%TD*%
D14*
%TO.C,R14*%
X126900000Y-104600000D03*
X126900000Y-102600000D03*
%TD*%
D17*
%TO.C,C3*%
X124600000Y-89400000D03*
X122700000Y-89400000D03*
%TD*%
D18*
%TO.C,R17*%
X132500000Y-70950000D03*
X132500000Y-72950000D03*
%TD*%
%TO.C,R24*%
X127650000Y-79750000D03*
X127650000Y-81750000D03*
%TD*%
%TO.C,R9*%
X127900000Y-94550000D03*
X127900000Y-96550000D03*
%TD*%
D13*
%TO.C,R15*%
X169500000Y-76700000D03*
X167500000Y-76700000D03*
%TD*%
D23*
%TO.C,R12*%
X158400000Y-81150000D03*
X160400000Y-81150000D03*
%TD*%
D10*
%TO.C,C16*%
X159742500Y-113437500D03*
X161642500Y-113437500D03*
%TD*%
D13*
%TO.C,R3*%
X160350000Y-89200000D03*
X158350000Y-89200000D03*
%TD*%
D33*
%TO.C,U3*%
X140550000Y-77150000D03*
X140550000Y-79150000D03*
X140550000Y-81150000D03*
X140550000Y-83150000D03*
X140550000Y-85150000D03*
X140550000Y-87150000D03*
X140550000Y-89150000D03*
X140550000Y-91150000D03*
D34*
X143150000Y-92650000D03*
X145150000Y-92650000D03*
X147150000Y-92650000D03*
X149150000Y-92650000D03*
X151150000Y-92650000D03*
X153150000Y-92650000D03*
D33*
X155750000Y-91150000D03*
X155750000Y-89150000D03*
X155750000Y-87150000D03*
X155750000Y-85150000D03*
X155750000Y-83150000D03*
X155750000Y-81150000D03*
X155750000Y-79150000D03*
X155750000Y-77150000D03*
%TD*%
D12*
%TO.C,C5*%
X138050000Y-93250000D03*
X138050000Y-91350000D03*
%TD*%
D11*
%TO.C,C7*%
X124900000Y-82012500D03*
X124900000Y-80287500D03*
%TD*%
D35*
%TO.C,C15*%
X163992500Y-105037500D03*
X163992500Y-106937500D03*
%TD*%
D12*
%TO.C,C17*%
X154042500Y-112587500D03*
X154042500Y-110687500D03*
%TD*%
D18*
%TO.C,R25*%
X167792500Y-107587500D03*
X167792500Y-109587500D03*
%TD*%
D14*
%TO.C,R8*%
X130300000Y-98100000D03*
X130300000Y-96100000D03*
%TD*%
D23*
%TO.C,R23*%
X123300000Y-76400000D03*
X125300000Y-76400000D03*
%TD*%
D13*
%TO.C,R19*%
X169500000Y-78950000D03*
X167500000Y-78950000D03*
%TD*%
D17*
%TO.C,C14*%
X167792500Y-103587500D03*
X165892500Y-103587500D03*
%TD*%
D36*
%TO.C,SW1*%
X158100000Y-75550000D03*
X158100000Y-69700000D03*
X161100000Y-75550000D03*
X161100000Y-69700000D03*
%TD*%
M02*
