M48
; DRILL file {KiCad 7.0.1} date Tue Nov  7 22:06:12 2023
; FORMAT={-:-/ absolute / metric / decimal}
; #@! TF.CreationDate,2023-11-07T22:06:12+01:00
; #@! TF.GenerationSoftware,Kicad,Pcbnew,7.0.1
; #@! TF.FileFunction,Plated,1,2,PTH
FMAT,2
METRIC
; #@! TA.AperFunction,Plated,PTH,ViaDrill
T1C0.400
; #@! TA.AperFunction,Plated,PTH,ComponentDrill
T2C0.600
; #@! TA.AperFunction,Plated,PTH,ComponentDrill
T3C0.750
; #@! TA.AperFunction,Plated,PTH,ComponentDrill
T4C1.000
%
G90
G05
T1
X106.3Y-61.05
X107.537Y-58.8
X109.0Y-75.7
X109.65Y-58.05
X109.7Y-59.95
X110.5Y-73.75
X111.5Y-61.6
X111.95Y-75.4
X113.2Y-59.85
X115.0Y-76.05
X115.1Y-74.65
X115.65Y-62.35
X115.8Y-73.65
X117.1Y-62.15
X120.6Y-86.2
X121.45Y-63.45
X122.15Y-86.35
X126.35Y-67.85
X127.75Y-72.2
X128.85Y-71.3
X130.3Y-63.1
X131.8Y-55.85
X136.6Y-65.3
X136.65Y-63.15
X136.75Y-57.25
X136.8Y-61.85
X139.15Y-65.0
X140.9Y-70.15
X143.0Y-64.0
X144.15Y-70.9
X146.75Y-63.175
X149.45Y-76.5
X155.45Y-58.55
X155.7Y-61.05
X157.7Y-67.25
X158.2Y-80.0
X158.55Y-83.9
X167.2Y-55.6
T3
X101.55Y-60.35
X101.55Y-62.35
X101.55Y-67.95
X101.55Y-69.95
X109.95Y-52.0
X110.3Y-91.9
X111.57Y-91.9
X111.95Y-52.0
X112.84Y-91.9
X117.05Y-52.0
X119.05Y-52.0
X129.9Y-86.8
X129.9Y-92.45
X131.9Y-86.8
X131.9Y-92.45
X133.9Y-86.8
X133.9Y-92.45
X138.9Y-86.8
X138.9Y-92.45
X140.9Y-86.8
X140.9Y-92.45
X142.9Y-86.8
X142.9Y-92.45
X165.992Y-78.438
X165.992Y-80.438
X165.992Y-82.438
X165.992Y-84.438
T4
X158.55Y-51.35
X158.55Y-53.89
X158.55Y-56.43
X158.55Y-58.97
X158.55Y-61.51
X158.55Y-64.05
T2
G00X100.617Y-75.335
M15
G01X101.817Y-75.335
M16
G05
G00X100.825Y-86.775
M15
G01X102.025Y-86.775
M16
G05
G00X104.893Y-75.318
M15
G01X106.093Y-75.318
M16
G05
G00X104.893Y-86.765
M15
G01X106.093Y-86.765
M16
G05
T0
M30
