<?xml version="1.0" standalone="no"?>
 <!DOCTYPE svg PUBLIC "-//W3C//DTD SVG 1.1//EN" 
 "http://www.w3.org/Graphics/SVG/1.1/DTD/svg11.dtd"> 
<svg
  xmlns:svg="http://www.w3.org/2000/svg"
  xmlns="http://www.w3.org/2000/svg"
  xmlns:xlink="http://www.w3.org/1999/xlink"
  version="1.1"
  width="297.0022mm" height="210.0072mm" viewBox="0.0000 0.0000 297.0022 210.0072">
<title>SVG Image created as GasWeighter-Edge_Cuts.svg date 2023/11/21 18:14:56 </title>
  <desc>Image generated by PCBNEW </desc>
<g style="fill:#000000; fill-opacity:1.0000;stroke:#000000; stroke-opacity:1.0000;
stroke-linecap:round; stroke-linejoin:round;"
 transform="translate(0 0) scale(1 1)">
</g>
<g style="fill:#000000; fill-opacity:0.0; 
stroke:#000000; stroke-width:0.0000; stroke-opacity:1; 
stroke-linecap:round; stroke-linejoin:round;">
</g>
<g style="fill:#000000; fill-opacity:0.0; 
stroke:#000000; stroke-width:0.1000; stroke-opacity:1; 
stroke-linecap:round; stroke-linejoin:round;">
<path d="M123.0000 113.8500 A0.3344 0.3344 0.0 0 0 123.3500 113.5000" />
<path d="M139.8500 67.3500
L106.1500 67.3500
" />
<path d="M125.0000 106.8500 A0.3260 0.3260 0.0 0 0 125.3500 106.5500" />
<path d="M123.7000 106.8500
L125.0000 106.8500
" />
<path d="M132.0000 113.8500 A0.3260 0.3260 0.0 0 0 132.3000 113.5000" />
<path d="M103.2000 114.3000
L103.1500 70.3500
" />
<path d="M131.3000 113.5000
L131.3000 107.1500
" />
<path d="M132.3000 106.2000 A0.3344 0.3344 0.0 0 0 131.9500 105.8500" />
<path d="M174.1287 117.2714 A3.0001 3.0001 0.0 0 0 177.1287 114.2713" />
<path d="M132.0000 113.8500
L131.6500 113.8500
" />
<path d="M129.6000 105.8500
L131.9500 105.8500
" />
<path d="M156.2500 75.6500
L139.8500 75.6500
" />
<path d="M103.2000 114.3000 A3.0000 3.0000 0.0 0 0 106.2000 117.3000" />
<path d="M132.3000 106.2000
L132.3000 113.5000
" />
<path d="M122.3500 113.5000 A0.3260 0.3260 0.0 0 0 122.6500 113.8500" />
<path d="M122.6500 113.8500
L123.0000 113.8500
" />
<path d="M156.2500 67.3500
L156.2500 75.6500
" />
<path d="M129.3000 106.5500
L129.3000 106.2000
" />
<path d="M122.7000 105.8500 A0.3344 0.3344 0.0 0 0 122.3500 106.2000" />
<path d="M174.0787 67.3213
L156.2500 67.3500
" />
<path d="M122.3500 106.2000
L122.3500 113.5000
" />
<path d="M130.9500 106.8500
L129.6500 106.8500
" />
<path d="M106.1500 67.3500 A3.0000 3.0000 0.0 0 0 103.1500 70.3500" />
<path d="M177.0787 70.3213 A3.0000 3.0000 0.0 0 0 174.0787 67.3213" />
<path d="M177.1287 114.2713
L177.0787 70.3213
" />
<path d="M129.3000 106.5500 A0.3260 0.3260 0.0 0 0 129.6500 106.8500" />
<path d="M131.3000 107.1500 A0.3260 0.3260 0.0 0 0 130.9500 106.8500" />
<path d="M125.0500 105.8500
L122.7000 105.8500
" />
<path d="M125.3500 106.5500
L125.3500 106.2000
" />
<path d="M106.2000 117.3000
L174.1287 117.2713
" />
<path d="M129.6000 105.8500 A0.3260 0.3260 0.0 0 0 129.3000 106.2000" />
<path d="M131.3000 113.5000 A0.3344 0.3344 0.0 0 0 131.6500 113.8500" />
<path d="M123.7000 106.8500 A0.3260 0.3260 0.0 0 0 123.3500 107.1500" />
<path d="M139.8500 75.6500
L139.8500 67.3500
" />
<path d="M123.3500 113.5000
L123.3500 107.1500
" />
<path d="M125.3500 106.2000 A0.3260 0.3260 0.0 0 0 125.0500 105.8500" />
<g >
</g>
<g >
</g>
<g >
</g>
<g >
</g>
<g >
</g>
<g >
</g>
<g >
</g>
<g >
</g>
<g >
</g>
<g >
</g>
<g >
</g>
<g >
</g>
<g >
</g>
<g >
</g>
<g >
</g>
<g >
</g>
<g >
</g>
<g >
</g>
<g >
</g>
<g >
</g>
<g >
</g>
<g >
</g>
<g >
</g>
<g >
</g>
<g >
</g>
<g >
</g>
<g >
</g>
<g >
</g>
<g >
</g>
<g >
</g>
<g >
</g>
<g >
</g>
<g >
</g>
<g >
</g>
<g >
</g>
<g >
</g>
<g >
</g>
<g >
</g>
<g >
</g>
<g >
</g>
<g >
</g>
<g >
</g>
<g >
</g>
<g >
</g>
<g >
</g>
<g >
</g>
<g >
</g>
<g >
</g>
<g >
</g>
<g >
</g>
<g >
</g>
<g >
</g>
<g >
</g>
<g >
</g>
<g >
</g>
<g >
</g>
<g >
</g>
<g >
</g>
<g >
</g>
<g >
</g>
<g >
</g>
<g >
</g>
<g >
</g>
<g >
</g>
<g >
</g>
<g >
</g>
<g >
</g>
<g >
</g>
<g >
</g>
<g >
</g>
<g >
</g>
<g >
</g>
<g >
</g>
<g >
</g>
<g >
</g>
<g >
</g>
<g >
</g>
<g >
</g>
<g >
</g>
<g >
</g>
<g >
</g>
<g >
</g>
<g >
</g>
<g >
</g>
<g >
</g>
<g >
</g>
<g >
</g>
</g> 
</svg>
