M48
; DRILL file {KiCad 7.0.1} date Thu Nov 23 19:46:19 2023
; FORMAT={-:-/ absolute / metric / decimal}
; #@! TF.CreationDate,2023-11-23T19:46:19+01:00
; #@! TF.GenerationSoftware,Kicad,Pcbnew,7.0.1
; #@! TF.FileFunction,Plated,1,2,PTH
FMAT,2
METRIC
; #@! TA.AperFunction,Plated,PTH,ViaDrill
T1C0.300
; #@! TA.AperFunction,Plated,PTH,ViaDrill
T2C0.400
; #@! TA.AperFunction,Plated,PTH,ComponentDrill
T3C0.600
; #@! TA.AperFunction,Plated,PTH,ComponentDrill
T4C0.750
; #@! TA.AperFunction,Plated,PTH,ComponentDrill
T5C1.000
%
G90
G05
T1
X109.5Y-100.6
X109.5Y-101.739
X157.5Y-100.0
X160.0Y-95.0
X162.5Y-92.5
X165.0Y-92.5
X165.0Y-95.0
X167.5Y-92.5
X167.5Y-95.0
X167.5Y-112.5
X170.0Y-92.5
X170.0Y-95.0
X170.0Y-110.0
X170.0Y-112.5
X172.5Y-92.5
X172.5Y-95.0
X172.5Y-107.5
X172.5Y-110.0
X175.0Y-92.5
X175.0Y-95.0
X175.0Y-107.5
T2
X112.2Y-97.7
X112.35Y-104.15
X112.4Y-80.95
X113.637Y-78.7
X115.1Y-95.6
X115.75Y-77.95
X115.8Y-79.85
X116.6Y-93.65
X117.6Y-81.5
X118.05Y-95.3
X119.3Y-79.75
X121.1Y-95.95
X121.2Y-94.55
X121.6Y-85.7
X121.75Y-82.25
X121.9Y-93.55
X123.2Y-82.05
X126.7Y-106.1
X127.55Y-83.35
X128.25Y-106.25
X132.45Y-87.75
X133.85Y-92.1
X134.95Y-91.2
X136.4Y-83.0
X137.9Y-75.75
X142.7Y-85.2
X142.75Y-83.05
X142.85Y-77.15
X142.9Y-81.75
X145.25Y-84.9
X147.0Y-90.05
X149.1Y-83.9
X150.25Y-90.8
X152.85Y-83.075
X155.55Y-96.4
X161.55Y-78.45
X161.8Y-80.95
X163.8Y-87.15
X164.3Y-99.9
X164.65Y-103.8
X170.4Y-104.425
X173.3Y-75.5
T4
X107.65Y-80.25
X107.65Y-82.25
X107.65Y-87.85
X107.65Y-89.85
X114.0Y-72.1
X116.0Y-72.1
X116.4Y-111.8
X117.67Y-111.8
X118.94Y-111.8
X123.15Y-72.1
X125.15Y-72.1
X136.0Y-106.7
X136.0Y-112.35
X138.0Y-106.7
X138.0Y-112.35
X140.0Y-106.7
X140.0Y-112.35
X145.0Y-106.7
X145.0Y-112.35
X147.0Y-106.7
X147.0Y-112.35
X149.0Y-106.7
X149.0Y-112.35
X172.093Y-98.337
X172.093Y-100.337
X172.093Y-102.337
X172.093Y-104.337
T5
X164.65Y-71.25
X164.65Y-73.79
X164.65Y-76.33
X164.65Y-78.87
X164.65Y-81.41
X164.65Y-83.95
T3
G00X105.74Y-96.615
M15
G01X106.44Y-96.615
M16
G05
G00X105.74Y-105.265
M15
G01X106.44Y-105.265
M16
G05
G00X109.74Y-96.615
M15
G01X110.84Y-96.615
M16
G05
G00X109.74Y-105.265
M15
G01X110.84Y-105.265
M16
G05
T0
M30
