%TF.GenerationSoftware,KiCad,Pcbnew,7.0.1*%
%TF.CreationDate,2023-11-23T19:52:31+01:00*%
%TF.ProjectId,GasWeighter,47617357-6569-4676-9874-65722e6b6963,rev?*%
%TF.SameCoordinates,Original*%
%TF.FileFunction,Paste,Top*%
%TF.FilePolarity,Positive*%
%FSLAX46Y46*%
G04 Gerber Fmt 4.6, Leading zero omitted, Abs format (unit mm)*
G04 Created by KiCad (PCBNEW 7.0.1) date 2023-11-23 19:52:31*
%MOMM*%
%LPD*%
G01*
G04 APERTURE LIST*
G04 Aperture macros list*
%AMRoundRect*
0 Rectangle with rounded corners*
0 $1 Rounding radius*
0 $2 $3 $4 $5 $6 $7 $8 $9 X,Y pos of 4 corners*
0 Add a 4 corners polygon primitive as box body*
4,1,4,$2,$3,$4,$5,$6,$7,$8,$9,$2,$3,0*
0 Add four circle primitives for the rounded corners*
1,1,$1+$1,$2,$3*
1,1,$1+$1,$4,$5*
1,1,$1+$1,$6,$7*
1,1,$1+$1,$8,$9*
0 Add four rect primitives between the rounded corners*
20,1,$1+$1,$2,$3,$4,$5,0*
20,1,$1+$1,$4,$5,$6,$7,0*
20,1,$1+$1,$6,$7,$8,$9,0*
20,1,$1+$1,$8,$9,$2,$3,0*%
%AMFreePoly0*
4,1,6,0.450000,-0.800000,-0.450000,-0.800000,-0.450000,0.530000,-0.180000,0.800000,0.450000,0.800000,0.450000,-0.800000,0.450000,-0.800000,$1*%
G04 Aperture macros list end*
%ADD10C,0.100000*%
%ADD11C,0.150000*%
%ADD12C,0.300000*%
%ADD13C,0.400000*%
%ADD14RoundRect,0.250000X-0.250000X-0.475000X0.250000X-0.475000X0.250000X0.475000X-0.250000X0.475000X0*%
%ADD15RoundRect,0.237500X0.237500X-0.300000X0.237500X0.300000X-0.237500X0.300000X-0.237500X-0.300000X0*%
%ADD16RoundRect,0.250000X0.475000X-0.250000X0.475000X0.250000X-0.475000X0.250000X-0.475000X-0.250000X0*%
%ADD17RoundRect,0.250000X0.350000X0.450000X-0.350000X0.450000X-0.350000X-0.450000X0.350000X-0.450000X0*%
%ADD18RoundRect,0.250000X0.450000X-0.350000X0.450000X0.350000X-0.450000X0.350000X-0.450000X-0.350000X0*%
%ADD19RoundRect,0.150000X-0.150000X0.587500X-0.150000X-0.587500X0.150000X-0.587500X0.150000X0.587500X0*%
%ADD20RoundRect,0.243750X0.243750X0.456250X-0.243750X0.456250X-0.243750X-0.456250X0.243750X-0.456250X0*%
%ADD21RoundRect,0.250000X0.250000X0.475000X-0.250000X0.475000X-0.250000X-0.475000X0.250000X-0.475000X0*%
%ADD22RoundRect,0.250000X-0.450000X0.350000X-0.450000X-0.350000X0.450000X-0.350000X0.450000X0.350000X0*%
%ADD23FreePoly0,270.000000*%
%ADD24R,0.250000X0.550000*%
%ADD25RoundRect,0.150000X0.850000X0.150000X-0.850000X0.150000X-0.850000X-0.150000X0.850000X-0.150000X0*%
%ADD26RoundRect,0.275000X-0.400000X-0.275000X0.400000X-0.275000X0.400000X0.275000X-0.400000X0.275000X0*%
%ADD27RoundRect,0.250000X-0.350000X-0.450000X0.350000X-0.450000X0.350000X0.450000X-0.350000X0.450000X0*%
%ADD28RoundRect,0.160000X-0.160000X0.160000X-0.160000X-0.160000X0.160000X-0.160000X0.160000X0.160000X0*%
%ADD29RoundRect,0.062500X-0.062500X0.375000X-0.062500X-0.375000X0.062500X-0.375000X0.062500X0.375000X0*%
%ADD30RoundRect,0.062500X-0.375000X0.062500X-0.375000X-0.062500X0.375000X-0.062500X0.375000X0.062500X0*%
%ADD31RoundRect,0.150000X-0.825000X-0.150000X0.825000X-0.150000X0.825000X0.150000X-0.825000X0.150000X0*%
%ADD32RoundRect,0.237500X-0.300000X-0.237500X0.300000X-0.237500X0.300000X0.237500X-0.300000X0.237500X0*%
%ADD33RoundRect,0.150000X0.150000X-0.587500X0.150000X0.587500X-0.150000X0.587500X-0.150000X-0.587500X0*%
%ADD34R,1.160000X0.600000*%
%ADD35R,1.160000X0.300000*%
%ADD36R,0.650000X1.560000*%
%ADD37R,2.500000X1.000000*%
%ADD38R,1.000000X1.800000*%
%ADD39RoundRect,0.250000X-0.475000X0.250000X-0.475000X-0.250000X0.475000X-0.250000X0.475000X0.250000X0*%
%ADD40RoundRect,0.275000X0.275000X-0.400000X0.275000X0.400000X-0.275000X0.400000X-0.275000X-0.400000X0*%
G04 APERTURE END LIST*
D10*
D11*
X177002200Y-166007200D02*
X285002200Y-166007200D01*
X285002200Y-198007200D01*
X177002200Y-198007200D01*
X177002200Y-166007200D01*
D10*
D11*
X10000000Y-10000000D02*
X287002200Y-10000000D01*
X287002200Y-200007200D01*
X10000000Y-200007200D01*
X10000000Y-10000000D01*
D10*
D11*
X12000000Y-12000000D02*
X285002200Y-12000000D01*
X285002200Y-198007200D01*
X12000000Y-198007200D01*
X12000000Y-12000000D01*
D10*
D11*
X60000000Y-12000000D02*
X60000000Y-10000000D01*
D10*
D11*
X110000000Y-12000000D02*
X110000000Y-10000000D01*
D10*
D11*
X160000000Y-12000000D02*
X160000000Y-10000000D01*
D10*
D11*
X210000000Y-12000000D02*
X210000000Y-10000000D01*
D10*
D11*
X260000000Y-12000000D02*
X260000000Y-10000000D01*
D10*
D11*
X35990476Y-11601404D02*
X35247619Y-11601404D01*
X35619047Y-11601404D02*
X35619047Y-10301404D01*
X35619047Y-10301404D02*
X35495238Y-10487119D01*
X35495238Y-10487119D02*
X35371428Y-10610928D01*
X35371428Y-10610928D02*
X35247619Y-10672833D01*
D10*
D11*
X85247619Y-10425214D02*
X85309523Y-10363309D01*
X85309523Y-10363309D02*
X85433333Y-10301404D01*
X85433333Y-10301404D02*
X85742857Y-10301404D01*
X85742857Y-10301404D02*
X85866666Y-10363309D01*
X85866666Y-10363309D02*
X85928571Y-10425214D01*
X85928571Y-10425214D02*
X85990476Y-10549023D01*
X85990476Y-10549023D02*
X85990476Y-10672833D01*
X85990476Y-10672833D02*
X85928571Y-10858547D01*
X85928571Y-10858547D02*
X85185714Y-11601404D01*
X85185714Y-11601404D02*
X85990476Y-11601404D01*
D10*
D11*
X135185714Y-10301404D02*
X135990476Y-10301404D01*
X135990476Y-10301404D02*
X135557142Y-10796642D01*
X135557142Y-10796642D02*
X135742857Y-10796642D01*
X135742857Y-10796642D02*
X135866666Y-10858547D01*
X135866666Y-10858547D02*
X135928571Y-10920452D01*
X135928571Y-10920452D02*
X135990476Y-11044261D01*
X135990476Y-11044261D02*
X135990476Y-11353785D01*
X135990476Y-11353785D02*
X135928571Y-11477595D01*
X135928571Y-11477595D02*
X135866666Y-11539500D01*
X135866666Y-11539500D02*
X135742857Y-11601404D01*
X135742857Y-11601404D02*
X135371428Y-11601404D01*
X135371428Y-11601404D02*
X135247619Y-11539500D01*
X135247619Y-11539500D02*
X135185714Y-11477595D01*
D10*
D11*
X185866666Y-10734738D02*
X185866666Y-11601404D01*
X185557142Y-10239500D02*
X185247619Y-11168071D01*
X185247619Y-11168071D02*
X186052380Y-11168071D01*
D10*
D11*
X235928571Y-10301404D02*
X235309523Y-10301404D01*
X235309523Y-10301404D02*
X235247619Y-10920452D01*
X235247619Y-10920452D02*
X235309523Y-10858547D01*
X235309523Y-10858547D02*
X235433333Y-10796642D01*
X235433333Y-10796642D02*
X235742857Y-10796642D01*
X235742857Y-10796642D02*
X235866666Y-10858547D01*
X235866666Y-10858547D02*
X235928571Y-10920452D01*
X235928571Y-10920452D02*
X235990476Y-11044261D01*
X235990476Y-11044261D02*
X235990476Y-11353785D01*
X235990476Y-11353785D02*
X235928571Y-11477595D01*
X235928571Y-11477595D02*
X235866666Y-11539500D01*
X235866666Y-11539500D02*
X235742857Y-11601404D01*
X235742857Y-11601404D02*
X235433333Y-11601404D01*
X235433333Y-11601404D02*
X235309523Y-11539500D01*
X235309523Y-11539500D02*
X235247619Y-11477595D01*
D10*
D11*
X285866666Y-10301404D02*
X285619047Y-10301404D01*
X285619047Y-10301404D02*
X285495238Y-10363309D01*
X285495238Y-10363309D02*
X285433333Y-10425214D01*
X285433333Y-10425214D02*
X285309523Y-10610928D01*
X285309523Y-10610928D02*
X285247619Y-10858547D01*
X285247619Y-10858547D02*
X285247619Y-11353785D01*
X285247619Y-11353785D02*
X285309523Y-11477595D01*
X285309523Y-11477595D02*
X285371428Y-11539500D01*
X285371428Y-11539500D02*
X285495238Y-11601404D01*
X285495238Y-11601404D02*
X285742857Y-11601404D01*
X285742857Y-11601404D02*
X285866666Y-11539500D01*
X285866666Y-11539500D02*
X285928571Y-11477595D01*
X285928571Y-11477595D02*
X285990476Y-11353785D01*
X285990476Y-11353785D02*
X285990476Y-11044261D01*
X285990476Y-11044261D02*
X285928571Y-10920452D01*
X285928571Y-10920452D02*
X285866666Y-10858547D01*
X285866666Y-10858547D02*
X285742857Y-10796642D01*
X285742857Y-10796642D02*
X285495238Y-10796642D01*
X285495238Y-10796642D02*
X285371428Y-10858547D01*
X285371428Y-10858547D02*
X285309523Y-10920452D01*
X285309523Y-10920452D02*
X285247619Y-11044261D01*
D10*
D11*
X60000000Y-198007200D02*
X60000000Y-200007200D01*
D10*
D11*
X110000000Y-198007200D02*
X110000000Y-200007200D01*
D10*
D11*
X160000000Y-198007200D02*
X160000000Y-200007200D01*
D10*
D11*
X210000000Y-198007200D02*
X210000000Y-200007200D01*
D10*
D11*
X260000000Y-198007200D02*
X260000000Y-200007200D01*
D10*
D11*
X35990476Y-199608604D02*
X35247619Y-199608604D01*
X35619047Y-199608604D02*
X35619047Y-198308604D01*
X35619047Y-198308604D02*
X35495238Y-198494319D01*
X35495238Y-198494319D02*
X35371428Y-198618128D01*
X35371428Y-198618128D02*
X35247619Y-198680033D01*
D10*
D11*
X85247619Y-198432414D02*
X85309523Y-198370509D01*
X85309523Y-198370509D02*
X85433333Y-198308604D01*
X85433333Y-198308604D02*
X85742857Y-198308604D01*
X85742857Y-198308604D02*
X85866666Y-198370509D01*
X85866666Y-198370509D02*
X85928571Y-198432414D01*
X85928571Y-198432414D02*
X85990476Y-198556223D01*
X85990476Y-198556223D02*
X85990476Y-198680033D01*
X85990476Y-198680033D02*
X85928571Y-198865747D01*
X85928571Y-198865747D02*
X85185714Y-199608604D01*
X85185714Y-199608604D02*
X85990476Y-199608604D01*
D10*
D11*
X135185714Y-198308604D02*
X135990476Y-198308604D01*
X135990476Y-198308604D02*
X135557142Y-198803842D01*
X135557142Y-198803842D02*
X135742857Y-198803842D01*
X135742857Y-198803842D02*
X135866666Y-198865747D01*
X135866666Y-198865747D02*
X135928571Y-198927652D01*
X135928571Y-198927652D02*
X135990476Y-199051461D01*
X135990476Y-199051461D02*
X135990476Y-199360985D01*
X135990476Y-199360985D02*
X135928571Y-199484795D01*
X135928571Y-199484795D02*
X135866666Y-199546700D01*
X135866666Y-199546700D02*
X135742857Y-199608604D01*
X135742857Y-199608604D02*
X135371428Y-199608604D01*
X135371428Y-199608604D02*
X135247619Y-199546700D01*
X135247619Y-199546700D02*
X135185714Y-199484795D01*
D10*
D11*
X185866666Y-198741938D02*
X185866666Y-199608604D01*
X185557142Y-198246700D02*
X185247619Y-199175271D01*
X185247619Y-199175271D02*
X186052380Y-199175271D01*
D10*
D11*
X235928571Y-198308604D02*
X235309523Y-198308604D01*
X235309523Y-198308604D02*
X235247619Y-198927652D01*
X235247619Y-198927652D02*
X235309523Y-198865747D01*
X235309523Y-198865747D02*
X235433333Y-198803842D01*
X235433333Y-198803842D02*
X235742857Y-198803842D01*
X235742857Y-198803842D02*
X235866666Y-198865747D01*
X235866666Y-198865747D02*
X235928571Y-198927652D01*
X235928571Y-198927652D02*
X235990476Y-199051461D01*
X235990476Y-199051461D02*
X235990476Y-199360985D01*
X235990476Y-199360985D02*
X235928571Y-199484795D01*
X235928571Y-199484795D02*
X235866666Y-199546700D01*
X235866666Y-199546700D02*
X235742857Y-199608604D01*
X235742857Y-199608604D02*
X235433333Y-199608604D01*
X235433333Y-199608604D02*
X235309523Y-199546700D01*
X235309523Y-199546700D02*
X235247619Y-199484795D01*
D10*
D11*
X285866666Y-198308604D02*
X285619047Y-198308604D01*
X285619047Y-198308604D02*
X285495238Y-198370509D01*
X285495238Y-198370509D02*
X285433333Y-198432414D01*
X285433333Y-198432414D02*
X285309523Y-198618128D01*
X285309523Y-198618128D02*
X285247619Y-198865747D01*
X285247619Y-198865747D02*
X285247619Y-199360985D01*
X285247619Y-199360985D02*
X285309523Y-199484795D01*
X285309523Y-199484795D02*
X285371428Y-199546700D01*
X285371428Y-199546700D02*
X285495238Y-199608604D01*
X285495238Y-199608604D02*
X285742857Y-199608604D01*
X285742857Y-199608604D02*
X285866666Y-199546700D01*
X285866666Y-199546700D02*
X285928571Y-199484795D01*
X285928571Y-199484795D02*
X285990476Y-199360985D01*
X285990476Y-199360985D02*
X285990476Y-199051461D01*
X285990476Y-199051461D02*
X285928571Y-198927652D01*
X285928571Y-198927652D02*
X285866666Y-198865747D01*
X285866666Y-198865747D02*
X285742857Y-198803842D01*
X285742857Y-198803842D02*
X285495238Y-198803842D01*
X285495238Y-198803842D02*
X285371428Y-198865747D01*
X285371428Y-198865747D02*
X285309523Y-198927652D01*
X285309523Y-198927652D02*
X285247619Y-199051461D01*
D10*
D11*
X10000000Y-60000000D02*
X12000000Y-60000000D01*
D10*
D11*
X10000000Y-110000000D02*
X12000000Y-110000000D01*
D10*
D11*
X10000000Y-160000000D02*
X12000000Y-160000000D01*
D10*
D11*
X10690476Y-35229976D02*
X11309523Y-35229976D01*
X10566666Y-35601404D02*
X10999999Y-34301404D01*
X10999999Y-34301404D02*
X11433333Y-35601404D01*
D10*
D11*
X11092857Y-84920452D02*
X11278571Y-84982357D01*
X11278571Y-84982357D02*
X11340476Y-85044261D01*
X11340476Y-85044261D02*
X11402380Y-85168071D01*
X11402380Y-85168071D02*
X11402380Y-85353785D01*
X11402380Y-85353785D02*
X11340476Y-85477595D01*
X11340476Y-85477595D02*
X11278571Y-85539500D01*
X11278571Y-85539500D02*
X11154761Y-85601404D01*
X11154761Y-85601404D02*
X10659523Y-85601404D01*
X10659523Y-85601404D02*
X10659523Y-84301404D01*
X10659523Y-84301404D02*
X11092857Y-84301404D01*
X11092857Y-84301404D02*
X11216666Y-84363309D01*
X11216666Y-84363309D02*
X11278571Y-84425214D01*
X11278571Y-84425214D02*
X11340476Y-84549023D01*
X11340476Y-84549023D02*
X11340476Y-84672833D01*
X11340476Y-84672833D02*
X11278571Y-84796642D01*
X11278571Y-84796642D02*
X11216666Y-84858547D01*
X11216666Y-84858547D02*
X11092857Y-84920452D01*
X11092857Y-84920452D02*
X10659523Y-84920452D01*
D10*
D11*
X11402380Y-135477595D02*
X11340476Y-135539500D01*
X11340476Y-135539500D02*
X11154761Y-135601404D01*
X11154761Y-135601404D02*
X11030952Y-135601404D01*
X11030952Y-135601404D02*
X10845238Y-135539500D01*
X10845238Y-135539500D02*
X10721428Y-135415690D01*
X10721428Y-135415690D02*
X10659523Y-135291880D01*
X10659523Y-135291880D02*
X10597619Y-135044261D01*
X10597619Y-135044261D02*
X10597619Y-134858547D01*
X10597619Y-134858547D02*
X10659523Y-134610928D01*
X10659523Y-134610928D02*
X10721428Y-134487119D01*
X10721428Y-134487119D02*
X10845238Y-134363309D01*
X10845238Y-134363309D02*
X11030952Y-134301404D01*
X11030952Y-134301404D02*
X11154761Y-134301404D01*
X11154761Y-134301404D02*
X11340476Y-134363309D01*
X11340476Y-134363309D02*
X11402380Y-134425214D01*
D10*
D11*
X10659523Y-185601404D02*
X10659523Y-184301404D01*
X10659523Y-184301404D02*
X10969047Y-184301404D01*
X10969047Y-184301404D02*
X11154761Y-184363309D01*
X11154761Y-184363309D02*
X11278571Y-184487119D01*
X11278571Y-184487119D02*
X11340476Y-184610928D01*
X11340476Y-184610928D02*
X11402380Y-184858547D01*
X11402380Y-184858547D02*
X11402380Y-185044261D01*
X11402380Y-185044261D02*
X11340476Y-185291880D01*
X11340476Y-185291880D02*
X11278571Y-185415690D01*
X11278571Y-185415690D02*
X11154761Y-185539500D01*
X11154761Y-185539500D02*
X10969047Y-185601404D01*
X10969047Y-185601404D02*
X10659523Y-185601404D01*
D10*
D11*
X287002200Y-60000000D02*
X285002200Y-60000000D01*
D10*
D11*
X287002200Y-110000000D02*
X285002200Y-110000000D01*
D10*
D11*
X287002200Y-160000000D02*
X285002200Y-160000000D01*
D10*
D11*
X285692676Y-35229976D02*
X286311723Y-35229976D01*
X285568866Y-35601404D02*
X286002199Y-34301404D01*
X286002199Y-34301404D02*
X286435533Y-35601404D01*
D10*
D11*
X286095057Y-84920452D02*
X286280771Y-84982357D01*
X286280771Y-84982357D02*
X286342676Y-85044261D01*
X286342676Y-85044261D02*
X286404580Y-85168071D01*
X286404580Y-85168071D02*
X286404580Y-85353785D01*
X286404580Y-85353785D02*
X286342676Y-85477595D01*
X286342676Y-85477595D02*
X286280771Y-85539500D01*
X286280771Y-85539500D02*
X286156961Y-85601404D01*
X286156961Y-85601404D02*
X285661723Y-85601404D01*
X285661723Y-85601404D02*
X285661723Y-84301404D01*
X285661723Y-84301404D02*
X286095057Y-84301404D01*
X286095057Y-84301404D02*
X286218866Y-84363309D01*
X286218866Y-84363309D02*
X286280771Y-84425214D01*
X286280771Y-84425214D02*
X286342676Y-84549023D01*
X286342676Y-84549023D02*
X286342676Y-84672833D01*
X286342676Y-84672833D02*
X286280771Y-84796642D01*
X286280771Y-84796642D02*
X286218866Y-84858547D01*
X286218866Y-84858547D02*
X286095057Y-84920452D01*
X286095057Y-84920452D02*
X285661723Y-84920452D01*
D10*
D11*
X286404580Y-135477595D02*
X286342676Y-135539500D01*
X286342676Y-135539500D02*
X286156961Y-135601404D01*
X286156961Y-135601404D02*
X286033152Y-135601404D01*
X286033152Y-135601404D02*
X285847438Y-135539500D01*
X285847438Y-135539500D02*
X285723628Y-135415690D01*
X285723628Y-135415690D02*
X285661723Y-135291880D01*
X285661723Y-135291880D02*
X285599819Y-135044261D01*
X285599819Y-135044261D02*
X285599819Y-134858547D01*
X285599819Y-134858547D02*
X285661723Y-134610928D01*
X285661723Y-134610928D02*
X285723628Y-134487119D01*
X285723628Y-134487119D02*
X285847438Y-134363309D01*
X285847438Y-134363309D02*
X286033152Y-134301404D01*
X286033152Y-134301404D02*
X286156961Y-134301404D01*
X286156961Y-134301404D02*
X286342676Y-134363309D01*
X286342676Y-134363309D02*
X286404580Y-134425214D01*
D10*
D11*
X285661723Y-185601404D02*
X285661723Y-184301404D01*
X285661723Y-184301404D02*
X285971247Y-184301404D01*
X285971247Y-184301404D02*
X286156961Y-184363309D01*
X286156961Y-184363309D02*
X286280771Y-184487119D01*
X286280771Y-184487119D02*
X286342676Y-184610928D01*
X286342676Y-184610928D02*
X286404580Y-184858547D01*
X286404580Y-184858547D02*
X286404580Y-185044261D01*
X286404580Y-185044261D02*
X286342676Y-185291880D01*
X286342676Y-185291880D02*
X286280771Y-185415690D01*
X286280771Y-185415690D02*
X286156961Y-185539500D01*
X286156961Y-185539500D02*
X285971247Y-185601404D01*
X285971247Y-185601404D02*
X285661723Y-185601404D01*
D10*
D11*
X200359342Y-193801128D02*
X200359342Y-192301128D01*
X200359342Y-192301128D02*
X200716485Y-192301128D01*
X200716485Y-192301128D02*
X200930771Y-192372557D01*
X200930771Y-192372557D02*
X201073628Y-192515414D01*
X201073628Y-192515414D02*
X201145057Y-192658271D01*
X201145057Y-192658271D02*
X201216485Y-192943985D01*
X201216485Y-192943985D02*
X201216485Y-193158271D01*
X201216485Y-193158271D02*
X201145057Y-193443985D01*
X201145057Y-193443985D02*
X201073628Y-193586842D01*
X201073628Y-193586842D02*
X200930771Y-193729700D01*
X200930771Y-193729700D02*
X200716485Y-193801128D01*
X200716485Y-193801128D02*
X200359342Y-193801128D01*
X202502200Y-193801128D02*
X202502200Y-193015414D01*
X202502200Y-193015414D02*
X202430771Y-192872557D01*
X202430771Y-192872557D02*
X202287914Y-192801128D01*
X202287914Y-192801128D02*
X202002200Y-192801128D01*
X202002200Y-192801128D02*
X201859342Y-192872557D01*
X202502200Y-193729700D02*
X202359342Y-193801128D01*
X202359342Y-193801128D02*
X202002200Y-193801128D01*
X202002200Y-193801128D02*
X201859342Y-193729700D01*
X201859342Y-193729700D02*
X201787914Y-193586842D01*
X201787914Y-193586842D02*
X201787914Y-193443985D01*
X201787914Y-193443985D02*
X201859342Y-193301128D01*
X201859342Y-193301128D02*
X202002200Y-193229700D01*
X202002200Y-193229700D02*
X202359342Y-193229700D01*
X202359342Y-193229700D02*
X202502200Y-193158271D01*
X203002200Y-192801128D02*
X203573628Y-192801128D01*
X203216485Y-192301128D02*
X203216485Y-193586842D01*
X203216485Y-193586842D02*
X203287914Y-193729700D01*
X203287914Y-193729700D02*
X203430771Y-193801128D01*
X203430771Y-193801128D02*
X203573628Y-193801128D01*
X204645057Y-193729700D02*
X204502200Y-193801128D01*
X204502200Y-193801128D02*
X204216486Y-193801128D01*
X204216486Y-193801128D02*
X204073628Y-193729700D01*
X204073628Y-193729700D02*
X204002200Y-193586842D01*
X204002200Y-193586842D02*
X204002200Y-193015414D01*
X204002200Y-193015414D02*
X204073628Y-192872557D01*
X204073628Y-192872557D02*
X204216486Y-192801128D01*
X204216486Y-192801128D02*
X204502200Y-192801128D01*
X204502200Y-192801128D02*
X204645057Y-192872557D01*
X204645057Y-192872557D02*
X204716486Y-193015414D01*
X204716486Y-193015414D02*
X204716486Y-193158271D01*
X204716486Y-193158271D02*
X204002200Y-193301128D01*
X205359342Y-193658271D02*
X205430771Y-193729700D01*
X205430771Y-193729700D02*
X205359342Y-193801128D01*
X205359342Y-193801128D02*
X205287914Y-193729700D01*
X205287914Y-193729700D02*
X205359342Y-193658271D01*
X205359342Y-193658271D02*
X205359342Y-193801128D01*
X205359342Y-192872557D02*
X205430771Y-192943985D01*
X205430771Y-192943985D02*
X205359342Y-193015414D01*
X205359342Y-193015414D02*
X205287914Y-192943985D01*
X205287914Y-192943985D02*
X205359342Y-192872557D01*
X205359342Y-192872557D02*
X205359342Y-193015414D01*
D10*
D11*
X177002200Y-194507200D02*
X285002200Y-194507200D01*
D10*
D11*
X178359342Y-196601128D02*
X178359342Y-195101128D01*
X179216485Y-196601128D02*
X178573628Y-195743985D01*
X179216485Y-195101128D02*
X178359342Y-195958271D01*
X179859342Y-196601128D02*
X179859342Y-195601128D01*
X179859342Y-195101128D02*
X179787914Y-195172557D01*
X179787914Y-195172557D02*
X179859342Y-195243985D01*
X179859342Y-195243985D02*
X179930771Y-195172557D01*
X179930771Y-195172557D02*
X179859342Y-195101128D01*
X179859342Y-195101128D02*
X179859342Y-195243985D01*
X181430771Y-196458271D02*
X181359343Y-196529700D01*
X181359343Y-196529700D02*
X181145057Y-196601128D01*
X181145057Y-196601128D02*
X181002200Y-196601128D01*
X181002200Y-196601128D02*
X180787914Y-196529700D01*
X180787914Y-196529700D02*
X180645057Y-196386842D01*
X180645057Y-196386842D02*
X180573628Y-196243985D01*
X180573628Y-196243985D02*
X180502200Y-195958271D01*
X180502200Y-195958271D02*
X180502200Y-195743985D01*
X180502200Y-195743985D02*
X180573628Y-195458271D01*
X180573628Y-195458271D02*
X180645057Y-195315414D01*
X180645057Y-195315414D02*
X180787914Y-195172557D01*
X180787914Y-195172557D02*
X181002200Y-195101128D01*
X181002200Y-195101128D02*
X181145057Y-195101128D01*
X181145057Y-195101128D02*
X181359343Y-195172557D01*
X181359343Y-195172557D02*
X181430771Y-195243985D01*
X182716486Y-196601128D02*
X182716486Y-195815414D01*
X182716486Y-195815414D02*
X182645057Y-195672557D01*
X182645057Y-195672557D02*
X182502200Y-195601128D01*
X182502200Y-195601128D02*
X182216486Y-195601128D01*
X182216486Y-195601128D02*
X182073628Y-195672557D01*
X182716486Y-196529700D02*
X182573628Y-196601128D01*
X182573628Y-196601128D02*
X182216486Y-196601128D01*
X182216486Y-196601128D02*
X182073628Y-196529700D01*
X182073628Y-196529700D02*
X182002200Y-196386842D01*
X182002200Y-196386842D02*
X182002200Y-196243985D01*
X182002200Y-196243985D02*
X182073628Y-196101128D01*
X182073628Y-196101128D02*
X182216486Y-196029700D01*
X182216486Y-196029700D02*
X182573628Y-196029700D01*
X182573628Y-196029700D02*
X182716486Y-195958271D01*
X184073629Y-196601128D02*
X184073629Y-195101128D01*
X184073629Y-196529700D02*
X183930771Y-196601128D01*
X183930771Y-196601128D02*
X183645057Y-196601128D01*
X183645057Y-196601128D02*
X183502200Y-196529700D01*
X183502200Y-196529700D02*
X183430771Y-196458271D01*
X183430771Y-196458271D02*
X183359343Y-196315414D01*
X183359343Y-196315414D02*
X183359343Y-195886842D01*
X183359343Y-195886842D02*
X183430771Y-195743985D01*
X183430771Y-195743985D02*
X183502200Y-195672557D01*
X183502200Y-195672557D02*
X183645057Y-195601128D01*
X183645057Y-195601128D02*
X183930771Y-195601128D01*
X183930771Y-195601128D02*
X184073629Y-195672557D01*
X185930771Y-195815414D02*
X186430771Y-195815414D01*
X186645057Y-196601128D02*
X185930771Y-196601128D01*
X185930771Y-196601128D02*
X185930771Y-195101128D01*
X185930771Y-195101128D02*
X186645057Y-195101128D01*
X187287914Y-196458271D02*
X187359343Y-196529700D01*
X187359343Y-196529700D02*
X187287914Y-196601128D01*
X187287914Y-196601128D02*
X187216486Y-196529700D01*
X187216486Y-196529700D02*
X187287914Y-196458271D01*
X187287914Y-196458271D02*
X187287914Y-196601128D01*
X188002200Y-196601128D02*
X188002200Y-195101128D01*
X188002200Y-195101128D02*
X188359343Y-195101128D01*
X188359343Y-195101128D02*
X188573629Y-195172557D01*
X188573629Y-195172557D02*
X188716486Y-195315414D01*
X188716486Y-195315414D02*
X188787915Y-195458271D01*
X188787915Y-195458271D02*
X188859343Y-195743985D01*
X188859343Y-195743985D02*
X188859343Y-195958271D01*
X188859343Y-195958271D02*
X188787915Y-196243985D01*
X188787915Y-196243985D02*
X188716486Y-196386842D01*
X188716486Y-196386842D02*
X188573629Y-196529700D01*
X188573629Y-196529700D02*
X188359343Y-196601128D01*
X188359343Y-196601128D02*
X188002200Y-196601128D01*
X189502200Y-196458271D02*
X189573629Y-196529700D01*
X189573629Y-196529700D02*
X189502200Y-196601128D01*
X189502200Y-196601128D02*
X189430772Y-196529700D01*
X189430772Y-196529700D02*
X189502200Y-196458271D01*
X189502200Y-196458271D02*
X189502200Y-196601128D01*
X190145058Y-196172557D02*
X190859344Y-196172557D01*
X190002201Y-196601128D02*
X190502201Y-195101128D01*
X190502201Y-195101128D02*
X191002201Y-196601128D01*
X191502200Y-196458271D02*
X191573629Y-196529700D01*
X191573629Y-196529700D02*
X191502200Y-196601128D01*
X191502200Y-196601128D02*
X191430772Y-196529700D01*
X191430772Y-196529700D02*
X191502200Y-196458271D01*
X191502200Y-196458271D02*
X191502200Y-196601128D01*
X194502200Y-196601128D02*
X194502200Y-195101128D01*
X194645058Y-196029700D02*
X195073629Y-196601128D01*
X195073629Y-195601128D02*
X194502200Y-196172557D01*
X195716486Y-196601128D02*
X195716486Y-195601128D01*
X195716486Y-195101128D02*
X195645058Y-195172557D01*
X195645058Y-195172557D02*
X195716486Y-195243985D01*
X195716486Y-195243985D02*
X195787915Y-195172557D01*
X195787915Y-195172557D02*
X195716486Y-195101128D01*
X195716486Y-195101128D02*
X195716486Y-195243985D01*
X197073630Y-196529700D02*
X196930772Y-196601128D01*
X196930772Y-196601128D02*
X196645058Y-196601128D01*
X196645058Y-196601128D02*
X196502201Y-196529700D01*
X196502201Y-196529700D02*
X196430772Y-196458271D01*
X196430772Y-196458271D02*
X196359344Y-196315414D01*
X196359344Y-196315414D02*
X196359344Y-195886842D01*
X196359344Y-195886842D02*
X196430772Y-195743985D01*
X196430772Y-195743985D02*
X196502201Y-195672557D01*
X196502201Y-195672557D02*
X196645058Y-195601128D01*
X196645058Y-195601128D02*
X196930772Y-195601128D01*
X196930772Y-195601128D02*
X197073630Y-195672557D01*
X198359344Y-196601128D02*
X198359344Y-195815414D01*
X198359344Y-195815414D02*
X198287915Y-195672557D01*
X198287915Y-195672557D02*
X198145058Y-195601128D01*
X198145058Y-195601128D02*
X197859344Y-195601128D01*
X197859344Y-195601128D02*
X197716486Y-195672557D01*
X198359344Y-196529700D02*
X198216486Y-196601128D01*
X198216486Y-196601128D02*
X197859344Y-196601128D01*
X197859344Y-196601128D02*
X197716486Y-196529700D01*
X197716486Y-196529700D02*
X197645058Y-196386842D01*
X197645058Y-196386842D02*
X197645058Y-196243985D01*
X197645058Y-196243985D02*
X197716486Y-196101128D01*
X197716486Y-196101128D02*
X197859344Y-196029700D01*
X197859344Y-196029700D02*
X198216486Y-196029700D01*
X198216486Y-196029700D02*
X198359344Y-195958271D01*
X199716487Y-196601128D02*
X199716487Y-195101128D01*
X199716487Y-196529700D02*
X199573629Y-196601128D01*
X199573629Y-196601128D02*
X199287915Y-196601128D01*
X199287915Y-196601128D02*
X199145058Y-196529700D01*
X199145058Y-196529700D02*
X199073629Y-196458271D01*
X199073629Y-196458271D02*
X199002201Y-196315414D01*
X199002201Y-196315414D02*
X199002201Y-195886842D01*
X199002201Y-195886842D02*
X199073629Y-195743985D01*
X199073629Y-195743985D02*
X199145058Y-195672557D01*
X199145058Y-195672557D02*
X199287915Y-195601128D01*
X199287915Y-195601128D02*
X199573629Y-195601128D01*
X199573629Y-195601128D02*
X199716487Y-195672557D01*
X201430772Y-195101128D02*
X202430772Y-195101128D01*
X202430772Y-195101128D02*
X201787915Y-196601128D01*
X203002200Y-196458271D02*
X203073629Y-196529700D01*
X203073629Y-196529700D02*
X203002200Y-196601128D01*
X203002200Y-196601128D02*
X202930772Y-196529700D01*
X202930772Y-196529700D02*
X203002200Y-196458271D01*
X203002200Y-196458271D02*
X203002200Y-196601128D01*
X204002201Y-195101128D02*
X204145058Y-195101128D01*
X204145058Y-195101128D02*
X204287915Y-195172557D01*
X204287915Y-195172557D02*
X204359344Y-195243985D01*
X204359344Y-195243985D02*
X204430772Y-195386842D01*
X204430772Y-195386842D02*
X204502201Y-195672557D01*
X204502201Y-195672557D02*
X204502201Y-196029700D01*
X204502201Y-196029700D02*
X204430772Y-196315414D01*
X204430772Y-196315414D02*
X204359344Y-196458271D01*
X204359344Y-196458271D02*
X204287915Y-196529700D01*
X204287915Y-196529700D02*
X204145058Y-196601128D01*
X204145058Y-196601128D02*
X204002201Y-196601128D01*
X204002201Y-196601128D02*
X203859344Y-196529700D01*
X203859344Y-196529700D02*
X203787915Y-196458271D01*
X203787915Y-196458271D02*
X203716486Y-196315414D01*
X203716486Y-196315414D02*
X203645058Y-196029700D01*
X203645058Y-196029700D02*
X203645058Y-195672557D01*
X203645058Y-195672557D02*
X203716486Y-195386842D01*
X203716486Y-195386842D02*
X203787915Y-195243985D01*
X203787915Y-195243985D02*
X203859344Y-195172557D01*
X203859344Y-195172557D02*
X204002201Y-195101128D01*
X205145057Y-196458271D02*
X205216486Y-196529700D01*
X205216486Y-196529700D02*
X205145057Y-196601128D01*
X205145057Y-196601128D02*
X205073629Y-196529700D01*
X205073629Y-196529700D02*
X205145057Y-196458271D01*
X205145057Y-196458271D02*
X205145057Y-196601128D01*
X206645058Y-196601128D02*
X205787915Y-196601128D01*
X206216486Y-196601128D02*
X206216486Y-195101128D01*
X206216486Y-195101128D02*
X206073629Y-195315414D01*
X206073629Y-195315414D02*
X205930772Y-195458271D01*
X205930772Y-195458271D02*
X205787915Y-195529700D01*
D10*
D11*
X177002200Y-191507200D02*
X285002200Y-191507200D01*
D10*
D12*
X264216485Y-193801128D02*
X263716485Y-193086842D01*
X263359342Y-193801128D02*
X263359342Y-192301128D01*
X263359342Y-192301128D02*
X263930771Y-192301128D01*
X263930771Y-192301128D02*
X264073628Y-192372557D01*
X264073628Y-192372557D02*
X264145057Y-192443985D01*
X264145057Y-192443985D02*
X264216485Y-192586842D01*
X264216485Y-192586842D02*
X264216485Y-192801128D01*
X264216485Y-192801128D02*
X264145057Y-192943985D01*
X264145057Y-192943985D02*
X264073628Y-193015414D01*
X264073628Y-193015414D02*
X263930771Y-193086842D01*
X263930771Y-193086842D02*
X263359342Y-193086842D01*
X265430771Y-193729700D02*
X265287914Y-193801128D01*
X265287914Y-193801128D02*
X265002200Y-193801128D01*
X265002200Y-193801128D02*
X264859342Y-193729700D01*
X264859342Y-193729700D02*
X264787914Y-193586842D01*
X264787914Y-193586842D02*
X264787914Y-193015414D01*
X264787914Y-193015414D02*
X264859342Y-192872557D01*
X264859342Y-192872557D02*
X265002200Y-192801128D01*
X265002200Y-192801128D02*
X265287914Y-192801128D01*
X265287914Y-192801128D02*
X265430771Y-192872557D01*
X265430771Y-192872557D02*
X265502200Y-193015414D01*
X265502200Y-193015414D02*
X265502200Y-193158271D01*
X265502200Y-193158271D02*
X264787914Y-193301128D01*
X266002199Y-192801128D02*
X266359342Y-193801128D01*
X266359342Y-193801128D02*
X266716485Y-192801128D01*
X267287913Y-193658271D02*
X267359342Y-193729700D01*
X267359342Y-193729700D02*
X267287913Y-193801128D01*
X267287913Y-193801128D02*
X267216485Y-193729700D01*
X267216485Y-193729700D02*
X267287913Y-193658271D01*
X267287913Y-193658271D02*
X267287913Y-193801128D01*
X267287913Y-192872557D02*
X267359342Y-192943985D01*
X267359342Y-192943985D02*
X267287913Y-193015414D01*
X267287913Y-193015414D02*
X267216485Y-192943985D01*
X267216485Y-192943985D02*
X267287913Y-192872557D01*
X267287913Y-192872557D02*
X267287913Y-193015414D01*
D10*
D11*
X178287914Y-193729700D02*
X178502200Y-193801128D01*
X178502200Y-193801128D02*
X178859342Y-193801128D01*
X178859342Y-193801128D02*
X179002200Y-193729700D01*
X179002200Y-193729700D02*
X179073628Y-193658271D01*
X179073628Y-193658271D02*
X179145057Y-193515414D01*
X179145057Y-193515414D02*
X179145057Y-193372557D01*
X179145057Y-193372557D02*
X179073628Y-193229700D01*
X179073628Y-193229700D02*
X179002200Y-193158271D01*
X179002200Y-193158271D02*
X178859342Y-193086842D01*
X178859342Y-193086842D02*
X178573628Y-193015414D01*
X178573628Y-193015414D02*
X178430771Y-192943985D01*
X178430771Y-192943985D02*
X178359342Y-192872557D01*
X178359342Y-192872557D02*
X178287914Y-192729700D01*
X178287914Y-192729700D02*
X178287914Y-192586842D01*
X178287914Y-192586842D02*
X178359342Y-192443985D01*
X178359342Y-192443985D02*
X178430771Y-192372557D01*
X178430771Y-192372557D02*
X178573628Y-192301128D01*
X178573628Y-192301128D02*
X178930771Y-192301128D01*
X178930771Y-192301128D02*
X179145057Y-192372557D01*
X179787913Y-193801128D02*
X179787913Y-192801128D01*
X179787913Y-192301128D02*
X179716485Y-192372557D01*
X179716485Y-192372557D02*
X179787913Y-192443985D01*
X179787913Y-192443985D02*
X179859342Y-192372557D01*
X179859342Y-192372557D02*
X179787913Y-192301128D01*
X179787913Y-192301128D02*
X179787913Y-192443985D01*
X180359342Y-192801128D02*
X181145057Y-192801128D01*
X181145057Y-192801128D02*
X180359342Y-193801128D01*
X180359342Y-193801128D02*
X181145057Y-193801128D01*
X182287914Y-193729700D02*
X182145057Y-193801128D01*
X182145057Y-193801128D02*
X181859343Y-193801128D01*
X181859343Y-193801128D02*
X181716485Y-193729700D01*
X181716485Y-193729700D02*
X181645057Y-193586842D01*
X181645057Y-193586842D02*
X181645057Y-193015414D01*
X181645057Y-193015414D02*
X181716485Y-192872557D01*
X181716485Y-192872557D02*
X181859343Y-192801128D01*
X181859343Y-192801128D02*
X182145057Y-192801128D01*
X182145057Y-192801128D02*
X182287914Y-192872557D01*
X182287914Y-192872557D02*
X182359343Y-193015414D01*
X182359343Y-193015414D02*
X182359343Y-193158271D01*
X182359343Y-193158271D02*
X181645057Y-193301128D01*
X183002199Y-193658271D02*
X183073628Y-193729700D01*
X183073628Y-193729700D02*
X183002199Y-193801128D01*
X183002199Y-193801128D02*
X182930771Y-193729700D01*
X182930771Y-193729700D02*
X183002199Y-193658271D01*
X183002199Y-193658271D02*
X183002199Y-193801128D01*
X183002199Y-192872557D02*
X183073628Y-192943985D01*
X183073628Y-192943985D02*
X183002199Y-193015414D01*
X183002199Y-193015414D02*
X182930771Y-192943985D01*
X182930771Y-192943985D02*
X183002199Y-192872557D01*
X183002199Y-192872557D02*
X183002199Y-193015414D01*
X184787914Y-193372557D02*
X185502200Y-193372557D01*
X184645057Y-193801128D02*
X185145057Y-192301128D01*
X185145057Y-192301128D02*
X185645057Y-193801128D01*
X186787914Y-192801128D02*
X186787914Y-193801128D01*
X186430771Y-192229700D02*
X186073628Y-193301128D01*
X186073628Y-193301128D02*
X187002199Y-193301128D01*
D10*
D11*
X263359342Y-196601128D02*
X263359342Y-195101128D01*
X264716486Y-196601128D02*
X264716486Y-195101128D01*
X264716486Y-196529700D02*
X264573628Y-196601128D01*
X264573628Y-196601128D02*
X264287914Y-196601128D01*
X264287914Y-196601128D02*
X264145057Y-196529700D01*
X264145057Y-196529700D02*
X264073628Y-196458271D01*
X264073628Y-196458271D02*
X264002200Y-196315414D01*
X264002200Y-196315414D02*
X264002200Y-195886842D01*
X264002200Y-195886842D02*
X264073628Y-195743985D01*
X264073628Y-195743985D02*
X264145057Y-195672557D01*
X264145057Y-195672557D02*
X264287914Y-195601128D01*
X264287914Y-195601128D02*
X264573628Y-195601128D01*
X264573628Y-195601128D02*
X264716486Y-195672557D01*
X265430771Y-196458271D02*
X265502200Y-196529700D01*
X265502200Y-196529700D02*
X265430771Y-196601128D01*
X265430771Y-196601128D02*
X265359343Y-196529700D01*
X265359343Y-196529700D02*
X265430771Y-196458271D01*
X265430771Y-196458271D02*
X265430771Y-196601128D01*
X265430771Y-195672557D02*
X265502200Y-195743985D01*
X265502200Y-195743985D02*
X265430771Y-195815414D01*
X265430771Y-195815414D02*
X265359343Y-195743985D01*
X265359343Y-195743985D02*
X265430771Y-195672557D01*
X265430771Y-195672557D02*
X265430771Y-195815414D01*
X268073629Y-196601128D02*
X267216486Y-196601128D01*
X267645057Y-196601128D02*
X267645057Y-195101128D01*
X267645057Y-195101128D02*
X267502200Y-195315414D01*
X267502200Y-195315414D02*
X267359343Y-195458271D01*
X267359343Y-195458271D02*
X267216486Y-195529700D01*
X269787914Y-195029700D02*
X268502200Y-196958271D01*
X271073629Y-196601128D02*
X270216486Y-196601128D01*
X270645057Y-196601128D02*
X270645057Y-195101128D01*
X270645057Y-195101128D02*
X270502200Y-195315414D01*
X270502200Y-195315414D02*
X270359343Y-195458271D01*
X270359343Y-195458271D02*
X270216486Y-195529700D01*
D10*
D11*
X177002200Y-187507200D02*
X285002200Y-187507200D01*
D10*
D13*
X178430771Y-188232438D02*
X179573628Y-188232438D01*
X178752200Y-190232438D02*
X179002200Y-188232438D01*
X179978390Y-190232438D02*
X180145057Y-188899104D01*
X180228390Y-188232438D02*
X180121247Y-188327676D01*
X180121247Y-188327676D02*
X180204581Y-188422914D01*
X180204581Y-188422914D02*
X180311724Y-188327676D01*
X180311724Y-188327676D02*
X180228390Y-188232438D01*
X180228390Y-188232438D02*
X180204581Y-188422914D01*
X180799819Y-188899104D02*
X181561723Y-188899104D01*
X181168866Y-188232438D02*
X180954581Y-189946723D01*
X180954581Y-189946723D02*
X181026009Y-190137200D01*
X181026009Y-190137200D02*
X181204581Y-190232438D01*
X181204581Y-190232438D02*
X181395057Y-190232438D01*
X182335533Y-190232438D02*
X182156961Y-190137200D01*
X182156961Y-190137200D02*
X182085533Y-189946723D01*
X182085533Y-189946723D02*
X182299818Y-188232438D01*
X183859342Y-190137200D02*
X183656961Y-190232438D01*
X183656961Y-190232438D02*
X183276008Y-190232438D01*
X183276008Y-190232438D02*
X183097437Y-190137200D01*
X183097437Y-190137200D02*
X183026008Y-189946723D01*
X183026008Y-189946723D02*
X183121247Y-189184819D01*
X183121247Y-189184819D02*
X183240294Y-188994342D01*
X183240294Y-188994342D02*
X183442675Y-188899104D01*
X183442675Y-188899104D02*
X183823627Y-188899104D01*
X183823627Y-188899104D02*
X184002199Y-188994342D01*
X184002199Y-188994342D02*
X184073627Y-189184819D01*
X184073627Y-189184819D02*
X184049818Y-189375295D01*
X184049818Y-189375295D02*
X183073627Y-189565771D01*
X184811723Y-190041961D02*
X184895056Y-190137200D01*
X184895056Y-190137200D02*
X184787913Y-190232438D01*
X184787913Y-190232438D02*
X184704580Y-190137200D01*
X184704580Y-190137200D02*
X184811723Y-190041961D01*
X184811723Y-190041961D02*
X184787913Y-190232438D01*
X184942675Y-188994342D02*
X185026008Y-189089580D01*
X185026008Y-189089580D02*
X184918866Y-189184819D01*
X184918866Y-189184819D02*
X184835532Y-189089580D01*
X184835532Y-189089580D02*
X184942675Y-188994342D01*
X184942675Y-188994342D02*
X184918866Y-189184819D01*
D10*
D11*
X178859342Y-185615414D02*
X178359342Y-185615414D01*
X178359342Y-186401128D02*
X178359342Y-184901128D01*
X178359342Y-184901128D02*
X179073628Y-184901128D01*
X179645056Y-186401128D02*
X179645056Y-185401128D01*
X179645056Y-184901128D02*
X179573628Y-184972557D01*
X179573628Y-184972557D02*
X179645056Y-185043985D01*
X179645056Y-185043985D02*
X179716485Y-184972557D01*
X179716485Y-184972557D02*
X179645056Y-184901128D01*
X179645056Y-184901128D02*
X179645056Y-185043985D01*
X180573628Y-186401128D02*
X180430771Y-186329700D01*
X180430771Y-186329700D02*
X180359342Y-186186842D01*
X180359342Y-186186842D02*
X180359342Y-184901128D01*
X181716485Y-186329700D02*
X181573628Y-186401128D01*
X181573628Y-186401128D02*
X181287914Y-186401128D01*
X181287914Y-186401128D02*
X181145056Y-186329700D01*
X181145056Y-186329700D02*
X181073628Y-186186842D01*
X181073628Y-186186842D02*
X181073628Y-185615414D01*
X181073628Y-185615414D02*
X181145056Y-185472557D01*
X181145056Y-185472557D02*
X181287914Y-185401128D01*
X181287914Y-185401128D02*
X181573628Y-185401128D01*
X181573628Y-185401128D02*
X181716485Y-185472557D01*
X181716485Y-185472557D02*
X181787914Y-185615414D01*
X181787914Y-185615414D02*
X181787914Y-185758271D01*
X181787914Y-185758271D02*
X181073628Y-185901128D01*
X182430770Y-186258271D02*
X182502199Y-186329700D01*
X182502199Y-186329700D02*
X182430770Y-186401128D01*
X182430770Y-186401128D02*
X182359342Y-186329700D01*
X182359342Y-186329700D02*
X182430770Y-186258271D01*
X182430770Y-186258271D02*
X182430770Y-186401128D01*
X182430770Y-185472557D02*
X182502199Y-185543985D01*
X182502199Y-185543985D02*
X182430770Y-185615414D01*
X182430770Y-185615414D02*
X182359342Y-185543985D01*
X182359342Y-185543985D02*
X182430770Y-185472557D01*
X182430770Y-185472557D02*
X182430770Y-185615414D01*
X185073628Y-184972557D02*
X184930771Y-184901128D01*
X184930771Y-184901128D02*
X184716485Y-184901128D01*
X184716485Y-184901128D02*
X184502199Y-184972557D01*
X184502199Y-184972557D02*
X184359342Y-185115414D01*
X184359342Y-185115414D02*
X184287913Y-185258271D01*
X184287913Y-185258271D02*
X184216485Y-185543985D01*
X184216485Y-185543985D02*
X184216485Y-185758271D01*
X184216485Y-185758271D02*
X184287913Y-186043985D01*
X184287913Y-186043985D02*
X184359342Y-186186842D01*
X184359342Y-186186842D02*
X184502199Y-186329700D01*
X184502199Y-186329700D02*
X184716485Y-186401128D01*
X184716485Y-186401128D02*
X184859342Y-186401128D01*
X184859342Y-186401128D02*
X185073628Y-186329700D01*
X185073628Y-186329700D02*
X185145056Y-186258271D01*
X185145056Y-186258271D02*
X185145056Y-185758271D01*
X185145056Y-185758271D02*
X184859342Y-185758271D01*
X186430771Y-186401128D02*
X186430771Y-185615414D01*
X186430771Y-185615414D02*
X186359342Y-185472557D01*
X186359342Y-185472557D02*
X186216485Y-185401128D01*
X186216485Y-185401128D02*
X185930771Y-185401128D01*
X185930771Y-185401128D02*
X185787913Y-185472557D01*
X186430771Y-186329700D02*
X186287913Y-186401128D01*
X186287913Y-186401128D02*
X185930771Y-186401128D01*
X185930771Y-186401128D02*
X185787913Y-186329700D01*
X185787913Y-186329700D02*
X185716485Y-186186842D01*
X185716485Y-186186842D02*
X185716485Y-186043985D01*
X185716485Y-186043985D02*
X185787913Y-185901128D01*
X185787913Y-185901128D02*
X185930771Y-185829700D01*
X185930771Y-185829700D02*
X186287913Y-185829700D01*
X186287913Y-185829700D02*
X186430771Y-185758271D01*
X187073628Y-186329700D02*
X187216485Y-186401128D01*
X187216485Y-186401128D02*
X187502199Y-186401128D01*
X187502199Y-186401128D02*
X187645056Y-186329700D01*
X187645056Y-186329700D02*
X187716485Y-186186842D01*
X187716485Y-186186842D02*
X187716485Y-186115414D01*
X187716485Y-186115414D02*
X187645056Y-185972557D01*
X187645056Y-185972557D02*
X187502199Y-185901128D01*
X187502199Y-185901128D02*
X187287914Y-185901128D01*
X187287914Y-185901128D02*
X187145056Y-185829700D01*
X187145056Y-185829700D02*
X187073628Y-185686842D01*
X187073628Y-185686842D02*
X187073628Y-185615414D01*
X187073628Y-185615414D02*
X187145056Y-185472557D01*
X187145056Y-185472557D02*
X187287914Y-185401128D01*
X187287914Y-185401128D02*
X187502199Y-185401128D01*
X187502199Y-185401128D02*
X187645056Y-185472557D01*
X188216485Y-184901128D02*
X188573628Y-186401128D01*
X188573628Y-186401128D02*
X188859342Y-185329700D01*
X188859342Y-185329700D02*
X189145057Y-186401128D01*
X189145057Y-186401128D02*
X189502200Y-184901128D01*
X190645057Y-186329700D02*
X190502200Y-186401128D01*
X190502200Y-186401128D02*
X190216486Y-186401128D01*
X190216486Y-186401128D02*
X190073628Y-186329700D01*
X190073628Y-186329700D02*
X190002200Y-186186842D01*
X190002200Y-186186842D02*
X190002200Y-185615414D01*
X190002200Y-185615414D02*
X190073628Y-185472557D01*
X190073628Y-185472557D02*
X190216486Y-185401128D01*
X190216486Y-185401128D02*
X190502200Y-185401128D01*
X190502200Y-185401128D02*
X190645057Y-185472557D01*
X190645057Y-185472557D02*
X190716486Y-185615414D01*
X190716486Y-185615414D02*
X190716486Y-185758271D01*
X190716486Y-185758271D02*
X190002200Y-185901128D01*
X191359342Y-186401128D02*
X191359342Y-185401128D01*
X191359342Y-184901128D02*
X191287914Y-184972557D01*
X191287914Y-184972557D02*
X191359342Y-185043985D01*
X191359342Y-185043985D02*
X191430771Y-184972557D01*
X191430771Y-184972557D02*
X191359342Y-184901128D01*
X191359342Y-184901128D02*
X191359342Y-185043985D01*
X192716486Y-185401128D02*
X192716486Y-186615414D01*
X192716486Y-186615414D02*
X192645057Y-186758271D01*
X192645057Y-186758271D02*
X192573628Y-186829700D01*
X192573628Y-186829700D02*
X192430771Y-186901128D01*
X192430771Y-186901128D02*
X192216486Y-186901128D01*
X192216486Y-186901128D02*
X192073628Y-186829700D01*
X192716486Y-186329700D02*
X192573628Y-186401128D01*
X192573628Y-186401128D02*
X192287914Y-186401128D01*
X192287914Y-186401128D02*
X192145057Y-186329700D01*
X192145057Y-186329700D02*
X192073628Y-186258271D01*
X192073628Y-186258271D02*
X192002200Y-186115414D01*
X192002200Y-186115414D02*
X192002200Y-185686842D01*
X192002200Y-185686842D02*
X192073628Y-185543985D01*
X192073628Y-185543985D02*
X192145057Y-185472557D01*
X192145057Y-185472557D02*
X192287914Y-185401128D01*
X192287914Y-185401128D02*
X192573628Y-185401128D01*
X192573628Y-185401128D02*
X192716486Y-185472557D01*
X193430771Y-186401128D02*
X193430771Y-184901128D01*
X194073629Y-186401128D02*
X194073629Y-185615414D01*
X194073629Y-185615414D02*
X194002200Y-185472557D01*
X194002200Y-185472557D02*
X193859343Y-185401128D01*
X193859343Y-185401128D02*
X193645057Y-185401128D01*
X193645057Y-185401128D02*
X193502200Y-185472557D01*
X193502200Y-185472557D02*
X193430771Y-185543985D01*
X194573629Y-185401128D02*
X195145057Y-185401128D01*
X194787914Y-184901128D02*
X194787914Y-186186842D01*
X194787914Y-186186842D02*
X194859343Y-186329700D01*
X194859343Y-186329700D02*
X195002200Y-186401128D01*
X195002200Y-186401128D02*
X195145057Y-186401128D01*
X196216486Y-186329700D02*
X196073629Y-186401128D01*
X196073629Y-186401128D02*
X195787915Y-186401128D01*
X195787915Y-186401128D02*
X195645057Y-186329700D01*
X195645057Y-186329700D02*
X195573629Y-186186842D01*
X195573629Y-186186842D02*
X195573629Y-185615414D01*
X195573629Y-185615414D02*
X195645057Y-185472557D01*
X195645057Y-185472557D02*
X195787915Y-185401128D01*
X195787915Y-185401128D02*
X196073629Y-185401128D01*
X196073629Y-185401128D02*
X196216486Y-185472557D01*
X196216486Y-185472557D02*
X196287915Y-185615414D01*
X196287915Y-185615414D02*
X196287915Y-185758271D01*
X196287915Y-185758271D02*
X195573629Y-185901128D01*
X196930771Y-186401128D02*
X196930771Y-185401128D01*
X196930771Y-185686842D02*
X197002200Y-185543985D01*
X197002200Y-185543985D02*
X197073629Y-185472557D01*
X197073629Y-185472557D02*
X197216486Y-185401128D01*
X197216486Y-185401128D02*
X197359343Y-185401128D01*
X197859342Y-186258271D02*
X197930771Y-186329700D01*
X197930771Y-186329700D02*
X197859342Y-186401128D01*
X197859342Y-186401128D02*
X197787914Y-186329700D01*
X197787914Y-186329700D02*
X197859342Y-186258271D01*
X197859342Y-186258271D02*
X197859342Y-186401128D01*
X198573628Y-186401128D02*
X198573628Y-184901128D01*
X198716486Y-185829700D02*
X199145057Y-186401128D01*
X199145057Y-185401128D02*
X198573628Y-185972557D01*
X199787914Y-186401128D02*
X199787914Y-185401128D01*
X199787914Y-184901128D02*
X199716486Y-184972557D01*
X199716486Y-184972557D02*
X199787914Y-185043985D01*
X199787914Y-185043985D02*
X199859343Y-184972557D01*
X199859343Y-184972557D02*
X199787914Y-184901128D01*
X199787914Y-184901128D02*
X199787914Y-185043985D01*
X201145058Y-186329700D02*
X201002200Y-186401128D01*
X201002200Y-186401128D02*
X200716486Y-186401128D01*
X200716486Y-186401128D02*
X200573629Y-186329700D01*
X200573629Y-186329700D02*
X200502200Y-186258271D01*
X200502200Y-186258271D02*
X200430772Y-186115414D01*
X200430772Y-186115414D02*
X200430772Y-185686842D01*
X200430772Y-185686842D02*
X200502200Y-185543985D01*
X200502200Y-185543985D02*
X200573629Y-185472557D01*
X200573629Y-185472557D02*
X200716486Y-185401128D01*
X200716486Y-185401128D02*
X201002200Y-185401128D01*
X201002200Y-185401128D02*
X201145058Y-185472557D01*
X202430772Y-186401128D02*
X202430772Y-185615414D01*
X202430772Y-185615414D02*
X202359343Y-185472557D01*
X202359343Y-185472557D02*
X202216486Y-185401128D01*
X202216486Y-185401128D02*
X201930772Y-185401128D01*
X201930772Y-185401128D02*
X201787914Y-185472557D01*
X202430772Y-186329700D02*
X202287914Y-186401128D01*
X202287914Y-186401128D02*
X201930772Y-186401128D01*
X201930772Y-186401128D02*
X201787914Y-186329700D01*
X201787914Y-186329700D02*
X201716486Y-186186842D01*
X201716486Y-186186842D02*
X201716486Y-186043985D01*
X201716486Y-186043985D02*
X201787914Y-185901128D01*
X201787914Y-185901128D02*
X201930772Y-185829700D01*
X201930772Y-185829700D02*
X202287914Y-185829700D01*
X202287914Y-185829700D02*
X202430772Y-185758271D01*
X203787915Y-186401128D02*
X203787915Y-184901128D01*
X203787915Y-186329700D02*
X203645057Y-186401128D01*
X203645057Y-186401128D02*
X203359343Y-186401128D01*
X203359343Y-186401128D02*
X203216486Y-186329700D01*
X203216486Y-186329700D02*
X203145057Y-186258271D01*
X203145057Y-186258271D02*
X203073629Y-186115414D01*
X203073629Y-186115414D02*
X203073629Y-185686842D01*
X203073629Y-185686842D02*
X203145057Y-185543985D01*
X203145057Y-185543985D02*
X203216486Y-185472557D01*
X203216486Y-185472557D02*
X203359343Y-185401128D01*
X203359343Y-185401128D02*
X203645057Y-185401128D01*
X203645057Y-185401128D02*
X203787915Y-185472557D01*
X204145058Y-186543985D02*
X205287915Y-186543985D01*
X205645057Y-185401128D02*
X205645057Y-186901128D01*
X205645057Y-185472557D02*
X205787915Y-185401128D01*
X205787915Y-185401128D02*
X206073629Y-185401128D01*
X206073629Y-185401128D02*
X206216486Y-185472557D01*
X206216486Y-185472557D02*
X206287915Y-185543985D01*
X206287915Y-185543985D02*
X206359343Y-185686842D01*
X206359343Y-185686842D02*
X206359343Y-186115414D01*
X206359343Y-186115414D02*
X206287915Y-186258271D01*
X206287915Y-186258271D02*
X206216486Y-186329700D01*
X206216486Y-186329700D02*
X206073629Y-186401128D01*
X206073629Y-186401128D02*
X205787915Y-186401128D01*
X205787915Y-186401128D02*
X205645057Y-186329700D01*
X207645058Y-186329700D02*
X207502200Y-186401128D01*
X207502200Y-186401128D02*
X207216486Y-186401128D01*
X207216486Y-186401128D02*
X207073629Y-186329700D01*
X207073629Y-186329700D02*
X207002200Y-186258271D01*
X207002200Y-186258271D02*
X206930772Y-186115414D01*
X206930772Y-186115414D02*
X206930772Y-185686842D01*
X206930772Y-185686842D02*
X207002200Y-185543985D01*
X207002200Y-185543985D02*
X207073629Y-185472557D01*
X207073629Y-185472557D02*
X207216486Y-185401128D01*
X207216486Y-185401128D02*
X207502200Y-185401128D01*
X207502200Y-185401128D02*
X207645058Y-185472557D01*
X208287914Y-186401128D02*
X208287914Y-184901128D01*
X208287914Y-185472557D02*
X208430772Y-185401128D01*
X208430772Y-185401128D02*
X208716486Y-185401128D01*
X208716486Y-185401128D02*
X208859343Y-185472557D01*
X208859343Y-185472557D02*
X208930772Y-185543985D01*
X208930772Y-185543985D02*
X209002200Y-185686842D01*
X209002200Y-185686842D02*
X209002200Y-186115414D01*
X209002200Y-186115414D02*
X208930772Y-186258271D01*
X208930772Y-186258271D02*
X208859343Y-186329700D01*
X208859343Y-186329700D02*
X208716486Y-186401128D01*
X208716486Y-186401128D02*
X208430772Y-186401128D01*
X208430772Y-186401128D02*
X208287914Y-186329700D01*
D10*
D11*
X177002200Y-181507200D02*
X285002200Y-181507200D01*
D10*
D11*
X178287914Y-183629700D02*
X178502200Y-183701128D01*
X178502200Y-183701128D02*
X178859342Y-183701128D01*
X178859342Y-183701128D02*
X179002200Y-183629700D01*
X179002200Y-183629700D02*
X179073628Y-183558271D01*
X179073628Y-183558271D02*
X179145057Y-183415414D01*
X179145057Y-183415414D02*
X179145057Y-183272557D01*
X179145057Y-183272557D02*
X179073628Y-183129700D01*
X179073628Y-183129700D02*
X179002200Y-183058271D01*
X179002200Y-183058271D02*
X178859342Y-182986842D01*
X178859342Y-182986842D02*
X178573628Y-182915414D01*
X178573628Y-182915414D02*
X178430771Y-182843985D01*
X178430771Y-182843985D02*
X178359342Y-182772557D01*
X178359342Y-182772557D02*
X178287914Y-182629700D01*
X178287914Y-182629700D02*
X178287914Y-182486842D01*
X178287914Y-182486842D02*
X178359342Y-182343985D01*
X178359342Y-182343985D02*
X178430771Y-182272557D01*
X178430771Y-182272557D02*
X178573628Y-182201128D01*
X178573628Y-182201128D02*
X178930771Y-182201128D01*
X178930771Y-182201128D02*
X179145057Y-182272557D01*
X179787913Y-183701128D02*
X179787913Y-182201128D01*
X180430771Y-183701128D02*
X180430771Y-182915414D01*
X180430771Y-182915414D02*
X180359342Y-182772557D01*
X180359342Y-182772557D02*
X180216485Y-182701128D01*
X180216485Y-182701128D02*
X180002199Y-182701128D01*
X180002199Y-182701128D02*
X179859342Y-182772557D01*
X179859342Y-182772557D02*
X179787913Y-182843985D01*
X181716485Y-183629700D02*
X181573628Y-183701128D01*
X181573628Y-183701128D02*
X181287914Y-183701128D01*
X181287914Y-183701128D02*
X181145056Y-183629700D01*
X181145056Y-183629700D02*
X181073628Y-183486842D01*
X181073628Y-183486842D02*
X181073628Y-182915414D01*
X181073628Y-182915414D02*
X181145056Y-182772557D01*
X181145056Y-182772557D02*
X181287914Y-182701128D01*
X181287914Y-182701128D02*
X181573628Y-182701128D01*
X181573628Y-182701128D02*
X181716485Y-182772557D01*
X181716485Y-182772557D02*
X181787914Y-182915414D01*
X181787914Y-182915414D02*
X181787914Y-183058271D01*
X181787914Y-183058271D02*
X181073628Y-183201128D01*
X183002199Y-183629700D02*
X182859342Y-183701128D01*
X182859342Y-183701128D02*
X182573628Y-183701128D01*
X182573628Y-183701128D02*
X182430770Y-183629700D01*
X182430770Y-183629700D02*
X182359342Y-183486842D01*
X182359342Y-183486842D02*
X182359342Y-182915414D01*
X182359342Y-182915414D02*
X182430770Y-182772557D01*
X182430770Y-182772557D02*
X182573628Y-182701128D01*
X182573628Y-182701128D02*
X182859342Y-182701128D01*
X182859342Y-182701128D02*
X183002199Y-182772557D01*
X183002199Y-182772557D02*
X183073628Y-182915414D01*
X183073628Y-182915414D02*
X183073628Y-183058271D01*
X183073628Y-183058271D02*
X182359342Y-183201128D01*
X183502199Y-182701128D02*
X184073627Y-182701128D01*
X183716484Y-182201128D02*
X183716484Y-183486842D01*
X183716484Y-183486842D02*
X183787913Y-183629700D01*
X183787913Y-183629700D02*
X183930770Y-183701128D01*
X183930770Y-183701128D02*
X184073627Y-183701128D01*
X184573627Y-183558271D02*
X184645056Y-183629700D01*
X184645056Y-183629700D02*
X184573627Y-183701128D01*
X184573627Y-183701128D02*
X184502199Y-183629700D01*
X184502199Y-183629700D02*
X184573627Y-183558271D01*
X184573627Y-183558271D02*
X184573627Y-183701128D01*
X184573627Y-182772557D02*
X184645056Y-182843985D01*
X184645056Y-182843985D02*
X184573627Y-182915414D01*
X184573627Y-182915414D02*
X184502199Y-182843985D01*
X184502199Y-182843985D02*
X184573627Y-182772557D01*
X184573627Y-182772557D02*
X184573627Y-182915414D01*
D10*
D12*
D10*
D11*
D10*
D11*
D10*
D11*
D10*
D11*
D10*
D11*
X197002200Y-191507200D02*
X197002200Y-194507200D01*
D10*
D11*
X261002200Y-191507200D02*
X261002200Y-198007200D01*
D14*
%TO.C,C13*%
X165992500Y-98187500D03*
X167892500Y-98187500D03*
%TD*%
D15*
%TO.C,C8*%
X123200000Y-82012500D03*
X123200000Y-80287500D03*
%TD*%
D16*
%TO.C,C2*%
X135850000Y-77850000D03*
X135850000Y-75950000D03*
%TD*%
D17*
%TO.C,R6*%
X160350000Y-85100000D03*
X158350000Y-85100000D03*
%TD*%
D18*
%TO.C,R16*%
X172850000Y-80650000D03*
X172850000Y-78650000D03*
%TD*%
D17*
%TO.C,R21*%
X125300000Y-78400000D03*
X123300000Y-78400000D03*
%TD*%
D19*
%TO.C,Q1*%
X133300000Y-90212500D03*
X131400000Y-90212500D03*
X132350000Y-92087500D03*
%TD*%
D20*
%TO.C,D1*%
X173087500Y-76700000D03*
X171212500Y-76700000D03*
%TD*%
D21*
%TO.C,C9*%
X131600000Y-82650000D03*
X129700000Y-82650000D03*
%TD*%
D22*
%TO.C,R5*%
X137900000Y-77100000D03*
X137900000Y-79100000D03*
%TD*%
D23*
%TO.C,U4*%
X127500000Y-110325000D03*
D24*
X128250000Y-109150000D03*
X127750000Y-109150000D03*
X127250000Y-109150000D03*
X126750000Y-109150000D03*
X126750000Y-111500000D03*
X127250000Y-111500000D03*
X127750000Y-111500000D03*
X128250000Y-111500000D03*
%TD*%
D18*
%TO.C,R13*%
X128900000Y-104600000D03*
X128900000Y-102600000D03*
%TD*%
D25*
%TO.C,U7*%
X161442500Y-111632500D03*
X161442500Y-110362500D03*
X161442500Y-109092500D03*
X161442500Y-107822500D03*
X161442500Y-106552500D03*
X161442500Y-105282500D03*
X161442500Y-104012500D03*
X161442500Y-102742500D03*
X156442500Y-102742500D03*
X156442500Y-104012500D03*
X156442500Y-105282500D03*
X156442500Y-106552500D03*
X156442500Y-107822500D03*
X156442500Y-109092500D03*
X156442500Y-110362500D03*
X156442500Y-111632500D03*
%TD*%
D20*
%TO.C,D4*%
X113837500Y-87500000D03*
X111962500Y-87500000D03*
%TD*%
D22*
%TO.C,R18*%
X132500000Y-74800000D03*
X132500000Y-76800000D03*
%TD*%
D26*
%TO.C,SW2*%
X167550000Y-82150000D03*
X173400000Y-82150000D03*
X167550000Y-85150000D03*
X173400000Y-85150000D03*
%TD*%
D27*
%TO.C,R4*%
X136150000Y-81350000D03*
X138150000Y-81350000D03*
%TD*%
D21*
%TO.C,C4*%
X124600000Y-91500000D03*
X122700000Y-91500000D03*
%TD*%
D16*
%TO.C,C10*%
X132400000Y-87750000D03*
X132400000Y-85850000D03*
%TD*%
D27*
%TO.C,R10*%
X117500000Y-108050000D03*
X119500000Y-108050000D03*
%TD*%
D28*
%TO.C,U6*%
X119700000Y-79350000D03*
X118900000Y-79350000D03*
X119700000Y-80150000D03*
X118900000Y-80150000D03*
D29*
X120050000Y-78312500D03*
X119550000Y-78312500D03*
X119050000Y-78312500D03*
X118550000Y-78312500D03*
D30*
X117862500Y-79000000D03*
X117862500Y-79500000D03*
X117862500Y-80000000D03*
X117862500Y-80500000D03*
D29*
X118550000Y-81187500D03*
X119050000Y-81187500D03*
X119550000Y-81187500D03*
X120050000Y-81187500D03*
D30*
X120737500Y-80500000D03*
X120737500Y-80000000D03*
X120737500Y-79500000D03*
X120737500Y-79000000D03*
%TD*%
D22*
%TO.C,R20*%
X120100000Y-82950000D03*
X120100000Y-84950000D03*
%TD*%
D16*
%TO.C,C1*%
X116600000Y-95550000D03*
X116600000Y-93650000D03*
%TD*%
D31*
%TO.C,U1*%
X119675000Y-93405000D03*
X119675000Y-94675000D03*
X119675000Y-95945000D03*
X119675000Y-97215000D03*
X119675000Y-98485000D03*
X119675000Y-99755000D03*
X119675000Y-101025000D03*
X119675000Y-102295000D03*
X124625000Y-102295000D03*
X124625000Y-101025000D03*
X124625000Y-99755000D03*
X124625000Y-98485000D03*
X124625000Y-97215000D03*
X124625000Y-95945000D03*
X124625000Y-94675000D03*
X124625000Y-93405000D03*
%TD*%
D32*
%TO.C,C12*%
X118137500Y-88150000D03*
X119862500Y-88150000D03*
%TD*%
D33*
%TO.C,Q2*%
X127900000Y-92025000D03*
X129800000Y-92025000D03*
X128850000Y-90150000D03*
%TD*%
D32*
%TO.C,C11*%
X118137500Y-86600000D03*
X119862500Y-86600000D03*
%TD*%
D34*
%TO.C,P1*%
X110810000Y-97740000D03*
X110810000Y-98540000D03*
D35*
X110810000Y-99690000D03*
X110810000Y-100690000D03*
X110810000Y-101190000D03*
X110810000Y-102190000D03*
D34*
X110810000Y-103340000D03*
X110810000Y-104140000D03*
X110810000Y-104140000D03*
X110810000Y-103340000D03*
D35*
X110810000Y-102690000D03*
X110810000Y-101690000D03*
X110810000Y-100190000D03*
X110810000Y-99190000D03*
D34*
X110810000Y-98540000D03*
X110810000Y-97740000D03*
%TD*%
D27*
%TO.C,R11*%
X158400000Y-79150000D03*
X160400000Y-79150000D03*
%TD*%
%TO.C,R22*%
X114700000Y-76500000D03*
X116700000Y-76500000D03*
%TD*%
D20*
%TO.C,D3*%
X113637500Y-78700000D03*
X111762500Y-78700000D03*
%TD*%
D36*
%TO.C,U5*%
X130400000Y-84800000D03*
X129450000Y-84800000D03*
X128500000Y-84800000D03*
X128500000Y-87500000D03*
X130400000Y-87500000D03*
%TD*%
D27*
%TO.C,R26*%
X165892500Y-105637500D03*
X167892500Y-105637500D03*
%TD*%
D14*
%TO.C,C6*%
X126550000Y-114800000D03*
X128450000Y-114800000D03*
%TD*%
D18*
%TO.C,R1*%
X116600000Y-99350000D03*
X116600000Y-97350000D03*
%TD*%
%TO.C,R7*%
X158500000Y-93250000D03*
X158500000Y-91250000D03*
%TD*%
D20*
%TO.C,D2*%
X113887500Y-92850000D03*
X112012500Y-92850000D03*
%TD*%
D17*
%TO.C,R2*%
X160350000Y-87150000D03*
X158350000Y-87150000D03*
%TD*%
D33*
%TO.C,Q3*%
X163942500Y-111425000D03*
X165842500Y-111425000D03*
X164892500Y-109550000D03*
%TD*%
D18*
%TO.C,R14*%
X126900000Y-104600000D03*
X126900000Y-102600000D03*
%TD*%
D21*
%TO.C,C3*%
X124600000Y-89400000D03*
X122700000Y-89400000D03*
%TD*%
D22*
%TO.C,R17*%
X132500000Y-70950000D03*
X132500000Y-72950000D03*
%TD*%
%TO.C,R24*%
X127650000Y-79750000D03*
X127650000Y-81750000D03*
%TD*%
%TO.C,R9*%
X127900000Y-94550000D03*
X127900000Y-96550000D03*
%TD*%
D17*
%TO.C,R15*%
X169500000Y-76700000D03*
X167500000Y-76700000D03*
%TD*%
D27*
%TO.C,R12*%
X158400000Y-81150000D03*
X160400000Y-81150000D03*
%TD*%
D14*
%TO.C,C16*%
X159742500Y-113437500D03*
X161642500Y-113437500D03*
%TD*%
D17*
%TO.C,R3*%
X160350000Y-89200000D03*
X158350000Y-89200000D03*
%TD*%
D37*
%TO.C,U3*%
X140550000Y-77150000D03*
X140550000Y-79150000D03*
X140550000Y-81150000D03*
X140550000Y-83150000D03*
X140550000Y-85150000D03*
X140550000Y-87150000D03*
X140550000Y-89150000D03*
X140550000Y-91150000D03*
D38*
X143150000Y-92650000D03*
X145150000Y-92650000D03*
X147150000Y-92650000D03*
X149150000Y-92650000D03*
X151150000Y-92650000D03*
X153150000Y-92650000D03*
D37*
X155750000Y-91150000D03*
X155750000Y-89150000D03*
X155750000Y-87150000D03*
X155750000Y-85150000D03*
X155750000Y-83150000D03*
X155750000Y-81150000D03*
X155750000Y-79150000D03*
X155750000Y-77150000D03*
%TD*%
D16*
%TO.C,C5*%
X138050000Y-93250000D03*
X138050000Y-91350000D03*
%TD*%
D15*
%TO.C,C7*%
X124900000Y-82012500D03*
X124900000Y-80287500D03*
%TD*%
D39*
%TO.C,C15*%
X163992500Y-105037500D03*
X163992500Y-106937500D03*
%TD*%
D16*
%TO.C,C17*%
X154042500Y-112587500D03*
X154042500Y-110687500D03*
%TD*%
D22*
%TO.C,R25*%
X167792500Y-107587500D03*
X167792500Y-109587500D03*
%TD*%
D18*
%TO.C,R8*%
X130300000Y-98100000D03*
X130300000Y-96100000D03*
%TD*%
D27*
%TO.C,R23*%
X123300000Y-76400000D03*
X125300000Y-76400000D03*
%TD*%
D17*
%TO.C,R19*%
X169500000Y-78950000D03*
X167500000Y-78950000D03*
%TD*%
D21*
%TO.C,C14*%
X167792500Y-103587500D03*
X165892500Y-103587500D03*
%TD*%
D40*
%TO.C,SW1*%
X158100000Y-75550000D03*
X158100000Y-69700000D03*
X161100000Y-75550000D03*
X161100000Y-69700000D03*
%TD*%
M02*
