%TF.GenerationSoftware,KiCad,Pcbnew,8.0.4*%
%TF.CreationDate,2024-08-29T22:36:47+02:00*%
%TF.ProjectId,GasWeighter ESP32,47617357-6569-4676-9874-657220455350,rev?*%
%TF.SameCoordinates,Original*%
%TF.FileFunction,Copper,L2,Bot*%
%TF.FilePolarity,Positive*%
%FSLAX46Y46*%
G04 Gerber Fmt 4.6, Leading zero omitted, Abs format (unit mm)*
G04 Created by KiCad (PCBNEW 8.0.4) date 2024-08-29 22:36:47*
%MOMM*%
%LPD*%
G01*
G04 APERTURE LIST*
G04 Aperture macros list*
%AMRoundRect*
0 Rectangle with rounded corners*
0 $1 Rounding radius*
0 $2 $3 $4 $5 $6 $7 $8 $9 X,Y pos of 4 corners*
0 Add a 4 corners polygon primitive as box body*
4,1,4,$2,$3,$4,$5,$6,$7,$8,$9,$2,$3,0*
0 Add four circle primitives for the rounded corners*
1,1,$1+$1,$2,$3*
1,1,$1+$1,$4,$5*
1,1,$1+$1,$6,$7*
1,1,$1+$1,$8,$9*
0 Add four rect primitives between the rounded corners*
20,1,$1+$1,$2,$3,$4,$5,0*
20,1,$1+$1,$4,$5,$6,$7,0*
20,1,$1+$1,$6,$7,$8,$9,0*
20,1,$1+$1,$8,$9,$2,$3,0*%
G04 Aperture macros list end*
%ADD10C,0.100000*%
%ADD11C,0.150000*%
%ADD12C,0.300000*%
%ADD13C,0.400000*%
%TA.AperFunction,ComponentPad*%
%ADD14RoundRect,0.250000X-0.350000X-0.625000X0.350000X-0.625000X0.350000X0.625000X-0.350000X0.625000X0*%
%TD*%
%TA.AperFunction,ComponentPad*%
%ADD15O,1.200000X1.750000*%
%TD*%
%TA.AperFunction,ComponentPad*%
%ADD16RoundRect,0.250000X0.350000X0.625000X-0.350000X0.625000X-0.350000X-0.625000X0.350000X-0.625000X0*%
%TD*%
%TA.AperFunction,ComponentPad*%
%ADD17O,2.300000X1.200000*%
%TD*%
%TA.AperFunction,ComponentPad*%
%ADD18O,2.000000X1.200000*%
%TD*%
%TA.AperFunction,HeatsinkPad*%
%ADD19C,0.600000*%
%TD*%
%TA.AperFunction,ComponentPad*%
%ADD20R,1.700000X1.700000*%
%TD*%
%TA.AperFunction,ComponentPad*%
%ADD21O,1.700000X1.700000*%
%TD*%
%TA.AperFunction,ComponentPad*%
%ADD22R,1.050000X1.500000*%
%TD*%
%TA.AperFunction,ComponentPad*%
%ADD23O,1.050000X1.500000*%
%TD*%
%TA.AperFunction,ComponentPad*%
%ADD24RoundRect,0.250000X0.625000X-0.350000X0.625000X0.350000X-0.625000X0.350000X-0.625000X-0.350000X0*%
%TD*%
%TA.AperFunction,ComponentPad*%
%ADD25O,1.750000X1.200000*%
%TD*%
%TA.AperFunction,ComponentPad*%
%ADD26RoundRect,0.250000X-0.625000X0.350000X-0.625000X-0.350000X0.625000X-0.350000X0.625000X0.350000X0*%
%TD*%
%TA.AperFunction,ViaPad*%
%ADD27C,0.600000*%
%TD*%
%TA.AperFunction,ViaPad*%
%ADD28C,0.800000*%
%TD*%
%TA.AperFunction,ViaPad*%
%ADD29C,0.500000*%
%TD*%
%TA.AperFunction,Conductor*%
%ADD30C,0.250000*%
%TD*%
%TA.AperFunction,Conductor*%
%ADD31C,0.200000*%
%TD*%
G04 APERTURE END LIST*
D10*
D11*
X177002200Y-166007200D02*
X285002200Y-166007200D01*
X285002200Y-198007200D01*
X177002200Y-198007200D01*
X177002200Y-166007200D01*
D10*
D11*
X10000000Y-10000000D02*
X287002200Y-10000000D01*
X287002200Y-200007200D01*
X10000000Y-200007200D01*
X10000000Y-10000000D01*
D10*
D11*
X12000000Y-12000000D02*
X285002200Y-12000000D01*
X285002200Y-198007200D01*
X12000000Y-198007200D01*
X12000000Y-12000000D01*
D10*
D11*
X60000000Y-12000000D02*
X60000000Y-10000000D01*
D10*
D11*
X110000000Y-12000000D02*
X110000000Y-10000000D01*
D10*
D11*
X160000000Y-12000000D02*
X160000000Y-10000000D01*
D10*
D11*
X210000000Y-12000000D02*
X210000000Y-10000000D01*
D10*
D11*
X260000000Y-12000000D02*
X260000000Y-10000000D01*
D10*
D11*
X36089160Y-11593604D02*
X35346303Y-11593604D01*
X35717731Y-11593604D02*
X35717731Y-10293604D01*
X35717731Y-10293604D02*
X35593922Y-10479319D01*
X35593922Y-10479319D02*
X35470112Y-10603128D01*
X35470112Y-10603128D02*
X35346303Y-10665033D01*
D10*
D11*
X85346303Y-10417414D02*
X85408207Y-10355509D01*
X85408207Y-10355509D02*
X85532017Y-10293604D01*
X85532017Y-10293604D02*
X85841541Y-10293604D01*
X85841541Y-10293604D02*
X85965350Y-10355509D01*
X85965350Y-10355509D02*
X86027255Y-10417414D01*
X86027255Y-10417414D02*
X86089160Y-10541223D01*
X86089160Y-10541223D02*
X86089160Y-10665033D01*
X86089160Y-10665033D02*
X86027255Y-10850747D01*
X86027255Y-10850747D02*
X85284398Y-11593604D01*
X85284398Y-11593604D02*
X86089160Y-11593604D01*
D10*
D11*
X135284398Y-10293604D02*
X136089160Y-10293604D01*
X136089160Y-10293604D02*
X135655826Y-10788842D01*
X135655826Y-10788842D02*
X135841541Y-10788842D01*
X135841541Y-10788842D02*
X135965350Y-10850747D01*
X135965350Y-10850747D02*
X136027255Y-10912652D01*
X136027255Y-10912652D02*
X136089160Y-11036461D01*
X136089160Y-11036461D02*
X136089160Y-11345985D01*
X136089160Y-11345985D02*
X136027255Y-11469795D01*
X136027255Y-11469795D02*
X135965350Y-11531700D01*
X135965350Y-11531700D02*
X135841541Y-11593604D01*
X135841541Y-11593604D02*
X135470112Y-11593604D01*
X135470112Y-11593604D02*
X135346303Y-11531700D01*
X135346303Y-11531700D02*
X135284398Y-11469795D01*
D10*
D11*
X185965350Y-10726938D02*
X185965350Y-11593604D01*
X185655826Y-10231700D02*
X185346303Y-11160271D01*
X185346303Y-11160271D02*
X186151064Y-11160271D01*
D10*
D11*
X236027255Y-10293604D02*
X235408207Y-10293604D01*
X235408207Y-10293604D02*
X235346303Y-10912652D01*
X235346303Y-10912652D02*
X235408207Y-10850747D01*
X235408207Y-10850747D02*
X235532017Y-10788842D01*
X235532017Y-10788842D02*
X235841541Y-10788842D01*
X235841541Y-10788842D02*
X235965350Y-10850747D01*
X235965350Y-10850747D02*
X236027255Y-10912652D01*
X236027255Y-10912652D02*
X236089160Y-11036461D01*
X236089160Y-11036461D02*
X236089160Y-11345985D01*
X236089160Y-11345985D02*
X236027255Y-11469795D01*
X236027255Y-11469795D02*
X235965350Y-11531700D01*
X235965350Y-11531700D02*
X235841541Y-11593604D01*
X235841541Y-11593604D02*
X235532017Y-11593604D01*
X235532017Y-11593604D02*
X235408207Y-11531700D01*
X235408207Y-11531700D02*
X235346303Y-11469795D01*
D10*
D11*
X285965350Y-10293604D02*
X285717731Y-10293604D01*
X285717731Y-10293604D02*
X285593922Y-10355509D01*
X285593922Y-10355509D02*
X285532017Y-10417414D01*
X285532017Y-10417414D02*
X285408207Y-10603128D01*
X285408207Y-10603128D02*
X285346303Y-10850747D01*
X285346303Y-10850747D02*
X285346303Y-11345985D01*
X285346303Y-11345985D02*
X285408207Y-11469795D01*
X285408207Y-11469795D02*
X285470112Y-11531700D01*
X285470112Y-11531700D02*
X285593922Y-11593604D01*
X285593922Y-11593604D02*
X285841541Y-11593604D01*
X285841541Y-11593604D02*
X285965350Y-11531700D01*
X285965350Y-11531700D02*
X286027255Y-11469795D01*
X286027255Y-11469795D02*
X286089160Y-11345985D01*
X286089160Y-11345985D02*
X286089160Y-11036461D01*
X286089160Y-11036461D02*
X286027255Y-10912652D01*
X286027255Y-10912652D02*
X285965350Y-10850747D01*
X285965350Y-10850747D02*
X285841541Y-10788842D01*
X285841541Y-10788842D02*
X285593922Y-10788842D01*
X285593922Y-10788842D02*
X285470112Y-10850747D01*
X285470112Y-10850747D02*
X285408207Y-10912652D01*
X285408207Y-10912652D02*
X285346303Y-11036461D01*
D10*
D11*
X60000000Y-198007200D02*
X60000000Y-200007200D01*
D10*
D11*
X110000000Y-198007200D02*
X110000000Y-200007200D01*
D10*
D11*
X160000000Y-198007200D02*
X160000000Y-200007200D01*
D10*
D11*
X210000000Y-198007200D02*
X210000000Y-200007200D01*
D10*
D11*
X260000000Y-198007200D02*
X260000000Y-200007200D01*
D10*
D11*
X36089160Y-199600804D02*
X35346303Y-199600804D01*
X35717731Y-199600804D02*
X35717731Y-198300804D01*
X35717731Y-198300804D02*
X35593922Y-198486519D01*
X35593922Y-198486519D02*
X35470112Y-198610328D01*
X35470112Y-198610328D02*
X35346303Y-198672233D01*
D10*
D11*
X85346303Y-198424614D02*
X85408207Y-198362709D01*
X85408207Y-198362709D02*
X85532017Y-198300804D01*
X85532017Y-198300804D02*
X85841541Y-198300804D01*
X85841541Y-198300804D02*
X85965350Y-198362709D01*
X85965350Y-198362709D02*
X86027255Y-198424614D01*
X86027255Y-198424614D02*
X86089160Y-198548423D01*
X86089160Y-198548423D02*
X86089160Y-198672233D01*
X86089160Y-198672233D02*
X86027255Y-198857947D01*
X86027255Y-198857947D02*
X85284398Y-199600804D01*
X85284398Y-199600804D02*
X86089160Y-199600804D01*
D10*
D11*
X135284398Y-198300804D02*
X136089160Y-198300804D01*
X136089160Y-198300804D02*
X135655826Y-198796042D01*
X135655826Y-198796042D02*
X135841541Y-198796042D01*
X135841541Y-198796042D02*
X135965350Y-198857947D01*
X135965350Y-198857947D02*
X136027255Y-198919852D01*
X136027255Y-198919852D02*
X136089160Y-199043661D01*
X136089160Y-199043661D02*
X136089160Y-199353185D01*
X136089160Y-199353185D02*
X136027255Y-199476995D01*
X136027255Y-199476995D02*
X135965350Y-199538900D01*
X135965350Y-199538900D02*
X135841541Y-199600804D01*
X135841541Y-199600804D02*
X135470112Y-199600804D01*
X135470112Y-199600804D02*
X135346303Y-199538900D01*
X135346303Y-199538900D02*
X135284398Y-199476995D01*
D10*
D11*
X185965350Y-198734138D02*
X185965350Y-199600804D01*
X185655826Y-198238900D02*
X185346303Y-199167471D01*
X185346303Y-199167471D02*
X186151064Y-199167471D01*
D10*
D11*
X236027255Y-198300804D02*
X235408207Y-198300804D01*
X235408207Y-198300804D02*
X235346303Y-198919852D01*
X235346303Y-198919852D02*
X235408207Y-198857947D01*
X235408207Y-198857947D02*
X235532017Y-198796042D01*
X235532017Y-198796042D02*
X235841541Y-198796042D01*
X235841541Y-198796042D02*
X235965350Y-198857947D01*
X235965350Y-198857947D02*
X236027255Y-198919852D01*
X236027255Y-198919852D02*
X236089160Y-199043661D01*
X236089160Y-199043661D02*
X236089160Y-199353185D01*
X236089160Y-199353185D02*
X236027255Y-199476995D01*
X236027255Y-199476995D02*
X235965350Y-199538900D01*
X235965350Y-199538900D02*
X235841541Y-199600804D01*
X235841541Y-199600804D02*
X235532017Y-199600804D01*
X235532017Y-199600804D02*
X235408207Y-199538900D01*
X235408207Y-199538900D02*
X235346303Y-199476995D01*
D10*
D11*
X285965350Y-198300804D02*
X285717731Y-198300804D01*
X285717731Y-198300804D02*
X285593922Y-198362709D01*
X285593922Y-198362709D02*
X285532017Y-198424614D01*
X285532017Y-198424614D02*
X285408207Y-198610328D01*
X285408207Y-198610328D02*
X285346303Y-198857947D01*
X285346303Y-198857947D02*
X285346303Y-199353185D01*
X285346303Y-199353185D02*
X285408207Y-199476995D01*
X285408207Y-199476995D02*
X285470112Y-199538900D01*
X285470112Y-199538900D02*
X285593922Y-199600804D01*
X285593922Y-199600804D02*
X285841541Y-199600804D01*
X285841541Y-199600804D02*
X285965350Y-199538900D01*
X285965350Y-199538900D02*
X286027255Y-199476995D01*
X286027255Y-199476995D02*
X286089160Y-199353185D01*
X286089160Y-199353185D02*
X286089160Y-199043661D01*
X286089160Y-199043661D02*
X286027255Y-198919852D01*
X286027255Y-198919852D02*
X285965350Y-198857947D01*
X285965350Y-198857947D02*
X285841541Y-198796042D01*
X285841541Y-198796042D02*
X285593922Y-198796042D01*
X285593922Y-198796042D02*
X285470112Y-198857947D01*
X285470112Y-198857947D02*
X285408207Y-198919852D01*
X285408207Y-198919852D02*
X285346303Y-199043661D01*
D10*
D11*
X10000000Y-60000000D02*
X12000000Y-60000000D01*
D10*
D11*
X10000000Y-110000000D02*
X12000000Y-110000000D01*
D10*
D11*
X10000000Y-160000000D02*
X12000000Y-160000000D01*
D10*
D11*
X10690476Y-35222176D02*
X11309523Y-35222176D01*
X10566666Y-35593604D02*
X10999999Y-34293604D01*
X10999999Y-34293604D02*
X11433333Y-35593604D01*
D10*
D11*
X11092857Y-84912652D02*
X11278571Y-84974557D01*
X11278571Y-84974557D02*
X11340476Y-85036461D01*
X11340476Y-85036461D02*
X11402380Y-85160271D01*
X11402380Y-85160271D02*
X11402380Y-85345985D01*
X11402380Y-85345985D02*
X11340476Y-85469795D01*
X11340476Y-85469795D02*
X11278571Y-85531700D01*
X11278571Y-85531700D02*
X11154761Y-85593604D01*
X11154761Y-85593604D02*
X10659523Y-85593604D01*
X10659523Y-85593604D02*
X10659523Y-84293604D01*
X10659523Y-84293604D02*
X11092857Y-84293604D01*
X11092857Y-84293604D02*
X11216666Y-84355509D01*
X11216666Y-84355509D02*
X11278571Y-84417414D01*
X11278571Y-84417414D02*
X11340476Y-84541223D01*
X11340476Y-84541223D02*
X11340476Y-84665033D01*
X11340476Y-84665033D02*
X11278571Y-84788842D01*
X11278571Y-84788842D02*
X11216666Y-84850747D01*
X11216666Y-84850747D02*
X11092857Y-84912652D01*
X11092857Y-84912652D02*
X10659523Y-84912652D01*
D10*
D11*
X11402380Y-135469795D02*
X11340476Y-135531700D01*
X11340476Y-135531700D02*
X11154761Y-135593604D01*
X11154761Y-135593604D02*
X11030952Y-135593604D01*
X11030952Y-135593604D02*
X10845238Y-135531700D01*
X10845238Y-135531700D02*
X10721428Y-135407890D01*
X10721428Y-135407890D02*
X10659523Y-135284080D01*
X10659523Y-135284080D02*
X10597619Y-135036461D01*
X10597619Y-135036461D02*
X10597619Y-134850747D01*
X10597619Y-134850747D02*
X10659523Y-134603128D01*
X10659523Y-134603128D02*
X10721428Y-134479319D01*
X10721428Y-134479319D02*
X10845238Y-134355509D01*
X10845238Y-134355509D02*
X11030952Y-134293604D01*
X11030952Y-134293604D02*
X11154761Y-134293604D01*
X11154761Y-134293604D02*
X11340476Y-134355509D01*
X11340476Y-134355509D02*
X11402380Y-134417414D01*
D10*
D11*
X10659523Y-185593604D02*
X10659523Y-184293604D01*
X10659523Y-184293604D02*
X10969047Y-184293604D01*
X10969047Y-184293604D02*
X11154761Y-184355509D01*
X11154761Y-184355509D02*
X11278571Y-184479319D01*
X11278571Y-184479319D02*
X11340476Y-184603128D01*
X11340476Y-184603128D02*
X11402380Y-184850747D01*
X11402380Y-184850747D02*
X11402380Y-185036461D01*
X11402380Y-185036461D02*
X11340476Y-185284080D01*
X11340476Y-185284080D02*
X11278571Y-185407890D01*
X11278571Y-185407890D02*
X11154761Y-185531700D01*
X11154761Y-185531700D02*
X10969047Y-185593604D01*
X10969047Y-185593604D02*
X10659523Y-185593604D01*
D10*
D11*
X287002200Y-60000000D02*
X285002200Y-60000000D01*
D10*
D11*
X287002200Y-110000000D02*
X285002200Y-110000000D01*
D10*
D11*
X287002200Y-160000000D02*
X285002200Y-160000000D01*
D10*
D11*
X285692676Y-35222176D02*
X286311723Y-35222176D01*
X285568866Y-35593604D02*
X286002199Y-34293604D01*
X286002199Y-34293604D02*
X286435533Y-35593604D01*
D10*
D11*
X286095057Y-84912652D02*
X286280771Y-84974557D01*
X286280771Y-84974557D02*
X286342676Y-85036461D01*
X286342676Y-85036461D02*
X286404580Y-85160271D01*
X286404580Y-85160271D02*
X286404580Y-85345985D01*
X286404580Y-85345985D02*
X286342676Y-85469795D01*
X286342676Y-85469795D02*
X286280771Y-85531700D01*
X286280771Y-85531700D02*
X286156961Y-85593604D01*
X286156961Y-85593604D02*
X285661723Y-85593604D01*
X285661723Y-85593604D02*
X285661723Y-84293604D01*
X285661723Y-84293604D02*
X286095057Y-84293604D01*
X286095057Y-84293604D02*
X286218866Y-84355509D01*
X286218866Y-84355509D02*
X286280771Y-84417414D01*
X286280771Y-84417414D02*
X286342676Y-84541223D01*
X286342676Y-84541223D02*
X286342676Y-84665033D01*
X286342676Y-84665033D02*
X286280771Y-84788842D01*
X286280771Y-84788842D02*
X286218866Y-84850747D01*
X286218866Y-84850747D02*
X286095057Y-84912652D01*
X286095057Y-84912652D02*
X285661723Y-84912652D01*
D10*
D11*
X286404580Y-135469795D02*
X286342676Y-135531700D01*
X286342676Y-135531700D02*
X286156961Y-135593604D01*
X286156961Y-135593604D02*
X286033152Y-135593604D01*
X286033152Y-135593604D02*
X285847438Y-135531700D01*
X285847438Y-135531700D02*
X285723628Y-135407890D01*
X285723628Y-135407890D02*
X285661723Y-135284080D01*
X285661723Y-135284080D02*
X285599819Y-135036461D01*
X285599819Y-135036461D02*
X285599819Y-134850747D01*
X285599819Y-134850747D02*
X285661723Y-134603128D01*
X285661723Y-134603128D02*
X285723628Y-134479319D01*
X285723628Y-134479319D02*
X285847438Y-134355509D01*
X285847438Y-134355509D02*
X286033152Y-134293604D01*
X286033152Y-134293604D02*
X286156961Y-134293604D01*
X286156961Y-134293604D02*
X286342676Y-134355509D01*
X286342676Y-134355509D02*
X286404580Y-134417414D01*
D10*
D11*
X285661723Y-185593604D02*
X285661723Y-184293604D01*
X285661723Y-184293604D02*
X285971247Y-184293604D01*
X285971247Y-184293604D02*
X286156961Y-184355509D01*
X286156961Y-184355509D02*
X286280771Y-184479319D01*
X286280771Y-184479319D02*
X286342676Y-184603128D01*
X286342676Y-184603128D02*
X286404580Y-184850747D01*
X286404580Y-184850747D02*
X286404580Y-185036461D01*
X286404580Y-185036461D02*
X286342676Y-185284080D01*
X286342676Y-185284080D02*
X286280771Y-185407890D01*
X286280771Y-185407890D02*
X286156961Y-185531700D01*
X286156961Y-185531700D02*
X285971247Y-185593604D01*
X285971247Y-185593604D02*
X285661723Y-185593604D01*
D10*
D11*
X200458026Y-193793328D02*
X200458026Y-192293328D01*
X200458026Y-192293328D02*
X200815169Y-192293328D01*
X200815169Y-192293328D02*
X201029455Y-192364757D01*
X201029455Y-192364757D02*
X201172312Y-192507614D01*
X201172312Y-192507614D02*
X201243741Y-192650471D01*
X201243741Y-192650471D02*
X201315169Y-192936185D01*
X201315169Y-192936185D02*
X201315169Y-193150471D01*
X201315169Y-193150471D02*
X201243741Y-193436185D01*
X201243741Y-193436185D02*
X201172312Y-193579042D01*
X201172312Y-193579042D02*
X201029455Y-193721900D01*
X201029455Y-193721900D02*
X200815169Y-193793328D01*
X200815169Y-193793328D02*
X200458026Y-193793328D01*
X202600884Y-193793328D02*
X202600884Y-193007614D01*
X202600884Y-193007614D02*
X202529455Y-192864757D01*
X202529455Y-192864757D02*
X202386598Y-192793328D01*
X202386598Y-192793328D02*
X202100884Y-192793328D01*
X202100884Y-192793328D02*
X201958026Y-192864757D01*
X202600884Y-193721900D02*
X202458026Y-193793328D01*
X202458026Y-193793328D02*
X202100884Y-193793328D01*
X202100884Y-193793328D02*
X201958026Y-193721900D01*
X201958026Y-193721900D02*
X201886598Y-193579042D01*
X201886598Y-193579042D02*
X201886598Y-193436185D01*
X201886598Y-193436185D02*
X201958026Y-193293328D01*
X201958026Y-193293328D02*
X202100884Y-193221900D01*
X202100884Y-193221900D02*
X202458026Y-193221900D01*
X202458026Y-193221900D02*
X202600884Y-193150471D01*
X203100884Y-192793328D02*
X203672312Y-192793328D01*
X203315169Y-192293328D02*
X203315169Y-193579042D01*
X203315169Y-193579042D02*
X203386598Y-193721900D01*
X203386598Y-193721900D02*
X203529455Y-193793328D01*
X203529455Y-193793328D02*
X203672312Y-193793328D01*
X204743741Y-193721900D02*
X204600884Y-193793328D01*
X204600884Y-193793328D02*
X204315170Y-193793328D01*
X204315170Y-193793328D02*
X204172312Y-193721900D01*
X204172312Y-193721900D02*
X204100884Y-193579042D01*
X204100884Y-193579042D02*
X204100884Y-193007614D01*
X204100884Y-193007614D02*
X204172312Y-192864757D01*
X204172312Y-192864757D02*
X204315170Y-192793328D01*
X204315170Y-192793328D02*
X204600884Y-192793328D01*
X204600884Y-192793328D02*
X204743741Y-192864757D01*
X204743741Y-192864757D02*
X204815170Y-193007614D01*
X204815170Y-193007614D02*
X204815170Y-193150471D01*
X204815170Y-193150471D02*
X204100884Y-193293328D01*
X205458026Y-193650471D02*
X205529455Y-193721900D01*
X205529455Y-193721900D02*
X205458026Y-193793328D01*
X205458026Y-193793328D02*
X205386598Y-193721900D01*
X205386598Y-193721900D02*
X205458026Y-193650471D01*
X205458026Y-193650471D02*
X205458026Y-193793328D01*
X205458026Y-192864757D02*
X205529455Y-192936185D01*
X205529455Y-192936185D02*
X205458026Y-193007614D01*
X205458026Y-193007614D02*
X205386598Y-192936185D01*
X205386598Y-192936185D02*
X205458026Y-192864757D01*
X205458026Y-192864757D02*
X205458026Y-193007614D01*
D10*
D11*
X177002200Y-194507200D02*
X285002200Y-194507200D01*
D10*
D11*
X178458026Y-196593328D02*
X178458026Y-195093328D01*
X179315169Y-196593328D02*
X178672312Y-195736185D01*
X179315169Y-195093328D02*
X178458026Y-195950471D01*
X179958026Y-196593328D02*
X179958026Y-195593328D01*
X179958026Y-195093328D02*
X179886598Y-195164757D01*
X179886598Y-195164757D02*
X179958026Y-195236185D01*
X179958026Y-195236185D02*
X180029455Y-195164757D01*
X180029455Y-195164757D02*
X179958026Y-195093328D01*
X179958026Y-195093328D02*
X179958026Y-195236185D01*
X181529455Y-196450471D02*
X181458027Y-196521900D01*
X181458027Y-196521900D02*
X181243741Y-196593328D01*
X181243741Y-196593328D02*
X181100884Y-196593328D01*
X181100884Y-196593328D02*
X180886598Y-196521900D01*
X180886598Y-196521900D02*
X180743741Y-196379042D01*
X180743741Y-196379042D02*
X180672312Y-196236185D01*
X180672312Y-196236185D02*
X180600884Y-195950471D01*
X180600884Y-195950471D02*
X180600884Y-195736185D01*
X180600884Y-195736185D02*
X180672312Y-195450471D01*
X180672312Y-195450471D02*
X180743741Y-195307614D01*
X180743741Y-195307614D02*
X180886598Y-195164757D01*
X180886598Y-195164757D02*
X181100884Y-195093328D01*
X181100884Y-195093328D02*
X181243741Y-195093328D01*
X181243741Y-195093328D02*
X181458027Y-195164757D01*
X181458027Y-195164757D02*
X181529455Y-195236185D01*
X182815170Y-196593328D02*
X182815170Y-195807614D01*
X182815170Y-195807614D02*
X182743741Y-195664757D01*
X182743741Y-195664757D02*
X182600884Y-195593328D01*
X182600884Y-195593328D02*
X182315170Y-195593328D01*
X182315170Y-195593328D02*
X182172312Y-195664757D01*
X182815170Y-196521900D02*
X182672312Y-196593328D01*
X182672312Y-196593328D02*
X182315170Y-196593328D01*
X182315170Y-196593328D02*
X182172312Y-196521900D01*
X182172312Y-196521900D02*
X182100884Y-196379042D01*
X182100884Y-196379042D02*
X182100884Y-196236185D01*
X182100884Y-196236185D02*
X182172312Y-196093328D01*
X182172312Y-196093328D02*
X182315170Y-196021900D01*
X182315170Y-196021900D02*
X182672312Y-196021900D01*
X182672312Y-196021900D02*
X182815170Y-195950471D01*
X184172313Y-196593328D02*
X184172313Y-195093328D01*
X184172313Y-196521900D02*
X184029455Y-196593328D01*
X184029455Y-196593328D02*
X183743741Y-196593328D01*
X183743741Y-196593328D02*
X183600884Y-196521900D01*
X183600884Y-196521900D02*
X183529455Y-196450471D01*
X183529455Y-196450471D02*
X183458027Y-196307614D01*
X183458027Y-196307614D02*
X183458027Y-195879042D01*
X183458027Y-195879042D02*
X183529455Y-195736185D01*
X183529455Y-195736185D02*
X183600884Y-195664757D01*
X183600884Y-195664757D02*
X183743741Y-195593328D01*
X183743741Y-195593328D02*
X184029455Y-195593328D01*
X184029455Y-195593328D02*
X184172313Y-195664757D01*
X186029455Y-195807614D02*
X186529455Y-195807614D01*
X186743741Y-196593328D02*
X186029455Y-196593328D01*
X186029455Y-196593328D02*
X186029455Y-195093328D01*
X186029455Y-195093328D02*
X186743741Y-195093328D01*
X187386598Y-196450471D02*
X187458027Y-196521900D01*
X187458027Y-196521900D02*
X187386598Y-196593328D01*
X187386598Y-196593328D02*
X187315170Y-196521900D01*
X187315170Y-196521900D02*
X187386598Y-196450471D01*
X187386598Y-196450471D02*
X187386598Y-196593328D01*
X188100884Y-196593328D02*
X188100884Y-195093328D01*
X188100884Y-195093328D02*
X188458027Y-195093328D01*
X188458027Y-195093328D02*
X188672313Y-195164757D01*
X188672313Y-195164757D02*
X188815170Y-195307614D01*
X188815170Y-195307614D02*
X188886599Y-195450471D01*
X188886599Y-195450471D02*
X188958027Y-195736185D01*
X188958027Y-195736185D02*
X188958027Y-195950471D01*
X188958027Y-195950471D02*
X188886599Y-196236185D01*
X188886599Y-196236185D02*
X188815170Y-196379042D01*
X188815170Y-196379042D02*
X188672313Y-196521900D01*
X188672313Y-196521900D02*
X188458027Y-196593328D01*
X188458027Y-196593328D02*
X188100884Y-196593328D01*
X189600884Y-196450471D02*
X189672313Y-196521900D01*
X189672313Y-196521900D02*
X189600884Y-196593328D01*
X189600884Y-196593328D02*
X189529456Y-196521900D01*
X189529456Y-196521900D02*
X189600884Y-196450471D01*
X189600884Y-196450471D02*
X189600884Y-196593328D01*
X190243742Y-196164757D02*
X190958028Y-196164757D01*
X190100885Y-196593328D02*
X190600885Y-195093328D01*
X190600885Y-195093328D02*
X191100885Y-196593328D01*
X191600884Y-196450471D02*
X191672313Y-196521900D01*
X191672313Y-196521900D02*
X191600884Y-196593328D01*
X191600884Y-196593328D02*
X191529456Y-196521900D01*
X191529456Y-196521900D02*
X191600884Y-196450471D01*
X191600884Y-196450471D02*
X191600884Y-196593328D01*
X193672313Y-195736185D02*
X193529456Y-195664757D01*
X193529456Y-195664757D02*
X193458027Y-195593328D01*
X193458027Y-195593328D02*
X193386599Y-195450471D01*
X193386599Y-195450471D02*
X193386599Y-195379042D01*
X193386599Y-195379042D02*
X193458027Y-195236185D01*
X193458027Y-195236185D02*
X193529456Y-195164757D01*
X193529456Y-195164757D02*
X193672313Y-195093328D01*
X193672313Y-195093328D02*
X193958027Y-195093328D01*
X193958027Y-195093328D02*
X194100885Y-195164757D01*
X194100885Y-195164757D02*
X194172313Y-195236185D01*
X194172313Y-195236185D02*
X194243742Y-195379042D01*
X194243742Y-195379042D02*
X194243742Y-195450471D01*
X194243742Y-195450471D02*
X194172313Y-195593328D01*
X194172313Y-195593328D02*
X194100885Y-195664757D01*
X194100885Y-195664757D02*
X193958027Y-195736185D01*
X193958027Y-195736185D02*
X193672313Y-195736185D01*
X193672313Y-195736185D02*
X193529456Y-195807614D01*
X193529456Y-195807614D02*
X193458027Y-195879042D01*
X193458027Y-195879042D02*
X193386599Y-196021900D01*
X193386599Y-196021900D02*
X193386599Y-196307614D01*
X193386599Y-196307614D02*
X193458027Y-196450471D01*
X193458027Y-196450471D02*
X193529456Y-196521900D01*
X193529456Y-196521900D02*
X193672313Y-196593328D01*
X193672313Y-196593328D02*
X193958027Y-196593328D01*
X193958027Y-196593328D02*
X194100885Y-196521900D01*
X194100885Y-196521900D02*
X194172313Y-196450471D01*
X194172313Y-196450471D02*
X194243742Y-196307614D01*
X194243742Y-196307614D02*
X194243742Y-196021900D01*
X194243742Y-196021900D02*
X194172313Y-195879042D01*
X194172313Y-195879042D02*
X194100885Y-195807614D01*
X194100885Y-195807614D02*
X193958027Y-195736185D01*
X194886598Y-196450471D02*
X194958027Y-196521900D01*
X194958027Y-196521900D02*
X194886598Y-196593328D01*
X194886598Y-196593328D02*
X194815170Y-196521900D01*
X194815170Y-196521900D02*
X194886598Y-196450471D01*
X194886598Y-196450471D02*
X194886598Y-196593328D01*
X195886599Y-195093328D02*
X196029456Y-195093328D01*
X196029456Y-195093328D02*
X196172313Y-195164757D01*
X196172313Y-195164757D02*
X196243742Y-195236185D01*
X196243742Y-195236185D02*
X196315170Y-195379042D01*
X196315170Y-195379042D02*
X196386599Y-195664757D01*
X196386599Y-195664757D02*
X196386599Y-196021900D01*
X196386599Y-196021900D02*
X196315170Y-196307614D01*
X196315170Y-196307614D02*
X196243742Y-196450471D01*
X196243742Y-196450471D02*
X196172313Y-196521900D01*
X196172313Y-196521900D02*
X196029456Y-196593328D01*
X196029456Y-196593328D02*
X195886599Y-196593328D01*
X195886599Y-196593328D02*
X195743742Y-196521900D01*
X195743742Y-196521900D02*
X195672313Y-196450471D01*
X195672313Y-196450471D02*
X195600884Y-196307614D01*
X195600884Y-196307614D02*
X195529456Y-196021900D01*
X195529456Y-196021900D02*
X195529456Y-195664757D01*
X195529456Y-195664757D02*
X195600884Y-195379042D01*
X195600884Y-195379042D02*
X195672313Y-195236185D01*
X195672313Y-195236185D02*
X195743742Y-195164757D01*
X195743742Y-195164757D02*
X195886599Y-195093328D01*
X197029455Y-196450471D02*
X197100884Y-196521900D01*
X197100884Y-196521900D02*
X197029455Y-196593328D01*
X197029455Y-196593328D02*
X196958027Y-196521900D01*
X196958027Y-196521900D02*
X197029455Y-196450471D01*
X197029455Y-196450471D02*
X197029455Y-196593328D01*
X198386599Y-195593328D02*
X198386599Y-196593328D01*
X198029456Y-195021900D02*
X197672313Y-196093328D01*
X197672313Y-196093328D02*
X198600884Y-196093328D01*
D10*
D11*
X177002200Y-191507200D02*
X285002200Y-191507200D01*
D10*
D12*
X264413853Y-193785528D02*
X263913853Y-193071242D01*
X263556710Y-193785528D02*
X263556710Y-192285528D01*
X263556710Y-192285528D02*
X264128139Y-192285528D01*
X264128139Y-192285528D02*
X264270996Y-192356957D01*
X264270996Y-192356957D02*
X264342425Y-192428385D01*
X264342425Y-192428385D02*
X264413853Y-192571242D01*
X264413853Y-192571242D02*
X264413853Y-192785528D01*
X264413853Y-192785528D02*
X264342425Y-192928385D01*
X264342425Y-192928385D02*
X264270996Y-192999814D01*
X264270996Y-192999814D02*
X264128139Y-193071242D01*
X264128139Y-193071242D02*
X263556710Y-193071242D01*
X265628139Y-193714100D02*
X265485282Y-193785528D01*
X265485282Y-193785528D02*
X265199568Y-193785528D01*
X265199568Y-193785528D02*
X265056710Y-193714100D01*
X265056710Y-193714100D02*
X264985282Y-193571242D01*
X264985282Y-193571242D02*
X264985282Y-192999814D01*
X264985282Y-192999814D02*
X265056710Y-192856957D01*
X265056710Y-192856957D02*
X265199568Y-192785528D01*
X265199568Y-192785528D02*
X265485282Y-192785528D01*
X265485282Y-192785528D02*
X265628139Y-192856957D01*
X265628139Y-192856957D02*
X265699568Y-192999814D01*
X265699568Y-192999814D02*
X265699568Y-193142671D01*
X265699568Y-193142671D02*
X264985282Y-193285528D01*
X266199567Y-192785528D02*
X266556710Y-193785528D01*
X266556710Y-193785528D02*
X266913853Y-192785528D01*
X267485281Y-193642671D02*
X267556710Y-193714100D01*
X267556710Y-193714100D02*
X267485281Y-193785528D01*
X267485281Y-193785528D02*
X267413853Y-193714100D01*
X267413853Y-193714100D02*
X267485281Y-193642671D01*
X267485281Y-193642671D02*
X267485281Y-193785528D01*
X267485281Y-192856957D02*
X267556710Y-192928385D01*
X267556710Y-192928385D02*
X267485281Y-192999814D01*
X267485281Y-192999814D02*
X267413853Y-192928385D01*
X267413853Y-192928385D02*
X267485281Y-192856957D01*
X267485281Y-192856957D02*
X267485281Y-192999814D01*
D10*
D11*
X178386598Y-193721900D02*
X178600884Y-193793328D01*
X178600884Y-193793328D02*
X178958026Y-193793328D01*
X178958026Y-193793328D02*
X179100884Y-193721900D01*
X179100884Y-193721900D02*
X179172312Y-193650471D01*
X179172312Y-193650471D02*
X179243741Y-193507614D01*
X179243741Y-193507614D02*
X179243741Y-193364757D01*
X179243741Y-193364757D02*
X179172312Y-193221900D01*
X179172312Y-193221900D02*
X179100884Y-193150471D01*
X179100884Y-193150471D02*
X178958026Y-193079042D01*
X178958026Y-193079042D02*
X178672312Y-193007614D01*
X178672312Y-193007614D02*
X178529455Y-192936185D01*
X178529455Y-192936185D02*
X178458026Y-192864757D01*
X178458026Y-192864757D02*
X178386598Y-192721900D01*
X178386598Y-192721900D02*
X178386598Y-192579042D01*
X178386598Y-192579042D02*
X178458026Y-192436185D01*
X178458026Y-192436185D02*
X178529455Y-192364757D01*
X178529455Y-192364757D02*
X178672312Y-192293328D01*
X178672312Y-192293328D02*
X179029455Y-192293328D01*
X179029455Y-192293328D02*
X179243741Y-192364757D01*
X179886597Y-193793328D02*
X179886597Y-192793328D01*
X179886597Y-192293328D02*
X179815169Y-192364757D01*
X179815169Y-192364757D02*
X179886597Y-192436185D01*
X179886597Y-192436185D02*
X179958026Y-192364757D01*
X179958026Y-192364757D02*
X179886597Y-192293328D01*
X179886597Y-192293328D02*
X179886597Y-192436185D01*
X180458026Y-192793328D02*
X181243741Y-192793328D01*
X181243741Y-192793328D02*
X180458026Y-193793328D01*
X180458026Y-193793328D02*
X181243741Y-193793328D01*
X182386598Y-193721900D02*
X182243741Y-193793328D01*
X182243741Y-193793328D02*
X181958027Y-193793328D01*
X181958027Y-193793328D02*
X181815169Y-193721900D01*
X181815169Y-193721900D02*
X181743741Y-193579042D01*
X181743741Y-193579042D02*
X181743741Y-193007614D01*
X181743741Y-193007614D02*
X181815169Y-192864757D01*
X181815169Y-192864757D02*
X181958027Y-192793328D01*
X181958027Y-192793328D02*
X182243741Y-192793328D01*
X182243741Y-192793328D02*
X182386598Y-192864757D01*
X182386598Y-192864757D02*
X182458027Y-193007614D01*
X182458027Y-193007614D02*
X182458027Y-193150471D01*
X182458027Y-193150471D02*
X181743741Y-193293328D01*
X183100883Y-193650471D02*
X183172312Y-193721900D01*
X183172312Y-193721900D02*
X183100883Y-193793328D01*
X183100883Y-193793328D02*
X183029455Y-193721900D01*
X183029455Y-193721900D02*
X183100883Y-193650471D01*
X183100883Y-193650471D02*
X183100883Y-193793328D01*
X183100883Y-192864757D02*
X183172312Y-192936185D01*
X183172312Y-192936185D02*
X183100883Y-193007614D01*
X183100883Y-193007614D02*
X183029455Y-192936185D01*
X183029455Y-192936185D02*
X183100883Y-192864757D01*
X183100883Y-192864757D02*
X183100883Y-193007614D01*
X184886598Y-193364757D02*
X185600884Y-193364757D01*
X184743741Y-193793328D02*
X185243741Y-192293328D01*
X185243741Y-192293328D02*
X185743741Y-193793328D01*
X186886598Y-192793328D02*
X186886598Y-193793328D01*
X186529455Y-192221900D02*
X186172312Y-193293328D01*
X186172312Y-193293328D02*
X187100883Y-193293328D01*
D10*
D11*
X263458026Y-196593328D02*
X263458026Y-195093328D01*
X264815170Y-196593328D02*
X264815170Y-195093328D01*
X264815170Y-196521900D02*
X264672312Y-196593328D01*
X264672312Y-196593328D02*
X264386598Y-196593328D01*
X264386598Y-196593328D02*
X264243741Y-196521900D01*
X264243741Y-196521900D02*
X264172312Y-196450471D01*
X264172312Y-196450471D02*
X264100884Y-196307614D01*
X264100884Y-196307614D02*
X264100884Y-195879042D01*
X264100884Y-195879042D02*
X264172312Y-195736185D01*
X264172312Y-195736185D02*
X264243741Y-195664757D01*
X264243741Y-195664757D02*
X264386598Y-195593328D01*
X264386598Y-195593328D02*
X264672312Y-195593328D01*
X264672312Y-195593328D02*
X264815170Y-195664757D01*
X265529455Y-196450471D02*
X265600884Y-196521900D01*
X265600884Y-196521900D02*
X265529455Y-196593328D01*
X265529455Y-196593328D02*
X265458027Y-196521900D01*
X265458027Y-196521900D02*
X265529455Y-196450471D01*
X265529455Y-196450471D02*
X265529455Y-196593328D01*
X265529455Y-195664757D02*
X265600884Y-195736185D01*
X265600884Y-195736185D02*
X265529455Y-195807614D01*
X265529455Y-195807614D02*
X265458027Y-195736185D01*
X265458027Y-195736185D02*
X265529455Y-195664757D01*
X265529455Y-195664757D02*
X265529455Y-195807614D01*
X268172313Y-196593328D02*
X267315170Y-196593328D01*
X267743741Y-196593328D02*
X267743741Y-195093328D01*
X267743741Y-195093328D02*
X267600884Y-195307614D01*
X267600884Y-195307614D02*
X267458027Y-195450471D01*
X267458027Y-195450471D02*
X267315170Y-195521900D01*
X269886598Y-195021900D02*
X268600884Y-196950471D01*
X271172313Y-196593328D02*
X270315170Y-196593328D01*
X270743741Y-196593328D02*
X270743741Y-195093328D01*
X270743741Y-195093328D02*
X270600884Y-195307614D01*
X270600884Y-195307614D02*
X270458027Y-195450471D01*
X270458027Y-195450471D02*
X270315170Y-195521900D01*
D10*
D11*
X177002200Y-187507200D02*
X285002200Y-187507200D01*
D10*
D13*
X178693928Y-188211638D02*
X179836785Y-188211638D01*
X179015357Y-190211638D02*
X179265357Y-188211638D01*
X180253452Y-190211638D02*
X180420119Y-188878304D01*
X180503452Y-188211638D02*
X180396309Y-188306876D01*
X180396309Y-188306876D02*
X180479643Y-188402114D01*
X180479643Y-188402114D02*
X180586786Y-188306876D01*
X180586786Y-188306876D02*
X180503452Y-188211638D01*
X180503452Y-188211638D02*
X180479643Y-188402114D01*
X181086786Y-188878304D02*
X181848690Y-188878304D01*
X181455833Y-188211638D02*
X181241548Y-189925923D01*
X181241548Y-189925923D02*
X181312976Y-190116400D01*
X181312976Y-190116400D02*
X181491548Y-190211638D01*
X181491548Y-190211638D02*
X181682024Y-190211638D01*
X182634405Y-190211638D02*
X182455833Y-190116400D01*
X182455833Y-190116400D02*
X182384405Y-189925923D01*
X182384405Y-189925923D02*
X182598690Y-188211638D01*
X184170119Y-190116400D02*
X183967738Y-190211638D01*
X183967738Y-190211638D02*
X183586785Y-190211638D01*
X183586785Y-190211638D02*
X183408214Y-190116400D01*
X183408214Y-190116400D02*
X183336785Y-189925923D01*
X183336785Y-189925923D02*
X183432024Y-189164019D01*
X183432024Y-189164019D02*
X183551071Y-188973542D01*
X183551071Y-188973542D02*
X183753452Y-188878304D01*
X183753452Y-188878304D02*
X184134404Y-188878304D01*
X184134404Y-188878304D02*
X184312976Y-188973542D01*
X184312976Y-188973542D02*
X184384404Y-189164019D01*
X184384404Y-189164019D02*
X184360595Y-189354495D01*
X184360595Y-189354495D02*
X183384404Y-189544971D01*
X185134405Y-190021161D02*
X185217738Y-190116400D01*
X185217738Y-190116400D02*
X185110595Y-190211638D01*
X185110595Y-190211638D02*
X185027262Y-190116400D01*
X185027262Y-190116400D02*
X185134405Y-190021161D01*
X185134405Y-190021161D02*
X185110595Y-190211638D01*
X185265357Y-188973542D02*
X185348690Y-189068780D01*
X185348690Y-189068780D02*
X185241548Y-189164019D01*
X185241548Y-189164019D02*
X185158214Y-189068780D01*
X185158214Y-189068780D02*
X185265357Y-188973542D01*
X185265357Y-188973542D02*
X185241548Y-189164019D01*
D10*
D11*
X178958026Y-185607614D02*
X178458026Y-185607614D01*
X178458026Y-186393328D02*
X178458026Y-184893328D01*
X178458026Y-184893328D02*
X179172312Y-184893328D01*
X179743740Y-186393328D02*
X179743740Y-185393328D01*
X179743740Y-184893328D02*
X179672312Y-184964757D01*
X179672312Y-184964757D02*
X179743740Y-185036185D01*
X179743740Y-185036185D02*
X179815169Y-184964757D01*
X179815169Y-184964757D02*
X179743740Y-184893328D01*
X179743740Y-184893328D02*
X179743740Y-185036185D01*
X180672312Y-186393328D02*
X180529455Y-186321900D01*
X180529455Y-186321900D02*
X180458026Y-186179042D01*
X180458026Y-186179042D02*
X180458026Y-184893328D01*
X181815169Y-186321900D02*
X181672312Y-186393328D01*
X181672312Y-186393328D02*
X181386598Y-186393328D01*
X181386598Y-186393328D02*
X181243740Y-186321900D01*
X181243740Y-186321900D02*
X181172312Y-186179042D01*
X181172312Y-186179042D02*
X181172312Y-185607614D01*
X181172312Y-185607614D02*
X181243740Y-185464757D01*
X181243740Y-185464757D02*
X181386598Y-185393328D01*
X181386598Y-185393328D02*
X181672312Y-185393328D01*
X181672312Y-185393328D02*
X181815169Y-185464757D01*
X181815169Y-185464757D02*
X181886598Y-185607614D01*
X181886598Y-185607614D02*
X181886598Y-185750471D01*
X181886598Y-185750471D02*
X181172312Y-185893328D01*
X182529454Y-186250471D02*
X182600883Y-186321900D01*
X182600883Y-186321900D02*
X182529454Y-186393328D01*
X182529454Y-186393328D02*
X182458026Y-186321900D01*
X182458026Y-186321900D02*
X182529454Y-186250471D01*
X182529454Y-186250471D02*
X182529454Y-186393328D01*
X182529454Y-185464757D02*
X182600883Y-185536185D01*
X182600883Y-185536185D02*
X182529454Y-185607614D01*
X182529454Y-185607614D02*
X182458026Y-185536185D01*
X182458026Y-185536185D02*
X182529454Y-185464757D01*
X182529454Y-185464757D02*
X182529454Y-185607614D01*
X185172312Y-184964757D02*
X185029455Y-184893328D01*
X185029455Y-184893328D02*
X184815169Y-184893328D01*
X184815169Y-184893328D02*
X184600883Y-184964757D01*
X184600883Y-184964757D02*
X184458026Y-185107614D01*
X184458026Y-185107614D02*
X184386597Y-185250471D01*
X184386597Y-185250471D02*
X184315169Y-185536185D01*
X184315169Y-185536185D02*
X184315169Y-185750471D01*
X184315169Y-185750471D02*
X184386597Y-186036185D01*
X184386597Y-186036185D02*
X184458026Y-186179042D01*
X184458026Y-186179042D02*
X184600883Y-186321900D01*
X184600883Y-186321900D02*
X184815169Y-186393328D01*
X184815169Y-186393328D02*
X184958026Y-186393328D01*
X184958026Y-186393328D02*
X185172312Y-186321900D01*
X185172312Y-186321900D02*
X185243740Y-186250471D01*
X185243740Y-186250471D02*
X185243740Y-185750471D01*
X185243740Y-185750471D02*
X184958026Y-185750471D01*
X186529455Y-186393328D02*
X186529455Y-185607614D01*
X186529455Y-185607614D02*
X186458026Y-185464757D01*
X186458026Y-185464757D02*
X186315169Y-185393328D01*
X186315169Y-185393328D02*
X186029455Y-185393328D01*
X186029455Y-185393328D02*
X185886597Y-185464757D01*
X186529455Y-186321900D02*
X186386597Y-186393328D01*
X186386597Y-186393328D02*
X186029455Y-186393328D01*
X186029455Y-186393328D02*
X185886597Y-186321900D01*
X185886597Y-186321900D02*
X185815169Y-186179042D01*
X185815169Y-186179042D02*
X185815169Y-186036185D01*
X185815169Y-186036185D02*
X185886597Y-185893328D01*
X185886597Y-185893328D02*
X186029455Y-185821900D01*
X186029455Y-185821900D02*
X186386597Y-185821900D01*
X186386597Y-185821900D02*
X186529455Y-185750471D01*
X187172312Y-186321900D02*
X187315169Y-186393328D01*
X187315169Y-186393328D02*
X187600883Y-186393328D01*
X187600883Y-186393328D02*
X187743740Y-186321900D01*
X187743740Y-186321900D02*
X187815169Y-186179042D01*
X187815169Y-186179042D02*
X187815169Y-186107614D01*
X187815169Y-186107614D02*
X187743740Y-185964757D01*
X187743740Y-185964757D02*
X187600883Y-185893328D01*
X187600883Y-185893328D02*
X187386598Y-185893328D01*
X187386598Y-185893328D02*
X187243740Y-185821900D01*
X187243740Y-185821900D02*
X187172312Y-185679042D01*
X187172312Y-185679042D02*
X187172312Y-185607614D01*
X187172312Y-185607614D02*
X187243740Y-185464757D01*
X187243740Y-185464757D02*
X187386598Y-185393328D01*
X187386598Y-185393328D02*
X187600883Y-185393328D01*
X187600883Y-185393328D02*
X187743740Y-185464757D01*
X188315169Y-184893328D02*
X188672312Y-186393328D01*
X188672312Y-186393328D02*
X188958026Y-185321900D01*
X188958026Y-185321900D02*
X189243741Y-186393328D01*
X189243741Y-186393328D02*
X189600884Y-184893328D01*
X190743741Y-186321900D02*
X190600884Y-186393328D01*
X190600884Y-186393328D02*
X190315170Y-186393328D01*
X190315170Y-186393328D02*
X190172312Y-186321900D01*
X190172312Y-186321900D02*
X190100884Y-186179042D01*
X190100884Y-186179042D02*
X190100884Y-185607614D01*
X190100884Y-185607614D02*
X190172312Y-185464757D01*
X190172312Y-185464757D02*
X190315170Y-185393328D01*
X190315170Y-185393328D02*
X190600884Y-185393328D01*
X190600884Y-185393328D02*
X190743741Y-185464757D01*
X190743741Y-185464757D02*
X190815170Y-185607614D01*
X190815170Y-185607614D02*
X190815170Y-185750471D01*
X190815170Y-185750471D02*
X190100884Y-185893328D01*
X191458026Y-186393328D02*
X191458026Y-185393328D01*
X191458026Y-184893328D02*
X191386598Y-184964757D01*
X191386598Y-184964757D02*
X191458026Y-185036185D01*
X191458026Y-185036185D02*
X191529455Y-184964757D01*
X191529455Y-184964757D02*
X191458026Y-184893328D01*
X191458026Y-184893328D02*
X191458026Y-185036185D01*
X192815170Y-185393328D02*
X192815170Y-186607614D01*
X192815170Y-186607614D02*
X192743741Y-186750471D01*
X192743741Y-186750471D02*
X192672312Y-186821900D01*
X192672312Y-186821900D02*
X192529455Y-186893328D01*
X192529455Y-186893328D02*
X192315170Y-186893328D01*
X192315170Y-186893328D02*
X192172312Y-186821900D01*
X192815170Y-186321900D02*
X192672312Y-186393328D01*
X192672312Y-186393328D02*
X192386598Y-186393328D01*
X192386598Y-186393328D02*
X192243741Y-186321900D01*
X192243741Y-186321900D02*
X192172312Y-186250471D01*
X192172312Y-186250471D02*
X192100884Y-186107614D01*
X192100884Y-186107614D02*
X192100884Y-185679042D01*
X192100884Y-185679042D02*
X192172312Y-185536185D01*
X192172312Y-185536185D02*
X192243741Y-185464757D01*
X192243741Y-185464757D02*
X192386598Y-185393328D01*
X192386598Y-185393328D02*
X192672312Y-185393328D01*
X192672312Y-185393328D02*
X192815170Y-185464757D01*
X193529455Y-186393328D02*
X193529455Y-184893328D01*
X194172313Y-186393328D02*
X194172313Y-185607614D01*
X194172313Y-185607614D02*
X194100884Y-185464757D01*
X194100884Y-185464757D02*
X193958027Y-185393328D01*
X193958027Y-185393328D02*
X193743741Y-185393328D01*
X193743741Y-185393328D02*
X193600884Y-185464757D01*
X193600884Y-185464757D02*
X193529455Y-185536185D01*
X194672313Y-185393328D02*
X195243741Y-185393328D01*
X194886598Y-184893328D02*
X194886598Y-186179042D01*
X194886598Y-186179042D02*
X194958027Y-186321900D01*
X194958027Y-186321900D02*
X195100884Y-186393328D01*
X195100884Y-186393328D02*
X195243741Y-186393328D01*
X196315170Y-186321900D02*
X196172313Y-186393328D01*
X196172313Y-186393328D02*
X195886599Y-186393328D01*
X195886599Y-186393328D02*
X195743741Y-186321900D01*
X195743741Y-186321900D02*
X195672313Y-186179042D01*
X195672313Y-186179042D02*
X195672313Y-185607614D01*
X195672313Y-185607614D02*
X195743741Y-185464757D01*
X195743741Y-185464757D02*
X195886599Y-185393328D01*
X195886599Y-185393328D02*
X196172313Y-185393328D01*
X196172313Y-185393328D02*
X196315170Y-185464757D01*
X196315170Y-185464757D02*
X196386599Y-185607614D01*
X196386599Y-185607614D02*
X196386599Y-185750471D01*
X196386599Y-185750471D02*
X195672313Y-185893328D01*
X197029455Y-186393328D02*
X197029455Y-185393328D01*
X197029455Y-185679042D02*
X197100884Y-185536185D01*
X197100884Y-185536185D02*
X197172313Y-185464757D01*
X197172313Y-185464757D02*
X197315170Y-185393328D01*
X197315170Y-185393328D02*
X197458027Y-185393328D01*
X199100883Y-185607614D02*
X199600883Y-185607614D01*
X199815169Y-186393328D02*
X199100883Y-186393328D01*
X199100883Y-186393328D02*
X199100883Y-184893328D01*
X199100883Y-184893328D02*
X199815169Y-184893328D01*
X200386598Y-186321900D02*
X200600884Y-186393328D01*
X200600884Y-186393328D02*
X200958026Y-186393328D01*
X200958026Y-186393328D02*
X201100884Y-186321900D01*
X201100884Y-186321900D02*
X201172312Y-186250471D01*
X201172312Y-186250471D02*
X201243741Y-186107614D01*
X201243741Y-186107614D02*
X201243741Y-185964757D01*
X201243741Y-185964757D02*
X201172312Y-185821900D01*
X201172312Y-185821900D02*
X201100884Y-185750471D01*
X201100884Y-185750471D02*
X200958026Y-185679042D01*
X200958026Y-185679042D02*
X200672312Y-185607614D01*
X200672312Y-185607614D02*
X200529455Y-185536185D01*
X200529455Y-185536185D02*
X200458026Y-185464757D01*
X200458026Y-185464757D02*
X200386598Y-185321900D01*
X200386598Y-185321900D02*
X200386598Y-185179042D01*
X200386598Y-185179042D02*
X200458026Y-185036185D01*
X200458026Y-185036185D02*
X200529455Y-184964757D01*
X200529455Y-184964757D02*
X200672312Y-184893328D01*
X200672312Y-184893328D02*
X201029455Y-184893328D01*
X201029455Y-184893328D02*
X201243741Y-184964757D01*
X201886597Y-186393328D02*
X201886597Y-184893328D01*
X201886597Y-184893328D02*
X202458026Y-184893328D01*
X202458026Y-184893328D02*
X202600883Y-184964757D01*
X202600883Y-184964757D02*
X202672312Y-185036185D01*
X202672312Y-185036185D02*
X202743740Y-185179042D01*
X202743740Y-185179042D02*
X202743740Y-185393328D01*
X202743740Y-185393328D02*
X202672312Y-185536185D01*
X202672312Y-185536185D02*
X202600883Y-185607614D01*
X202600883Y-185607614D02*
X202458026Y-185679042D01*
X202458026Y-185679042D02*
X201886597Y-185679042D01*
X203243740Y-184893328D02*
X204172312Y-184893328D01*
X204172312Y-184893328D02*
X203672312Y-185464757D01*
X203672312Y-185464757D02*
X203886597Y-185464757D01*
X203886597Y-185464757D02*
X204029455Y-185536185D01*
X204029455Y-185536185D02*
X204100883Y-185607614D01*
X204100883Y-185607614D02*
X204172312Y-185750471D01*
X204172312Y-185750471D02*
X204172312Y-186107614D01*
X204172312Y-186107614D02*
X204100883Y-186250471D01*
X204100883Y-186250471D02*
X204029455Y-186321900D01*
X204029455Y-186321900D02*
X203886597Y-186393328D01*
X203886597Y-186393328D02*
X203458026Y-186393328D01*
X203458026Y-186393328D02*
X203315169Y-186321900D01*
X203315169Y-186321900D02*
X203243740Y-186250471D01*
X204743740Y-185036185D02*
X204815168Y-184964757D01*
X204815168Y-184964757D02*
X204958026Y-184893328D01*
X204958026Y-184893328D02*
X205315168Y-184893328D01*
X205315168Y-184893328D02*
X205458026Y-184964757D01*
X205458026Y-184964757D02*
X205529454Y-185036185D01*
X205529454Y-185036185D02*
X205600883Y-185179042D01*
X205600883Y-185179042D02*
X205600883Y-185321900D01*
X205600883Y-185321900D02*
X205529454Y-185536185D01*
X205529454Y-185536185D02*
X204672311Y-186393328D01*
X204672311Y-186393328D02*
X205600883Y-186393328D01*
X206243739Y-186250471D02*
X206315168Y-186321900D01*
X206315168Y-186321900D02*
X206243739Y-186393328D01*
X206243739Y-186393328D02*
X206172311Y-186321900D01*
X206172311Y-186321900D02*
X206243739Y-186250471D01*
X206243739Y-186250471D02*
X206243739Y-186393328D01*
X206958025Y-186393328D02*
X206958025Y-184893328D01*
X207100883Y-185821900D02*
X207529454Y-186393328D01*
X207529454Y-185393328D02*
X206958025Y-185964757D01*
X208172311Y-186393328D02*
X208172311Y-185393328D01*
X208172311Y-184893328D02*
X208100883Y-184964757D01*
X208100883Y-184964757D02*
X208172311Y-185036185D01*
X208172311Y-185036185D02*
X208243740Y-184964757D01*
X208243740Y-184964757D02*
X208172311Y-184893328D01*
X208172311Y-184893328D02*
X208172311Y-185036185D01*
X209529455Y-186321900D02*
X209386597Y-186393328D01*
X209386597Y-186393328D02*
X209100883Y-186393328D01*
X209100883Y-186393328D02*
X208958026Y-186321900D01*
X208958026Y-186321900D02*
X208886597Y-186250471D01*
X208886597Y-186250471D02*
X208815169Y-186107614D01*
X208815169Y-186107614D02*
X208815169Y-185679042D01*
X208815169Y-185679042D02*
X208886597Y-185536185D01*
X208886597Y-185536185D02*
X208958026Y-185464757D01*
X208958026Y-185464757D02*
X209100883Y-185393328D01*
X209100883Y-185393328D02*
X209386597Y-185393328D01*
X209386597Y-185393328D02*
X209529455Y-185464757D01*
X210815169Y-186393328D02*
X210815169Y-185607614D01*
X210815169Y-185607614D02*
X210743740Y-185464757D01*
X210743740Y-185464757D02*
X210600883Y-185393328D01*
X210600883Y-185393328D02*
X210315169Y-185393328D01*
X210315169Y-185393328D02*
X210172311Y-185464757D01*
X210815169Y-186321900D02*
X210672311Y-186393328D01*
X210672311Y-186393328D02*
X210315169Y-186393328D01*
X210315169Y-186393328D02*
X210172311Y-186321900D01*
X210172311Y-186321900D02*
X210100883Y-186179042D01*
X210100883Y-186179042D02*
X210100883Y-186036185D01*
X210100883Y-186036185D02*
X210172311Y-185893328D01*
X210172311Y-185893328D02*
X210315169Y-185821900D01*
X210315169Y-185821900D02*
X210672311Y-185821900D01*
X210672311Y-185821900D02*
X210815169Y-185750471D01*
X212172312Y-186393328D02*
X212172312Y-184893328D01*
X212172312Y-186321900D02*
X212029454Y-186393328D01*
X212029454Y-186393328D02*
X211743740Y-186393328D01*
X211743740Y-186393328D02*
X211600883Y-186321900D01*
X211600883Y-186321900D02*
X211529454Y-186250471D01*
X211529454Y-186250471D02*
X211458026Y-186107614D01*
X211458026Y-186107614D02*
X211458026Y-185679042D01*
X211458026Y-185679042D02*
X211529454Y-185536185D01*
X211529454Y-185536185D02*
X211600883Y-185464757D01*
X211600883Y-185464757D02*
X211743740Y-185393328D01*
X211743740Y-185393328D02*
X212029454Y-185393328D01*
X212029454Y-185393328D02*
X212172312Y-185464757D01*
X212529455Y-186536185D02*
X213672312Y-186536185D01*
X214029454Y-185393328D02*
X214029454Y-186893328D01*
X214029454Y-185464757D02*
X214172312Y-185393328D01*
X214172312Y-185393328D02*
X214458026Y-185393328D01*
X214458026Y-185393328D02*
X214600883Y-185464757D01*
X214600883Y-185464757D02*
X214672312Y-185536185D01*
X214672312Y-185536185D02*
X214743740Y-185679042D01*
X214743740Y-185679042D02*
X214743740Y-186107614D01*
X214743740Y-186107614D02*
X214672312Y-186250471D01*
X214672312Y-186250471D02*
X214600883Y-186321900D01*
X214600883Y-186321900D02*
X214458026Y-186393328D01*
X214458026Y-186393328D02*
X214172312Y-186393328D01*
X214172312Y-186393328D02*
X214029454Y-186321900D01*
X216029455Y-186321900D02*
X215886597Y-186393328D01*
X215886597Y-186393328D02*
X215600883Y-186393328D01*
X215600883Y-186393328D02*
X215458026Y-186321900D01*
X215458026Y-186321900D02*
X215386597Y-186250471D01*
X215386597Y-186250471D02*
X215315169Y-186107614D01*
X215315169Y-186107614D02*
X215315169Y-185679042D01*
X215315169Y-185679042D02*
X215386597Y-185536185D01*
X215386597Y-185536185D02*
X215458026Y-185464757D01*
X215458026Y-185464757D02*
X215600883Y-185393328D01*
X215600883Y-185393328D02*
X215886597Y-185393328D01*
X215886597Y-185393328D02*
X216029455Y-185464757D01*
X216672311Y-186393328D02*
X216672311Y-184893328D01*
X216672311Y-185464757D02*
X216815169Y-185393328D01*
X216815169Y-185393328D02*
X217100883Y-185393328D01*
X217100883Y-185393328D02*
X217243740Y-185464757D01*
X217243740Y-185464757D02*
X217315169Y-185536185D01*
X217315169Y-185536185D02*
X217386597Y-185679042D01*
X217386597Y-185679042D02*
X217386597Y-186107614D01*
X217386597Y-186107614D02*
X217315169Y-186250471D01*
X217315169Y-186250471D02*
X217243740Y-186321900D01*
X217243740Y-186321900D02*
X217100883Y-186393328D01*
X217100883Y-186393328D02*
X216815169Y-186393328D01*
X216815169Y-186393328D02*
X216672311Y-186321900D01*
D10*
D11*
X177002200Y-181507200D02*
X285002200Y-181507200D01*
D10*
D11*
X178386598Y-183621900D02*
X178600884Y-183693328D01*
X178600884Y-183693328D02*
X178958026Y-183693328D01*
X178958026Y-183693328D02*
X179100884Y-183621900D01*
X179100884Y-183621900D02*
X179172312Y-183550471D01*
X179172312Y-183550471D02*
X179243741Y-183407614D01*
X179243741Y-183407614D02*
X179243741Y-183264757D01*
X179243741Y-183264757D02*
X179172312Y-183121900D01*
X179172312Y-183121900D02*
X179100884Y-183050471D01*
X179100884Y-183050471D02*
X178958026Y-182979042D01*
X178958026Y-182979042D02*
X178672312Y-182907614D01*
X178672312Y-182907614D02*
X178529455Y-182836185D01*
X178529455Y-182836185D02*
X178458026Y-182764757D01*
X178458026Y-182764757D02*
X178386598Y-182621900D01*
X178386598Y-182621900D02*
X178386598Y-182479042D01*
X178386598Y-182479042D02*
X178458026Y-182336185D01*
X178458026Y-182336185D02*
X178529455Y-182264757D01*
X178529455Y-182264757D02*
X178672312Y-182193328D01*
X178672312Y-182193328D02*
X179029455Y-182193328D01*
X179029455Y-182193328D02*
X179243741Y-182264757D01*
X179886597Y-183693328D02*
X179886597Y-182193328D01*
X180529455Y-183693328D02*
X180529455Y-182907614D01*
X180529455Y-182907614D02*
X180458026Y-182764757D01*
X180458026Y-182764757D02*
X180315169Y-182693328D01*
X180315169Y-182693328D02*
X180100883Y-182693328D01*
X180100883Y-182693328D02*
X179958026Y-182764757D01*
X179958026Y-182764757D02*
X179886597Y-182836185D01*
X181815169Y-183621900D02*
X181672312Y-183693328D01*
X181672312Y-183693328D02*
X181386598Y-183693328D01*
X181386598Y-183693328D02*
X181243740Y-183621900D01*
X181243740Y-183621900D02*
X181172312Y-183479042D01*
X181172312Y-183479042D02*
X181172312Y-182907614D01*
X181172312Y-182907614D02*
X181243740Y-182764757D01*
X181243740Y-182764757D02*
X181386598Y-182693328D01*
X181386598Y-182693328D02*
X181672312Y-182693328D01*
X181672312Y-182693328D02*
X181815169Y-182764757D01*
X181815169Y-182764757D02*
X181886598Y-182907614D01*
X181886598Y-182907614D02*
X181886598Y-183050471D01*
X181886598Y-183050471D02*
X181172312Y-183193328D01*
X183100883Y-183621900D02*
X182958026Y-183693328D01*
X182958026Y-183693328D02*
X182672312Y-183693328D01*
X182672312Y-183693328D02*
X182529454Y-183621900D01*
X182529454Y-183621900D02*
X182458026Y-183479042D01*
X182458026Y-183479042D02*
X182458026Y-182907614D01*
X182458026Y-182907614D02*
X182529454Y-182764757D01*
X182529454Y-182764757D02*
X182672312Y-182693328D01*
X182672312Y-182693328D02*
X182958026Y-182693328D01*
X182958026Y-182693328D02*
X183100883Y-182764757D01*
X183100883Y-182764757D02*
X183172312Y-182907614D01*
X183172312Y-182907614D02*
X183172312Y-183050471D01*
X183172312Y-183050471D02*
X182458026Y-183193328D01*
X183600883Y-182693328D02*
X184172311Y-182693328D01*
X183815168Y-182193328D02*
X183815168Y-183479042D01*
X183815168Y-183479042D02*
X183886597Y-183621900D01*
X183886597Y-183621900D02*
X184029454Y-183693328D01*
X184029454Y-183693328D02*
X184172311Y-183693328D01*
X184672311Y-183550471D02*
X184743740Y-183621900D01*
X184743740Y-183621900D02*
X184672311Y-183693328D01*
X184672311Y-183693328D02*
X184600883Y-183621900D01*
X184600883Y-183621900D02*
X184672311Y-183550471D01*
X184672311Y-183550471D02*
X184672311Y-183693328D01*
X184672311Y-182764757D02*
X184743740Y-182836185D01*
X184743740Y-182836185D02*
X184672311Y-182907614D01*
X184672311Y-182907614D02*
X184600883Y-182836185D01*
X184600883Y-182836185D02*
X184672311Y-182764757D01*
X184672311Y-182764757D02*
X184672311Y-182907614D01*
D10*
D11*
X178386598Y-168264757D02*
X179100884Y-168264757D01*
X178243741Y-168693328D02*
X178743741Y-167193328D01*
X178743741Y-167193328D02*
X179243741Y-168693328D01*
X179743740Y-168693328D02*
X179743740Y-167193328D01*
X180386598Y-168621900D02*
X180600884Y-168693328D01*
X180600884Y-168693328D02*
X180958026Y-168693328D01*
X180958026Y-168693328D02*
X181100884Y-168621900D01*
X181100884Y-168621900D02*
X181172312Y-168550471D01*
X181172312Y-168550471D02*
X181243741Y-168407614D01*
X181243741Y-168407614D02*
X181243741Y-168264757D01*
X181243741Y-168264757D02*
X181172312Y-168121900D01*
X181172312Y-168121900D02*
X181100884Y-168050471D01*
X181100884Y-168050471D02*
X180958026Y-167979042D01*
X180958026Y-167979042D02*
X180672312Y-167907614D01*
X180672312Y-167907614D02*
X180529455Y-167836185D01*
X180529455Y-167836185D02*
X180458026Y-167764757D01*
X180458026Y-167764757D02*
X180386598Y-167621900D01*
X180386598Y-167621900D02*
X180386598Y-167479042D01*
X180386598Y-167479042D02*
X180458026Y-167336185D01*
X180458026Y-167336185D02*
X180529455Y-167264757D01*
X180529455Y-167264757D02*
X180672312Y-167193328D01*
X180672312Y-167193328D02*
X181029455Y-167193328D01*
X181029455Y-167193328D02*
X181243741Y-167264757D01*
X182600883Y-168693328D02*
X181886597Y-168693328D01*
X181886597Y-168693328D02*
X181886597Y-167193328D01*
X183100883Y-167907614D02*
X183600883Y-167907614D01*
X183815169Y-168693328D02*
X183100883Y-168693328D01*
X183100883Y-168693328D02*
X183100883Y-167193328D01*
X183100883Y-167193328D02*
X183815169Y-167193328D01*
X185315169Y-168693328D02*
X184815169Y-167979042D01*
X184458026Y-168693328D02*
X184458026Y-167193328D01*
X184458026Y-167193328D02*
X185029455Y-167193328D01*
X185029455Y-167193328D02*
X185172312Y-167264757D01*
X185172312Y-167264757D02*
X185243741Y-167336185D01*
X185243741Y-167336185D02*
X185315169Y-167479042D01*
X185315169Y-167479042D02*
X185315169Y-167693328D01*
X185315169Y-167693328D02*
X185243741Y-167836185D01*
X185243741Y-167836185D02*
X185172312Y-167907614D01*
X185172312Y-167907614D02*
X185029455Y-167979042D01*
X185029455Y-167979042D02*
X184458026Y-167979042D01*
X187100883Y-168693328D02*
X187100883Y-167193328D01*
X187100883Y-167193328D02*
X187672312Y-167193328D01*
X187672312Y-167193328D02*
X187815169Y-167264757D01*
X187815169Y-167264757D02*
X187886598Y-167336185D01*
X187886598Y-167336185D02*
X187958026Y-167479042D01*
X187958026Y-167479042D02*
X187958026Y-167693328D01*
X187958026Y-167693328D02*
X187886598Y-167836185D01*
X187886598Y-167836185D02*
X187815169Y-167907614D01*
X187815169Y-167907614D02*
X187672312Y-167979042D01*
X187672312Y-167979042D02*
X187100883Y-167979042D01*
X188600883Y-168693328D02*
X188600883Y-167693328D01*
X188600883Y-167979042D02*
X188672312Y-167836185D01*
X188672312Y-167836185D02*
X188743741Y-167764757D01*
X188743741Y-167764757D02*
X188886598Y-167693328D01*
X188886598Y-167693328D02*
X189029455Y-167693328D01*
X189743740Y-168693328D02*
X189600883Y-168621900D01*
X189600883Y-168621900D02*
X189529454Y-168550471D01*
X189529454Y-168550471D02*
X189458026Y-168407614D01*
X189458026Y-168407614D02*
X189458026Y-167979042D01*
X189458026Y-167979042D02*
X189529454Y-167836185D01*
X189529454Y-167836185D02*
X189600883Y-167764757D01*
X189600883Y-167764757D02*
X189743740Y-167693328D01*
X189743740Y-167693328D02*
X189958026Y-167693328D01*
X189958026Y-167693328D02*
X190100883Y-167764757D01*
X190100883Y-167764757D02*
X190172312Y-167836185D01*
X190172312Y-167836185D02*
X190243740Y-167979042D01*
X190243740Y-167979042D02*
X190243740Y-168407614D01*
X190243740Y-168407614D02*
X190172312Y-168550471D01*
X190172312Y-168550471D02*
X190100883Y-168621900D01*
X190100883Y-168621900D02*
X189958026Y-168693328D01*
X189958026Y-168693328D02*
X189743740Y-168693328D01*
X190886597Y-167693328D02*
X190886597Y-168979042D01*
X190886597Y-168979042D02*
X190815169Y-169121900D01*
X190815169Y-169121900D02*
X190672312Y-169193328D01*
X190672312Y-169193328D02*
X190600883Y-169193328D01*
X190886597Y-167193328D02*
X190815169Y-167264757D01*
X190815169Y-167264757D02*
X190886597Y-167336185D01*
X190886597Y-167336185D02*
X190958026Y-167264757D01*
X190958026Y-167264757D02*
X190886597Y-167193328D01*
X190886597Y-167193328D02*
X190886597Y-167336185D01*
X192172312Y-168621900D02*
X192029455Y-168693328D01*
X192029455Y-168693328D02*
X191743741Y-168693328D01*
X191743741Y-168693328D02*
X191600883Y-168621900D01*
X191600883Y-168621900D02*
X191529455Y-168479042D01*
X191529455Y-168479042D02*
X191529455Y-167907614D01*
X191529455Y-167907614D02*
X191600883Y-167764757D01*
X191600883Y-167764757D02*
X191743741Y-167693328D01*
X191743741Y-167693328D02*
X192029455Y-167693328D01*
X192029455Y-167693328D02*
X192172312Y-167764757D01*
X192172312Y-167764757D02*
X192243741Y-167907614D01*
X192243741Y-167907614D02*
X192243741Y-168050471D01*
X192243741Y-168050471D02*
X191529455Y-168193328D01*
X193529455Y-168621900D02*
X193386597Y-168693328D01*
X193386597Y-168693328D02*
X193100883Y-168693328D01*
X193100883Y-168693328D02*
X192958026Y-168621900D01*
X192958026Y-168621900D02*
X192886597Y-168550471D01*
X192886597Y-168550471D02*
X192815169Y-168407614D01*
X192815169Y-168407614D02*
X192815169Y-167979042D01*
X192815169Y-167979042D02*
X192886597Y-167836185D01*
X192886597Y-167836185D02*
X192958026Y-167764757D01*
X192958026Y-167764757D02*
X193100883Y-167693328D01*
X193100883Y-167693328D02*
X193386597Y-167693328D01*
X193386597Y-167693328D02*
X193529455Y-167764757D01*
X193958026Y-167693328D02*
X194529454Y-167693328D01*
X194172311Y-167193328D02*
X194172311Y-168479042D01*
X194172311Y-168479042D02*
X194243740Y-168621900D01*
X194243740Y-168621900D02*
X194386597Y-168693328D01*
X194386597Y-168693328D02*
X194529454Y-168693328D01*
X196172311Y-168693328D02*
X196172311Y-167193328D01*
X196886597Y-168693328D02*
X196886597Y-167193328D01*
X196886597Y-167193328D02*
X197243740Y-167193328D01*
X197243740Y-167193328D02*
X197458026Y-167264757D01*
X197458026Y-167264757D02*
X197600883Y-167407614D01*
X197600883Y-167407614D02*
X197672312Y-167550471D01*
X197672312Y-167550471D02*
X197743740Y-167836185D01*
X197743740Y-167836185D02*
X197743740Y-168050471D01*
X197743740Y-168050471D02*
X197672312Y-168336185D01*
X197672312Y-168336185D02*
X197600883Y-168479042D01*
X197600883Y-168479042D02*
X197458026Y-168621900D01*
X197458026Y-168621900D02*
X197243740Y-168693328D01*
X197243740Y-168693328D02*
X196886597Y-168693328D01*
X198386597Y-168550471D02*
X198458026Y-168621900D01*
X198458026Y-168621900D02*
X198386597Y-168693328D01*
X198386597Y-168693328D02*
X198315169Y-168621900D01*
X198315169Y-168621900D02*
X198386597Y-168550471D01*
X198386597Y-168550471D02*
X198386597Y-168693328D01*
X198386597Y-167764757D02*
X198458026Y-167836185D01*
X198458026Y-167836185D02*
X198386597Y-167907614D01*
X198386597Y-167907614D02*
X198315169Y-167836185D01*
X198315169Y-167836185D02*
X198386597Y-167764757D01*
X198386597Y-167764757D02*
X198386597Y-167907614D01*
X200243740Y-167907614D02*
X200743740Y-167907614D01*
X200958026Y-168693328D02*
X200243740Y-168693328D01*
X200243740Y-168693328D02*
X200243740Y-167193328D01*
X200243740Y-167193328D02*
X200958026Y-167193328D01*
X202600883Y-168836185D02*
X202458026Y-168764757D01*
X202458026Y-168764757D02*
X202315169Y-168621900D01*
X202315169Y-168621900D02*
X202100883Y-168407614D01*
X202100883Y-168407614D02*
X201958026Y-168336185D01*
X201958026Y-168336185D02*
X201815169Y-168336185D01*
X201886598Y-168693328D02*
X201743741Y-168621900D01*
X201743741Y-168621900D02*
X201600883Y-168479042D01*
X201600883Y-168479042D02*
X201529455Y-168193328D01*
X201529455Y-168193328D02*
X201529455Y-167693328D01*
X201529455Y-167693328D02*
X201600883Y-167407614D01*
X201600883Y-167407614D02*
X201743741Y-167264757D01*
X201743741Y-167264757D02*
X201886598Y-167193328D01*
X201886598Y-167193328D02*
X202172312Y-167193328D01*
X202172312Y-167193328D02*
X202315169Y-167264757D01*
X202315169Y-167264757D02*
X202458026Y-167407614D01*
X202458026Y-167407614D02*
X202529455Y-167693328D01*
X202529455Y-167693328D02*
X202529455Y-168193328D01*
X202529455Y-168193328D02*
X202458026Y-168479042D01*
X202458026Y-168479042D02*
X202315169Y-168621900D01*
X202315169Y-168621900D02*
X202172312Y-168693328D01*
X202172312Y-168693328D02*
X201886598Y-168693328D01*
X203672312Y-167907614D02*
X203172312Y-167907614D01*
X203172312Y-168693328D02*
X203172312Y-167193328D01*
X203172312Y-167193328D02*
X203886598Y-167193328D01*
X205458026Y-168836185D02*
X205315169Y-168764757D01*
X205315169Y-168764757D02*
X205172312Y-168621900D01*
X205172312Y-168621900D02*
X204958026Y-168407614D01*
X204958026Y-168407614D02*
X204815169Y-168336185D01*
X204815169Y-168336185D02*
X204672312Y-168336185D01*
X204743741Y-168693328D02*
X204600884Y-168621900D01*
X204600884Y-168621900D02*
X204458026Y-168479042D01*
X204458026Y-168479042D02*
X204386598Y-168193328D01*
X204386598Y-168193328D02*
X204386598Y-167693328D01*
X204386598Y-167693328D02*
X204458026Y-167407614D01*
X204458026Y-167407614D02*
X204600884Y-167264757D01*
X204600884Y-167264757D02*
X204743741Y-167193328D01*
X204743741Y-167193328D02*
X205029455Y-167193328D01*
X205029455Y-167193328D02*
X205172312Y-167264757D01*
X205172312Y-167264757D02*
X205315169Y-167407614D01*
X205315169Y-167407614D02*
X205386598Y-167693328D01*
X205386598Y-167693328D02*
X205386598Y-168193328D01*
X205386598Y-168193328D02*
X205315169Y-168479042D01*
X205315169Y-168479042D02*
X205172312Y-168621900D01*
X205172312Y-168621900D02*
X205029455Y-168693328D01*
X205029455Y-168693328D02*
X204743741Y-168693328D01*
X206315170Y-167979042D02*
X206315170Y-168693328D01*
X205815170Y-167193328D02*
X206315170Y-167979042D01*
X206315170Y-167979042D02*
X206815170Y-167193328D01*
X207315169Y-168693328D02*
X207315169Y-167193328D01*
X207315169Y-167193328D02*
X207815169Y-168264757D01*
X207815169Y-168264757D02*
X208315169Y-167193328D01*
X208315169Y-167193328D02*
X208315169Y-168693328D01*
X209886598Y-168550471D02*
X209815170Y-168621900D01*
X209815170Y-168621900D02*
X209600884Y-168693328D01*
X209600884Y-168693328D02*
X209458027Y-168693328D01*
X209458027Y-168693328D02*
X209243741Y-168621900D01*
X209243741Y-168621900D02*
X209100884Y-168479042D01*
X209100884Y-168479042D02*
X209029455Y-168336185D01*
X209029455Y-168336185D02*
X208958027Y-168050471D01*
X208958027Y-168050471D02*
X208958027Y-167836185D01*
X208958027Y-167836185D02*
X209029455Y-167550471D01*
X209029455Y-167550471D02*
X209100884Y-167407614D01*
X209100884Y-167407614D02*
X209243741Y-167264757D01*
X209243741Y-167264757D02*
X209458027Y-167193328D01*
X209458027Y-167193328D02*
X209600884Y-167193328D01*
X209600884Y-167193328D02*
X209815170Y-167264757D01*
X209815170Y-167264757D02*
X209886598Y-167336185D01*
X211386598Y-168693328D02*
X210886598Y-167979042D01*
X210529455Y-168693328D02*
X210529455Y-167193328D01*
X210529455Y-167193328D02*
X211100884Y-167193328D01*
X211100884Y-167193328D02*
X211243741Y-167264757D01*
X211243741Y-167264757D02*
X211315170Y-167336185D01*
X211315170Y-167336185D02*
X211386598Y-167479042D01*
X211386598Y-167479042D02*
X211386598Y-167693328D01*
X211386598Y-167693328D02*
X211315170Y-167836185D01*
X211315170Y-167836185D02*
X211243741Y-167907614D01*
X211243741Y-167907614D02*
X211100884Y-167979042D01*
X211100884Y-167979042D02*
X210529455Y-167979042D01*
D10*
D11*
X197002200Y-191507200D02*
X197002200Y-194507200D01*
D10*
D11*
X261002200Y-191507200D02*
X261002200Y-198007200D01*
D14*
%TO.P,J12,1,Pin_1*%
%TO.N,Net-(J12-Pin_1)*%
X118900000Y-72100000D03*
D15*
%TO.P,J12,2,Pin_2*%
%TO.N,GND*%
X120900000Y-72100000D03*
%TD*%
D16*
%TO.P,J9,1,Pin_1*%
%TO.N,Net-(J7-Pin_1)*%
X149000000Y-112350000D03*
D15*
%TO.P,J9,2,Pin_2*%
%TO.N,Net-(J8-Pin_2)*%
X147000000Y-112350000D03*
%TO.P,J9,3,Pin_3*%
%TO.N,/E+*%
X145000000Y-112350000D03*
%TD*%
D16*
%TO.P,J7,1,Pin_1*%
%TO.N,Net-(J7-Pin_1)*%
X149000000Y-106700000D03*
D15*
%TO.P,J7,2,Pin_2*%
%TO.N,Net-(J6-Pin_2)*%
X147000000Y-106700000D03*
%TO.P,J7,3,Pin_3*%
%TO.N,/A-*%
X145000000Y-106700000D03*
%TD*%
D17*
%TO.P,P1,S1,SHIELD*%
%TO.N,GND*%
X110290000Y-96615000D03*
D18*
X106090000Y-96615000D03*
D17*
X110290000Y-105265000D03*
D18*
X106090000Y-105265000D03*
%TD*%
D19*
%TO.P,U3,41,GND*%
%TO.N,GND*%
X144450000Y-82190000D03*
X144450000Y-83590000D03*
X145150000Y-81490000D03*
X145150000Y-82890000D03*
X145150000Y-84290000D03*
X145850000Y-82190000D03*
X145850000Y-83590000D03*
X146550000Y-81490000D03*
X146550000Y-82890000D03*
X146550000Y-84290000D03*
X147250000Y-82190000D03*
X147250000Y-83590000D03*
%TD*%
D20*
%TO.P,J11,1,Pin_1*%
%TO.N,GND*%
X164700000Y-89040000D03*
D21*
%TO.P,J11,2,Pin_2*%
%TO.N,/MCU/GPIO0*%
X164700000Y-86500000D03*
%TO.P,J11,3,Pin_3*%
%TO.N,/MCU/CHIP_PU*%
X164700000Y-83960000D03*
%TO.P,J11,4,Pin_4*%
%TO.N,/MCU/TX*%
X164700000Y-81420000D03*
%TO.P,J11,5,Pin_5*%
%TO.N,/MCU/RX*%
X164700000Y-78880000D03*
%TO.P,J11,6,Pin_6*%
%TO.N,+3.3V*%
X164700000Y-76340000D03*
%TD*%
D22*
%TO.P,U2,1,GND*%
%TO.N,GND*%
X116400000Y-111800000D03*
D23*
%TO.P,U2,2,DQ*%
%TO.N,/MCU/1-Wire*%
X117670000Y-111800000D03*
%TO.P,U2,3,V_{DD}*%
%TO.N,+3.3V*%
X118940000Y-111800000D03*
%TD*%
D16*
%TO.P,J6,1,Pin_1*%
%TO.N,Net-(J6-Pin_1)*%
X140000000Y-106700000D03*
D15*
%TO.P,J6,2,Pin_2*%
%TO.N,Net-(J6-Pin_2)*%
X138000000Y-106700000D03*
%TO.P,J6,3,Pin_3*%
%TO.N,GND*%
X136000000Y-106700000D03*
%TD*%
D24*
%TO.P,J2,1,Pin_1*%
%TO.N,GND*%
X107650000Y-82250000D03*
D25*
%TO.P,J2,2,Pin_2*%
%TO.N,VDC*%
X107650000Y-80250000D03*
%TD*%
D14*
%TO.P,J1,1,Pin_1*%
%TO.N,GND*%
X111900000Y-72100000D03*
D15*
%TO.P,J1,2,Pin_2*%
%TO.N,VBatt*%
X113900000Y-72100000D03*
%TD*%
D26*
%TO.P,J10,1,Pin_1*%
%TO.N,/E+*%
X172092500Y-98337500D03*
D25*
%TO.P,J10,2,Pin_2*%
%TO.N,/A+*%
X172092500Y-100337500D03*
%TO.P,J10,3,Pin_3*%
%TO.N,/A-*%
X172092500Y-102337500D03*
%TO.P,J10,4,Pin_4*%
%TO.N,GND*%
X172092500Y-104337500D03*
%TD*%
D24*
%TO.P,J3,1,Pin_1*%
%TO.N,GND*%
X107650000Y-89850000D03*
D25*
%TO.P,J3,2,Pin_2*%
%TO.N,VAA*%
X107650000Y-87850000D03*
%TD*%
D16*
%TO.P,J8,1,Pin_1*%
%TO.N,Net-(J6-Pin_1)*%
X140000000Y-112350000D03*
D15*
%TO.P,J8,2,Pin_2*%
%TO.N,Net-(J8-Pin_2)*%
X138000000Y-112350000D03*
%TO.P,J8,3,Pin_3*%
%TO.N,/A+*%
X136000000Y-112350000D03*
%TD*%
D27*
%TO.N,GND*%
X157800000Y-75100000D03*
D28*
X118050000Y-95300000D03*
X115800000Y-79850000D03*
D29*
X172500000Y-95000000D03*
X175000000Y-107500000D03*
D28*
X116600000Y-93650000D03*
D29*
X167500000Y-112500000D03*
X172500000Y-110000000D03*
X165000000Y-92500000D03*
D28*
X170400000Y-104425000D03*
D29*
X172500000Y-92500000D03*
D27*
X140000000Y-75200000D03*
D28*
X115750000Y-77950000D03*
D27*
X135200000Y-80700000D03*
D28*
X164300000Y-99900000D03*
X112350000Y-104150000D03*
D29*
X175000000Y-95000000D03*
D28*
X119300000Y-79750000D03*
D29*
X167500000Y-95000000D03*
D28*
X112400000Y-80950000D03*
D27*
X134200000Y-76700000D03*
D29*
X157500000Y-100000000D03*
X175000000Y-92500000D03*
X160000000Y-95000000D03*
D28*
X115100000Y-95600000D03*
D29*
X170000000Y-92500000D03*
X170000000Y-110000000D03*
X165000000Y-95000000D03*
D28*
X116400000Y-83300000D03*
D29*
X170000000Y-95000000D03*
X167500000Y-92500000D03*
D28*
X121600000Y-85700000D03*
D29*
X172500000Y-107500000D03*
D28*
X121750000Y-82250000D03*
D27*
X140000000Y-76900000D03*
D29*
X162500000Y-92500000D03*
X170000000Y-112500000D03*
D28*
X127550000Y-83350000D03*
X164650000Y-103800000D03*
X121900000Y-93550000D03*
D27*
X142600000Y-75300000D03*
D28*
X112200000Y-97700000D03*
D27*
%TO.N,/MCU/CHIP_PU*%
X142700000Y-77200000D03*
D28*
%TO.N,+3.3V*%
X136400000Y-83000000D03*
D27*
X134400000Y-91600000D03*
X135200000Y-75200000D03*
D28*
X132450000Y-87750000D03*
%TO.N,Net-(D2-K)*%
X113637500Y-78700000D03*
X123200000Y-82050000D03*
D27*
%TO.N,VCC*%
X136200000Y-85300000D03*
X153200000Y-88600000D03*
D28*
X157400000Y-96700000D03*
D27*
X141800000Y-82900000D03*
%TO.N,/MCU/GPIO0*%
X135500000Y-87500000D03*
X151100000Y-90900000D03*
D28*
%TO.N,/MCU/TX*%
X121200000Y-94550000D03*
%TO.N,/MCU/RX*%
X121100000Y-95950000D03*
D29*
%TO.N,/D+*%
X109500000Y-100600000D03*
X109500000Y-101739500D03*
D28*
%TO.N,/MCU/1-Wire*%
X140600000Y-86100000D03*
%TO.N,/MCU/SDA*%
X141600000Y-91000000D03*
X128250000Y-106250000D03*
%TO.N,/MCU/SCL*%
X141000000Y-87700000D03*
X126700000Y-106100000D03*
D27*
%TO.N,/MCU/PGOOD*%
X117175000Y-81200000D03*
X144100000Y-78100000D03*
%TO.N,/MCU/CHG*%
X118000000Y-81800000D03*
X142100000Y-79000000D03*
%TD*%
D30*
%TO.N,/MCU/CHIP_PU*%
X164213299Y-77515000D02*
X164996701Y-77515000D01*
X165875000Y-78393299D02*
X165875000Y-82785000D01*
X142800000Y-77150000D02*
X142700000Y-77200000D01*
X165875000Y-82785000D02*
X164700000Y-83960000D01*
X164996701Y-77515000D02*
X165875000Y-78393299D01*
X142850000Y-77150000D02*
X142800000Y-77150000D01*
X142700000Y-77200000D02*
X142900000Y-77150000D01*
X142900000Y-77150000D02*
X163848299Y-77150000D01*
X163848299Y-77150000D02*
X164213299Y-77515000D01*
%TO.N,+3.3V*%
X136350000Y-83850000D02*
X136400000Y-83000000D01*
X132450000Y-87750000D02*
X134400000Y-89700000D01*
X132450000Y-87750000D02*
X136350000Y-83850000D01*
X162560000Y-74200000D02*
X164700000Y-76340000D01*
X136100000Y-74300000D02*
X135200000Y-75200000D01*
X134400000Y-89700000D02*
X134400000Y-91600000D01*
X135200000Y-75200000D02*
X136200000Y-74200000D01*
X136200000Y-74200000D02*
X162560000Y-74200000D01*
X136400000Y-83000000D02*
X136350000Y-83100000D01*
%TO.N,Net-(D2-K)*%
X121600000Y-80450000D02*
X119625305Y-80450000D01*
X119600305Y-80475000D02*
X117475000Y-80475000D01*
X123200000Y-82050000D02*
X121600000Y-80450000D01*
X119625305Y-80450000D02*
X119600305Y-80475000D01*
X117475000Y-80475000D02*
X115700000Y-78700000D01*
X115700000Y-78700000D02*
X113637500Y-78700000D01*
%TO.N,VCC*%
X157400000Y-96700000D02*
X154800000Y-96700000D01*
X154800000Y-96700000D02*
X153300000Y-95200000D01*
X153200000Y-88600000D02*
X153300000Y-88700000D01*
X136200000Y-85300000D02*
X136300000Y-85300000D01*
X153300000Y-95200000D02*
X153200000Y-88600000D01*
X141800000Y-82900000D02*
X139400000Y-82900000D01*
X138100000Y-84200000D02*
X137700000Y-84600000D01*
X136600000Y-84600000D02*
X136300000Y-84900000D01*
X137700000Y-84600000D02*
X136600000Y-84600000D01*
X136300000Y-84900000D02*
X136200000Y-85300000D01*
X139400000Y-82900000D02*
X138100000Y-84200000D01*
%TO.N,/E+*%
X146200000Y-111150000D02*
X159280000Y-111150000D01*
X159280000Y-111150000D02*
X172092500Y-98337500D01*
X145000000Y-112350000D02*
X146200000Y-111150000D01*
D31*
%TO.N,/A-*%
X173267500Y-97759683D02*
X173267500Y-101162500D01*
X172945317Y-97437500D02*
X173267500Y-97759683D01*
X173267500Y-101162500D02*
X172092500Y-102337500D01*
X145000000Y-106700000D02*
X154262500Y-97437500D01*
X154262500Y-97437500D02*
X172945317Y-97437500D01*
%TO.N,/A+*%
X159830000Y-112600000D02*
X160090000Y-112340000D01*
X137650000Y-114000000D02*
X150697792Y-114000000D01*
X136000000Y-112350000D02*
X137650000Y-114000000D01*
X160005000Y-112425000D02*
X172092500Y-100337500D01*
X150697792Y-114000000D02*
X152097792Y-112600000D01*
X152097792Y-112600000D02*
X159830000Y-112600000D01*
D30*
%TO.N,/MCU/GPIO0*%
X149200000Y-85400000D02*
X141700000Y-85400000D01*
X141700000Y-85400000D02*
X141675000Y-85375000D01*
X151100000Y-90900000D02*
X151100000Y-87300000D01*
X141675000Y-85375000D02*
X137625000Y-85375000D01*
X151100000Y-87300000D02*
X149200000Y-85400000D01*
X137625000Y-85375000D02*
X135500000Y-87500000D01*
%TO.N,/MCU/TX*%
X120375000Y-96250305D02*
X120375000Y-95375000D01*
X163380000Y-80100000D02*
X137975305Y-80100000D01*
X121400305Y-96675000D02*
X120799695Y-96675000D01*
X120375000Y-95375000D02*
X121200000Y-94550000D01*
X164700000Y-81420000D02*
X163380000Y-80100000D01*
X120799695Y-96675000D02*
X120375000Y-96250305D01*
X137975305Y-80100000D02*
X121400305Y-96675000D01*
%TO.N,/MCU/RX*%
X121100000Y-95950000D02*
X137400000Y-79650000D01*
X137400000Y-79650000D02*
X163930000Y-79650000D01*
X163930000Y-79650000D02*
X164700000Y-78880000D01*
D31*
%TO.N,/D+*%
X109500000Y-101739500D02*
X109500000Y-100600000D01*
D30*
%TO.N,/MCU/1-Wire*%
X140600000Y-86850000D02*
X117670000Y-109780000D01*
X117670000Y-109780000D02*
X117670000Y-111800000D01*
X140600000Y-86100000D02*
X140600000Y-86850000D01*
%TO.N,/MCU/SDA*%
X141600000Y-92900000D02*
X128250000Y-106250000D01*
X141600000Y-91000000D02*
X141600000Y-92900000D01*
%TO.N,/MCU/SCL*%
X140600000Y-88100000D02*
X140600000Y-92400000D01*
X141000000Y-87700000D02*
X140600000Y-88100000D01*
X140600000Y-92400000D02*
X126900000Y-106100000D01*
X126900000Y-106100000D02*
X126700000Y-106100000D01*
%TO.N,/MCU/PGOOD*%
X117200000Y-81175000D02*
X117175000Y-81200000D01*
X119575000Y-81175000D02*
X117200000Y-81175000D01*
X131800000Y-78000000D02*
X126825000Y-82975000D01*
X144000000Y-78000000D02*
X131800000Y-78000000D01*
X144100000Y-78100000D02*
X144000000Y-78000000D01*
X126825000Y-82975000D02*
X121375000Y-82975000D01*
X121375000Y-82975000D02*
X119575000Y-81175000D01*
%TO.N,/MCU/CHG*%
X135400000Y-79100000D02*
X142100000Y-79000000D01*
X118000000Y-81800000D02*
X120275000Y-84075000D01*
X120275000Y-84075000D02*
X130425000Y-84075000D01*
X142100000Y-79000000D02*
X142000000Y-79100000D01*
X130425000Y-84075000D02*
X135400000Y-79100000D01*
%TD*%
%TA.AperFunction,Conductor*%
%TO.N,GND*%
G36*
X163727824Y-77489852D02*
G01*
X164013437Y-77775465D01*
X164087660Y-77818318D01*
X164152952Y-77835812D01*
X164170442Y-77840499D01*
X164170443Y-77840500D01*
X164170446Y-77840500D01*
X164220664Y-77840500D01*
X164255312Y-77854852D01*
X164269664Y-77889500D01*
X164255312Y-77924148D01*
X164243763Y-77932714D01*
X164113548Y-78002316D01*
X163953590Y-78133590D01*
X163822316Y-78293548D01*
X163724769Y-78476043D01*
X163664700Y-78674064D01*
X163664700Y-78674065D01*
X163644417Y-78879999D01*
X163644417Y-78880000D01*
X163664700Y-79085934D01*
X163664700Y-79085935D01*
X163717889Y-79261276D01*
X163714213Y-79298599D01*
X163685223Y-79322390D01*
X163670999Y-79324500D01*
X142578274Y-79324500D01*
X142543626Y-79310148D01*
X142529274Y-79275500D01*
X142533702Y-79255144D01*
X142585166Y-79142454D01*
X142605647Y-79000002D01*
X142605647Y-78999997D01*
X142585166Y-78857545D01*
X142577615Y-78841012D01*
X142525377Y-78726627D01*
X142485158Y-78680212D01*
X142431128Y-78617857D01*
X142404118Y-78600499D01*
X142310053Y-78540047D01*
X142310050Y-78540046D01*
X142171965Y-78499500D01*
X142171961Y-78499500D01*
X142028039Y-78499500D01*
X142028034Y-78499500D01*
X141889946Y-78540047D01*
X141768875Y-78617853D01*
X141768872Y-78617856D01*
X141729205Y-78663633D01*
X141695668Y-78680419D01*
X141692905Y-78680539D01*
X135397921Y-78774495D01*
X135397190Y-78774500D01*
X135357146Y-78774500D01*
X135354790Y-78774810D01*
X135354750Y-78774813D01*
X135354685Y-78774822D01*
X135354646Y-78774830D01*
X135352295Y-78775175D01*
X135313745Y-78786123D01*
X135313043Y-78786317D01*
X135274355Y-78796684D01*
X135272167Y-78797591D01*
X135272129Y-78797604D01*
X135272064Y-78797631D01*
X135272033Y-78797647D01*
X135269849Y-78798590D01*
X135235454Y-78819138D01*
X135234824Y-78819508D01*
X135200137Y-78839534D01*
X135198243Y-78840988D01*
X135198207Y-78841012D01*
X135198182Y-78841031D01*
X135198147Y-78841063D01*
X135196276Y-78842544D01*
X135168340Y-78871324D01*
X135167828Y-78871843D01*
X130304525Y-83735148D01*
X130269877Y-83749500D01*
X120430123Y-83749500D01*
X120395475Y-83735148D01*
X118517293Y-81856966D01*
X118502941Y-81822318D01*
X118503438Y-81815357D01*
X118505647Y-81800000D01*
X118504587Y-81792626D01*
X118485166Y-81657545D01*
X118456129Y-81593964D01*
X118445118Y-81569855D01*
X118443780Y-81532377D01*
X118469335Y-81504928D01*
X118489691Y-81500500D01*
X119419877Y-81500500D01*
X119454525Y-81514852D01*
X121114534Y-83174861D01*
X121114535Y-83174862D01*
X121175138Y-83235465D01*
X121182737Y-83239852D01*
X121249359Y-83278317D01*
X121249361Y-83278317D01*
X121249362Y-83278318D01*
X121314651Y-83295812D01*
X121332143Y-83300499D01*
X121332144Y-83300500D01*
X121332147Y-83300500D01*
X126867856Y-83300500D01*
X126867856Y-83300499D01*
X126950639Y-83278318D01*
X127024862Y-83235465D01*
X131920475Y-78339852D01*
X131955123Y-78325500D01*
X143621270Y-78325500D01*
X143655918Y-78339852D01*
X143665842Y-78354145D01*
X143674622Y-78373372D01*
X143674625Y-78373376D01*
X143731952Y-78439535D01*
X143768872Y-78482143D01*
X143889947Y-78559953D01*
X143966785Y-78582514D01*
X144028034Y-78600499D01*
X144028037Y-78600499D01*
X144028039Y-78600500D01*
X144028040Y-78600500D01*
X144171960Y-78600500D01*
X144171961Y-78600500D01*
X144171963Y-78600499D01*
X144171965Y-78600499D01*
X144194795Y-78593795D01*
X144310053Y-78559953D01*
X144431128Y-78482143D01*
X144525377Y-78373373D01*
X144585165Y-78242457D01*
X144585165Y-78242455D01*
X144585166Y-78242454D01*
X144605647Y-78100002D01*
X144605647Y-78099997D01*
X144585166Y-77957545D01*
X144554090Y-77889500D01*
X144525377Y-77826627D01*
X144518177Y-77818318D01*
X144431128Y-77717857D01*
X144398177Y-77696681D01*
X144310053Y-77640047D01*
X144310050Y-77640046D01*
X144171965Y-77599500D01*
X144171961Y-77599500D01*
X144028039Y-77599500D01*
X144028034Y-77599500D01*
X143889946Y-77640047D01*
X143848441Y-77666721D01*
X143821950Y-77674500D01*
X143054297Y-77674500D01*
X143019649Y-77660148D01*
X143005297Y-77625500D01*
X143019649Y-77590852D01*
X143027806Y-77584278D01*
X143028066Y-77584110D01*
X143031128Y-77582143D01*
X143108880Y-77492412D01*
X143142416Y-77475625D01*
X143145912Y-77475500D01*
X163693176Y-77475500D01*
X163727824Y-77489852D01*
G37*
%TD.AperFunction*%
%TA.AperFunction,Conductor*%
G36*
X121479525Y-80789852D02*
G01*
X122594141Y-81904467D01*
X122608493Y-81939115D01*
X122608074Y-81945511D01*
X122594318Y-82049999D01*
X122614955Y-82206761D01*
X122675461Y-82352836D01*
X122675464Y-82352841D01*
X122771717Y-82478281D01*
X122771718Y-82478282D01*
X122880334Y-82561626D01*
X122899086Y-82594104D01*
X122889379Y-82630329D01*
X122856901Y-82649081D01*
X122850505Y-82649500D01*
X121530123Y-82649500D01*
X121495475Y-82635148D01*
X119774862Y-80914535D01*
X119700657Y-80871692D01*
X119677826Y-80841939D01*
X119682722Y-80804757D01*
X119712475Y-80781927D01*
X119729046Y-80777487D01*
X119729221Y-80778141D01*
X119742493Y-80775500D01*
X121444877Y-80775500D01*
X121479525Y-80789852D01*
G37*
%TD.AperFunction*%
%TA.AperFunction,Conductor*%
G36*
X174080091Y-67621898D02*
G01*
X174378189Y-67638638D01*
X174383633Y-67639251D01*
X174676673Y-67689039D01*
X174682019Y-67690259D01*
X174878143Y-67746760D01*
X174967630Y-67772541D01*
X174972816Y-67774356D01*
X175247409Y-67888095D01*
X175252360Y-67890479D01*
X175512508Y-68034256D01*
X175517144Y-68037170D01*
X175656413Y-68135987D01*
X175759546Y-68209164D01*
X175763842Y-68212589D01*
X175985468Y-68410645D01*
X175989354Y-68414531D01*
X176187410Y-68636157D01*
X176190835Y-68640453D01*
X176264268Y-68743946D01*
X176360372Y-68879392D01*
X176362824Y-68882847D01*
X176365748Y-68887500D01*
X176509520Y-69147639D01*
X176511904Y-69152590D01*
X176625643Y-69427183D01*
X176627458Y-69432369D01*
X176709738Y-69717975D01*
X176710961Y-69723332D01*
X176760747Y-70016358D01*
X176761362Y-70021819D01*
X176778102Y-70319946D01*
X176778179Y-70322693D01*
X176778179Y-70372278D01*
X176778237Y-70373027D01*
X176828178Y-114269913D01*
X176828101Y-114272717D01*
X176811358Y-114570819D01*
X176810743Y-114576279D01*
X176760955Y-114869307D01*
X176759732Y-114874664D01*
X176677449Y-115160272D01*
X176675634Y-115165458D01*
X176561894Y-115440052D01*
X176559510Y-115445003D01*
X176415740Y-115705138D01*
X176412817Y-115709791D01*
X176240820Y-115952201D01*
X176237394Y-115956497D01*
X176039339Y-116178125D01*
X176035453Y-116182010D01*
X175813838Y-116380062D01*
X175809542Y-116383488D01*
X175567146Y-116555482D01*
X175562494Y-116558406D01*
X175302351Y-116702187D01*
X175297400Y-116704571D01*
X175022807Y-116818317D01*
X175017621Y-116820132D01*
X174732016Y-116902420D01*
X174726659Y-116903643D01*
X174433631Y-116953437D01*
X174428171Y-116954052D01*
X174131111Y-116970742D01*
X174128447Y-116970819D01*
X174127893Y-116970819D01*
X174127808Y-116970820D01*
X174077534Y-116970820D01*
X174077274Y-116970840D01*
X106201390Y-116999499D01*
X106198622Y-116999422D01*
X105900502Y-116982680D01*
X105895041Y-116982065D01*
X105602015Y-116932278D01*
X105596658Y-116931055D01*
X105311056Y-116848774D01*
X105305870Y-116846959D01*
X105031272Y-116733217D01*
X105026321Y-116730833D01*
X104766185Y-116587062D01*
X104761532Y-116584138D01*
X104519126Y-116412141D01*
X104514842Y-116408725D01*
X104293214Y-116210666D01*
X104289331Y-116206783D01*
X104091272Y-115985154D01*
X104087860Y-115980876D01*
X103915856Y-115738459D01*
X103912942Y-115733823D01*
X103769163Y-115473672D01*
X103766782Y-115468727D01*
X103653040Y-115194129D01*
X103651225Y-115188943D01*
X103608757Y-115041533D01*
X103568942Y-114903335D01*
X103567721Y-114897984D01*
X103563759Y-114874664D01*
X103517933Y-114604950D01*
X103517320Y-114599505D01*
X103500577Y-114301371D01*
X103500500Y-114298624D01*
X103500500Y-114248993D01*
X103500441Y-114248250D01*
X103500248Y-114078712D01*
X104420820Y-114078712D01*
X104420820Y-114321288D01*
X104452482Y-114561789D01*
X104452483Y-114561793D01*
X104452484Y-114561800D01*
X104515264Y-114796095D01*
X104515266Y-114796101D01*
X104608096Y-115020213D01*
X104729382Y-115230286D01*
X104729392Y-115230301D01*
X104877050Y-115422732D01*
X104877060Y-115422744D01*
X105048575Y-115594259D01*
X105048587Y-115594269D01*
X105241018Y-115741927D01*
X105241027Y-115741933D01*
X105241031Y-115741936D01*
X105451108Y-115863224D01*
X105675220Y-115956054D01*
X105733797Y-115971750D01*
X105909519Y-116018835D01*
X105909520Y-116018835D01*
X105909531Y-116018838D01*
X106150032Y-116050500D01*
X106150036Y-116050500D01*
X106392604Y-116050500D01*
X106392608Y-116050500D01*
X106633109Y-116018838D01*
X106867420Y-115956054D01*
X107091532Y-115863224D01*
X107301609Y-115741936D01*
X107346421Y-115707551D01*
X107350899Y-115704113D01*
X107494058Y-115594265D01*
X107665585Y-115422738D01*
X107775433Y-115279579D01*
X107813247Y-115230301D01*
X107813248Y-115230298D01*
X107813256Y-115230289D01*
X107934544Y-115020212D01*
X108027374Y-114796100D01*
X108090158Y-114561789D01*
X108121820Y-114321288D01*
X108121820Y-114078712D01*
X108090158Y-113838211D01*
X108027374Y-113603900D01*
X107934544Y-113379788D01*
X107875327Y-113277222D01*
X107825565Y-113191031D01*
X107813256Y-113169711D01*
X107813253Y-113169707D01*
X107813247Y-113169698D01*
X107665589Y-112977267D01*
X107665579Y-112977255D01*
X107494064Y-112805740D01*
X107494052Y-112805730D01*
X107301621Y-112658072D01*
X107301606Y-112658062D01*
X107091532Y-112536776D01*
X107091533Y-112536776D01*
X106867421Y-112443946D01*
X106867415Y-112443944D01*
X106633120Y-112381164D01*
X106633113Y-112381163D01*
X106633109Y-112381162D01*
X106392608Y-112349500D01*
X106150032Y-112349500D01*
X105909531Y-112381162D01*
X105909527Y-112381162D01*
X105909519Y-112381164D01*
X105675224Y-112443944D01*
X105675218Y-112443946D01*
X105451106Y-112536776D01*
X105241033Y-112658062D01*
X105241018Y-112658072D01*
X105048587Y-112805730D01*
X105048575Y-112805740D01*
X104877060Y-112977255D01*
X104877050Y-112977267D01*
X104729392Y-113169698D01*
X104729382Y-113169713D01*
X104608096Y-113379786D01*
X104515266Y-113603898D01*
X104515264Y-113603904D01*
X104452484Y-113838199D01*
X104452482Y-113838207D01*
X104452482Y-113838211D01*
X104420820Y-114078712D01*
X103500248Y-114078712D01*
X103496774Y-111025370D01*
X115625000Y-111025370D01*
X115625000Y-111550000D01*
X116119670Y-111550000D01*
X116099925Y-111569745D01*
X116050556Y-111655255D01*
X116025000Y-111750630D01*
X116025000Y-111849370D01*
X116050556Y-111944745D01*
X116099925Y-112030255D01*
X116119670Y-112050000D01*
X115625000Y-112050000D01*
X115625000Y-112574629D01*
X115639503Y-112647542D01*
X115694759Y-112730240D01*
X115777457Y-112785496D01*
X115850370Y-112799999D01*
X115850376Y-112800000D01*
X116150000Y-112800000D01*
X116150000Y-112080330D01*
X116169745Y-112100075D01*
X116255255Y-112149444D01*
X116350630Y-112175000D01*
X116449370Y-112175000D01*
X116544745Y-112149444D01*
X116630255Y-112100075D01*
X116650000Y-112080330D01*
X116650000Y-112800000D01*
X116949624Y-112800000D01*
X116949629Y-112799999D01*
X117022542Y-112785496D01*
X117105240Y-112730240D01*
X117160494Y-112647544D01*
X117162066Y-112639645D01*
X117182901Y-112608462D01*
X117219683Y-112601144D01*
X117237344Y-112608459D01*
X117326347Y-112667929D01*
X117458380Y-112722619D01*
X117458383Y-112722619D01*
X117458388Y-112722621D01*
X117598539Y-112750499D01*
X117598545Y-112750500D01*
X117741455Y-112750500D01*
X117744991Y-112749796D01*
X117881611Y-112722621D01*
X117881613Y-112722620D01*
X117881620Y-112722619D01*
X118013653Y-112667929D01*
X118132479Y-112588532D01*
X118233532Y-112487479D01*
X118264258Y-112441493D01*
X118295440Y-112420659D01*
X118332223Y-112427975D01*
X118345741Y-112441493D01*
X118376468Y-112487479D01*
X118477521Y-112588532D01*
X118596347Y-112667929D01*
X118728380Y-112722619D01*
X118728383Y-112722619D01*
X118728388Y-112722621D01*
X118868539Y-112750499D01*
X118868545Y-112750500D01*
X119011455Y-112750500D01*
X119014991Y-112749796D01*
X119151611Y-112722621D01*
X119151613Y-112722620D01*
X119151620Y-112722619D01*
X119283653Y-112667929D01*
X119402479Y-112588532D01*
X119503532Y-112487479D01*
X119582929Y-112368653D01*
X119637619Y-112236620D01*
X119665500Y-112096455D01*
X119665500Y-111503545D01*
X119665499Y-111503539D01*
X119637621Y-111363388D01*
X119637619Y-111363381D01*
X119620565Y-111322207D01*
X119582929Y-111231347D01*
X119503532Y-111112521D01*
X119402479Y-111011468D01*
X119283653Y-110932071D01*
X119265499Y-110924551D01*
X119151618Y-110877380D01*
X119151611Y-110877378D01*
X119011460Y-110849500D01*
X119011455Y-110849500D01*
X118868545Y-110849500D01*
X118868539Y-110849500D01*
X118728388Y-110877378D01*
X118728381Y-110877380D01*
X118596348Y-110932070D01*
X118477521Y-111011467D01*
X118376465Y-111112523D01*
X118345742Y-111158504D01*
X118314559Y-111179340D01*
X118277777Y-111172023D01*
X118264258Y-111158504D01*
X118233534Y-111112523D01*
X118132478Y-111011467D01*
X118132479Y-111011467D01*
X118017277Y-110934492D01*
X117996441Y-110903309D01*
X117995500Y-110893750D01*
X117995500Y-109935122D01*
X118009851Y-109900475D01*
X122013870Y-105896456D01*
X122048517Y-105882105D01*
X122083165Y-105896457D01*
X122097517Y-105931105D01*
X122094223Y-105948767D01*
X122067839Y-106017042D01*
X122046631Y-106148084D01*
X122049443Y-106206104D01*
X122049500Y-106208476D01*
X122049500Y-113486573D01*
X122049356Y-113490331D01*
X122044971Y-113547331D01*
X122065737Y-113686964D01*
X122117053Y-113818478D01*
X122144915Y-113859519D01*
X122196346Y-113935275D01*
X122299642Y-114031499D01*
X122421759Y-114102325D01*
X122556576Y-114144201D01*
X122594624Y-114147127D01*
X122603542Y-114148652D01*
X122610438Y-114150500D01*
X122636574Y-114150500D01*
X122640331Y-114150644D01*
X122674407Y-114153265D01*
X122680157Y-114151873D01*
X122691679Y-114150500D01*
X122991523Y-114150500D01*
X122993895Y-114150557D01*
X123051916Y-114153369D01*
X123182956Y-114132161D01*
X123306776Y-114084312D01*
X123418024Y-114011889D01*
X123511889Y-113918024D01*
X123511889Y-113918023D01*
X123513695Y-113916218D01*
X123514272Y-113916795D01*
X123544765Y-113900265D01*
X123549856Y-113900000D01*
X131100144Y-113900000D01*
X131134792Y-113914352D01*
X131138013Y-113917926D01*
X131138111Y-113918024D01*
X131231976Y-114011889D01*
X131343224Y-114084312D01*
X131467044Y-114132161D01*
X131598084Y-114153369D01*
X131656105Y-114150557D01*
X131658477Y-114150500D01*
X131958321Y-114150500D01*
X131969842Y-114151873D01*
X131975593Y-114153265D01*
X132009669Y-114150644D01*
X132013426Y-114150500D01*
X132039560Y-114150500D01*
X132039562Y-114150500D01*
X132046457Y-114148651D01*
X132055376Y-114147127D01*
X132093424Y-114144201D01*
X132228241Y-114102325D01*
X132350358Y-114031499D01*
X132453654Y-113935275D01*
X132532947Y-113818478D01*
X132584263Y-113686965D01*
X132605028Y-113547330D01*
X132600644Y-113490331D01*
X132600500Y-113486573D01*
X132600500Y-111996152D01*
X135199500Y-111996152D01*
X135199500Y-112703847D01*
X135230260Y-112858487D01*
X135230263Y-112858498D01*
X135290604Y-113004175D01*
X135290606Y-113004179D01*
X135378211Y-113135289D01*
X135489711Y-113246789D01*
X135620821Y-113334394D01*
X135766503Y-113394737D01*
X135766509Y-113394738D01*
X135766512Y-113394739D01*
X135921152Y-113425499D01*
X135921158Y-113425500D01*
X136078842Y-113425500D01*
X136233497Y-113394737D01*
X136379179Y-113334394D01*
X136453791Y-113284538D01*
X136490573Y-113277222D01*
X136515662Y-113290633D01*
X137409540Y-114184511D01*
X137465489Y-114240460D01*
X137515649Y-114269420D01*
X137518370Y-114270991D01*
X137534011Y-114280021D01*
X137569478Y-114289524D01*
X137610436Y-114300500D01*
X137610438Y-114300500D01*
X150737356Y-114300500D01*
X150764022Y-114293354D01*
X150813781Y-114280021D01*
X150882303Y-114240460D01*
X150938252Y-114184511D01*
X151022731Y-114100032D01*
X172228180Y-114100032D01*
X172228180Y-114342608D01*
X172259842Y-114583109D01*
X172259843Y-114583113D01*
X172259844Y-114583120D01*
X172322624Y-114817415D01*
X172322626Y-114817421D01*
X172415456Y-115041533D01*
X172536742Y-115251606D01*
X172536752Y-115251621D01*
X172684410Y-115444052D01*
X172684420Y-115444064D01*
X172855935Y-115615579D01*
X172855947Y-115615589D01*
X173048378Y-115763247D01*
X173048387Y-115763253D01*
X173048391Y-115763256D01*
X173258468Y-115884544D01*
X173482580Y-115977374D01*
X173482584Y-115977375D01*
X173716879Y-116040155D01*
X173716880Y-116040155D01*
X173716891Y-116040158D01*
X173957392Y-116071820D01*
X173957396Y-116071820D01*
X174199964Y-116071820D01*
X174199968Y-116071820D01*
X174440469Y-116040158D01*
X174674780Y-115977374D01*
X174898892Y-115884544D01*
X175108969Y-115763256D01*
X175301418Y-115615585D01*
X175472945Y-115444058D01*
X175620616Y-115251609D01*
X175741904Y-115041532D01*
X175834734Y-114817420D01*
X175897518Y-114583109D01*
X175929180Y-114342608D01*
X175929180Y-114100032D01*
X175897518Y-113859531D01*
X175834734Y-113625220D01*
X175741904Y-113401108D01*
X175620616Y-113191031D01*
X175620613Y-113191027D01*
X175620607Y-113191018D01*
X175472949Y-112998587D01*
X175472939Y-112998575D01*
X175301424Y-112827060D01*
X175301412Y-112827050D01*
X175108981Y-112679392D01*
X175108966Y-112679382D01*
X174898892Y-112558096D01*
X174898893Y-112558096D01*
X174674781Y-112465266D01*
X174674775Y-112465264D01*
X174440480Y-112402484D01*
X174440473Y-112402483D01*
X174440469Y-112402482D01*
X174199968Y-112370820D01*
X173957392Y-112370820D01*
X173716891Y-112402482D01*
X173716887Y-112402482D01*
X173716879Y-112402484D01*
X173482584Y-112465264D01*
X173482578Y-112465266D01*
X173258466Y-112558096D01*
X173048393Y-112679382D01*
X173048378Y-112679392D01*
X172855947Y-112827050D01*
X172855935Y-112827060D01*
X172684420Y-112998575D01*
X172684410Y-112998587D01*
X172536752Y-113191018D01*
X172536742Y-113191033D01*
X172415456Y-113401106D01*
X172322626Y-113625218D01*
X172322624Y-113625224D01*
X172259844Y-113859519D01*
X172259842Y-113859527D01*
X172259842Y-113859531D01*
X172228180Y-114100032D01*
X151022731Y-114100032D01*
X152207911Y-112914852D01*
X152242559Y-112900500D01*
X159869564Y-112900500D01*
X159896230Y-112893354D01*
X159945989Y-112880021D01*
X160014511Y-112840460D01*
X160070460Y-112784511D01*
X160330460Y-112524511D01*
X168767470Y-104087500D01*
X171001020Y-104087500D01*
X171812170Y-104087500D01*
X171792425Y-104107245D01*
X171743056Y-104192755D01*
X171717500Y-104288130D01*
X171717500Y-104386870D01*
X171743056Y-104482245D01*
X171792425Y-104567755D01*
X171812170Y-104587500D01*
X171001020Y-104587500D01*
X171064239Y-104740124D01*
X171157261Y-104879343D01*
X171275656Y-104997738D01*
X171414875Y-105090760D01*
X171569560Y-105154833D01*
X171569575Y-105154837D01*
X171733776Y-105187499D01*
X171733783Y-105187500D01*
X171842500Y-105187500D01*
X171842500Y-104617830D01*
X171862245Y-104637575D01*
X171947755Y-104686944D01*
X172043130Y-104712500D01*
X172141870Y-104712500D01*
X172237245Y-104686944D01*
X172322755Y-104637575D01*
X172342500Y-104617830D01*
X172342500Y-105187500D01*
X172451217Y-105187500D01*
X172451223Y-105187499D01*
X172615424Y-105154837D01*
X172615439Y-105154833D01*
X172770124Y-105090760D01*
X172909343Y-104997738D01*
X173027738Y-104879343D01*
X173120760Y-104740124D01*
X173183980Y-104587500D01*
X172372830Y-104587500D01*
X172392575Y-104567755D01*
X172441944Y-104482245D01*
X172467500Y-104386870D01*
X172467500Y-104288130D01*
X172441944Y-104192755D01*
X172392575Y-104107245D01*
X172372830Y-104087500D01*
X173183979Y-104087500D01*
X173120760Y-103934875D01*
X173027738Y-103795656D01*
X172909343Y-103677261D01*
X172770124Y-103584239D01*
X172615439Y-103520166D01*
X172615424Y-103520162D01*
X172451223Y-103487500D01*
X172342500Y-103487500D01*
X172342500Y-104057170D01*
X172322755Y-104037425D01*
X172237245Y-103988056D01*
X172141870Y-103962500D01*
X172043130Y-103962500D01*
X171947755Y-103988056D01*
X171862245Y-104037425D01*
X171842500Y-104057170D01*
X171842500Y-103487500D01*
X171733776Y-103487500D01*
X171569575Y-103520162D01*
X171569560Y-103520166D01*
X171414875Y-103584239D01*
X171275656Y-103677261D01*
X171157261Y-103795656D01*
X171064239Y-103934875D01*
X171001020Y-104087500D01*
X168767470Y-104087500D01*
X171702618Y-101152351D01*
X171737266Y-101138000D01*
X172446342Y-101138000D01*
X172600997Y-101107237D01*
X172746679Y-101046894D01*
X172877789Y-100959289D01*
X172883352Y-100953726D01*
X172918000Y-100939374D01*
X172952648Y-100953726D01*
X172967000Y-100988374D01*
X172967000Y-101017732D01*
X172952648Y-101052380D01*
X172482380Y-101522648D01*
X172447732Y-101537000D01*
X171738652Y-101537000D01*
X171584012Y-101567760D01*
X171584001Y-101567763D01*
X171438324Y-101628104D01*
X171307211Y-101715710D01*
X171195710Y-101827211D01*
X171108104Y-101958324D01*
X171047763Y-102104001D01*
X171047760Y-102104012D01*
X171017000Y-102258652D01*
X171017000Y-102416347D01*
X171047760Y-102570987D01*
X171047763Y-102570997D01*
X171108106Y-102716679D01*
X171195711Y-102847789D01*
X171307211Y-102959289D01*
X171438321Y-103046894D01*
X171584003Y-103107237D01*
X171584009Y-103107238D01*
X171584012Y-103107239D01*
X171738652Y-103137999D01*
X171738658Y-103138000D01*
X172446342Y-103138000D01*
X172600997Y-103107237D01*
X172746679Y-103046894D01*
X172877789Y-102959289D01*
X172989289Y-102847789D01*
X173076894Y-102716679D01*
X173137237Y-102570997D01*
X173168000Y-102416342D01*
X173168000Y-102258658D01*
X173154343Y-102189999D01*
X173137239Y-102104012D01*
X173137236Y-102104001D01*
X173076895Y-101958324D01*
X173076894Y-101958321D01*
X173027038Y-101883707D01*
X173019723Y-101846925D01*
X173033133Y-101821837D01*
X173243696Y-101611274D01*
X173507960Y-101347011D01*
X173515467Y-101334008D01*
X173547521Y-101278489D01*
X173568000Y-101202062D01*
X173568000Y-97720121D01*
X173568000Y-97720119D01*
X173560662Y-97692735D01*
X173553324Y-97665350D01*
X173553324Y-97665348D01*
X173547522Y-97643696D01*
X173547521Y-97643693D01*
X173507959Y-97575171D01*
X173129828Y-97197040D01*
X173061307Y-97157479D01*
X172984881Y-97137000D01*
X172984879Y-97137000D01*
X157920954Y-97137000D01*
X157886306Y-97122648D01*
X157871954Y-97088000D01*
X157882080Y-97058171D01*
X157892439Y-97044671D01*
X157924536Y-97002841D01*
X157985044Y-96856762D01*
X158005682Y-96700000D01*
X157985044Y-96543238D01*
X157924538Y-96397163D01*
X157924535Y-96397158D01*
X157908255Y-96375942D01*
X157828282Y-96271718D01*
X157750944Y-96212375D01*
X157702841Y-96175464D01*
X157702836Y-96175461D01*
X157556761Y-96114955D01*
X157400000Y-96094318D01*
X157243238Y-96114955D01*
X157097163Y-96175461D01*
X157097158Y-96175464D01*
X156971718Y-96271717D01*
X156971717Y-96271718D01*
X156907561Y-96355329D01*
X156875083Y-96374081D01*
X156868687Y-96374500D01*
X154955123Y-96374500D01*
X154920475Y-96360148D01*
X153637508Y-95077181D01*
X153623162Y-95043275D01*
X153617634Y-94678444D01*
X153531606Y-89000614D01*
X153543568Y-88967785D01*
X153625374Y-88873376D01*
X153625377Y-88873373D01*
X153685165Y-88742457D01*
X153685165Y-88742455D01*
X153685166Y-88742454D01*
X153705647Y-88600002D01*
X153705647Y-88599997D01*
X153685166Y-88457545D01*
X153680751Y-88447879D01*
X153625377Y-88326627D01*
X153607228Y-88305682D01*
X153531128Y-88217857D01*
X153449456Y-88165370D01*
X163600000Y-88165370D01*
X163600000Y-88790000D01*
X164266988Y-88790000D01*
X164234075Y-88847007D01*
X164200000Y-88974174D01*
X164200000Y-89105826D01*
X164234075Y-89232993D01*
X164266988Y-89290000D01*
X163600000Y-89290000D01*
X163600000Y-89914629D01*
X163614503Y-89987542D01*
X163669759Y-90070240D01*
X163752457Y-90125496D01*
X163825370Y-90139999D01*
X163825376Y-90140000D01*
X164450000Y-90140000D01*
X164450000Y-89473012D01*
X164507007Y-89505925D01*
X164634174Y-89540000D01*
X164765826Y-89540000D01*
X164892993Y-89505925D01*
X164950000Y-89473012D01*
X164950000Y-90140000D01*
X165574624Y-90140000D01*
X165574629Y-90139999D01*
X165647542Y-90125496D01*
X165730240Y-90070240D01*
X165785496Y-89987542D01*
X165799999Y-89914629D01*
X165800000Y-89914624D01*
X165800000Y-89290000D01*
X165133012Y-89290000D01*
X165165925Y-89232993D01*
X165200000Y-89105826D01*
X165200000Y-88974174D01*
X165165925Y-88847007D01*
X165133012Y-88790000D01*
X165800000Y-88790000D01*
X165800000Y-88165376D01*
X165799999Y-88165370D01*
X165785496Y-88092457D01*
X165730240Y-88009759D01*
X165647542Y-87954503D01*
X165574629Y-87940000D01*
X164950000Y-87940000D01*
X164950000Y-88606988D01*
X164892993Y-88574075D01*
X164765826Y-88540000D01*
X164634174Y-88540000D01*
X164507007Y-88574075D01*
X164450000Y-88606988D01*
X164450000Y-87940000D01*
X163825370Y-87940000D01*
X163752457Y-87954503D01*
X163669759Y-88009759D01*
X163614503Y-88092457D01*
X163600000Y-88165370D01*
X153449456Y-88165370D01*
X153410053Y-88140047D01*
X153410050Y-88140046D01*
X153271965Y-88099500D01*
X153271961Y-88099500D01*
X153128039Y-88099500D01*
X153128034Y-88099500D01*
X152989949Y-88140046D01*
X152868871Y-88217857D01*
X152774625Y-88326623D01*
X152774624Y-88326625D01*
X152714833Y-88457545D01*
X152694353Y-88599997D01*
X152694353Y-88600002D01*
X152714833Y-88742454D01*
X152736547Y-88790000D01*
X152774623Y-88873373D01*
X152774624Y-88873374D01*
X152774625Y-88873376D01*
X152868763Y-88982017D01*
X152880725Y-89013363D01*
X152974494Y-95202042D01*
X152974500Y-95202784D01*
X152974500Y-95242858D01*
X152974821Y-95245299D01*
X152974822Y-95245316D01*
X152974827Y-95245340D01*
X152975185Y-95247776D01*
X152986131Y-95286284D01*
X152986328Y-95286999D01*
X152996680Y-95325636D01*
X152997621Y-95327906D01*
X152997631Y-95327934D01*
X152997645Y-95327962D01*
X152998620Y-95330220D01*
X153019151Y-95364568D01*
X153019513Y-95365184D01*
X153039535Y-95399862D01*
X153039538Y-95399865D01*
X153041027Y-95401805D01*
X153041050Y-95401840D01*
X153041056Y-95401846D01*
X153042590Y-95403783D01*
X153071323Y-95431658D01*
X153071852Y-95432179D01*
X154539534Y-96899861D01*
X154539535Y-96899862D01*
X154600138Y-96960465D01*
X154627304Y-96976149D01*
X154674359Y-97003317D01*
X154674361Y-97003317D01*
X154674362Y-97003318D01*
X154727753Y-97017624D01*
X154757143Y-97025499D01*
X154757144Y-97025500D01*
X154757147Y-97025500D01*
X154842853Y-97025500D01*
X156868687Y-97025500D01*
X156903335Y-97039852D01*
X156907561Y-97044671D01*
X156917920Y-97058171D01*
X156927627Y-97094396D01*
X156908875Y-97126874D01*
X156879046Y-97137000D01*
X154222936Y-97137000D01*
X154146510Y-97157479D01*
X154146508Y-97157479D01*
X154077988Y-97197040D01*
X154077987Y-97197041D01*
X145515661Y-105759366D01*
X145481013Y-105773718D01*
X145453792Y-105765460D01*
X145379179Y-105715606D01*
X145379176Y-105715604D01*
X145379175Y-105715604D01*
X145233498Y-105655263D01*
X145233487Y-105655260D01*
X145078847Y-105624500D01*
X145078842Y-105624500D01*
X144921158Y-105624500D01*
X144921152Y-105624500D01*
X144766512Y-105655260D01*
X144766501Y-105655263D01*
X144620824Y-105715604D01*
X144489711Y-105803210D01*
X144378210Y-105914711D01*
X144290604Y-106045824D01*
X144230263Y-106191501D01*
X144230260Y-106191512D01*
X144199500Y-106346152D01*
X144199500Y-107053847D01*
X144230260Y-107208487D01*
X144230263Y-107208498D01*
X144236245Y-107222939D01*
X144290606Y-107354179D01*
X144378211Y-107485289D01*
X144489711Y-107596789D01*
X144620821Y-107684394D01*
X144766503Y-107744737D01*
X144766509Y-107744738D01*
X144766512Y-107744739D01*
X144921152Y-107775499D01*
X144921158Y-107775500D01*
X145078842Y-107775500D01*
X145233497Y-107744737D01*
X145379179Y-107684394D01*
X145510289Y-107596789D01*
X145621789Y-107485289D01*
X145709394Y-107354179D01*
X145769737Y-107208497D01*
X145800500Y-107053842D01*
X145800500Y-106346158D01*
X145800500Y-106346152D01*
X146199500Y-106346152D01*
X146199500Y-107053847D01*
X146230260Y-107208487D01*
X146230263Y-107208498D01*
X146236245Y-107222939D01*
X146290606Y-107354179D01*
X146378211Y-107485289D01*
X146489711Y-107596789D01*
X146620821Y-107684394D01*
X146766503Y-107744737D01*
X146766509Y-107744738D01*
X146766512Y-107744739D01*
X146921152Y-107775499D01*
X146921158Y-107775500D01*
X147078842Y-107775500D01*
X147233497Y-107744737D01*
X147379179Y-107684394D01*
X147510289Y-107596789D01*
X147621789Y-107485289D01*
X147709394Y-107354179D01*
X147769737Y-107208497D01*
X147800500Y-107053842D01*
X147800500Y-106346158D01*
X147796902Y-106328069D01*
X147769739Y-106191512D01*
X147769736Y-106191501D01*
X147763761Y-106177075D01*
X147709394Y-106045821D01*
X147692625Y-106020724D01*
X148199500Y-106020724D01*
X148199500Y-107379275D01*
X148202353Y-107409698D01*
X148202353Y-107409699D01*
X148247204Y-107537876D01*
X148247208Y-107537885D01*
X148327849Y-107647150D01*
X148437114Y-107727791D01*
X148437117Y-107727792D01*
X148437118Y-107727793D01*
X148437120Y-107727793D01*
X148437123Y-107727795D01*
X148485538Y-107744736D01*
X148565301Y-107772646D01*
X148595734Y-107775500D01*
X148595744Y-107775500D01*
X149404256Y-107775500D01*
X149404266Y-107775500D01*
X149434699Y-107772646D01*
X149562882Y-107727793D01*
X149672150Y-107647150D01*
X149752793Y-107537882D01*
X149797646Y-107409699D01*
X149800500Y-107379266D01*
X149800500Y-106020734D01*
X149797646Y-105990301D01*
X149763677Y-105893224D01*
X149752795Y-105862123D01*
X149752791Y-105862114D01*
X149672150Y-105752849D01*
X149562885Y-105672208D01*
X149562876Y-105672204D01*
X149434698Y-105627353D01*
X149404275Y-105624500D01*
X149404266Y-105624500D01*
X148595734Y-105624500D01*
X148595724Y-105624500D01*
X148565301Y-105627353D01*
X148565300Y-105627353D01*
X148437123Y-105672204D01*
X148437114Y-105672208D01*
X148327849Y-105752849D01*
X148247208Y-105862114D01*
X148247204Y-105862123D01*
X148202353Y-105990300D01*
X148202353Y-105990301D01*
X148199500Y-106020724D01*
X147692625Y-106020724D01*
X147621789Y-105914711D01*
X147510289Y-105803211D01*
X147505483Y-105800000D01*
X147453791Y-105765460D01*
X147379179Y-105715606D01*
X147379176Y-105715604D01*
X147379175Y-105715604D01*
X147233498Y-105655263D01*
X147233487Y-105655260D01*
X147078847Y-105624500D01*
X147078842Y-105624500D01*
X146921158Y-105624500D01*
X146921152Y-105624500D01*
X146766512Y-105655260D01*
X146766501Y-105655263D01*
X146620824Y-105715604D01*
X146489711Y-105803210D01*
X146378210Y-105914711D01*
X146290604Y-106045824D01*
X146230263Y-106191501D01*
X146230260Y-106191512D01*
X146199500Y-106346152D01*
X145800500Y-106346152D01*
X145800500Y-106344766D01*
X145814852Y-106310118D01*
X154372619Y-97752352D01*
X154407267Y-97738000D01*
X171008461Y-97738000D01*
X171043109Y-97752352D01*
X171057461Y-97787000D01*
X171054711Y-97803183D01*
X171019853Y-97902800D01*
X171019853Y-97902801D01*
X171017000Y-97933224D01*
X171017000Y-98741775D01*
X171019853Y-98772198D01*
X171019853Y-98772199D01*
X171055725Y-98874717D01*
X171053622Y-98912161D01*
X171044123Y-98925548D01*
X159159525Y-110810148D01*
X159124877Y-110824500D01*
X146157144Y-110824500D01*
X146074362Y-110846681D01*
X146074359Y-110846682D01*
X146000137Y-110889535D01*
X146000136Y-110889536D01*
X145494467Y-111395204D01*
X145459819Y-111409556D01*
X145432596Y-111401298D01*
X145379178Y-111365605D01*
X145233498Y-111305263D01*
X145233487Y-111305260D01*
X145078847Y-111274500D01*
X145078842Y-111274500D01*
X144921158Y-111274500D01*
X144921152Y-111274500D01*
X144766512Y-111305260D01*
X144766501Y-111305263D01*
X144620824Y-111365604D01*
X144489711Y-111453210D01*
X144378210Y-111564711D01*
X144290604Y-111695824D01*
X144230263Y-111841501D01*
X144230260Y-111841512D01*
X144199500Y-111996152D01*
X144199500Y-112703847D01*
X144230260Y-112858487D01*
X144230263Y-112858498D01*
X144290604Y-113004175D01*
X144290606Y-113004179D01*
X144378211Y-113135289D01*
X144489711Y-113246789D01*
X144620821Y-113334394D01*
X144766503Y-113394737D01*
X144766509Y-113394738D01*
X144766512Y-113394739D01*
X144921152Y-113425499D01*
X144921158Y-113425500D01*
X145078842Y-113425500D01*
X145233497Y-113394737D01*
X145379179Y-113334394D01*
X145510289Y-113246789D01*
X145621789Y-113135289D01*
X145709394Y-113004179D01*
X145769737Y-112858497D01*
X145800500Y-112703842D01*
X145800500Y-112030123D01*
X145814852Y-111995475D01*
X145968826Y-111841501D01*
X146293426Y-111516900D01*
X146328073Y-111502549D01*
X146362721Y-111516901D01*
X146377073Y-111551549D01*
X146368815Y-111578772D01*
X146290604Y-111695824D01*
X146230263Y-111841501D01*
X146230260Y-111841512D01*
X146199500Y-111996152D01*
X146199500Y-112703847D01*
X146230260Y-112858487D01*
X146230263Y-112858498D01*
X146290604Y-113004175D01*
X146290606Y-113004179D01*
X146378211Y-113135289D01*
X146489711Y-113246789D01*
X146620821Y-113334394D01*
X146766503Y-113394737D01*
X146766509Y-113394738D01*
X146766512Y-113394739D01*
X146921152Y-113425499D01*
X146921158Y-113425500D01*
X147078842Y-113425500D01*
X147233497Y-113394737D01*
X147379179Y-113334394D01*
X147510289Y-113246789D01*
X147621789Y-113135289D01*
X147709394Y-113004179D01*
X147769737Y-112858497D01*
X147800500Y-112703842D01*
X147800500Y-111996158D01*
X147769737Y-111841503D01*
X147709394Y-111695821D01*
X147621789Y-111564711D01*
X147616226Y-111559148D01*
X147601874Y-111524500D01*
X147616226Y-111489852D01*
X147650874Y-111475500D01*
X148190961Y-111475500D01*
X148225609Y-111489852D01*
X148239961Y-111524500D01*
X148237211Y-111540683D01*
X148202353Y-111640300D01*
X148202353Y-111640301D01*
X148199500Y-111670724D01*
X148199500Y-113029275D01*
X148202353Y-113059698D01*
X148202353Y-113059699D01*
X148247204Y-113187876D01*
X148247208Y-113187885D01*
X148327849Y-113297150D01*
X148437114Y-113377791D01*
X148437117Y-113377792D01*
X148437118Y-113377793D01*
X148437120Y-113377793D01*
X148437123Y-113377795D01*
X148565301Y-113422646D01*
X148595734Y-113425500D01*
X148595744Y-113425500D01*
X149404256Y-113425500D01*
X149404266Y-113425500D01*
X149434699Y-113422646D01*
X149562882Y-113377793D01*
X149672150Y-113297150D01*
X149709318Y-113246789D01*
X149752791Y-113187885D01*
X149752791Y-113187884D01*
X149752793Y-113187882D01*
X149797646Y-113059699D01*
X149800500Y-113029266D01*
X149800500Y-111670734D01*
X149797646Y-111640301D01*
X149797646Y-111640300D01*
X149762789Y-111540683D01*
X149764892Y-111503240D01*
X149792856Y-111478250D01*
X149809039Y-111475500D01*
X159322856Y-111475500D01*
X159322856Y-111475499D01*
X159405639Y-111453318D01*
X159479862Y-111410465D01*
X171110926Y-99779400D01*
X171145573Y-99765049D01*
X171180221Y-99779401D01*
X171194573Y-99814049D01*
X171186315Y-99841272D01*
X171108104Y-99958324D01*
X171047763Y-100104001D01*
X171047760Y-100104012D01*
X171017000Y-100258652D01*
X171017000Y-100416347D01*
X171047760Y-100570987D01*
X171047763Y-100570997D01*
X171108106Y-100716679D01*
X171157960Y-100791291D01*
X171165276Y-100828072D01*
X171151866Y-100853161D01*
X159905489Y-112099540D01*
X159719881Y-112285148D01*
X159685233Y-112299500D01*
X152058228Y-112299500D01*
X151981804Y-112319978D01*
X151981800Y-112319979D01*
X151930671Y-112349500D01*
X151926323Y-112352010D01*
X151913284Y-112359537D01*
X151913278Y-112359542D01*
X150587673Y-113685148D01*
X150553025Y-113699500D01*
X137794767Y-113699500D01*
X137760119Y-113685148D01*
X136814852Y-112739881D01*
X136800500Y-112705233D01*
X136800500Y-111996158D01*
X136800499Y-111996152D01*
X137199500Y-111996152D01*
X137199500Y-112703847D01*
X137230260Y-112858487D01*
X137230263Y-112858498D01*
X137290604Y-113004175D01*
X137290606Y-113004179D01*
X137378211Y-113135289D01*
X137489711Y-113246789D01*
X137620821Y-113334394D01*
X137766503Y-113394737D01*
X137766509Y-113394738D01*
X137766512Y-113394739D01*
X137921152Y-113425499D01*
X137921158Y-113425500D01*
X138078842Y-113425500D01*
X138233497Y-113394737D01*
X138379179Y-113334394D01*
X138510289Y-113246789D01*
X138621789Y-113135289D01*
X138709394Y-113004179D01*
X138769737Y-112858497D01*
X138800500Y-112703842D01*
X138800500Y-111996158D01*
X138769737Y-111841503D01*
X138709394Y-111695821D01*
X138692625Y-111670724D01*
X139199500Y-111670724D01*
X139199500Y-113029275D01*
X139202353Y-113059698D01*
X139202353Y-113059699D01*
X139247204Y-113187876D01*
X139247208Y-113187885D01*
X139327849Y-113297150D01*
X139437114Y-113377791D01*
X139437117Y-113377792D01*
X139437118Y-113377793D01*
X139437120Y-113377793D01*
X139437123Y-113377795D01*
X139565301Y-113422646D01*
X139595734Y-113425500D01*
X139595744Y-113425500D01*
X140404256Y-113425500D01*
X140404266Y-113425500D01*
X140434699Y-113422646D01*
X140562882Y-113377793D01*
X140672150Y-113297150D01*
X140709318Y-113246789D01*
X140752791Y-113187885D01*
X140752791Y-113187884D01*
X140752793Y-113187882D01*
X140797646Y-113059699D01*
X140800500Y-113029266D01*
X140800500Y-111670734D01*
X140797646Y-111640301D01*
X140772957Y-111569745D01*
X140752795Y-111512123D01*
X140752791Y-111512114D01*
X140672150Y-111402849D01*
X140562885Y-111322208D01*
X140562876Y-111322204D01*
X140434698Y-111277353D01*
X140404275Y-111274500D01*
X140404266Y-111274500D01*
X139595734Y-111274500D01*
X139595724Y-111274500D01*
X139565301Y-111277353D01*
X139565300Y-111277353D01*
X139437123Y-111322204D01*
X139437114Y-111322208D01*
X139327849Y-111402849D01*
X139247208Y-111512114D01*
X139247204Y-111512123D01*
X139202353Y-111640300D01*
X139202353Y-111640301D01*
X139199500Y-111670724D01*
X138692625Y-111670724D01*
X138621789Y-111564711D01*
X138510289Y-111453211D01*
X138379179Y-111365606D01*
X138379176Y-111365604D01*
X138379175Y-111365604D01*
X138233498Y-111305263D01*
X138233487Y-111305260D01*
X138078847Y-111274500D01*
X138078842Y-111274500D01*
X137921158Y-111274500D01*
X137921152Y-111274500D01*
X137766512Y-111305260D01*
X137766501Y-111305263D01*
X137620824Y-111365604D01*
X137489711Y-111453210D01*
X137378210Y-111564711D01*
X137290604Y-111695824D01*
X137230263Y-111841501D01*
X137230260Y-111841512D01*
X137199500Y-111996152D01*
X136800499Y-111996152D01*
X136769739Y-111841512D01*
X136769736Y-111841501D01*
X136709395Y-111695824D01*
X136709394Y-111695821D01*
X136621789Y-111564711D01*
X136510289Y-111453211D01*
X136379179Y-111365606D01*
X136379176Y-111365604D01*
X136379175Y-111365604D01*
X136233498Y-111305263D01*
X136233487Y-111305260D01*
X136078847Y-111274500D01*
X136078842Y-111274500D01*
X135921158Y-111274500D01*
X135921152Y-111274500D01*
X135766512Y-111305260D01*
X135766501Y-111305263D01*
X135620824Y-111365604D01*
X135489711Y-111453210D01*
X135378210Y-111564711D01*
X135290604Y-111695824D01*
X135230263Y-111841501D01*
X135230260Y-111841512D01*
X135199500Y-111996152D01*
X132600500Y-111996152D01*
X132600500Y-106341276D01*
X135150000Y-106341276D01*
X135150000Y-106450000D01*
X135719670Y-106450000D01*
X135699925Y-106469745D01*
X135650556Y-106555255D01*
X135625000Y-106650630D01*
X135625000Y-106749370D01*
X135650556Y-106844745D01*
X135699925Y-106930255D01*
X135719670Y-106950000D01*
X135150000Y-106950000D01*
X135150000Y-107058723D01*
X135182662Y-107222924D01*
X135182666Y-107222939D01*
X135246739Y-107377624D01*
X135339761Y-107516843D01*
X135458156Y-107635238D01*
X135597375Y-107728260D01*
X135750000Y-107791479D01*
X135750000Y-106980330D01*
X135769745Y-107000075D01*
X135855255Y-107049444D01*
X135950630Y-107075000D01*
X136049370Y-107075000D01*
X136144745Y-107049444D01*
X136230255Y-107000075D01*
X136250000Y-106980330D01*
X136250000Y-107791479D01*
X136402624Y-107728260D01*
X136541843Y-107635238D01*
X136660238Y-107516843D01*
X136753260Y-107377624D01*
X136817333Y-107222939D01*
X136817337Y-107222924D01*
X136849999Y-107058723D01*
X136850000Y-107058716D01*
X136850000Y-106950000D01*
X136280330Y-106950000D01*
X136300075Y-106930255D01*
X136349444Y-106844745D01*
X136375000Y-106749370D01*
X136375000Y-106650630D01*
X136349444Y-106555255D01*
X136300075Y-106469745D01*
X136280330Y-106450000D01*
X136850000Y-106450000D01*
X136850000Y-106346152D01*
X137199500Y-106346152D01*
X137199500Y-107053847D01*
X137230260Y-107208487D01*
X137230263Y-107208498D01*
X137236245Y-107222939D01*
X137290606Y-107354179D01*
X137378211Y-107485289D01*
X137489711Y-107596789D01*
X137620821Y-107684394D01*
X137766503Y-107744737D01*
X137766509Y-107744738D01*
X137766512Y-107744739D01*
X137921152Y-107775499D01*
X137921158Y-107775500D01*
X138078842Y-107775500D01*
X138233497Y-107744737D01*
X138379179Y-107684394D01*
X138510289Y-107596789D01*
X138621789Y-107485289D01*
X138709394Y-107354179D01*
X138769737Y-107208497D01*
X138800500Y-107053842D01*
X138800500Y-106346158D01*
X138796902Y-106328069D01*
X138769739Y-106191512D01*
X138769736Y-106191501D01*
X138763761Y-106177075D01*
X138709394Y-106045821D01*
X138692625Y-106020724D01*
X139199500Y-106020724D01*
X139199500Y-107379275D01*
X139202353Y-107409698D01*
X139202353Y-107409699D01*
X139247204Y-107537876D01*
X139247208Y-107537885D01*
X139327849Y-107647150D01*
X139437114Y-107727791D01*
X139437117Y-107727792D01*
X139437118Y-107727793D01*
X139437120Y-107727793D01*
X139437123Y-107727795D01*
X139485538Y-107744736D01*
X139565301Y-107772646D01*
X139595734Y-107775500D01*
X139595744Y-107775500D01*
X140404256Y-107775500D01*
X140404266Y-107775500D01*
X140434699Y-107772646D01*
X140562882Y-107727793D01*
X140672150Y-107647150D01*
X140752793Y-107537882D01*
X140797646Y-107409699D01*
X140800500Y-107379266D01*
X140800500Y-106020734D01*
X140797646Y-105990301D01*
X140763677Y-105893224D01*
X140752795Y-105862123D01*
X140752791Y-105862114D01*
X140672150Y-105752849D01*
X140562885Y-105672208D01*
X140562876Y-105672204D01*
X140434698Y-105627353D01*
X140404275Y-105624500D01*
X140404266Y-105624500D01*
X139595734Y-105624500D01*
X139595724Y-105624500D01*
X139565301Y-105627353D01*
X139565300Y-105627353D01*
X139437123Y-105672204D01*
X139437114Y-105672208D01*
X139327849Y-105752849D01*
X139247208Y-105862114D01*
X139247204Y-105862123D01*
X139202353Y-105990300D01*
X139202353Y-105990301D01*
X139199500Y-106020724D01*
X138692625Y-106020724D01*
X138621789Y-105914711D01*
X138510289Y-105803211D01*
X138505483Y-105800000D01*
X138453791Y-105765460D01*
X138379179Y-105715606D01*
X138379176Y-105715604D01*
X138379175Y-105715604D01*
X138233498Y-105655263D01*
X138233487Y-105655260D01*
X138078847Y-105624500D01*
X138078842Y-105624500D01*
X137921158Y-105624500D01*
X137921152Y-105624500D01*
X137766512Y-105655260D01*
X137766501Y-105655263D01*
X137620824Y-105715604D01*
X137489711Y-105803210D01*
X137378210Y-105914711D01*
X137290604Y-106045824D01*
X137230263Y-106191501D01*
X137230260Y-106191512D01*
X137199500Y-106346152D01*
X136850000Y-106346152D01*
X136850000Y-106341283D01*
X136849999Y-106341276D01*
X136817337Y-106177075D01*
X136817333Y-106177060D01*
X136753260Y-106022375D01*
X136660238Y-105883156D01*
X136541843Y-105764761D01*
X136402622Y-105671738D01*
X136250000Y-105608519D01*
X136250000Y-106419670D01*
X136230255Y-106399925D01*
X136144745Y-106350556D01*
X136049370Y-106325000D01*
X135950630Y-106325000D01*
X135855255Y-106350556D01*
X135769745Y-106399925D01*
X135750000Y-106419670D01*
X135750000Y-105608519D01*
X135597377Y-105671738D01*
X135458156Y-105764761D01*
X135339761Y-105883156D01*
X135246739Y-106022375D01*
X135182666Y-106177060D01*
X135182662Y-106177075D01*
X135150000Y-106341276D01*
X132600500Y-106341276D01*
X132600500Y-106208476D01*
X132600557Y-106206104D01*
X132603369Y-106148084D01*
X132582161Y-106017044D01*
X132534312Y-105893224D01*
X132461889Y-105781976D01*
X132368024Y-105688111D01*
X132368023Y-105688110D01*
X132256778Y-105615689D01*
X132256777Y-105615688D01*
X132256776Y-105615688D01*
X132198907Y-105593325D01*
X132132955Y-105567838D01*
X132011153Y-105548126D01*
X132001916Y-105546631D01*
X132001915Y-105546631D01*
X131943895Y-105549443D01*
X131941523Y-105549500D01*
X129641679Y-105549500D01*
X129630157Y-105548126D01*
X129627104Y-105547387D01*
X129624408Y-105546735D01*
X129624407Y-105546735D01*
X129594935Y-105549001D01*
X129590331Y-105549356D01*
X129586574Y-105549500D01*
X129560438Y-105549500D01*
X129553542Y-105551347D01*
X129544624Y-105552871D01*
X129528093Y-105554143D01*
X129492446Y-105542491D01*
X129475478Y-105509046D01*
X129487130Y-105473399D01*
X129489673Y-105470652D01*
X141860465Y-93099862D01*
X141903318Y-93025639D01*
X141925499Y-92942856D01*
X141925500Y-92942856D01*
X141925500Y-91531312D01*
X141939852Y-91496664D01*
X141944655Y-91492450D01*
X142028282Y-91428282D01*
X142124536Y-91302841D01*
X142185044Y-91156762D01*
X142205682Y-91000000D01*
X142185044Y-90843238D01*
X142124536Y-90697159D01*
X142028282Y-90571718D01*
X141902841Y-90475464D01*
X141902836Y-90475461D01*
X141756761Y-90414955D01*
X141600000Y-90394318D01*
X141443238Y-90414955D01*
X141297163Y-90475461D01*
X141297158Y-90475464D01*
X141171718Y-90571717D01*
X141171717Y-90571718D01*
X141075464Y-90697158D01*
X141075463Y-90697160D01*
X141019770Y-90831616D01*
X140993251Y-90858134D01*
X140955748Y-90858134D01*
X140929230Y-90831615D01*
X140925500Y-90812864D01*
X140925500Y-88351747D01*
X140939852Y-88317099D01*
X140974500Y-88302747D01*
X140980884Y-88303165D01*
X141000000Y-88305682D01*
X141156762Y-88285044D01*
X141302841Y-88224536D01*
X141428282Y-88128282D01*
X141524536Y-88002841D01*
X141585044Y-87856762D01*
X141605682Y-87700000D01*
X141585044Y-87543238D01*
X141555048Y-87470821D01*
X141524538Y-87397163D01*
X141524535Y-87397158D01*
X141509591Y-87377683D01*
X141428282Y-87271718D01*
X141371582Y-87228211D01*
X141302841Y-87175464D01*
X141302836Y-87175461D01*
X141156761Y-87114955D01*
X141020637Y-87097034D01*
X141000000Y-87094318D01*
X140999999Y-87094318D01*
X140919720Y-87104886D01*
X140883495Y-87095179D01*
X140864744Y-87062700D01*
X140870889Y-87031806D01*
X140903318Y-86975639D01*
X140925499Y-86892856D01*
X140925500Y-86892856D01*
X140925500Y-86631312D01*
X140939852Y-86596664D01*
X140944655Y-86592450D01*
X141028282Y-86528282D01*
X141124536Y-86402841D01*
X141185044Y-86256762D01*
X141205682Y-86100000D01*
X141185044Y-85943238D01*
X141125920Y-85800500D01*
X141124538Y-85797163D01*
X141124537Y-85797162D01*
X141124536Y-85797159D01*
X141110853Y-85779327D01*
X141101147Y-85743105D01*
X141119898Y-85710626D01*
X141149728Y-85700500D01*
X141557813Y-85700500D01*
X141571084Y-85703141D01*
X141571260Y-85702487D01*
X141657143Y-85725499D01*
X141657144Y-85725500D01*
X141657147Y-85725500D01*
X141742853Y-85725500D01*
X149044877Y-85725500D01*
X149079525Y-85739852D01*
X150760148Y-87420474D01*
X150774500Y-87455122D01*
X150774500Y-90493085D01*
X150762532Y-90525173D01*
X150674625Y-90626623D01*
X150674624Y-90626625D01*
X150614833Y-90757545D01*
X150594353Y-90899997D01*
X150594353Y-90900002D01*
X150614833Y-91042454D01*
X150646935Y-91112746D01*
X150674623Y-91173373D01*
X150674624Y-91173374D01*
X150674625Y-91173376D01*
X150768871Y-91282142D01*
X150768872Y-91282143D01*
X150889947Y-91359953D01*
X150966785Y-91382514D01*
X151028034Y-91400499D01*
X151028037Y-91400499D01*
X151028039Y-91400500D01*
X151028040Y-91400500D01*
X151171960Y-91400500D01*
X151171961Y-91400500D01*
X151171963Y-91400499D01*
X151171965Y-91400499D01*
X151194795Y-91393795D01*
X151310053Y-91359953D01*
X151431128Y-91282143D01*
X151525377Y-91173373D01*
X151585165Y-91042457D01*
X151585165Y-91042455D01*
X151585166Y-91042454D01*
X151605647Y-90900002D01*
X151605647Y-90899997D01*
X151585166Y-90757545D01*
X151580751Y-90747879D01*
X151525377Y-90626627D01*
X151525374Y-90626623D01*
X151437468Y-90525173D01*
X151425500Y-90493085D01*
X151425500Y-87346809D01*
X151425501Y-87346796D01*
X151425501Y-87257145D01*
X151410712Y-87201956D01*
X151403318Y-87174361D01*
X151403317Y-87174360D01*
X151403317Y-87174358D01*
X151369020Y-87114956D01*
X151369019Y-87114955D01*
X151363206Y-87104886D01*
X151360465Y-87100138D01*
X151299862Y-87039535D01*
X151298156Y-87037829D01*
X151298145Y-87037819D01*
X150760325Y-86499999D01*
X163644417Y-86499999D01*
X163644417Y-86500000D01*
X163664700Y-86705934D01*
X163664700Y-86705935D01*
X163671856Y-86729525D01*
X163724768Y-86903954D01*
X163822315Y-87086450D01*
X163953590Y-87246410D01*
X164113550Y-87377685D01*
X164296046Y-87475232D01*
X164494066Y-87535300D01*
X164700000Y-87555583D01*
X164905934Y-87535300D01*
X165103954Y-87475232D01*
X165286450Y-87377685D01*
X165446410Y-87246410D01*
X165577685Y-87086450D01*
X165675232Y-86903954D01*
X165735300Y-86705934D01*
X165755583Y-86500000D01*
X165735300Y-86294066D01*
X165675232Y-86096046D01*
X165577685Y-85913550D01*
X165446410Y-85753590D01*
X165286450Y-85622315D01*
X165103954Y-85524768D01*
X164905934Y-85464700D01*
X164700000Y-85444417D01*
X164494065Y-85464700D01*
X164494064Y-85464700D01*
X164296043Y-85524769D01*
X164113548Y-85622316D01*
X163953590Y-85753590D01*
X163822316Y-85913548D01*
X163724769Y-86096043D01*
X163664700Y-86294064D01*
X163664700Y-86294065D01*
X163644417Y-86499999D01*
X150760325Y-86499999D01*
X149399862Y-85139535D01*
X149325640Y-85096682D01*
X149325637Y-85096681D01*
X149242856Y-85074500D01*
X149242853Y-85074500D01*
X141817188Y-85074500D01*
X141803916Y-85071858D01*
X141803741Y-85072513D01*
X141717856Y-85049500D01*
X141717853Y-85049500D01*
X137667853Y-85049500D01*
X137582147Y-85049500D01*
X137582144Y-85049500D01*
X137499362Y-85071681D01*
X137499358Y-85071682D01*
X137462250Y-85093108D01*
X137425143Y-85114531D01*
X137425134Y-85114538D01*
X135554525Y-86985148D01*
X135519877Y-86999500D01*
X135428034Y-86999500D01*
X135289949Y-87040046D01*
X135168871Y-87117857D01*
X135074625Y-87226623D01*
X135074624Y-87226625D01*
X135014833Y-87357545D01*
X134994353Y-87499997D01*
X134994353Y-87500002D01*
X135014833Y-87642454D01*
X135041114Y-87699999D01*
X135074623Y-87773373D01*
X135074624Y-87773374D01*
X135074625Y-87773376D01*
X135146879Y-87856762D01*
X135168872Y-87882143D01*
X135289947Y-87959953D01*
X135360245Y-87980594D01*
X135428034Y-88000499D01*
X135428037Y-88000499D01*
X135428039Y-88000500D01*
X135428040Y-88000500D01*
X135571960Y-88000500D01*
X135571961Y-88000500D01*
X135571963Y-88000499D01*
X135571965Y-88000499D01*
X135594795Y-87993795D01*
X135710053Y-87959953D01*
X135831128Y-87882143D01*
X135925377Y-87773373D01*
X135985165Y-87642457D01*
X135985165Y-87642455D01*
X135985166Y-87642454D01*
X136005647Y-87500002D01*
X136005647Y-87500000D01*
X136005647Y-87499997D01*
X136003440Y-87484653D01*
X136012713Y-87448317D01*
X136017286Y-87443039D01*
X137745474Y-85714852D01*
X137780122Y-85700500D01*
X140050272Y-85700500D01*
X140084920Y-85714852D01*
X140099272Y-85749500D01*
X140089147Y-85779326D01*
X140075464Y-85797159D01*
X140075462Y-85797162D01*
X140075461Y-85797163D01*
X140014955Y-85943238D01*
X139994318Y-86100000D01*
X140014955Y-86256761D01*
X140075461Y-86402836D01*
X140075464Y-86402841D01*
X140171718Y-86528282D01*
X140255330Y-86592439D01*
X140274081Y-86624916D01*
X140274500Y-86631312D01*
X140274500Y-86694877D01*
X140260148Y-86729525D01*
X117409536Y-109580137D01*
X117409535Y-109580137D01*
X117366682Y-109654359D01*
X117365013Y-109660591D01*
X117365012Y-109660590D01*
X117365012Y-109660594D01*
X117344500Y-109737144D01*
X117344500Y-110893750D01*
X117330148Y-110928398D01*
X117322723Y-110934492D01*
X117237348Y-110991538D01*
X117200566Y-110998854D01*
X117169383Y-110978019D01*
X117162066Y-110960355D01*
X117160494Y-110952454D01*
X117105240Y-110869759D01*
X117022542Y-110814503D01*
X116949629Y-110800000D01*
X116650000Y-110800000D01*
X116650000Y-111519670D01*
X116630255Y-111499925D01*
X116544745Y-111450556D01*
X116449370Y-111425000D01*
X116350630Y-111425000D01*
X116255255Y-111450556D01*
X116169745Y-111499925D01*
X116150000Y-111519670D01*
X116150000Y-110800000D01*
X115850370Y-110800000D01*
X115777457Y-110814503D01*
X115694759Y-110869759D01*
X115639503Y-110952457D01*
X115625000Y-111025370D01*
X103496774Y-111025370D01*
X103489937Y-105015000D01*
X104873520Y-105015000D01*
X105573012Y-105015000D01*
X105555795Y-105024940D01*
X105499940Y-105080795D01*
X105460444Y-105149204D01*
X105440000Y-105225504D01*
X105440000Y-105304496D01*
X105460444Y-105380796D01*
X105499940Y-105449205D01*
X105555795Y-105505060D01*
X105573012Y-105515000D01*
X104873520Y-105515000D01*
X104936739Y-105667624D01*
X105029761Y-105806843D01*
X105148156Y-105925238D01*
X105287375Y-106018260D01*
X105442060Y-106082333D01*
X105442075Y-106082337D01*
X105606276Y-106114999D01*
X105606283Y-106115000D01*
X105840000Y-106115000D01*
X105840000Y-105565000D01*
X106340000Y-105565000D01*
X106340000Y-106115000D01*
X106573717Y-106115000D01*
X106573723Y-106114999D01*
X106737924Y-106082337D01*
X106737939Y-106082333D01*
X106892624Y-106018260D01*
X107031843Y-105925238D01*
X107150238Y-105806843D01*
X107243260Y-105667624D01*
X107306480Y-105515000D01*
X106606988Y-105515000D01*
X106624205Y-105505060D01*
X106680060Y-105449205D01*
X106719556Y-105380796D01*
X106740000Y-105304496D01*
X106740000Y-105225504D01*
X106719556Y-105149204D01*
X106680060Y-105080795D01*
X106624205Y-105024940D01*
X106606988Y-105015000D01*
X107306479Y-105015000D01*
X108923520Y-105015000D01*
X109573012Y-105015000D01*
X109555795Y-105024940D01*
X109499940Y-105080795D01*
X109460444Y-105149204D01*
X109440000Y-105225504D01*
X109440000Y-105304496D01*
X109460444Y-105380796D01*
X109499940Y-105449205D01*
X109555795Y-105505060D01*
X109573012Y-105515000D01*
X108923520Y-105515000D01*
X108986739Y-105667624D01*
X109079761Y-105806843D01*
X109198156Y-105925238D01*
X109337375Y-106018260D01*
X109492060Y-106082333D01*
X109492075Y-106082337D01*
X109656276Y-106114999D01*
X109656283Y-106115000D01*
X110040000Y-106115000D01*
X110040000Y-105565000D01*
X110540000Y-105565000D01*
X110540000Y-106115000D01*
X110923717Y-106115000D01*
X110923723Y-106114999D01*
X111087924Y-106082337D01*
X111087939Y-106082333D01*
X111242624Y-106018260D01*
X111381843Y-105925238D01*
X111500238Y-105806843D01*
X111593260Y-105667624D01*
X111656480Y-105515000D01*
X111006988Y-105515000D01*
X111024205Y-105505060D01*
X111080060Y-105449205D01*
X111119556Y-105380796D01*
X111140000Y-105304496D01*
X111140000Y-105225504D01*
X111119556Y-105149204D01*
X111080060Y-105080795D01*
X111024205Y-105024940D01*
X111006988Y-105015000D01*
X111656479Y-105015000D01*
X111593260Y-104862375D01*
X111500238Y-104723156D01*
X111381843Y-104604761D01*
X111242624Y-104511739D01*
X111087939Y-104447666D01*
X111087924Y-104447662D01*
X110923723Y-104415000D01*
X110540000Y-104415000D01*
X110540000Y-104965000D01*
X110040000Y-104965000D01*
X110040000Y-104415000D01*
X110025766Y-104400766D01*
X110011414Y-104366118D01*
X110025766Y-104331470D01*
X110035910Y-104323685D01*
X110128015Y-104270509D01*
X110230509Y-104168015D01*
X110302984Y-104042485D01*
X110324416Y-103962500D01*
X110340500Y-103902477D01*
X110340500Y-103757522D01*
X110302984Y-103617516D01*
X110302983Y-103617512D01*
X110230508Y-103491984D01*
X110128015Y-103389491D01*
X110002487Y-103317016D01*
X110002483Y-103317015D01*
X109862478Y-103279500D01*
X109862475Y-103279500D01*
X109717525Y-103279500D01*
X109717522Y-103279500D01*
X109577516Y-103317015D01*
X109577512Y-103317016D01*
X109451984Y-103389491D01*
X109451984Y-103389492D01*
X109349492Y-103491984D01*
X109349491Y-103491984D01*
X109277016Y-103617512D01*
X109277015Y-103617516D01*
X109239500Y-103757522D01*
X109239500Y-103902477D01*
X109277015Y-104042483D01*
X109277016Y-104042487D01*
X109314405Y-104107245D01*
X109349491Y-104168015D01*
X109451985Y-104270509D01*
X109544085Y-104323683D01*
X109577723Y-104343104D01*
X109600553Y-104372857D01*
X109595658Y-104410039D01*
X109565905Y-104432869D01*
X109562783Y-104433597D01*
X109492074Y-104447662D01*
X109492060Y-104447666D01*
X109337375Y-104511739D01*
X109198156Y-104604761D01*
X109079761Y-104723156D01*
X108986739Y-104862375D01*
X108923520Y-105015000D01*
X107306479Y-105015000D01*
X107243260Y-104862375D01*
X107150238Y-104723156D01*
X107031843Y-104604761D01*
X106892624Y-104511739D01*
X106737939Y-104447666D01*
X106737924Y-104447662D01*
X106573723Y-104415000D01*
X106340000Y-104415000D01*
X106340000Y-104965000D01*
X105840000Y-104965000D01*
X105840000Y-104415000D01*
X105606276Y-104415000D01*
X105442075Y-104447662D01*
X105442060Y-104447666D01*
X105287375Y-104511739D01*
X105148156Y-104604761D01*
X105029761Y-104723156D01*
X104936739Y-104862375D01*
X104873520Y-105015000D01*
X103489937Y-105015000D01*
X103484914Y-100599997D01*
X109044867Y-100599997D01*
X109044867Y-100600002D01*
X109063301Y-100728223D01*
X109107374Y-100824727D01*
X109117118Y-100846063D01*
X109187532Y-100927326D01*
X109199500Y-100959413D01*
X109199500Y-101380085D01*
X109187532Y-101412173D01*
X109117119Y-101493436D01*
X109117118Y-101493436D01*
X109063301Y-101611276D01*
X109044867Y-101739497D01*
X109044867Y-101739502D01*
X109063301Y-101867723D01*
X109104677Y-101958321D01*
X109117118Y-101985563D01*
X109201951Y-102083467D01*
X109310931Y-102153504D01*
X109380093Y-102173811D01*
X109435223Y-102189999D01*
X109435228Y-102190000D01*
X109564772Y-102190000D01*
X109564776Y-102189999D01*
X109585324Y-102183965D01*
X109689069Y-102153504D01*
X109798049Y-102083467D01*
X109882882Y-101985563D01*
X109936697Y-101867726D01*
X109936697Y-101867724D01*
X109936698Y-101867723D01*
X109955133Y-101739502D01*
X109955133Y-101739497D01*
X109936698Y-101611276D01*
X109916826Y-101567763D01*
X109882882Y-101493437D01*
X109812468Y-101412173D01*
X109800500Y-101380085D01*
X109800500Y-100959413D01*
X109812467Y-100927326D01*
X109882882Y-100846063D01*
X109936697Y-100728226D01*
X109936697Y-100728224D01*
X109936698Y-100728223D01*
X109955133Y-100600002D01*
X109955133Y-100599997D01*
X109936698Y-100471776D01*
X109911382Y-100416342D01*
X109882882Y-100353937D01*
X109798049Y-100256033D01*
X109689069Y-100185996D01*
X109689066Y-100185995D01*
X109564776Y-100149500D01*
X109564772Y-100149500D01*
X109435228Y-100149500D01*
X109435223Y-100149500D01*
X109310933Y-100185995D01*
X109201950Y-100256033D01*
X109117119Y-100353936D01*
X109117118Y-100353936D01*
X109063301Y-100471776D01*
X109044867Y-100599997D01*
X103484914Y-100599997D01*
X103480096Y-96365000D01*
X104873520Y-96365000D01*
X105573012Y-96365000D01*
X105555795Y-96374940D01*
X105499940Y-96430795D01*
X105460444Y-96499204D01*
X105440000Y-96575504D01*
X105440000Y-96654496D01*
X105460444Y-96730796D01*
X105499940Y-96799205D01*
X105555795Y-96855060D01*
X105573012Y-96865000D01*
X104873520Y-96865000D01*
X104936739Y-97017624D01*
X105029761Y-97156843D01*
X105148156Y-97275238D01*
X105287375Y-97368260D01*
X105442060Y-97432333D01*
X105442075Y-97432337D01*
X105606276Y-97464999D01*
X105606283Y-97465000D01*
X105840000Y-97465000D01*
X105840000Y-96915000D01*
X106340000Y-96915000D01*
X106340000Y-97465000D01*
X106573717Y-97465000D01*
X106573723Y-97464999D01*
X106737924Y-97432337D01*
X106737939Y-97432333D01*
X106892624Y-97368260D01*
X107031843Y-97275238D01*
X107150238Y-97156843D01*
X107243260Y-97017624D01*
X107306480Y-96865000D01*
X106606988Y-96865000D01*
X106624205Y-96855060D01*
X106680060Y-96799205D01*
X106719556Y-96730796D01*
X106740000Y-96654496D01*
X106740000Y-96575504D01*
X106719556Y-96499204D01*
X106680060Y-96430795D01*
X106624205Y-96374940D01*
X106606988Y-96365000D01*
X107306479Y-96365000D01*
X108923520Y-96365000D01*
X109573012Y-96365000D01*
X109555795Y-96374940D01*
X109499940Y-96430795D01*
X109460444Y-96499204D01*
X109440000Y-96575504D01*
X109440000Y-96654496D01*
X109460444Y-96730796D01*
X109499940Y-96799205D01*
X109555795Y-96855060D01*
X109573012Y-96865000D01*
X108923520Y-96865000D01*
X108986739Y-97017624D01*
X109079761Y-97156843D01*
X109198156Y-97275238D01*
X109337375Y-97368260D01*
X109492060Y-97432333D01*
X109492066Y-97432335D01*
X109562782Y-97446401D01*
X109593965Y-97467237D01*
X109601282Y-97504019D01*
X109580446Y-97535202D01*
X109577723Y-97536895D01*
X109451984Y-97609491D01*
X109451984Y-97609492D01*
X109349492Y-97711984D01*
X109349491Y-97711984D01*
X109277016Y-97837512D01*
X109277015Y-97837516D01*
X109239500Y-97977522D01*
X109239500Y-98122477D01*
X109277015Y-98262483D01*
X109277016Y-98262487D01*
X109349491Y-98388015D01*
X109451985Y-98490509D01*
X109497930Y-98517035D01*
X109577512Y-98562983D01*
X109577514Y-98562983D01*
X109577515Y-98562984D01*
X109612517Y-98572363D01*
X109717522Y-98600500D01*
X109717525Y-98600500D01*
X109862477Y-98600500D01*
X109932480Y-98581742D01*
X110002485Y-98562984D01*
X110128015Y-98490509D01*
X110230509Y-98388015D01*
X110302984Y-98262485D01*
X110321742Y-98192480D01*
X110340500Y-98122477D01*
X110340500Y-97977522D01*
X110302984Y-97837516D01*
X110302983Y-97837512D01*
X110230508Y-97711984D01*
X110128015Y-97609491D01*
X110035914Y-97556316D01*
X110013084Y-97526563D01*
X110017979Y-97489381D01*
X110025766Y-97479232D01*
X110040000Y-97464998D01*
X110040000Y-96915000D01*
X110540000Y-96915000D01*
X110540000Y-97465000D01*
X110923717Y-97465000D01*
X110923723Y-97464999D01*
X111087924Y-97432337D01*
X111087939Y-97432333D01*
X111242624Y-97368260D01*
X111381843Y-97275238D01*
X111500238Y-97156843D01*
X111593260Y-97017624D01*
X111656480Y-96865000D01*
X111006988Y-96865000D01*
X111024205Y-96855060D01*
X111080060Y-96799205D01*
X111119556Y-96730796D01*
X111140000Y-96654496D01*
X111140000Y-96575504D01*
X111119556Y-96499204D01*
X111080060Y-96430795D01*
X111024205Y-96374940D01*
X111006988Y-96365000D01*
X111656479Y-96365000D01*
X111593260Y-96212375D01*
X111500238Y-96073156D01*
X111381843Y-95954761D01*
X111242624Y-95861739D01*
X111087939Y-95797666D01*
X111087924Y-95797662D01*
X110923723Y-95765000D01*
X110540000Y-95765000D01*
X110540000Y-96315000D01*
X110040000Y-96315000D01*
X110040000Y-95765000D01*
X109656276Y-95765000D01*
X109492075Y-95797662D01*
X109492060Y-95797666D01*
X109337375Y-95861739D01*
X109198156Y-95954761D01*
X109079761Y-96073156D01*
X108986739Y-96212375D01*
X108923520Y-96365000D01*
X107306479Y-96365000D01*
X107243260Y-96212375D01*
X107150238Y-96073156D01*
X107031843Y-95954761D01*
X106892624Y-95861739D01*
X106737939Y-95797666D01*
X106737924Y-95797662D01*
X106573723Y-95765000D01*
X106340000Y-95765000D01*
X106340000Y-96315000D01*
X105840000Y-96315000D01*
X105840000Y-95765000D01*
X105606276Y-95765000D01*
X105442075Y-95797662D01*
X105442060Y-95797666D01*
X105287375Y-95861739D01*
X105148156Y-95954761D01*
X105029761Y-96073156D01*
X104936739Y-96212375D01*
X104873520Y-96365000D01*
X103480096Y-96365000D01*
X103472231Y-89452165D01*
X106525000Y-89452165D01*
X106525000Y-89600000D01*
X107369670Y-89600000D01*
X107349925Y-89619745D01*
X107300556Y-89705255D01*
X107275000Y-89800630D01*
X107275000Y-89899370D01*
X107300556Y-89994745D01*
X107349925Y-90080255D01*
X107369670Y-90100000D01*
X106525000Y-90100000D01*
X106525000Y-90247834D01*
X106531401Y-90307372D01*
X106531401Y-90307373D01*
X106581648Y-90442091D01*
X106667811Y-90557188D01*
X106782908Y-90643351D01*
X106917626Y-90693598D01*
X106977166Y-90700000D01*
X107400000Y-90700000D01*
X107400000Y-90130330D01*
X107419745Y-90150075D01*
X107505255Y-90199444D01*
X107600630Y-90225000D01*
X107699370Y-90225000D01*
X107794745Y-90199444D01*
X107880255Y-90150075D01*
X107900000Y-90130330D01*
X107900000Y-90700000D01*
X108322834Y-90700000D01*
X108382372Y-90693598D01*
X108382373Y-90693598D01*
X108517091Y-90643351D01*
X108632188Y-90557188D01*
X108718351Y-90442091D01*
X108768598Y-90307373D01*
X108768598Y-90307372D01*
X108775000Y-90247834D01*
X108775000Y-90100000D01*
X107930330Y-90100000D01*
X107950075Y-90080255D01*
X107999444Y-89994745D01*
X108025000Y-89899370D01*
X108025000Y-89800630D01*
X107999444Y-89705255D01*
X107950075Y-89619745D01*
X107930330Y-89600000D01*
X108775000Y-89600000D01*
X108775000Y-89452165D01*
X108768598Y-89392627D01*
X108768598Y-89392626D01*
X108718351Y-89257908D01*
X108632188Y-89142811D01*
X108517091Y-89056648D01*
X108382373Y-89006401D01*
X108322834Y-89000000D01*
X107900000Y-89000000D01*
X107900000Y-89569670D01*
X107880255Y-89549925D01*
X107794745Y-89500556D01*
X107699370Y-89475000D01*
X107600630Y-89475000D01*
X107505255Y-89500556D01*
X107419745Y-89549925D01*
X107400000Y-89569670D01*
X107400000Y-89000000D01*
X106977166Y-89000000D01*
X106917627Y-89006401D01*
X106917626Y-89006401D01*
X106782908Y-89056648D01*
X106667811Y-89142811D01*
X106581648Y-89257908D01*
X106531401Y-89392626D01*
X106531401Y-89392627D01*
X106525000Y-89452165D01*
X103472231Y-89452165D01*
X103470319Y-87771152D01*
X106574500Y-87771152D01*
X106574500Y-87928847D01*
X106605260Y-88083487D01*
X106605263Y-88083498D01*
X106665604Y-88229175D01*
X106665606Y-88229179D01*
X106695912Y-88274535D01*
X106750132Y-88355682D01*
X106753211Y-88360289D01*
X106864711Y-88471789D01*
X106995821Y-88559394D01*
X107141503Y-88619737D01*
X107141509Y-88619738D01*
X107141512Y-88619739D01*
X107296152Y-88650499D01*
X107296158Y-88650500D01*
X108003842Y-88650500D01*
X108158497Y-88619737D01*
X108304179Y-88559394D01*
X108435289Y-88471789D01*
X108546789Y-88360289D01*
X108634394Y-88229179D01*
X108694737Y-88083497D01*
X108709405Y-88009759D01*
X108725499Y-87928847D01*
X108725500Y-87928842D01*
X108725500Y-87771158D01*
X108725499Y-87771152D01*
X108694739Y-87616512D01*
X108694736Y-87616501D01*
X108634394Y-87470821D01*
X108546789Y-87339711D01*
X108435289Y-87228211D01*
X108432918Y-87226627D01*
X108391978Y-87199271D01*
X108304179Y-87140606D01*
X108304176Y-87140604D01*
X108304175Y-87140604D01*
X108158498Y-87080263D01*
X108158487Y-87080260D01*
X108003847Y-87049500D01*
X108003842Y-87049500D01*
X107296158Y-87049500D01*
X107296152Y-87049500D01*
X107141512Y-87080260D01*
X107141501Y-87080263D01*
X106995824Y-87140604D01*
X106864711Y-87228210D01*
X106753210Y-87339711D01*
X106665604Y-87470824D01*
X106605263Y-87616501D01*
X106605260Y-87616512D01*
X106574500Y-87771152D01*
X103470319Y-87771152D01*
X103463585Y-81852165D01*
X106525000Y-81852165D01*
X106525000Y-82000000D01*
X107369670Y-82000000D01*
X107349925Y-82019745D01*
X107300556Y-82105255D01*
X107275000Y-82200630D01*
X107275000Y-82299370D01*
X107300556Y-82394745D01*
X107349925Y-82480255D01*
X107369670Y-82500000D01*
X106525000Y-82500000D01*
X106525000Y-82647834D01*
X106531401Y-82707372D01*
X106531401Y-82707373D01*
X106581648Y-82842091D01*
X106667811Y-82957188D01*
X106782908Y-83043351D01*
X106917626Y-83093598D01*
X106977166Y-83100000D01*
X107400000Y-83100000D01*
X107400000Y-82530330D01*
X107419745Y-82550075D01*
X107505255Y-82599444D01*
X107600630Y-82625000D01*
X107699370Y-82625000D01*
X107794745Y-82599444D01*
X107880255Y-82550075D01*
X107900000Y-82530330D01*
X107900000Y-83100000D01*
X108322834Y-83100000D01*
X108382372Y-83093598D01*
X108382373Y-83093598D01*
X108517091Y-83043351D01*
X108632188Y-82957188D01*
X108718351Y-82842091D01*
X108768598Y-82707373D01*
X108768598Y-82707372D01*
X108775000Y-82647834D01*
X108775000Y-82500000D01*
X107930330Y-82500000D01*
X107950075Y-82480255D01*
X107999444Y-82394745D01*
X108025000Y-82299370D01*
X108025000Y-82200630D01*
X107999444Y-82105255D01*
X107950075Y-82019745D01*
X107930330Y-82000000D01*
X108775000Y-82000000D01*
X108775000Y-81852165D01*
X108768598Y-81792627D01*
X108768598Y-81792626D01*
X108718351Y-81657908D01*
X108632188Y-81542811D01*
X108517091Y-81456648D01*
X108382373Y-81406401D01*
X108322834Y-81400000D01*
X107900000Y-81400000D01*
X107900000Y-81969670D01*
X107880255Y-81949925D01*
X107794745Y-81900556D01*
X107699370Y-81875000D01*
X107600630Y-81875000D01*
X107505255Y-81900556D01*
X107419745Y-81949925D01*
X107400000Y-81969670D01*
X107400000Y-81400000D01*
X106977166Y-81400000D01*
X106917627Y-81406401D01*
X106917626Y-81406401D01*
X106782908Y-81456648D01*
X106667811Y-81542811D01*
X106581648Y-81657908D01*
X106531401Y-81792626D01*
X106531401Y-81792627D01*
X106525000Y-81852165D01*
X103463585Y-81852165D01*
X103461673Y-80171152D01*
X106574500Y-80171152D01*
X106574500Y-80328847D01*
X106605260Y-80483487D01*
X106605263Y-80483498D01*
X106665604Y-80629175D01*
X106665606Y-80629179D01*
X106753211Y-80760289D01*
X106864711Y-80871789D01*
X106995821Y-80959394D01*
X107141503Y-81019737D01*
X107141509Y-81019738D01*
X107141512Y-81019739D01*
X107296152Y-81050499D01*
X107296158Y-81050500D01*
X108003842Y-81050500D01*
X108158497Y-81019737D01*
X108304179Y-80959394D01*
X108435289Y-80871789D01*
X108546789Y-80760289D01*
X108634394Y-80629179D01*
X108694737Y-80483497D01*
X108725500Y-80328842D01*
X108725500Y-80171158D01*
X108720797Y-80147513D01*
X108694739Y-80016512D01*
X108694736Y-80016501D01*
X108668565Y-79953318D01*
X108634394Y-79870821D01*
X108546789Y-79739711D01*
X108435289Y-79628211D01*
X108432586Y-79626405D01*
X108376570Y-79588976D01*
X108304179Y-79540606D01*
X108304176Y-79540604D01*
X108304175Y-79540604D01*
X108158498Y-79480263D01*
X108158487Y-79480260D01*
X108003847Y-79449500D01*
X108003842Y-79449500D01*
X107296158Y-79449500D01*
X107296152Y-79449500D01*
X107141512Y-79480260D01*
X107141501Y-79480263D01*
X106995824Y-79540604D01*
X106864711Y-79628210D01*
X106753210Y-79739711D01*
X106665604Y-79870824D01*
X106605263Y-80016501D01*
X106605260Y-80016512D01*
X106574500Y-80171152D01*
X103461673Y-80171152D01*
X103459999Y-78700000D01*
X113031818Y-78700000D01*
X113052455Y-78856761D01*
X113112961Y-79002836D01*
X113112964Y-79002841D01*
X113209218Y-79128282D01*
X113334659Y-79224536D01*
X113334661Y-79224536D01*
X113334663Y-79224538D01*
X113480738Y-79285044D01*
X113637500Y-79305682D01*
X113794262Y-79285044D01*
X113940341Y-79224536D01*
X114065782Y-79128282D01*
X114129939Y-79044671D01*
X114162417Y-79025919D01*
X114168813Y-79025500D01*
X115544877Y-79025500D01*
X115579525Y-79039852D01*
X117155525Y-80615852D01*
X117169877Y-80650500D01*
X117155525Y-80685148D01*
X117120877Y-80699500D01*
X117103034Y-80699500D01*
X116964949Y-80740046D01*
X116843871Y-80817857D01*
X116749625Y-80926623D01*
X116749624Y-80926625D01*
X116689833Y-81057545D01*
X116669353Y-81199997D01*
X116669353Y-81200002D01*
X116689833Y-81342454D01*
X116700130Y-81365000D01*
X116749623Y-81473373D01*
X116749624Y-81473374D01*
X116749625Y-81473376D01*
X116795767Y-81526627D01*
X116843872Y-81582143D01*
X116964947Y-81659953D01*
X117014504Y-81674504D01*
X117103034Y-81700499D01*
X117103037Y-81700499D01*
X117103039Y-81700500D01*
X117103040Y-81700500D01*
X117246960Y-81700500D01*
X117246961Y-81700500D01*
X117246963Y-81700499D01*
X117246965Y-81700499D01*
X117267480Y-81694475D01*
X117385053Y-81659953D01*
X117437403Y-81626310D01*
X117474310Y-81619651D01*
X117505115Y-81641040D01*
X117512395Y-81674504D01*
X117494353Y-81799997D01*
X117494353Y-81800002D01*
X117514833Y-81942454D01*
X117544060Y-82006450D01*
X117574623Y-82073373D01*
X117574624Y-82073374D01*
X117574625Y-82073376D01*
X117655239Y-82166410D01*
X117668872Y-82182143D01*
X117789947Y-82259953D01*
X117866785Y-82282514D01*
X117928034Y-82300499D01*
X117928037Y-82300499D01*
X117928039Y-82300500D01*
X118019877Y-82300500D01*
X118054525Y-82314852D01*
X120075138Y-84335465D01*
X120149361Y-84378318D01*
X120204037Y-84392968D01*
X120232143Y-84400499D01*
X120232144Y-84400500D01*
X120232147Y-84400500D01*
X130467856Y-84400500D01*
X130467856Y-84400499D01*
X130550639Y-84378318D01*
X130624862Y-84335465D01*
X135522783Y-79437542D01*
X135556697Y-79423196D01*
X137070040Y-79400609D01*
X137104898Y-79414443D01*
X137119766Y-79448873D01*
X137105932Y-79483731D01*
X137105419Y-79484252D01*
X121872276Y-94717394D01*
X121837628Y-94731746D01*
X121802980Y-94717394D01*
X121788628Y-94682746D01*
X121789046Y-94676362D01*
X121805682Y-94550000D01*
X121785044Y-94393238D01*
X121724536Y-94247159D01*
X121628282Y-94121718D01*
X121502841Y-94025464D01*
X121502836Y-94025461D01*
X121356761Y-93964955D01*
X121200000Y-93944318D01*
X121043238Y-93964955D01*
X120897163Y-94025461D01*
X120897158Y-94025464D01*
X120771718Y-94121717D01*
X120771717Y-94121718D01*
X120675464Y-94247158D01*
X120675461Y-94247163D01*
X120614955Y-94393238D01*
X120594318Y-94549999D01*
X120608074Y-94654487D01*
X120598367Y-94690712D01*
X120594141Y-94695531D01*
X120114535Y-95175137D01*
X120071682Y-95249359D01*
X120070013Y-95255591D01*
X120070012Y-95255590D01*
X120070012Y-95255594D01*
X120049500Y-95332144D01*
X120049500Y-96293161D01*
X120071681Y-96375942D01*
X120071682Y-96375945D01*
X120103350Y-96430795D01*
X120114535Y-96450167D01*
X120539229Y-96874861D01*
X120539230Y-96874862D01*
X120599833Y-96935465D01*
X120626999Y-96951149D01*
X120674054Y-96978317D01*
X120674056Y-96978317D01*
X120674057Y-96978318D01*
X120739346Y-96995812D01*
X120756838Y-97000499D01*
X120756839Y-97000500D01*
X120756842Y-97000500D01*
X121443161Y-97000500D01*
X121443161Y-97000499D01*
X121525944Y-96978318D01*
X121600167Y-96935465D01*
X135731468Y-82804162D01*
X135766115Y-82789811D01*
X135800763Y-82804163D01*
X135815115Y-82838811D01*
X135814696Y-82845206D01*
X135794318Y-82999999D01*
X135794318Y-83000000D01*
X135795907Y-83012069D01*
X135814955Y-83156761D01*
X135875461Y-83302836D01*
X135875464Y-83302841D01*
X135971717Y-83428281D01*
X135971718Y-83428282D01*
X136024805Y-83469017D01*
X136043557Y-83501495D01*
X136043891Y-83510768D01*
X136033422Y-83688745D01*
X136019155Y-83720516D01*
X132595530Y-87144141D01*
X132560882Y-87158493D01*
X132554488Y-87158074D01*
X132450000Y-87144318D01*
X132449999Y-87144318D01*
X132293238Y-87164955D01*
X132147163Y-87225461D01*
X132147158Y-87225464D01*
X132021718Y-87321717D01*
X132021717Y-87321718D01*
X131925464Y-87447158D01*
X131925461Y-87447163D01*
X131864955Y-87593238D01*
X131844318Y-87750000D01*
X131864955Y-87906761D01*
X131925461Y-88052836D01*
X131925464Y-88052841D01*
X131992378Y-88140046D01*
X132021718Y-88178282D01*
X132147159Y-88274536D01*
X132147161Y-88274536D01*
X132147163Y-88274538D01*
X132293238Y-88335044D01*
X132450000Y-88355682D01*
X132554487Y-88341925D01*
X132590712Y-88351631D01*
X132595531Y-88355858D01*
X134060148Y-89820475D01*
X134074500Y-89855123D01*
X134074500Y-91193085D01*
X134062532Y-91225173D01*
X133974625Y-91326623D01*
X133974624Y-91326625D01*
X133914833Y-91457545D01*
X133894353Y-91599997D01*
X133894353Y-91600002D01*
X133914833Y-91742454D01*
X133946935Y-91812746D01*
X133974623Y-91873373D01*
X133974624Y-91873374D01*
X133974625Y-91873376D01*
X134068871Y-91982142D01*
X134068872Y-91982143D01*
X134189947Y-92059953D01*
X134266785Y-92082514D01*
X134328034Y-92100499D01*
X134328037Y-92100499D01*
X134328039Y-92100500D01*
X134328040Y-92100500D01*
X134471960Y-92100500D01*
X134471961Y-92100500D01*
X134471963Y-92100499D01*
X134471965Y-92100499D01*
X134494795Y-92093795D01*
X134610053Y-92059953D01*
X134731128Y-91982143D01*
X134825377Y-91873373D01*
X134885165Y-91742457D01*
X134885165Y-91742455D01*
X134885166Y-91742454D01*
X134905647Y-91600002D01*
X134905647Y-91599997D01*
X134885166Y-91457545D01*
X134859114Y-91400500D01*
X134825377Y-91326627D01*
X134825374Y-91326623D01*
X134737468Y-91225173D01*
X134725500Y-91193085D01*
X134725500Y-89657144D01*
X134725499Y-89657143D01*
X134715478Y-89619745D01*
X134703318Y-89574362D01*
X134703317Y-89574361D01*
X134703317Y-89574359D01*
X134660464Y-89500137D01*
X133055858Y-87895531D01*
X133041506Y-87860883D01*
X133041925Y-87854487D01*
X133043104Y-87845531D01*
X133055682Y-87750000D01*
X133041925Y-87645510D01*
X133051632Y-87609286D01*
X133055850Y-87604475D01*
X135719218Y-84941107D01*
X135753865Y-84926756D01*
X135788513Y-84941108D01*
X135802865Y-84975756D01*
X135790898Y-85007843D01*
X135774625Y-85026623D01*
X135774624Y-85026625D01*
X135714833Y-85157545D01*
X135694353Y-85299997D01*
X135694353Y-85300002D01*
X135714833Y-85442454D01*
X135724993Y-85464700D01*
X135774623Y-85573373D01*
X135774624Y-85573374D01*
X135774625Y-85573376D01*
X135817031Y-85622315D01*
X135868872Y-85682143D01*
X135989947Y-85759953D01*
X136055940Y-85779330D01*
X136128034Y-85800499D01*
X136128037Y-85800499D01*
X136128039Y-85800500D01*
X136128040Y-85800500D01*
X136271960Y-85800500D01*
X136271961Y-85800500D01*
X136271963Y-85800499D01*
X136271965Y-85800499D01*
X136294795Y-85793795D01*
X136410053Y-85759953D01*
X136531128Y-85682143D01*
X136625377Y-85573373D01*
X136685165Y-85442457D01*
X136685165Y-85442455D01*
X136685166Y-85442454D01*
X136705647Y-85300002D01*
X136705647Y-85299997D01*
X136685166Y-85157545D01*
X136647240Y-85074500D01*
X136642118Y-85063286D01*
X136640780Y-85025808D01*
X136652043Y-85008283D01*
X136684571Y-84975756D01*
X136720475Y-84939852D01*
X136755123Y-84925500D01*
X137742856Y-84925500D01*
X137742856Y-84925499D01*
X137825639Y-84903318D01*
X137899862Y-84860465D01*
X137945825Y-84814502D01*
X144979048Y-84814502D01*
X144979048Y-84814504D01*
X145006416Y-84825841D01*
X145006423Y-84825843D01*
X145150000Y-84844745D01*
X145293581Y-84825842D01*
X145320950Y-84814504D01*
X145320951Y-84814503D01*
X145320950Y-84814502D01*
X146379048Y-84814502D01*
X146379048Y-84814504D01*
X146406416Y-84825841D01*
X146406423Y-84825843D01*
X146550000Y-84844745D01*
X146693581Y-84825842D01*
X146720950Y-84814504D01*
X146720951Y-84814503D01*
X146550000Y-84643553D01*
X146379048Y-84814502D01*
X145320950Y-84814502D01*
X145150000Y-84643553D01*
X144979048Y-84814502D01*
X137945825Y-84814502D01*
X138360465Y-84399862D01*
X138360465Y-84399861D01*
X138645824Y-84114502D01*
X144279048Y-84114502D01*
X144279048Y-84114504D01*
X144306416Y-84125841D01*
X144306423Y-84125843D01*
X144449999Y-84144745D01*
X144553964Y-84131058D01*
X144590189Y-84140764D01*
X144608941Y-84173243D01*
X144608941Y-84186035D01*
X144595254Y-84289999D01*
X144614156Y-84433576D01*
X144614157Y-84433580D01*
X144625494Y-84460950D01*
X144625495Y-84460950D01*
X144796447Y-84290000D01*
X144771583Y-84265136D01*
X145025000Y-84265136D01*
X145025000Y-84314864D01*
X145044030Y-84360807D01*
X145079193Y-84395970D01*
X145125136Y-84415000D01*
X145174864Y-84415000D01*
X145220807Y-84395970D01*
X145255970Y-84360807D01*
X145275000Y-84314864D01*
X145275000Y-84290000D01*
X145503553Y-84290000D01*
X145674503Y-84460951D01*
X145674504Y-84460950D01*
X145685842Y-84433581D01*
X145704745Y-84290000D01*
X145691058Y-84186035D01*
X145700765Y-84149810D01*
X145733243Y-84131058D01*
X145746035Y-84131058D01*
X145849999Y-84144745D01*
X145953964Y-84131058D01*
X145990189Y-84140764D01*
X146008941Y-84173243D01*
X146008941Y-84186035D01*
X145995254Y-84289999D01*
X146014156Y-84433576D01*
X146014157Y-84433580D01*
X146025494Y-84460950D01*
X146025495Y-84460950D01*
X146196447Y-84290000D01*
X146171583Y-84265136D01*
X146425000Y-84265136D01*
X146425000Y-84314864D01*
X146444030Y-84360807D01*
X146479193Y-84395970D01*
X146525136Y-84415000D01*
X146574864Y-84415000D01*
X146620807Y-84395970D01*
X146655970Y-84360807D01*
X146675000Y-84314864D01*
X146675000Y-84290000D01*
X146903553Y-84290000D01*
X147074503Y-84460951D01*
X147074504Y-84460950D01*
X147085842Y-84433581D01*
X147104745Y-84290000D01*
X147091058Y-84186035D01*
X147100765Y-84149810D01*
X147133243Y-84131058D01*
X147146035Y-84131058D01*
X147250000Y-84144745D01*
X147393581Y-84125842D01*
X147420950Y-84114504D01*
X147420951Y-84114503D01*
X147250000Y-83943553D01*
X147060528Y-84133022D01*
X147060529Y-84133023D01*
X147007463Y-84186091D01*
X147007462Y-84186091D01*
X146903553Y-84290000D01*
X146675000Y-84290000D01*
X146675000Y-84265136D01*
X146655970Y-84219193D01*
X146620807Y-84184030D01*
X146574864Y-84165000D01*
X146525136Y-84165000D01*
X146479193Y-84184030D01*
X146444030Y-84219193D01*
X146425000Y-84265136D01*
X146171583Y-84265136D01*
X146092538Y-84186091D01*
X146006974Y-84100526D01*
X145850000Y-83943553D01*
X145660528Y-84133022D01*
X145660529Y-84133023D01*
X145607463Y-84186091D01*
X145607462Y-84186091D01*
X145503553Y-84290000D01*
X145275000Y-84290000D01*
X145275000Y-84265136D01*
X145255970Y-84219193D01*
X145220807Y-84184030D01*
X145174864Y-84165000D01*
X145125136Y-84165000D01*
X145079193Y-84184030D01*
X145044030Y-84219193D01*
X145025000Y-84265136D01*
X144771583Y-84265136D01*
X144692538Y-84186091D01*
X144606974Y-84100526D01*
X144450000Y-83943553D01*
X144279048Y-84114502D01*
X138645824Y-84114502D01*
X139170326Y-83590000D01*
X143895254Y-83590000D01*
X143914156Y-83733576D01*
X143914157Y-83733580D01*
X143925494Y-83760950D01*
X143925495Y-83760950D01*
X144096447Y-83590000D01*
X144071583Y-83565136D01*
X144325000Y-83565136D01*
X144325000Y-83614864D01*
X144344030Y-83660807D01*
X144379193Y-83695970D01*
X144425136Y-83715000D01*
X144474864Y-83715000D01*
X144520807Y-83695970D01*
X144555970Y-83660807D01*
X144575000Y-83614864D01*
X144575000Y-83590000D01*
X144803553Y-83590000D01*
X144960526Y-83746973D01*
X144960526Y-83746974D01*
X145150000Y-83936447D01*
X145150001Y-83936447D01*
X145306974Y-83779473D01*
X145496447Y-83590000D01*
X145471583Y-83565136D01*
X145725000Y-83565136D01*
X145725000Y-83614864D01*
X145744030Y-83660807D01*
X145779193Y-83695970D01*
X145825136Y-83715000D01*
X145874864Y-83715000D01*
X145920807Y-83695970D01*
X145955970Y-83660807D01*
X145975000Y-83614864D01*
X145975000Y-83590000D01*
X146203553Y-83590000D01*
X146360526Y-83746973D01*
X146360526Y-83746974D01*
X146550000Y-83936447D01*
X146550001Y-83936447D01*
X146706974Y-83779473D01*
X146896447Y-83590000D01*
X146871583Y-83565136D01*
X147125000Y-83565136D01*
X147125000Y-83614864D01*
X147144030Y-83660807D01*
X147179193Y-83695970D01*
X147225136Y-83715000D01*
X147274864Y-83715000D01*
X147320807Y-83695970D01*
X147355970Y-83660807D01*
X147375000Y-83614864D01*
X147375000Y-83589999D01*
X147603553Y-83589999D01*
X147603553Y-83590000D01*
X147774503Y-83760951D01*
X147774504Y-83760950D01*
X147785842Y-83733581D01*
X147804745Y-83590000D01*
X147785843Y-83446423D01*
X147785841Y-83446416D01*
X147774504Y-83419048D01*
X147774502Y-83419048D01*
X147603553Y-83589999D01*
X147375000Y-83589999D01*
X147375000Y-83565136D01*
X147355970Y-83519193D01*
X147320807Y-83484030D01*
X147274864Y-83465000D01*
X147225136Y-83465000D01*
X147179193Y-83484030D01*
X147144030Y-83519193D01*
X147125000Y-83565136D01*
X146871583Y-83565136D01*
X146792538Y-83486091D01*
X146706974Y-83400526D01*
X146550000Y-83243553D01*
X146360528Y-83433022D01*
X146360529Y-83433023D01*
X146307463Y-83486091D01*
X146307462Y-83486091D01*
X146203553Y-83590000D01*
X145975000Y-83590000D01*
X145975000Y-83565136D01*
X145955970Y-83519193D01*
X145920807Y-83484030D01*
X145874864Y-83465000D01*
X145825136Y-83465000D01*
X145779193Y-83484030D01*
X145744030Y-83519193D01*
X145725000Y-83565136D01*
X145471583Y-83565136D01*
X145392538Y-83486091D01*
X145306974Y-83400526D01*
X145150000Y-83243553D01*
X144960528Y-83433022D01*
X144960529Y-83433023D01*
X144907463Y-83486091D01*
X144907462Y-83486091D01*
X144803553Y-83590000D01*
X144575000Y-83590000D01*
X144575000Y-83565136D01*
X144555970Y-83519193D01*
X144520807Y-83484030D01*
X144474864Y-83465000D01*
X144425136Y-83465000D01*
X144379193Y-83484030D01*
X144344030Y-83519193D01*
X144325000Y-83565136D01*
X144071583Y-83565136D01*
X143925495Y-83419048D01*
X143914156Y-83446424D01*
X143895254Y-83590000D01*
X139170326Y-83590000D01*
X139520474Y-83239852D01*
X139555122Y-83225500D01*
X141397413Y-83225500D01*
X141432061Y-83239852D01*
X141434445Y-83242412D01*
X141468872Y-83282143D01*
X141589947Y-83359953D01*
X141636255Y-83373550D01*
X141728034Y-83400499D01*
X141728037Y-83400499D01*
X141728039Y-83400500D01*
X141728040Y-83400500D01*
X141871960Y-83400500D01*
X141871961Y-83400500D01*
X141871963Y-83400499D01*
X141871965Y-83400499D01*
X141894795Y-83393795D01*
X142010053Y-83359953D01*
X142131128Y-83282143D01*
X142225377Y-83173373D01*
X142285165Y-83042457D01*
X142285165Y-83042455D01*
X142285166Y-83042454D01*
X142305647Y-82900002D01*
X142305647Y-82899997D01*
X142285166Y-82757545D01*
X142273967Y-82733023D01*
X142265509Y-82714502D01*
X144279048Y-82714502D01*
X144279048Y-82714504D01*
X144306416Y-82725841D01*
X144306423Y-82725843D01*
X144449999Y-82744745D01*
X144553964Y-82731058D01*
X144590189Y-82740764D01*
X144608941Y-82773243D01*
X144608941Y-82786035D01*
X144595254Y-82889999D01*
X144608941Y-82993964D01*
X144599234Y-83030189D01*
X144566756Y-83048941D01*
X144553964Y-83048941D01*
X144450000Y-83035254D01*
X144306424Y-83054156D01*
X144279048Y-83065495D01*
X144450000Y-83236447D01*
X144450001Y-83236447D01*
X144606974Y-83079473D01*
X144796447Y-82890000D01*
X144771583Y-82865136D01*
X145025000Y-82865136D01*
X145025000Y-82914864D01*
X145044030Y-82960807D01*
X145079193Y-82995970D01*
X145125136Y-83015000D01*
X145174864Y-83015000D01*
X145220807Y-82995970D01*
X145255970Y-82960807D01*
X145275000Y-82914864D01*
X145275000Y-82890000D01*
X145503553Y-82890000D01*
X145660526Y-83046973D01*
X145660526Y-83046974D01*
X145850000Y-83236447D01*
X145850001Y-83236447D01*
X146006974Y-83079473D01*
X146196447Y-82890000D01*
X146171583Y-82865136D01*
X146425000Y-82865136D01*
X146425000Y-82914864D01*
X146444030Y-82960807D01*
X146479193Y-82995970D01*
X146525136Y-83015000D01*
X146574864Y-83015000D01*
X146620807Y-82995970D01*
X146655970Y-82960807D01*
X146675000Y-82914864D01*
X146675000Y-82890000D01*
X146903553Y-82890000D01*
X147060526Y-83046973D01*
X147060526Y-83046974D01*
X147250000Y-83236447D01*
X147250001Y-83236447D01*
X147420950Y-83065495D01*
X147420950Y-83065494D01*
X147393580Y-83054157D01*
X147393576Y-83054156D01*
X147249999Y-83035254D01*
X147146035Y-83048941D01*
X147109810Y-83039234D01*
X147091058Y-83006756D01*
X147091058Y-82993964D01*
X147104745Y-82889999D01*
X147091058Y-82786035D01*
X147100765Y-82749810D01*
X147133243Y-82731058D01*
X147146035Y-82731058D01*
X147250000Y-82744745D01*
X147393581Y-82725842D01*
X147420950Y-82714504D01*
X147420951Y-82714503D01*
X147250000Y-82543553D01*
X147060528Y-82733022D01*
X147060529Y-82733023D01*
X147007463Y-82786091D01*
X147007462Y-82786091D01*
X146903553Y-82890000D01*
X146675000Y-82890000D01*
X146675000Y-82865136D01*
X146655970Y-82819193D01*
X146620807Y-82784030D01*
X146574864Y-82765000D01*
X146525136Y-82765000D01*
X146479193Y-82784030D01*
X146444030Y-82819193D01*
X146425000Y-82865136D01*
X146171583Y-82865136D01*
X146092538Y-82786091D01*
X146006974Y-82700526D01*
X145850000Y-82543553D01*
X145660528Y-82733022D01*
X145660529Y-82733023D01*
X145607463Y-82786091D01*
X145607462Y-82786091D01*
X145503553Y-82890000D01*
X145275000Y-82890000D01*
X145275000Y-82865136D01*
X145255970Y-82819193D01*
X145220807Y-82784030D01*
X145174864Y-82765000D01*
X145125136Y-82765000D01*
X145079193Y-82784030D01*
X145044030Y-82819193D01*
X145025000Y-82865136D01*
X144771583Y-82865136D01*
X144692538Y-82786091D01*
X144606974Y-82700526D01*
X144450000Y-82543553D01*
X144279048Y-82714502D01*
X142265509Y-82714502D01*
X142225377Y-82626627D01*
X142223967Y-82625000D01*
X142131128Y-82517857D01*
X142103342Y-82500000D01*
X142010053Y-82440047D01*
X142010050Y-82440046D01*
X141871965Y-82399500D01*
X141871961Y-82399500D01*
X141728039Y-82399500D01*
X141728034Y-82399500D01*
X141589949Y-82440046D01*
X141589947Y-82440046D01*
X141589947Y-82440047D01*
X141566213Y-82455300D01*
X141468871Y-82517857D01*
X141434445Y-82557588D01*
X141400909Y-82574375D01*
X141397413Y-82574500D01*
X139445866Y-82574500D01*
X139445850Y-82574499D01*
X139442853Y-82574499D01*
X139357147Y-82574499D01*
X139357145Y-82574499D01*
X139274363Y-82596681D01*
X139274359Y-82596682D01*
X139200137Y-82639535D01*
X139200137Y-82639536D01*
X139139533Y-82700140D01*
X137893246Y-83946426D01*
X137893245Y-83946427D01*
X137579525Y-84260148D01*
X137544877Y-84274500D01*
X136642853Y-84274500D01*
X136557147Y-84274500D01*
X136529969Y-84281782D01*
X136499757Y-84289877D01*
X136462574Y-84284981D01*
X136439744Y-84255228D01*
X136444640Y-84218045D01*
X136452423Y-84207902D01*
X136572377Y-84087949D01*
X136574471Y-84085974D01*
X136575411Y-84085138D01*
X136598279Y-84064812D01*
X136600863Y-84060886D01*
X136607141Y-84053184D01*
X136610465Y-84049862D01*
X136626395Y-84022268D01*
X136627900Y-84019831D01*
X136645414Y-83993237D01*
X136645417Y-83993233D01*
X136646898Y-83988770D01*
X136650965Y-83979713D01*
X136653318Y-83975639D01*
X136661568Y-83944846D01*
X136662388Y-83942113D01*
X136672420Y-83911900D01*
X136672420Y-83911898D01*
X136672422Y-83911893D01*
X136672698Y-83907192D01*
X136674281Y-83897401D01*
X136675500Y-83892853D01*
X136675500Y-83860998D01*
X136675585Y-83858121D01*
X136685548Y-83688745D01*
X136693531Y-83553030D01*
X136709892Y-83519285D01*
X136712606Y-83517042D01*
X136828282Y-83428282D01*
X136924536Y-83302841D01*
X136985044Y-83156762D01*
X137005682Y-83000000D01*
X136985044Y-82843238D01*
X136942598Y-82740764D01*
X136924538Y-82697163D01*
X136924535Y-82697158D01*
X136887644Y-82649081D01*
X136828282Y-82571718D01*
X136820637Y-82565852D01*
X136702841Y-82475464D01*
X136702836Y-82475461D01*
X136556761Y-82414955D01*
X136420637Y-82397034D01*
X136400000Y-82394318D01*
X136399999Y-82394318D01*
X136245206Y-82414696D01*
X136208981Y-82404989D01*
X136190230Y-82372510D01*
X136199937Y-82336285D01*
X136204155Y-82331476D01*
X136345631Y-82190000D01*
X143895254Y-82190000D01*
X143914156Y-82333576D01*
X143914157Y-82333580D01*
X143925494Y-82360950D01*
X143925495Y-82360950D01*
X144096447Y-82190000D01*
X144071583Y-82165136D01*
X144325000Y-82165136D01*
X144325000Y-82214864D01*
X144344030Y-82260807D01*
X144379193Y-82295970D01*
X144425136Y-82315000D01*
X144474864Y-82315000D01*
X144520807Y-82295970D01*
X144555970Y-82260807D01*
X144575000Y-82214864D01*
X144575000Y-82190000D01*
X144803553Y-82190000D01*
X144960526Y-82346973D01*
X144960526Y-82346974D01*
X145150000Y-82536447D01*
X145150001Y-82536447D01*
X145306974Y-82379473D01*
X145496447Y-82190000D01*
X145471583Y-82165136D01*
X145725000Y-82165136D01*
X145725000Y-82214864D01*
X145744030Y-82260807D01*
X145779193Y-82295970D01*
X145825136Y-82315000D01*
X145874864Y-82315000D01*
X145920807Y-82295970D01*
X145955970Y-82260807D01*
X145975000Y-82214864D01*
X145975000Y-82190000D01*
X146203553Y-82190000D01*
X146360526Y-82346973D01*
X146360526Y-82346974D01*
X146550000Y-82536447D01*
X146550001Y-82536447D01*
X146706974Y-82379473D01*
X146896447Y-82190000D01*
X146871583Y-82165136D01*
X147125000Y-82165136D01*
X147125000Y-82214864D01*
X147144030Y-82260807D01*
X147179193Y-82295970D01*
X147225136Y-82315000D01*
X147274864Y-82315000D01*
X147320807Y-82295970D01*
X147355970Y-82260807D01*
X147375000Y-82214864D01*
X147375000Y-82189999D01*
X147603553Y-82189999D01*
X147603553Y-82190000D01*
X147774503Y-82360951D01*
X147774504Y-82360950D01*
X147785842Y-82333581D01*
X147804745Y-82190000D01*
X147785843Y-82046423D01*
X147785841Y-82046416D01*
X147774504Y-82019048D01*
X147774502Y-82019048D01*
X147603553Y-82189999D01*
X147375000Y-82189999D01*
X147375000Y-82165136D01*
X147355970Y-82119193D01*
X147320807Y-82084030D01*
X147274864Y-82065000D01*
X147225136Y-82065000D01*
X147179193Y-82084030D01*
X147144030Y-82119193D01*
X147125000Y-82165136D01*
X146871583Y-82165136D01*
X146792538Y-82086091D01*
X146706974Y-82000526D01*
X146550000Y-81843553D01*
X146360528Y-82033022D01*
X146360529Y-82033023D01*
X146307463Y-82086091D01*
X146307462Y-82086091D01*
X146203553Y-82190000D01*
X145975000Y-82190000D01*
X145975000Y-82165136D01*
X145955970Y-82119193D01*
X145920807Y-82084030D01*
X145874864Y-82065000D01*
X145825136Y-82065000D01*
X145779193Y-82084030D01*
X145744030Y-82119193D01*
X145725000Y-82165136D01*
X145471583Y-82165136D01*
X145392538Y-82086091D01*
X145306974Y-82000526D01*
X145150000Y-81843553D01*
X144960528Y-82033022D01*
X144960529Y-82033023D01*
X144907463Y-82086091D01*
X144907462Y-82086091D01*
X144803553Y-82190000D01*
X144575000Y-82190000D01*
X144575000Y-82165136D01*
X144555970Y-82119193D01*
X144520807Y-82084030D01*
X144474864Y-82065000D01*
X144425136Y-82065000D01*
X144379193Y-82084030D01*
X144344030Y-82119193D01*
X144325000Y-82165136D01*
X144071583Y-82165136D01*
X143925495Y-82019048D01*
X143914156Y-82046424D01*
X143895254Y-82190000D01*
X136345631Y-82190000D01*
X136870136Y-81665495D01*
X144279048Y-81665495D01*
X144450000Y-81836447D01*
X144450001Y-81836447D01*
X144606974Y-81679473D01*
X144796447Y-81490000D01*
X144771583Y-81465136D01*
X145025000Y-81465136D01*
X145025000Y-81514864D01*
X145044030Y-81560807D01*
X145079193Y-81595970D01*
X145125136Y-81615000D01*
X145174864Y-81615000D01*
X145220807Y-81595970D01*
X145255970Y-81560807D01*
X145275000Y-81514864D01*
X145275000Y-81489999D01*
X145503553Y-81489999D01*
X145503553Y-81490000D01*
X145660526Y-81646973D01*
X145660526Y-81646974D01*
X145850000Y-81836447D01*
X145850001Y-81836447D01*
X146006974Y-81679473D01*
X146196447Y-81490000D01*
X146171583Y-81465136D01*
X146425000Y-81465136D01*
X146425000Y-81514864D01*
X146444030Y-81560807D01*
X146479193Y-81595970D01*
X146525136Y-81615000D01*
X146574864Y-81615000D01*
X146620807Y-81595970D01*
X146655970Y-81560807D01*
X146675000Y-81514864D01*
X146675000Y-81489999D01*
X146903553Y-81489999D01*
X146903553Y-81490000D01*
X147060526Y-81646973D01*
X147060526Y-81646974D01*
X147250000Y-81836447D01*
X147250001Y-81836447D01*
X147420950Y-81665495D01*
X147420950Y-81665494D01*
X147393580Y-81654157D01*
X147393576Y-81654156D01*
X147249999Y-81635254D01*
X147146035Y-81648941D01*
X147109810Y-81639234D01*
X147091058Y-81606756D01*
X147091058Y-81593964D01*
X147104745Y-81489999D01*
X147085843Y-81346423D01*
X147085841Y-81346416D01*
X147074504Y-81319048D01*
X147074502Y-81319048D01*
X146903553Y-81489999D01*
X146675000Y-81489999D01*
X146675000Y-81465136D01*
X146655970Y-81419193D01*
X146620807Y-81384030D01*
X146574864Y-81365000D01*
X146525136Y-81365000D01*
X146479193Y-81384030D01*
X146444030Y-81419193D01*
X146425000Y-81465136D01*
X146171583Y-81465136D01*
X146025495Y-81319048D01*
X146014156Y-81346424D01*
X145995254Y-81490000D01*
X146008941Y-81593964D01*
X145999234Y-81630189D01*
X145966756Y-81648941D01*
X145953964Y-81648941D01*
X145849999Y-81635254D01*
X145746035Y-81648941D01*
X145709810Y-81639234D01*
X145691058Y-81606756D01*
X145691058Y-81593964D01*
X145704745Y-81489999D01*
X145685843Y-81346423D01*
X145685841Y-81346416D01*
X145674504Y-81319048D01*
X145674502Y-81319048D01*
X145503553Y-81489999D01*
X145275000Y-81489999D01*
X145275000Y-81465136D01*
X145255970Y-81419193D01*
X145220807Y-81384030D01*
X145174864Y-81365000D01*
X145125136Y-81365000D01*
X145079193Y-81384030D01*
X145044030Y-81419193D01*
X145025000Y-81465136D01*
X144771583Y-81465136D01*
X144625495Y-81319048D01*
X144614156Y-81346424D01*
X144595254Y-81490000D01*
X144608941Y-81593964D01*
X144599234Y-81630189D01*
X144566756Y-81648941D01*
X144553964Y-81648941D01*
X144450000Y-81635254D01*
X144306424Y-81654156D01*
X144279048Y-81665495D01*
X136870136Y-81665495D01*
X137570135Y-80965495D01*
X144979048Y-80965495D01*
X145150000Y-81136447D01*
X145150001Y-81136447D01*
X145320950Y-80965495D01*
X146379048Y-80965495D01*
X146550000Y-81136447D01*
X146550001Y-81136447D01*
X146720950Y-80965495D01*
X146720950Y-80965494D01*
X146693580Y-80954157D01*
X146693576Y-80954156D01*
X146550000Y-80935254D01*
X146406424Y-80954156D01*
X146379048Y-80965495D01*
X145320950Y-80965495D01*
X145320950Y-80965494D01*
X145293580Y-80954157D01*
X145293576Y-80954156D01*
X145150000Y-80935254D01*
X145006424Y-80954156D01*
X144979048Y-80965495D01*
X137570135Y-80965495D01*
X138095779Y-80439851D01*
X138130427Y-80425500D01*
X163224877Y-80425500D01*
X163259525Y-80439852D01*
X163737718Y-80918045D01*
X163752070Y-80952693D01*
X163746284Y-80975791D01*
X163724772Y-81016037D01*
X163724767Y-81016049D01*
X163664700Y-81214064D01*
X163664700Y-81214065D01*
X163644417Y-81419999D01*
X163644417Y-81420000D01*
X163664700Y-81625934D01*
X163664700Y-81625935D01*
X163679433Y-81674504D01*
X163724768Y-81823954D01*
X163822315Y-82006450D01*
X163953590Y-82166410D01*
X164113550Y-82297685D01*
X164296046Y-82395232D01*
X164494066Y-82455300D01*
X164700000Y-82475583D01*
X164905934Y-82455300D01*
X165103954Y-82395232D01*
X165286450Y-82297685D01*
X165446410Y-82166410D01*
X165449185Y-82163028D01*
X165462622Y-82146656D01*
X165495696Y-82128976D01*
X165531584Y-82139862D01*
X165549264Y-82172936D01*
X165549500Y-82177740D01*
X165549500Y-82629876D01*
X165535148Y-82664524D01*
X165201954Y-82997717D01*
X165167306Y-83012069D01*
X165144208Y-83006283D01*
X165103959Y-82984770D01*
X165103958Y-82984769D01*
X164905934Y-82924700D01*
X164700000Y-82904417D01*
X164494065Y-82924700D01*
X164494064Y-82924700D01*
X164296043Y-82984769D01*
X164113548Y-83082316D01*
X163953590Y-83213590D01*
X163822316Y-83373548D01*
X163724769Y-83556043D01*
X163664700Y-83754064D01*
X163664700Y-83754065D01*
X163644417Y-83959999D01*
X163644417Y-83960000D01*
X163664700Y-84165934D01*
X163664700Y-84165935D01*
X163680856Y-84219193D01*
X163724768Y-84363954D01*
X163822315Y-84546450D01*
X163953590Y-84706410D01*
X164113550Y-84837685D01*
X164296046Y-84935232D01*
X164494066Y-84995300D01*
X164700000Y-85015583D01*
X164905934Y-84995300D01*
X165103954Y-84935232D01*
X165286450Y-84837685D01*
X165446410Y-84706410D01*
X165577685Y-84546450D01*
X165675232Y-84363954D01*
X165735300Y-84165934D01*
X165755583Y-83960000D01*
X165735300Y-83754066D01*
X165675232Y-83556046D01*
X165658389Y-83524536D01*
X165653715Y-83515791D01*
X165650039Y-83478468D01*
X165662279Y-83458046D01*
X166135465Y-82984862D01*
X166178318Y-82910639D01*
X166200499Y-82827856D01*
X166200500Y-82827856D01*
X166200500Y-78350443D01*
X166200499Y-78350442D01*
X166178318Y-78267662D01*
X166178317Y-78267658D01*
X166135464Y-78193436D01*
X165250576Y-77308548D01*
X165236224Y-77273900D01*
X165250576Y-77239252D01*
X165262123Y-77230687D01*
X165286450Y-77217685D01*
X165446410Y-77086410D01*
X165577685Y-76926450D01*
X165675232Y-76743954D01*
X165735300Y-76545934D01*
X165755583Y-76340000D01*
X165735300Y-76134066D01*
X165675232Y-75936046D01*
X165577685Y-75753550D01*
X165446410Y-75593590D01*
X165286450Y-75462315D01*
X165127524Y-75377367D01*
X165103956Y-75364769D01*
X165103955Y-75364768D01*
X165103954Y-75364768D01*
X164905934Y-75304700D01*
X164700000Y-75284417D01*
X164494065Y-75304700D01*
X164494064Y-75304700D01*
X164296049Y-75364767D01*
X164296046Y-75364768D01*
X164296043Y-75364769D01*
X164296037Y-75364772D01*
X164255791Y-75386284D01*
X164218469Y-75389960D01*
X164198045Y-75377718D01*
X162759862Y-73939535D01*
X162685640Y-73896682D01*
X162685637Y-73896681D01*
X162602856Y-73874500D01*
X162602853Y-73874500D01*
X136245866Y-73874500D01*
X136245850Y-73874499D01*
X136242853Y-73874499D01*
X136157148Y-73874499D01*
X136157146Y-73874499D01*
X136074363Y-73896681D01*
X136074359Y-73896682D01*
X136000137Y-73939535D01*
X136000137Y-73939536D01*
X135254525Y-74685148D01*
X135219877Y-74699500D01*
X135128034Y-74699500D01*
X134989949Y-74740046D01*
X134868871Y-74817857D01*
X134774625Y-74926623D01*
X134774624Y-74926625D01*
X134714833Y-75057545D01*
X134694353Y-75199997D01*
X134694353Y-75200002D01*
X134714833Y-75342454D01*
X134725026Y-75364772D01*
X134774623Y-75473373D01*
X134774624Y-75473374D01*
X134774625Y-75473376D01*
X134868871Y-75582142D01*
X134868872Y-75582143D01*
X134989947Y-75659953D01*
X135066785Y-75682514D01*
X135128034Y-75700499D01*
X135128037Y-75700499D01*
X135128039Y-75700500D01*
X135128040Y-75700500D01*
X135271960Y-75700500D01*
X135271961Y-75700500D01*
X135271963Y-75700499D01*
X135271965Y-75700499D01*
X135294795Y-75693795D01*
X135410053Y-75659953D01*
X135531128Y-75582143D01*
X135625377Y-75473373D01*
X135685165Y-75342457D01*
X135685165Y-75342455D01*
X135685166Y-75342454D01*
X135705647Y-75200002D01*
X135705647Y-75200000D01*
X135705647Y-75199997D01*
X135703440Y-75184653D01*
X135712713Y-75148317D01*
X135717285Y-75143040D01*
X135898669Y-74961658D01*
X136320475Y-74539852D01*
X136355123Y-74525500D01*
X162404877Y-74525500D01*
X162439525Y-74539852D01*
X163737718Y-75838045D01*
X163752070Y-75872693D01*
X163746284Y-75895791D01*
X163724772Y-75936037D01*
X163724767Y-75936049D01*
X163664700Y-76134064D01*
X163664700Y-76134065D01*
X163644417Y-76339999D01*
X163644417Y-76340000D01*
X163664700Y-76545934D01*
X163664700Y-76545935D01*
X163724769Y-76743956D01*
X163729283Y-76752401D01*
X163732959Y-76789723D01*
X163709168Y-76818714D01*
X163686069Y-76824500D01*
X143055853Y-76824500D01*
X143029362Y-76816722D01*
X143021742Y-76811825D01*
X142910053Y-76740047D01*
X142910050Y-76740046D01*
X142771965Y-76699500D01*
X142771961Y-76699500D01*
X142628039Y-76699500D01*
X142628034Y-76699500D01*
X142489949Y-76740046D01*
X142489947Y-76740046D01*
X142489947Y-76740047D01*
X142470724Y-76752401D01*
X142368871Y-76817857D01*
X142274625Y-76926623D01*
X142274624Y-76926625D01*
X142214833Y-77057545D01*
X142194353Y-77199997D01*
X142194353Y-77200002D01*
X142214833Y-77342454D01*
X142246935Y-77412746D01*
X142274623Y-77473373D01*
X142274624Y-77473374D01*
X142274625Y-77473376D01*
X142291120Y-77492412D01*
X142368872Y-77582143D01*
X142371554Y-77583867D01*
X142372194Y-77584278D01*
X142393583Y-77615084D01*
X142386925Y-77651991D01*
X142356119Y-77673380D01*
X142345703Y-77674500D01*
X131757144Y-77674500D01*
X131674363Y-77696681D01*
X131674360Y-77696682D01*
X131637686Y-77717857D01*
X131628299Y-77723276D01*
X131600141Y-77739532D01*
X131600135Y-77739537D01*
X126704525Y-82635148D01*
X126669877Y-82649500D01*
X123549495Y-82649500D01*
X123514847Y-82635148D01*
X123500495Y-82600500D01*
X123514847Y-82565852D01*
X123519666Y-82561626D01*
X123552480Y-82536447D01*
X123628282Y-82478282D01*
X123724536Y-82352841D01*
X123785044Y-82206762D01*
X123805682Y-82050000D01*
X123785044Y-81893238D01*
X123761520Y-81836447D01*
X123724538Y-81747163D01*
X123724535Y-81747158D01*
X123688732Y-81700499D01*
X123628282Y-81621718D01*
X123625588Y-81619651D01*
X123502841Y-81525464D01*
X123502836Y-81525461D01*
X123356761Y-81464955D01*
X123220637Y-81447034D01*
X123200000Y-81444318D01*
X123199999Y-81444318D01*
X123095511Y-81458074D01*
X123059286Y-81448367D01*
X123054467Y-81444141D01*
X122428183Y-80817857D01*
X121799862Y-80189535D01*
X121725640Y-80146682D01*
X121725637Y-80146681D01*
X121642856Y-80124500D01*
X121642853Y-80124500D01*
X119582452Y-80124500D01*
X119582449Y-80124500D01*
X119496565Y-80147513D01*
X119496389Y-80146858D01*
X119483118Y-80149500D01*
X117630123Y-80149500D01*
X117595475Y-80135148D01*
X115899862Y-78439535D01*
X115825640Y-78396682D01*
X115825637Y-78396681D01*
X115742856Y-78374500D01*
X115742853Y-78374500D01*
X114168813Y-78374500D01*
X114134165Y-78360148D01*
X114129939Y-78355329D01*
X114065782Y-78271718D01*
X114065781Y-78271717D01*
X113940341Y-78175464D01*
X113940336Y-78175461D01*
X113794261Y-78114955D01*
X113637500Y-78094318D01*
X113480738Y-78114955D01*
X113334663Y-78175461D01*
X113334658Y-78175464D01*
X113209218Y-78271717D01*
X113209217Y-78271718D01*
X113112964Y-78397158D01*
X113112961Y-78397163D01*
X113052455Y-78543238D01*
X113031818Y-78700000D01*
X103459999Y-78700000D01*
X103450532Y-70378712D01*
X104399500Y-70378712D01*
X104399500Y-70621288D01*
X104431162Y-70861789D01*
X104431163Y-70861793D01*
X104431164Y-70861800D01*
X104493944Y-71096095D01*
X104493946Y-71096101D01*
X104586776Y-71320213D01*
X104708062Y-71530286D01*
X104708072Y-71530301D01*
X104855730Y-71722732D01*
X104855740Y-71722744D01*
X105027255Y-71894259D01*
X105027267Y-71894269D01*
X105219698Y-72041927D01*
X105219707Y-72041933D01*
X105219711Y-72041936D01*
X105429788Y-72163224D01*
X105653900Y-72256054D01*
X105653904Y-72256055D01*
X105888199Y-72318835D01*
X105888200Y-72318835D01*
X105888211Y-72318838D01*
X106128712Y-72350500D01*
X106128716Y-72350500D01*
X106371284Y-72350500D01*
X106371288Y-72350500D01*
X106611789Y-72318838D01*
X106846100Y-72256054D01*
X107070212Y-72163224D01*
X107280289Y-72041936D01*
X107472738Y-71894265D01*
X107644265Y-71722738D01*
X107791936Y-71530289D01*
X107851475Y-71427165D01*
X111050000Y-71427165D01*
X111050000Y-71850000D01*
X111619670Y-71850000D01*
X111599925Y-71869745D01*
X111550556Y-71955255D01*
X111525000Y-72050630D01*
X111525000Y-72149370D01*
X111550556Y-72244745D01*
X111599925Y-72330255D01*
X111619670Y-72350000D01*
X111050000Y-72350000D01*
X111050000Y-72772834D01*
X111056401Y-72832372D01*
X111056401Y-72832373D01*
X111106648Y-72967091D01*
X111192811Y-73082188D01*
X111307908Y-73168351D01*
X111442626Y-73218598D01*
X111502166Y-73225000D01*
X111650000Y-73225000D01*
X111650000Y-72380330D01*
X111669745Y-72400075D01*
X111755255Y-72449444D01*
X111850630Y-72475000D01*
X111949370Y-72475000D01*
X112044745Y-72449444D01*
X112130255Y-72400075D01*
X112150000Y-72380330D01*
X112150000Y-73225000D01*
X112297834Y-73225000D01*
X112357372Y-73218598D01*
X112357373Y-73218598D01*
X112492091Y-73168351D01*
X112607188Y-73082188D01*
X112693351Y-72967091D01*
X112743598Y-72832373D01*
X112743598Y-72832372D01*
X112750000Y-72772834D01*
X112750000Y-72350000D01*
X112180330Y-72350000D01*
X112200075Y-72330255D01*
X112249444Y-72244745D01*
X112275000Y-72149370D01*
X112275000Y-72050630D01*
X112249444Y-71955255D01*
X112200075Y-71869745D01*
X112180330Y-71850000D01*
X112750000Y-71850000D01*
X112750000Y-71746152D01*
X113099500Y-71746152D01*
X113099500Y-72453847D01*
X113130260Y-72608487D01*
X113130263Y-72608498D01*
X113136245Y-72622939D01*
X113190606Y-72754179D01*
X113278211Y-72885289D01*
X113389711Y-72996789D01*
X113520821Y-73084394D01*
X113666503Y-73144737D01*
X113666509Y-73144738D01*
X113666512Y-73144739D01*
X113821152Y-73175499D01*
X113821158Y-73175500D01*
X113978842Y-73175500D01*
X114133497Y-73144737D01*
X114279179Y-73084394D01*
X114410289Y-72996789D01*
X114521789Y-72885289D01*
X114609394Y-72754179D01*
X114669737Y-72608497D01*
X114700500Y-72453842D01*
X114700500Y-71746158D01*
X114699529Y-71741276D01*
X114669739Y-71591512D01*
X114669736Y-71591501D01*
X114663761Y-71577075D01*
X114609394Y-71445821D01*
X114592625Y-71420724D01*
X118099500Y-71420724D01*
X118099500Y-72779275D01*
X118102353Y-72809698D01*
X118102353Y-72809699D01*
X118147204Y-72937876D01*
X118147208Y-72937885D01*
X118227849Y-73047150D01*
X118337114Y-73127791D01*
X118337117Y-73127792D01*
X118337118Y-73127793D01*
X118337120Y-73127793D01*
X118337123Y-73127795D01*
X118465301Y-73172646D01*
X118495734Y-73175500D01*
X118495744Y-73175500D01*
X119304256Y-73175500D01*
X119304266Y-73175500D01*
X119334699Y-73172646D01*
X119462882Y-73127793D01*
X119572150Y-73047150D01*
X119652793Y-72937882D01*
X119697646Y-72809699D01*
X119700500Y-72779266D01*
X119700500Y-71741276D01*
X120050000Y-71741276D01*
X120050000Y-71850000D01*
X120619670Y-71850000D01*
X120599925Y-71869745D01*
X120550556Y-71955255D01*
X120525000Y-72050630D01*
X120525000Y-72149370D01*
X120550556Y-72244745D01*
X120599925Y-72330255D01*
X120619670Y-72350000D01*
X120050000Y-72350000D01*
X120050000Y-72458723D01*
X120082662Y-72622924D01*
X120082666Y-72622939D01*
X120146739Y-72777624D01*
X120239761Y-72916843D01*
X120358156Y-73035238D01*
X120497375Y-73128260D01*
X120650000Y-73191479D01*
X120650000Y-72380330D01*
X120669745Y-72400075D01*
X120755255Y-72449444D01*
X120850630Y-72475000D01*
X120949370Y-72475000D01*
X121044745Y-72449444D01*
X121130255Y-72400075D01*
X121150000Y-72380330D01*
X121150000Y-73191479D01*
X121302624Y-73128260D01*
X121441843Y-73035238D01*
X121560238Y-72916843D01*
X121653260Y-72777624D01*
X121717333Y-72622939D01*
X121717337Y-72622924D01*
X121749999Y-72458723D01*
X121750000Y-72458716D01*
X121750000Y-72350000D01*
X121180330Y-72350000D01*
X121200075Y-72330255D01*
X121249444Y-72244745D01*
X121275000Y-72149370D01*
X121275000Y-72050630D01*
X121249444Y-71955255D01*
X121200075Y-71869745D01*
X121180330Y-71850000D01*
X121750000Y-71850000D01*
X121750000Y-71741283D01*
X121749999Y-71741276D01*
X121717337Y-71577075D01*
X121717333Y-71577060D01*
X121653260Y-71422375D01*
X121560238Y-71283156D01*
X121441843Y-71164761D01*
X121302622Y-71071738D01*
X121150000Y-71008519D01*
X121150000Y-71819670D01*
X121130255Y-71799925D01*
X121044745Y-71750556D01*
X120949370Y-71725000D01*
X120850630Y-71725000D01*
X120755255Y-71750556D01*
X120669745Y-71799925D01*
X120650000Y-71819670D01*
X120650000Y-71008519D01*
X120497377Y-71071738D01*
X120358156Y-71164761D01*
X120239761Y-71283156D01*
X120146739Y-71422375D01*
X120082666Y-71577060D01*
X120082662Y-71577075D01*
X120050000Y-71741276D01*
X119700500Y-71741276D01*
X119700500Y-71420734D01*
X119697646Y-71390301D01*
X119673121Y-71320213D01*
X119652795Y-71262123D01*
X119652791Y-71262114D01*
X119572150Y-71152849D01*
X119462885Y-71072208D01*
X119462876Y-71072204D01*
X119334698Y-71027353D01*
X119304275Y-71024500D01*
X119304266Y-71024500D01*
X118495734Y-71024500D01*
X118495724Y-71024500D01*
X118465301Y-71027353D01*
X118465300Y-71027353D01*
X118337123Y-71072204D01*
X118337114Y-71072208D01*
X118227849Y-71152849D01*
X118147208Y-71262114D01*
X118147204Y-71262123D01*
X118102353Y-71390300D01*
X118102353Y-71390301D01*
X118099500Y-71420724D01*
X114592625Y-71420724D01*
X114521789Y-71314711D01*
X114410289Y-71203211D01*
X114279179Y-71115606D01*
X114279176Y-71115604D01*
X114279175Y-71115604D01*
X114133498Y-71055263D01*
X114133487Y-71055260D01*
X113978847Y-71024500D01*
X113978842Y-71024500D01*
X113821158Y-71024500D01*
X113821152Y-71024500D01*
X113666512Y-71055260D01*
X113666501Y-71055263D01*
X113520824Y-71115604D01*
X113389711Y-71203210D01*
X113278210Y-71314711D01*
X113190604Y-71445824D01*
X113130263Y-71591501D01*
X113130260Y-71591512D01*
X113099500Y-71746152D01*
X112750000Y-71746152D01*
X112750000Y-71427165D01*
X112743598Y-71367627D01*
X112743598Y-71367626D01*
X112693351Y-71232908D01*
X112607188Y-71117811D01*
X112492091Y-71031648D01*
X112357373Y-70981401D01*
X112297834Y-70975000D01*
X112150000Y-70975000D01*
X112150000Y-71819670D01*
X112130255Y-71799925D01*
X112044745Y-71750556D01*
X111949370Y-71725000D01*
X111850630Y-71725000D01*
X111755255Y-71750556D01*
X111669745Y-71799925D01*
X111650000Y-71819670D01*
X111650000Y-70975000D01*
X111502166Y-70975000D01*
X111442627Y-70981401D01*
X111442626Y-70981401D01*
X111307908Y-71031648D01*
X111192811Y-71117811D01*
X111106648Y-71232908D01*
X111056401Y-71367626D01*
X111056401Y-71367627D01*
X111050000Y-71427165D01*
X107851475Y-71427165D01*
X107913224Y-71320212D01*
X108006054Y-71096100D01*
X108068838Y-70861789D01*
X108100500Y-70621288D01*
X108100500Y-70378712D01*
X108068838Y-70138211D01*
X108006054Y-69903900D01*
X107913224Y-69679788D01*
X107791936Y-69469711D01*
X107791933Y-69469707D01*
X107791927Y-69469698D01*
X107644269Y-69277267D01*
X107644259Y-69277255D01*
X107472744Y-69105740D01*
X107472732Y-69105730D01*
X107280301Y-68958072D01*
X107280286Y-68958062D01*
X107070212Y-68836776D01*
X107070213Y-68836776D01*
X106846101Y-68743946D01*
X106846095Y-68743944D01*
X106611800Y-68681164D01*
X106611793Y-68681163D01*
X106611789Y-68681162D01*
X106371288Y-68649500D01*
X106128712Y-68649500D01*
X105888211Y-68681162D01*
X105888207Y-68681162D01*
X105888199Y-68681164D01*
X105653904Y-68743944D01*
X105653898Y-68743946D01*
X105429786Y-68836776D01*
X105219713Y-68958062D01*
X105219698Y-68958072D01*
X105027267Y-69105730D01*
X105027255Y-69105740D01*
X104855740Y-69277255D01*
X104855730Y-69277267D01*
X104708072Y-69469698D01*
X104708062Y-69469713D01*
X104586776Y-69679786D01*
X104493946Y-69903898D01*
X104493944Y-69903904D01*
X104431164Y-70138199D01*
X104431162Y-70138207D01*
X104431162Y-70138211D01*
X104399500Y-70378712D01*
X103450532Y-70378712D01*
X103450501Y-70351376D01*
X103450577Y-70348614D01*
X103467320Y-70050490D01*
X103467932Y-70045051D01*
X103517723Y-69752005D01*
X103518941Y-69746667D01*
X103601226Y-69461051D01*
X103603040Y-69455870D01*
X103716782Y-69181272D01*
X103719159Y-69176334D01*
X103862947Y-68916168D01*
X103865850Y-68911548D01*
X104037866Y-68669114D01*
X104041265Y-68664853D01*
X104239341Y-68443205D01*
X104243205Y-68439341D01*
X104464853Y-68241265D01*
X104469114Y-68237866D01*
X104711548Y-68065850D01*
X104716168Y-68062947D01*
X104976334Y-67919159D01*
X104981264Y-67916785D01*
X105255870Y-67803040D01*
X105261051Y-67801226D01*
X105546667Y-67718941D01*
X105552005Y-67717723D01*
X105845051Y-67667932D01*
X105850492Y-67667320D01*
X106148629Y-67650577D01*
X106151376Y-67650500D01*
X106197595Y-67650500D01*
X123301000Y-67650500D01*
X123335648Y-67664852D01*
X123350000Y-67699500D01*
X123350000Y-73680000D01*
X169950000Y-73630000D01*
X169950000Y-70300032D01*
X172128180Y-70300032D01*
X172128180Y-70542608D01*
X172159842Y-70783109D01*
X172159843Y-70783113D01*
X172159844Y-70783120D01*
X172222624Y-71017415D01*
X172222626Y-71017421D01*
X172315456Y-71241533D01*
X172436742Y-71451606D01*
X172436752Y-71451621D01*
X172584410Y-71644052D01*
X172584420Y-71644064D01*
X172755935Y-71815579D01*
X172755947Y-71815589D01*
X172948378Y-71963247D01*
X172948387Y-71963253D01*
X172948391Y-71963256D01*
X173158468Y-72084544D01*
X173382580Y-72177374D01*
X173382584Y-72177375D01*
X173616879Y-72240155D01*
X173616880Y-72240155D01*
X173616891Y-72240158D01*
X173857392Y-72271820D01*
X173857396Y-72271820D01*
X174099964Y-72271820D01*
X174099968Y-72271820D01*
X174340469Y-72240158D01*
X174574780Y-72177374D01*
X174798892Y-72084544D01*
X175008969Y-71963256D01*
X175201418Y-71815585D01*
X175372945Y-71644058D01*
X175520616Y-71451609D01*
X175641904Y-71241532D01*
X175734734Y-71017420D01*
X175797518Y-70783109D01*
X175829180Y-70542608D01*
X175829180Y-70300032D01*
X175797518Y-70059531D01*
X175795098Y-70050501D01*
X175734735Y-69825224D01*
X175734733Y-69825218D01*
X175704412Y-69752015D01*
X175641904Y-69601108D01*
X175520616Y-69391031D01*
X175520613Y-69391027D01*
X175520607Y-69391018D01*
X175372949Y-69198587D01*
X175372939Y-69198575D01*
X175201424Y-69027060D01*
X175201412Y-69027050D01*
X175008981Y-68879392D01*
X175008966Y-68879382D01*
X174798892Y-68758096D01*
X174798893Y-68758096D01*
X174574781Y-68665266D01*
X174574775Y-68665264D01*
X174340480Y-68602484D01*
X174340473Y-68602483D01*
X174340469Y-68602482D01*
X174099968Y-68570820D01*
X173857392Y-68570820D01*
X173616891Y-68602482D01*
X173616887Y-68602482D01*
X173616879Y-68602484D01*
X173382584Y-68665264D01*
X173382578Y-68665266D01*
X173158466Y-68758096D01*
X172948393Y-68879382D01*
X172948378Y-68879392D01*
X172755947Y-69027050D01*
X172755935Y-69027060D01*
X172584420Y-69198575D01*
X172584410Y-69198587D01*
X172436752Y-69391018D01*
X172436742Y-69391033D01*
X172315456Y-69601106D01*
X172222626Y-69825218D01*
X172222624Y-69825224D01*
X172159844Y-70059519D01*
X172159842Y-70059527D01*
X172159842Y-70059531D01*
X172128180Y-70300032D01*
X169950000Y-70300032D01*
X169950000Y-67677382D01*
X169964352Y-67642734D01*
X169998920Y-67628382D01*
X174077283Y-67621822D01*
X174080091Y-67621898D01*
G37*
%TD.AperFunction*%
%TD*%
M02*
