M48
; DRILL file {KiCad 8.0.4} date 2024-08-29T22:37:03+0200
; FORMAT={-:-/ absolute / metric / decimal}
; #@! TF.CreationDate,2024-08-29T22:37:03+02:00
; #@! TF.GenerationSoftware,Kicad,Pcbnew,8.0.4
; #@! TF.FileFunction,Plated,1,2,PTH
FMAT,2
METRIC
; #@! TA.AperFunction,Plated,PTH,ComponentDrill
T1C0.250
; #@! TA.AperFunction,Plated,PTH,ViaDrill
T2C0.300
; #@! TA.AperFunction,Plated,PTH,ViaDrill
T3C0.400
; #@! TA.AperFunction,Plated,PTH,ComponentDrill
T4C0.600
; #@! TA.AperFunction,Plated,PTH,ComponentDrill
T5C0.750
; #@! TA.AperFunction,Plated,PTH,ComponentDrill
T6C1.000
%
G90
G05
T1
X144.45Y-82.19
X144.45Y-83.59
X145.15Y-81.49
X145.15Y-82.89
X145.15Y-84.29
X145.85Y-82.19
X145.85Y-83.59
X146.55Y-81.49
X146.55Y-82.89
X146.55Y-84.29
X147.25Y-82.19
X147.25Y-83.59
T2
X109.5Y-100.6
X109.5Y-101.739
X117.175Y-81.2
X118.0Y-81.8
X134.2Y-76.7
X134.4Y-91.6
X135.2Y-75.2
X135.2Y-80.7
X135.5Y-87.5
X136.2Y-85.3
X140.0Y-75.2
X140.0Y-76.9
X141.8Y-82.9
X142.1Y-79.0
X142.6Y-75.3
X142.7Y-77.2
X144.1Y-78.1
X151.1Y-90.9
X153.2Y-88.6
X157.5Y-100.0
X157.8Y-75.1
X160.0Y-95.0
X162.5Y-92.5
X165.0Y-92.5
X165.0Y-95.0
X167.5Y-92.5
X167.5Y-95.0
X167.5Y-112.5
X170.0Y-92.5
X170.0Y-95.0
X170.0Y-110.0
X170.0Y-112.5
X172.5Y-92.5
X172.5Y-95.0
X172.5Y-107.5
X172.5Y-110.0
X175.0Y-92.5
X175.0Y-95.0
X175.0Y-107.5
T3
X112.2Y-97.7
X112.35Y-104.15
X112.4Y-80.95
X113.637Y-78.7
X115.1Y-95.6
X115.75Y-77.95
X115.8Y-79.85
X116.4Y-83.3
X116.6Y-93.65
X118.05Y-95.3
X119.3Y-79.75
X121.1Y-95.95
X121.2Y-94.55
X121.6Y-85.7
X121.75Y-82.25
X121.9Y-93.55
X123.2Y-82.05
X126.7Y-106.1
X127.55Y-83.35
X128.25Y-106.25
X132.45Y-87.75
X136.4Y-83.0
X140.6Y-86.1
X141.0Y-87.7
X141.6Y-91.0
X157.4Y-96.7
X164.3Y-99.9
X164.65Y-103.8
X170.4Y-104.425
T5
X107.65Y-80.25
X107.65Y-82.25
X107.65Y-87.85
X107.65Y-89.85
X111.9Y-72.1
X113.9Y-72.1
X116.4Y-111.8
X117.67Y-111.8
X118.9Y-72.1
X118.94Y-111.8
X120.9Y-72.1
X136.0Y-106.7
X136.0Y-112.35
X138.0Y-106.7
X138.0Y-112.35
X140.0Y-106.7
X140.0Y-112.35
X145.0Y-106.7
X145.0Y-112.35
X147.0Y-106.7
X147.0Y-112.35
X149.0Y-106.7
X149.0Y-112.35
X172.093Y-98.337
X172.093Y-100.337
X172.093Y-102.337
X172.093Y-104.337
T6
X164.7Y-76.34
X164.7Y-78.88
X164.7Y-81.42
X164.7Y-83.96
X164.7Y-86.5
X164.7Y-89.04
T4
G00X105.74Y-96.615
M15
G01X106.44Y-96.615
M16
G05
G00X105.74Y-105.265
M15
G01X106.44Y-105.265
M16
G05
G00X109.74Y-96.615
M15
G01X110.84Y-96.615
M16
G05
G00X109.74Y-105.265
M15
G01X110.84Y-105.265
M16
G05
M30
